<svg xmlns="http://www.w3.org/2000/svg" xmlns:xlink="http://www.w3.org/1999/xlink" width="304" height="91" viewBox="0 0 304 91">
    <defs>
        <path id="5fy71quj8a" d="M0 0H319V118H0z"/>
    </defs>
    <g fill="none" fill-rule="evenodd">
        <g>
            <g>
                <g transform="translate(-253 -817) translate(247 808)">
                    <mask id="6lcyabsarb" fill="#fff">
                        <use xlink:href="#5fy71quj8a"/>
                    </mask>
                    <path fill="#A690B2" d="M268.348 9c16.569 0 30 13.431 30 30v31c0 1.117-.06 2.22-.18 3.305C299.441 83.917 303.385 92.815 310 100c-9.344-.89-16.569-3.43-21.675-7.618C283.02 97.12 276.02 100 268.348 100H36C19.431 100 6 86.569 6 70V39C6 22.431 19.431 9 36 9h232.348z" mask="url(#6lcyabsarb)" transform="matrix(-1 0 0 1 316 0)"/>
                </g>
            </g>
        </g>
    </g>
</svg>
