<svg xmlns="http://www.w3.org/2000/svg" xmlns:xlink="http://www.w3.org/1999/xlink" width="145" height="316" viewBox="0 0 145 316">
    <defs>
        <path id="etxo1rs9ka" d="M0 0H160V323H0z"/>
    </defs>
    <g fill="none" fill-rule="evenodd">
        <g>
            <g transform="translate(-100 -714) translate(87 707)">
                <mask id="svb6gldfob" fill="#fff">
                    <use xlink:href="#etxo1rs9ka"/>
                </mask>
                <g mask="url(#svb6gldfob)">
                    <g transform="translate(-33 10)">
                        <g stroke="#000" stroke-linecap="round" stroke-width="6">
                            <path d="M29.686 15c0-8.284-6.646-15-14.843-15C6.645 0 0 6.716 0 15" transform="translate(89 263) matrix(1 0 0 -1 0 15)"/>
                            <path d="M59 15c0-8.284-6.562-15-14.657-15-8.095 0-14.657 6.716-14.657 15" transform="translate(89 263) rotate(180 44.343 7.5)"/>
                        </g>
                        <g transform="rotate(-26 434.84 99.11)">
                            <ellipse cx="88.012" cy="88.586" stroke="#000" stroke-width="6" rx="68.648" ry="68.563" transform="rotate(-20 88.012 88.586)"/>
                            <ellipse cx="50.986" cy="71.043" fill="#000" rx="4.28" ry="4.273"/>
                            <ellipse cx="124.769" cy="107.113" fill="#000" rx="4.28" ry="4.273"/>
                        </g>
                        <ellipse cx="119" cy="260" fill="#000" rx="6" ry="3"/>
                        <path stroke="#000" stroke-width="5" d="M76.014 180c4.588-81.01 6.882-128.45 6.882-142.315 0-20.8 1.501-38.44-6.896-37.66-8.397.78-6.896 16.86-6.896 37.66 0 13.866 2.303 61.304 6.91 142.315zM161.014 180c4.588-81.01 6.882-128.45 6.882-142.315 0-20.8 1.501-38.44-6.896-37.66-8.397.78-6.896 16.86-6.896 37.66 0 13.866 2.303 61.304 6.91 142.315z"/>
                    </g>
                </g>
            </g>
        </g>
    </g>
</svg>
