<svg xmlns="http://www.w3.org/2000/svg" viewBox="0 0 161.4719 161.4717">
  <defs>
    <style>
      .cls-1 {
        fill: #9cb89a;
      }

      .cls-1, .cls-16 {
        stroke: #263ebf;
        stroke-miterlimit: 10;
        stroke-width: 2px;
      }

      .cls-10, .cls-11, .cls-12, .cls-13, .cls-14, .cls-15, .cls-2, .cls-3, .cls-4, .cls-5, .cls-6, .cls-7, .cls-8, .cls-9 {
        isolation: isolate;
        fill: #263ebf;
        font-family: HelveticaNeueCyr-Black, HelveticaNeueCyr;
      }

      .cls-2 {
        font-size: 8.3422px;
      }

      .cls-3 {
        font-size: 8.3426px;
      }

      .cls-4 {
        font-size: 8.3426px;
      }

      .cls-5 {
        font-size: 8.3424px;
      }

      .cls-6 {
        font-size: 8.3425px;
      }

      .cls-7 {
        font-size: 8.3425px;
      }

      .cls-8 {
        font-size: 8.3426px;
      }

      .cls-9 {
        font-size: 8.3424px;
      }

      .cls-10 {
        font-size: 8.3425px;
      }

      .cls-11 {
        font-size: 8.343px;
      }

      .cls-12 {
        font-size: 8.3423px;
      }

      .cls-13 {
        font-size: 8.3426px;
      }

      .cls-14 {
        font-size: 8.3424px;
      }

      .cls-15 {
        font-size: 8.3429px;
      }

      .cls-16 {
        font-size: 38px;
        fill: #abbe7b;
        font-family: Montserrat-BlackItalic, Montserrat;
        font-style: italic;
      }
    </style>
  </defs>
  <title>Ресурс 16</title>
  <g id="Слой_2" data-name="Слой 2">
    <g id="Слой_2-2" data-name="Слой 2">
      <path class="cls-1" d="M26.4693,21.0291l.8891.8053c6.3525,5.7523,15.9994-1.4232,12.3172-9.1617L39.16,11.5893l.715.9631c5.1082,6.8816,15.97,1.7255,13.8679-6.5826l-.2942-1.1629.5133,1.0841C57.63,13.6363,69.2885,10.6982,68.848,2.14L68.7865.9425l.292,1.1634c2.0862,8.312,14.0936,7.7055,15.3315-.7745L84.5832.1444l.0594,1.198C85.067,9.9018,96.9619,11.6494,99.83,3.5737l.4014-1.13L100.0564,3.63c-1.2536,8.4779,10.0721,12.5125,14.4608,5.1515l.6142-1.03-.4036,1.13c-2.8834,8.07,7.4374,14.2369,13.1774,7.8736l.8035-.8907-.6162,1.0291c-4.4025,7.3526,4.5171,15.4143,11.3886,10.2933l.9617-.7168-.8053.8891c-5.7523,6.3525,1.4232,15.9994,9.1617,12.3172l1.0831-.5154-.9631.715c-6.8816,5.1082-1.7255,15.97,6.5826,13.8679l1.1629-.2942-1.0841.5133c-7.7454,3.6676-4.8073,15.3261,3.7507,14.8856l1.1979-.0616-1.1634.292c-8.3122,2.0864-7.7055,14.0936.7745,15.3313l1.1869.1733-1.1981.0594c-8.5594.4244-10.307,12.32-2.2314,15.1879l1.13.4014-1.1866-.1755c-8.4777-1.2536-12.5123,10.0721-5.1515,14.4608l1.03.6142-1.13-.4036c-8.07-2.8834-14.2369,7.4375-7.8736,13.1774l.8907.8035-1.0291-.6162c-7.3526-4.4025-15.4143,4.5171-10.2933,11.3886l.7168.9617-.8891-.8053c-6.3525-5.7523-15.9994,1.4232-12.3173,9.1617l.5154,1.0831-.715-.9631c-5.1082-6.8816-15.97-1.7255-13.8679,6.5826l.2942,1.1629-.5133-1.0841c-3.6676-7.7454-15.3261-4.8073-14.8856,3.7507l.0616,1.1979-.292-1.1634c-2.0864-8.3122-14.0936-7.7055-15.3313.7745l-.1733,1.1869-.0594-1.1981c-.4244-8.5594-12.32-10.307-15.1879-2.2314l-.4014,1.13.1755-1.1866c1.2536-8.4777-10.0721-12.5123-14.4608-5.1515l-.6142,1.03.4036-1.13c2.8834-8.07-7.4374-14.2369-13.1774-7.8736l-.8035.8907.6162-1.0291c4.4025-7.3526-4.5171-15.4143-11.3886-10.2933l-.9617.7168.8053-.8891c5.7523-6.3525-1.4232-15.9994-9.1617-12.3173l-1.0831.5154.9631-.715c6.8816-5.1082,1.7255-15.97-6.5826-13.8679l-1.1629.2942,1.084-.5124c7.7454-3.6676,4.8073-15.3261-3.7507-14.8856l-1.1979.0616,1.1634-.292C10.4179,90.3079,9.8113,78.3,1.3313,77.0626L.1443,76.89l1.198-.06c8.5594-.4244,10.307-12.32,2.2314-15.1879l-1.13-.4014L3.63,61.416C12.1078,62.67,16.1424,51.3439,8.7815,46.9552l-1.03-.6142,1.13.4036c8.07,2.8834,14.2369-7.4374,7.8736-13.1774l-.8907-.8035,1.0291.6162c7.3526,4.4025,15.4143-4.5171,10.2933-11.3886Z"/>
      <g id="Слой_2-3" data-name="Слой 2">
        <g id="Слой_1-2" data-name="Слой 1-2">
          <text class="cls-2" transform="matrix(0.0625, -0.998, 0.998, 0.0625, 28.8417, 82.0011)">О</text>
          <text class="cls-3" transform="matrix(0.1758, -0.9844, 0.9844, 0.1758, 29.2634, 75.5707)">Т</text>
          <text class="cls-3" transform="translate(30.8941 67.5953) rotate(-70.7733)">1</text>
          <text class="cls-3" transform="translate(32.6754 62.4669) rotate(-64.7092)">5</text>
          <text class="cls-4" transform="translate(36.2994 55.1956) rotate(-55.0544)">Д</text>
          <text class="cls-5" transform="translate(40.0493 49.8292) rotate(-48.032)">Н</text>
          <text class="cls-6" transform="translate(44.1941 45.2292) rotate(-41.4527)">Е</text>
          <text class="cls-7" transform="matrix(0.8201, -0.5722, 0.5722, 0.8201, 48.4555, 41.4356)">Й</text>
          <text class="cls-3" transform="translate(58.2811 35.2891) rotate(-21.8295)">О</text>
          <text class="cls-8" transform="matrix(0.9651, -0.262, 0.262, 0.9651, 64.2962, 32.9006)">Т</text>
          <text class="cls-9" transform="translate(72.2038 30.9662) rotate(-6.1137)">1</text>
          <text class="cls-3" transform="translate(77.6218 30.4196) rotate(-0.9292)">5</text>
          <text class="cls-3" transform="translate(85.72 30.5219) rotate(9.4079)">Д</text>
          <text class="cls-3" transform="translate(92.1554 31.5877) rotate(16.4782)">Н</text>
          <text class="cls-3" transform="translate(98.0931 33.3502) rotate(23.1473)">Е</text>
          <text class="cls-8" transform="translate(103.3616 35.5778) rotate(29.7704)">Й</text>
          <text class="cls-3" transform="matrix(0.7345, 0.6786, -0.6786, 0.7345, 113.0951, 41.811)">О</text>
          <text class="cls-10" transform="translate(117.8512 46.2342) rotate(49.3148)">Т</text>
          <text class="cls-11" transform="translate(123.0028 52.5412) rotate(58.3268)">1</text>
          <text class="cls-3" transform="translate(125.8617 57.1549) rotate(64.3602)">5</text>
          <text class="cls-12" transform="matrix(0.2747, 0.9615, -0.9615, 0.2747, 129.2207, 64.5362)">Д</text>
          <text class="cls-3" transform="translate(131.0107 70.817) rotate(81.1324)">Н</text>
          <text class="cls-3" transform="translate(131.9625 76.9491) rotate(87.7347)">Е</text>
          <text class="cls-13" transform="translate(132.2111 82.6503) rotate(94.215)">Й</text>
          <text class="cls-8" transform="translate(130.7892 94.1313) rotate(107.2779)">О</text>
          <text class="cls-3" transform="matrix(-0.4057, 0.914, -0.914, -0.4057, 128.8369, 100.321)">Т</text>
          <text class="cls-14" transform="matrix(-0.5441, 0.839, -0.839, -0.5441, 125.3625, 107.6565)">1</text>
          <text class="cls-8" transform="matrix(-0.629, 0.7774, -0.7774, -0.629, 122.4115, 112.2178)">5</text>
          <text class="cls-15" transform="matrix(-0.75, 0.6615, -0.6615, -0.75, 117.1556, 118.4444)">Д</text>
          <text class="cls-3" transform="matrix(-0.8253, 0.5648, -0.5648, -0.8253, 112.2446, 122.7754)">Н</text>
          <text class="cls-3" transform="translate(107.1703 126.2466) rotate(152.1843)">Е</text>
          <text class="cls-3" transform="translate(102.1082 128.9401) rotate(158.8312)">Й</text>
        </g>
      </g>
      <text class="cls-16" transform="matrix(0.9433, -0.3319, 0.3319, 0.9433, 53.3595, 92.0706)">СР<tspan x="-2.28" y="24">ОК</tspan></text>
    </g>
  </g>
</svg>
