<svg xmlns="http://www.w3.org/2000/svg" viewBox="0 0 182.1828 245.5346">
  <defs>
    <style>
      .cls-1 {
        fill: #9cb89a;
      }

      .cls-2 {
        font-size: 8.4449px;
        font-family: Montserrat-BlackItalic, Montserrat;
        font-style: italic;
      }

      .cls-2, .cls-3, .cls-4 {
        fill: #263ebf;
      }

      .cls-3, .cls-4 {
        font-size: 8.427px;
        font-weight: 700;
      }

      .cls-3 {
        font-family: HelveticaNeue-Bold, Helvetica Neue;
      }

      .cls-4 {
        font-family: HagridTextTrial-Bold, Hagrid Text Trial;
      }

      .cls-5 {
        fill: #abbe7b;
        stroke: #263ebf;
        stroke-miterlimit: 10;
        stroke-width: 2px;
      }
    </style>
  </defs>
  <title>Ресурс 14</title>
  <g id="Слой_2" data-name="Слой 2">
    <g id="Слой_2-2" data-name="Слой 2">
      <path class="cls-1" d="M124.84,59.1574c0,17.3514.0635,68.5807-6.994,68.5807-9.8377,0-17.0588-48.2918-17.0588-65.6431C100.787,34.0066,114.92.0037,124.8244,0,129.956-.0019,124.84,41.806,124.84,59.1574Z"/>
      <path class="cls-1" d="M163.2847,81.8232c0,31.2715-23.7864,65.4977-30.68,55.8545-3.9548-5.5318,3.027-49.5918,4.9274-69.1181,2.151-22.1012,2.9631-57.3229,14.2284-57.3227C159.6684,11.237,163.2847,62.0729,163.2847,81.8232Z"/>
      <path class="cls-1" d="M29.2672,223.0282c0,4.9529-2.3809,13.7116-10.1034,15.1779C8.603,240.2112,2.31,233.8745.9356,226.7761c-.9418-4.8625-4.3238-16.7657,12.0262-20.518C20.1482,204.6088,29.2672,213.9747,29.2672,223.0282Z"/>
      <ellipse class="cls-1" cx="84.2689" cy="186.4883" rx="62.5801" ry="54.0294" transform="translate(-111.6987 127.5321) rotate(-48.9394)"/>
      <text class="cls-2" transform="translate(59.9913 205.6446) rotate(-117.2384)">С</text>
      <text class="cls-2" transform="matrix(-0.2448, -0.9696, 0.9696, -0.2448, 57.2291, 200.2462)">Т</text>
      <text class="cls-2" transform="translate(55.8096 195.0274) rotate(-91.5263)">О</text>
      <text class="cls-2" transform="matrix(0.193, -0.9812, 0.9812, 0.193, 55.6187, 188.2022)">И</text>
      <text class="cls-2" transform="translate(56.8106 181.6817) rotate(-66.3267)">М</text>
      <text class="cls-2" transform="matrix(0.5841, -0.8117, 0.8117, 0.5841, 60.003, 174.4835)">О</text>
      <text class="cls-2" transform="translate(64.024 168.9171) rotate(-44.0051)">С</text>
      <text class="cls-2" transform="matrix(0.8238, -0.5668, 0.5668, 0.8238, 68.4434, 164.6583)">Т</text>
      <text class="cls-2" transform="translate(72.9092 161.5304) rotate(-24.8414)">Ь</text>
      <text class="cls-2" transform="translate(78.4078 159.1007) rotate(-17.389)"> </text>
      <text class="cls-2" transform="matrix(0.9748, -0.2231, 0.2231, 0.9748, 80.7227, 158.3712)"> </text>
      <text class="cls-2" transform="translate(82.9918 157.6934) rotate(-4.6367)">С</text>
      <text class="cls-2" transform="translate(89.0386 157.1993) rotate(7.3975)">Т</text>
      <text class="cls-2" transform="translate(94.3975 157.7598) rotate(21.3456)">О</text>
      <text class="cls-2" transform="matrix(0.7923, 0.6101, -0.6101, 0.7923, 100.7222, 160.1925)">И</text>
      <text class="cls-2" transform="matrix(0.5734, 0.8192, -0.8192, 0.5734, 106.0108, 164.0763)">М</text>
      <text class="cls-2" transform="matrix(0.3087, 0.9512, -0.9512, 0.3087, 110.4341, 170.463)">О</text>
      <text class="cls-2" transform="translate(112.5088 176.9239) rotate(85.6357)">С</text>
      <text class="cls-2" transform="translate(112.9571 182.9981) rotate(96.7834)">Т</text>
      <text class="cls-2" transform="translate(112.3477 188.4356) rotate(107.0472)">Ь</text>
      <text class="cls-3" transform="translate(122.3926 167.6388) rotate(74.4005)">о</text>
      <text class="cls-3" transform="matrix(0.1552, 0.9879, -0.9879, 0.1552, 123.6797, 172.2882)">т</text>
      <text class="cls-4" transform="matrix(0.0829, 0.9966, -0.9966, 0.0829, 124.2628, 176.1944)"> </text>
      <text class="cls-3" transform="translate(124.4688 177.9415) rotate(89.62)">6</text>
      <text class="cls-3" transform="translate(124.5113 182.3292) rotate(95.5905)">0</text>
      <text class="cls-3" transform="matrix(-0.1708, 0.9853, -0.9853, -0.1708, 124.0479, 186.711)"> </text>
      <text class="cls-3" transform="translate(123.7447 188.7657) rotate(103.9804)">0</text>
      <text class="cls-3" transform="translate(122.6983 193.0245) rotate(109.4219)">0</text>
      <text class="cls-3" transform="translate(121.2462 197.1788) rotate(114.7347)">0</text>
      <text class="cls-3" transform="matrix(-0.4783, 0.8782, -0.8782, -0.4783, 119.3697, 201.1798)"> </text>
      <text class="cls-3" transform="matrix(-0.5157, 0.8568, -0.8568, -0.5157, 118.3633, 203.0372)"> </text>
      <text class="cls-3" transform="translate(117.3487 204.836) rotate(125.0334)">о</text>
      <text class="cls-3" transform="translate(114.5425 208.8233) rotate(130.022)">т</text>
      <text class="cls-4" transform="matrix(-0.6852, 0.7283, -0.7283, -0.6852, 111.9556, 211.8663)"> </text>
      <text class="cls-3" transform="matrix(-0.7282, 0.6853, -0.6853, -0.7282, 110.7945, 213.172)">6</text>
      <text class="cls-3" transform="translate(107.5879 216.2081) rotate(141.8242)">0</text>
      <text class="cls-3" transform="translate(104.1065 218.9054) rotate(145.6205)"> </text>
      <text class="cls-3" transform="translate(102.4122 220.1251) rotate(149.5094)">0</text>
      <text class="cls-3" transform="translate(98.627 222.3712) rotate(154.8754)">0</text>
      <text class="cls-3" transform="translate(94.6622 224.2471) rotate(160.3862)">0</text>
      <text class="cls-3" transform="translate(90.4839 225.7003) rotate(164.6027)"> </text>
      <text class="cls-3" transform="translate(88.4561 226.2647) rotate(167.3974)"> </text>
      <text class="cls-3" transform="matrix(-0.9906, 0.1371, -0.1371, -0.9906, 86.4571, 226.7843)">о</text>
      <text class="cls-3" transform="translate(81.689 227.4395) rotate(178.3139)">т</text>
      <text class="cls-4" transform="translate(77.7178 227.5255) rotate(-177.4338)"> </text>
      <text class="cls-3" transform="matrix(-0.992, -0.1263, 0.1263, -0.992, 75.9918, 227.5157)">6</text>
      <text class="cls-3" transform="translate(71.6651 226.9874) rotate(-165.7644)">0</text>
      <text class="cls-3" transform="translate(67.4161 225.8673) rotate(-160.3924)"> </text>
      <text class="cls-3" transform="translate(65.4537 225.2432) rotate(-154.8762)">0</text>
      <text class="cls-3" transform="translate(61.5113 223.42) rotate(-147.3173)">0</text>
      <text class="cls-3" transform="translate(57.8677 221.0987) rotate(-140.0145)">0</text>
      <text class="cls-3" transform="matrix(-0.6974, -0.7167, 0.7167, -0.6974, 54.5513, 218.252)"> </text>
      <text class="cls-3" transform="matrix(-0.6503, -0.7597, 0.7597, -0.6503, 53.0904, 216.7638)"> </text>
      <text class="cls-3" transform="translate(51.6841 215.2569) rotate(-124.5295)">о</text>
      <text class="cls-3" transform="translate(48.9683 211.294) rotate(-117.0896)">т</text>
      <text class="cls-4" transform="translate(47.2027 207.7657) rotate(-112.3562)"> </text>
      <text class="cls-3" transform="translate(46.481 206.1934) rotate(-107.4145)">6</text>
      <text class="cls-3" transform="matrix(-0.1852, -0.9827, 0.9827, -0.1852, 45.1612, 202.045)">0</text>
      <text class="cls-3" transform="translate(44.3843 197.7169) rotate(-95.885)"> </text>
      <text class="cls-3" transform="translate(44.1158 195.6729) rotate(-91.2724)">0</text>
      <text class="cls-3" transform="matrix(0.0823, -0.9966, 0.9966, 0.0823, 44.004, 191.296)">0</text>
      <text class="cls-3" transform="matrix(0.1819, -0.9833, 0.9833, 0.1819, 44.3516, 186.9229)">0</text>
      <text class="cls-3" transform="translate(45.189 182.5802) rotate(-75.3811)"> </text>
      <text class="cls-3" transform="translate(45.7154 180.5411) rotate(-72.7563)"> </text>
      <text class="cls-3" transform="translate(46.2754 178.5304) rotate(-68.4891)">о</text>
      <text class="cls-3" transform="translate(48.0587 174.0264) rotate(-63.2447)">т</text>
      <text class="cls-4" transform="translate(49.8775 170.4776) rotate(-59.8587)"> </text>
      <text class="cls-3" transform="matrix(0.5549, -0.8319, 0.8319, 0.5549, 50.712, 168.9405)">6</text>
      <text class="cls-3" transform="translate(53.1485 165.2657) rotate(-51.2909)">0</text>
      <text class="cls-3" transform="translate(55.9415 161.8292) rotate(-47.6469)"> </text>
      <text class="cls-3" transform="translate(57.3165 160.252) rotate(-43.968)">0</text>
      <text class="cls-3" transform="translate(60.4688 157.1915) rotate(-38.9208)">0</text>
      <text class="cls-3" transform="translate(63.8887 154.4141) rotate(-33.7541)">0</text>
      <text class="cls-3" transform="translate(67.5796 151.9835) rotate(-29.8632)"> </text>
      <path class="cls-5" d="M169.1081,160.68l-7.4763,1.3325a12.0339,12.0339,0,0,0-9.4742,8.5935l-2.0533,7.3113-1.3325-7.4763a12.0339,12.0339,0,0,0-8.5935-9.4742l-7.3113-2.0533,7.4763-1.3325a12.0339,12.0339,0,0,0,9.4742-8.5935l2.0533-7.3113,1.3325,7.4763a12.0339,12.0339,0,0,0,8.5935,9.4742Z"/>
      <path class="cls-5" d="M177.76,138.5768l-3.4475,1.4019a5.8975,5.8975,0,0,0-3.664,5.0861l-.2379,3.7141-1.4019-3.4475a5.8975,5.8975,0,0,0-5.0861-3.664l-3.7141-.2379,3.4475-1.4019a5.8975,5.8975,0,0,0,3.664-5.0861l.2379-3.7141,1.4019,3.4475a5.8975,5.8975,0,0,0,5.0861,3.664Z"/>
    </g>
  </g>
</svg>
