<svg xmlns="http://www.w3.org/2000/svg" viewBox="0 0 188.3138 144.8568">
  <defs>
    <style>
      .cls-1 {
        fill: #b88903;
      }

      .cls-2 {
        font-size: 17px;
      }

      .cls-2, .cls-3, .cls-4, .cls-5 {
        fill: #dbd5c9;
      }

      .cls-2, .cls-4 {
        font-family: HagridTextTrial-Bold, Hagrid Text Trial;
      }

      .cls-2, .cls-3, .cls-4 {
        font-weight: 700;
      }

      .cls-3, .cls-4 {
        font-size: 12px;
      }

      .cls-3 {
        font-family: HelveticaNeue-Bold, Helvetica Neue;
      }

      .cls-6 {
        fill: none;
        stroke: #b88903;
        stroke-linecap: round;
        stroke-width: 1.2649px;
      }
    </style>
  </defs>
  <title>Ресурс 19</title>
  <g id="Слой_2" data-name="Слой 2">
    <g id="Слой_1-2" data-name="Слой 1">
      <polygon class="cls-1" points="94.157 0 111.46 5.513 130.189 5.513 143.433 15.701 160.736 21.214 167.903 34.524 181.147 44.711 181.147 59.118 188.314 72.428 181.147 85.739 181.147 100.146 167.903 110.333 160.736 123.643 143.433 129.156 130.189 139.343 111.46 139.343 94.157 144.857 76.854 139.343 58.125 139.343 44.881 129.156 27.578 123.643 20.411 110.333 7.167 100.146 7.167 85.739 0 72.428 7.167 59.118 7.167 44.711 20.411 34.524 27.578 21.214 44.881 15.701 58.125 5.513 76.854 5.513 94.157 0"/>
      <text class="cls-2" transform="translate(44.6424 51.2837) rotate(-34.9976)">С</text>
      <text class="cls-2" transform="matrix(0.9009, -0.434, 0.434, 0.9009, 54.68, 44.3331)">Т</text>
      <text class="cls-2" transform="matrix(0.9535, -0.3015, 0.3015, 0.9535, 62.8695, 40.1983)">О</text>
      <text class="cls-2" transform="translate(74.7049 36.375) rotate(-8.4986)">И</text>
      <text class="cls-2" transform="matrix(0.9998, 0.0222, -0.0222, 0.9998, 87.6561, 34.2413)">М</text>
      <text class="cls-2" transform="translate(103.9945 34.6905) rotate(10.944)">О</text>
      <text class="cls-2" transform="translate(116.2147 36.9859) rotate(19.8526)">С</text>
      <text class="cls-2" transform="matrix(0.8791, 0.4767, -0.4767, 0.8791, 127.7371, 41.1807)">Т</text>
      <text class="cls-2" transform="matrix(0.7871, 0.6168, -0.6168, 0.7871, 136.1453, 45.5103)">Ь</text>
      <text class="cls-3" transform="translate(30.4302 66.3157) rotate(102.8368)">о</text>
      <text class="cls-3" transform="matrix(-0.0273, 0.9996, -0.9996, -0.0273, 28.7526, 74.3474)">т</text>
      <text class="cls-4" transform="matrix(0.1017, 0.9948, -0.9948, 0.1017, 28.7078, 80.864)"> </text>
      <text class="cls-3" transform="translate(28.9652 84.288) rotate(76.2307)">1</text>
      <text class="cls-3" transform="translate(30.8384 91.5648) rotate(65.5055)">5</text>
      <text class="cls-3" transform="translate(33.9619 98.2498) rotate(55.8737)">0</text>
      <text class="cls-3" transform="translate(38.0218 104.0276) rotate(49.4708)"> </text>
      <text class="cls-3" transform="translate(40.358 106.8596) rotate(43.6567)">0</text>
      <text class="cls-3" transform="translate(45.5488 111.7607) rotate(36.5804)">0</text>
      <text class="cls-3" transform="matrix(0.8639, 0.5037, -0.5037, 0.8639, 51.2194, 115.9366)">0</text>
      <text class="cls-3" transform="translate(57.1749 119.3268) rotate(25.9096)"> </text>
      <text class="cls-3" transform="translate(60.1971 120.7936) rotate(23.2218)"> </text>
      <text class="cls-3" transform="translate(63.4131 122.2448) rotate(18.9764)">о</text>
      <text class="cls-3" transform="translate(70.6128 124.6745) rotate(13.8889)">т</text>
      <text class="cls-4" transform="translate(76.5171 126.0879) rotate(10.7096)"> </text>
      <text class="cls-3" transform="matrix(0.9918, 0.1279, -0.1279, 0.9918, 79.4419, 126.6935)">1</text>
      <text class="cls-3" transform="translate(86.2744 127.5642) rotate(2.7235)">5</text>
      <text class="cls-3" transform="translate(93.0977 127.8823) rotate(-1.7515)">0</text>
      <text class="cls-3" transform="translate(99.8607 127.6235) rotate(-5.1256)"> </text>
      <text class="cls-3" transform="translate(103.2964 127.3637) rotate(-8.5786)">0</text>
      <text class="cls-3" transform="translate(110.0983 126.3302) rotate(-13.358)">0</text>
      <text class="cls-3" transform="translate(116.8326 124.7221) rotate(-18.366)">0</text>
      <text class="cls-3" transform="translate(123.275 122.5198) rotate(-22.2489)"> </text>
      <text class="cls-3" transform="matrix(0.9071, -0.4208, 0.4208, 0.9071, 126.393, 121.2446)"> </text>
      <text class="cls-3" transform="matrix(0.8711, -0.4911, 0.4911, 0.8711, 129.6334, 119.8215)">о</text>
      <text class="cls-3" transform="matrix(0.8132, -0.582, 0.582, 0.8132, 136.308, 116.0023)">т</text>
      <text class="cls-4" transform="translate(141.3302 112.3267) rotate(-39.9959)"> </text>
      <text class="cls-3" transform="translate(143.7913 110.3609) rotate(-45.1165)">1</text>
      <text class="cls-3" transform="matrix(0.5992, -0.8006, 0.8006, 0.5992, 148.871, 105.219)">5</text>
      <text class="cls-3" transform="translate(153.2386 99.3113) rotate(-62.3739)">0</text>
      <text class="cls-3" transform="translate(156.4337 92.9099) rotate(-69.8918)"> </text>
      <text class="cls-3" transform="matrix(0.2083, -0.9781, 0.9781, 0.2083, 157.855, 89.2605)">0</text>
      <text class="cls-3" transform="matrix(0.0142, -0.9999, 0.9999, 0.0142, 159.34, 81.8825)">0</text>
      <text class="cls-3" transform="translate(159.3546 74.2851) rotate(-100.5621)">0</text>
      <g>
        <g>
          <ellipse class="cls-5" cx="94.3358" cy="91.8784" rx="14.0425" ry="14.0139" transform="translate(-37.2872 95.9138) rotate(-46)"/>
          <path class="cls-6" d="M94.3742,96.1647a3.0587,3.0587,0,1,1-6.1174,0"/>
          <path class="cls-6" d="M94.3742,96.1647a3.0209,3.0209,0,1,0,6.0409,0"/>
        </g>
        <ellipse class="cls-1" cx="94.336" cy="95.5798" rx="1.245" ry="0.585"/>
        <circle class="cls-1" cx="102.5029" cy="91.9851" r="1.1661" transform="translate(-29.9497 54.2437) rotate(-26)"/>
        <path class="cls-5" d="M85.24,78.63a.3835.3835,0,1,0,.7638,0q1.059-21.7852,1.059-26.0132c0-4.93.3142-9.1125-1.4431-8.9274s-1.4431,3.9969-1.4431,8.9274Q84.1771,56.8449,85.24,78.63Zm17.4317,0a.3835.3835,0,1,0,.7638,0q1.059-21.7852,1.059-26.0132c0-4.93.3142-9.1125-1.4431-8.9274s-1.4431,3.9969-1.4431,8.9274Q101.6088,56.8449,102.6721,78.63Z"/>
      </g>
      <circle class="cls-1" cx="86.2894" cy="91.9851" r="1.1661" transform="translate(-31.5906 47.1362) rotate(-26)"/>
    </g>
  </g>
</svg>
