<svg xmlns="http://www.w3.org/2000/svg" viewBox="0 0 195.988 178.6169">
  <defs>
    <style>
      .cls-1 {
        fill: #ca6d2d;
      }

      .cls-2, .cls-4 {
        fill: #dbd5c9;
      }

      .cls-3 {
        fill: #c51400;
        stroke: #c51400;
      }

      .cls-3, .cls-4 {
        stroke-miterlimit: 10;
      }

      .cls-4 {
        font-size: 33.2121px;
        stroke: #e23800;
        stroke-width: 2px;
        font-family: HelveticaNeue-Bold, Helvetica Neue;
        font-weight: 700;
      }
    </style>
  </defs>
  <title>Ресурс 20</title>
  <g id="Слой_2" data-name="Слой 2">
    <g id="Слой_1-2" data-name="Слой 1">
      <ellipse class="cls-1" cx="97.994" cy="89.3085" rx="97.994" ry="89.3085"/>
      <g id="Слой_2-2" data-name="Слой 2">
        <g id="Слой_1-2-2" data-name="Слой 1-2">
          <g>
            <path class="cls-2" d="M104.6769,155.1633a5.006,5.006,0,0,1,1.91.171,4.0524,4.0524,0,0,1,2.504,2.1048,4.79,4.79,0,0,1,.4789,1.684,4.9147,4.9147,0,0,1-.1274,1.7657,4.0622,4.0622,0,0,1-.7313,1.4871,3.9475,3.9475,0,0,1-1.2992,1.0615,5.3269,5.3269,0,0,1-3.7465.3276,4.0908,4.0908,0,0,1-1.4965-.8176,4.2072,4.2072,0,0,1-1.0183-1.3334,4.9672,4.9672,0,0,1-.4814-1.7128,4.7273,4.7273,0,0,1,.13-1.7368,3.8781,3.8781,0,0,1,2.0412-2.5024A4.9566,4.9566,0,0,1,104.6769,155.1633Zm.157,1.54a2.46,2.46,0,0,0-1.1167.341,2.0869,2.0869,0,0,0-.6955.7071,2.6478,2.6478,0,0,0-.3333.9357,3.9859,3.9859,0,0,0-.0286,1.04,4.3186,4.3186,0,0,0,.242,1.0577,2.7932,2.7932,0,0,0,.5188.8853,2.1676,2.1676,0,0,0,.8266.5793,2.8285,2.8285,0,0,0,2.2818-.2,2.063,2.063,0,0,0,.695-.7128,2.7046,2.7046,0,0,0,.3311-.96,4.2729,4.2729,0,0,0,.0239-1.0807,4.0033,4.0033,0,0,0-.2378-1.0164,2.7317,2.7317,0,0,0-.5161-.8627,2.1767,2.1767,0,0,0-.826-.5735A2.4963,2.4963,0,0,0,104.8339,156.7032Z"/>
            <path class="cls-2" d="M96.9217,162.5113l2.7243.0673-.0446,1.5572-7.4479-.1825.0451-1.5582,2.7243.0673.1964-6.8676,1.9988.0492Z"/>
            <path class="cls-2" d="M84.6072,159.4632a2.1333,2.1333,0,0,0-.6338.0327,1.2252,1.2252,0,0,0-.5255.2421.8607.8607,0,0,0-.29.5283.9294.9294,0,0,0,.2208.8636,1.3938,1.3938,0,0,0,.8111.423,1.3058,1.3058,0,0,0,1.1012-.2421,1.5822,1.5822,0,0,0,.5337-.9847l1.6925.2814a3.38,3.38,0,0,1-.4664,1.1038,2.7494,2.7494,0,0,1-.7861.787,2.9015,2.9015,0,0,1-1.0577.4179,3.6255,3.6255,0,0,1-1.2681-.001,3.9313,3.9313,0,0,1-1.0245-.3209,3.0449,3.0449,0,0,1-.8623-.5927,2.3833,2.3833,0,0,1-.5462-.8223,1.7805,1.7805,0,0,1-.0762-1.0087,1.8952,1.8952,0,0,1,.5094-.9942,1.6178,1.6178,0,0,1,1.04-.463l.0047-.023a1.8964,1.8964,0,0,1-1.0147-.8406,1.8118,1.8118,0,0,1-.1824-1.2651,2.5177,2.5177,0,0,1,1.3728-1.8108,3.4171,3.4171,0,0,1,1.14-.3381,4.5931,4.5931,0,0,1,2.5715.4515,2.8248,2.8248,0,0,1,.9234.7476,2.4889,2.4889,0,0,1,.4794,1.0337A3.0654,3.0654,0,0,1,88.25,157.96l-1.692-.2814a2.1983,2.1983,0,0,0,.0072-.6408,1.4752,1.4752,0,0,0-.1891-.5591,1.3225,1.3225,0,0,0-.4033-.4207,1.6118,1.6118,0,0,0-.6457-.2392,1.5911,1.5911,0,0,0-1.0825.1739,1.3536,1.3536,0,0,0-.5373,1.6072,1.0836,1.0836,0,0,0,.4265.4371,2.2294,2.2294,0,0,0,.6333.2373c.2358.051.4627.0951.68.1306l-.2249,1.1623A4.0794,4.0794,0,0,0,84.6072,159.4632Z"/>
            <path class="cls-2" d="M79.895,159.8974a3.76,3.76,0,0,1-1.0676,1.0884,2.6681,2.6681,0,0,1-1.2069.4189,3.7944,3.7944,0,0,1-2.4257-.6378,2.4307,2.4307,0,0,1-.796-.9452,3.3681,3.3681,0,0,1-.2984-1.4467,6.7517,6.7517,0,0,1,.3446-2.0136,7.2243,7.2243,0,0,1,.8607-1.9271,3.7073,3.7073,0,0,1,1.0773-1.098,2.7149,2.7149,0,0,1,1.2132-.4169,3.7271,3.7271,0,0,1,1.2815.1163,3.5478,3.5478,0,0,1,1.1442.5214,2.3764,2.3764,0,0,1,.79.9434,3.4128,3.4128,0,0,1,.2892,1.4559,7.0443,7.0443,0,0,1-.3586,2.06A6.9661,6.9661,0,0,1,79.895,159.8974Zm-.6654-3.1682a4.27,4.27,0,0,0,.1316-.9712,1.9431,1.9431,0,0,0-.1756-.8755,1.0129,1.0129,0,0,0-.7111-.53,1.1338,1.1338,0,0,0-.9245.1008,2.0983,2.0983,0,0,0-.6509.6571,4.445,4.445,0,0,0-.4379.8906q-.1726.4769-.2767.8176-.0622.2031-.1451.4957a5.4825,5.4825,0,0,0-.1332.609,5.3767,5.3767,0,0,0-.0637.6394,1.8011,1.8011,0,0,0,.0736.6023,1.2423,1.2423,0,0,0,.2866.4919,1.1435,1.1435,0,0,0,.555.3054,1.1694,1.1694,0,0,0,.6394.0087,1.3469,1.3469,0,0,0,.5094-.2834,2.2036,2.2036,0,0,0,.4043-.4765,4.2142,4.2142,0,0,0,.3083-.5755q.1305-.2969.2254-.585c.0637-.1921.1156-.3554.157-.4919q.1049-.3406.2282-.8291Z"/>
            <path class="cls-2" d="M71.5884,152.7146l-.69-.3036a5.1347,5.1347,0,0,0-1.0779.7156,6.72,6.72,0,0,0-.9292.99,11.5706,11.5706,0,0,0-.8491,1.2728q-.4113.7075-.8426,1.55l-.6063,1.1845-5.96-2.6206,3.1767-6.2077-.8976-.3949,1.61-3.1461,1.6344.7181-.89,1.7388,5.4082,2.3776.89-1.7388,1.6344.7181Zm-5.972-2.6254L63.1435,154.92l2.4284,1.0682.071-.1393q.398-.7781.7768-1.4217a13.5258,13.5258,0,0,1,.7685-1.1706,7.629,7.629,0,0,1,.8219-.9452,6.5561,6.5561,0,0,1,.9432-.7551Z"/>
            <path class="cls-2" d="M58.0561,154.1681l-1.6759-1.01,1.9019-2.7119-3.0855-1.86-1.9024,2.7119-1.6769-1.0106,4.9564-7.0656,1.6769,1.01-2.138,3.048,3.0855,1.86,2.1387-3.0481,1.6759,1.0106Z"/>
            <path class="cls-2" d="M49.5262,148.8106l-5.2081-4.0539,1.0811-1.1931,3.6768,2.8619,1.2531-1.3824-3.3741-2.6274.9991-1.1017,3.375,2.6265,1.4328-1.5822-3.7545-2.9223,1.0811-1.1931,5.2854,4.1144Z"/>
            <path class="cls-2" d="M39.3462,141.0859q1.6759,1.6672.2415,2.9069l-1.0074-1.002a.9233.9233,0,0,0,.3184-.5658.8481.8481,0,0,0-.3259-.67,1.0225,1.0225,0,0,0-.7027-.3612.9164.9164,0,0,0-.6276.2681l-1.0074-1.002Q37.67,139.42,39.3462,141.0859Zm3.2866,2.2123-1.3635-1.3564,4.6111-3.984-.0259-.026-6.9737,1.636-1.5283-1.52,6.6514-5.7476,1.3635,1.3554-4.62,3.9925.0259.026,6.9825-1.6437,1.5283,1.52Z"/>
            <path class="cls-2" d="M37.1892,122.7136a4.0989,4.0989,0,0,1,.62,1.684,3.48,3.48,0,0,1-.1726,1.587,4.0312,4.0312,0,0,1-.8634,1.3958,5.4281,5.4281,0,0,1-1.4572,1.098,5.9626,5.9626,0,0,1-1.7882.6206,4.8726,4.8726,0,0,1-1.763-.0038,4.19,4.19,0,0,1-1.58-.6591,4.55,4.55,0,0,1-1.8672-3.0289,3.4634,3.4634,0,0,1,.1866-1.6,4.1262,4.1262,0,0,1,.8909-1.41A5.6333,5.6333,0,0,1,30.88,121.284a5.7514,5.7514,0,0,1,1.76-.6062,4.7592,4.7592,0,0,1,1.7356.0183,4.1945,4.1945,0,0,1,1.5661.6725A4.4486,4.4486,0,0,1,37.1892,122.7136Zm-1.4484.7673a2.2383,2.2383,0,0,0-.796-.8021,2.3136,2.3136,0,0,0-.982-.2959,3.2527,3.2527,0,0,0-1.0577.1047,4.8356,4.8356,0,0,0-1.0338.4054,4.9911,4.9911,0,0,0-.94.6394,2.894,2.894,0,0,0-.6566.8031,1.8945,1.8945,0,0,0-.229.9376,2.42,2.42,0,0,0,1.1375,1.8444,2.2813,2.2813,0,0,0,.9878.293,3.2849,3.2849,0,0,0,1.0795-.1163,5.1953,5.1953,0,0,0,1.0729-.4249,4.6034,4.6034,0,0,0,.9012-.6206,2.8134,2.8134,0,0,0,.6338-.7906,1.9051,1.9051,0,0,0,.2238-.9345,2.0507,2.0507,0,0,0-.3415-1.0424Z"/>
            <path class="cls-2" d="M26.7643,119.1717l1.052,2.33-1.551.6013-2.8755-6.37,1.55-.6013,1.0521,2.33L32.83,114.81l.7721,1.71Z"/>
            <path class="cls-2" d="M24.7209,107.5123a1.7529,1.7529,0,0,0-.2912-.5225,1.16,1.16,0,0,0-.4539-.3459,1.0156,1.0156,0,0,0-.638-.03,1.0526,1.0526,0,0,0-.76.541,1.1831,1.1831,0,0,0-.0849.8588,1.1575,1.1575,0,0,0,.6892.8319,1.8744,1.8744,0,0,0,1.1877.0492l.4151,1.5462a4.0819,4.0819,0,0,1-1.2774.0567,3.0244,3.0244,0,0,1-1.096-.3429,2.71,2.71,0,0,1-.8436-.7243,2.9909,2.9909,0,0,1-.5172-1.073,3.2113,3.2113,0,0,1-.1037-.9974,2.6546,2.6546,0,0,1,.2317-.9722,2.3963,2.3963,0,0,1,.5861-.7983,2.1182,2.1182,0,0,1,.9613-.4765,2.2741,2.2741,0,0,1,1.1877.024,1.541,1.541,0,0,1,.8809.6916l.0248-.0058a1.7147,1.7147,0,0,1,.4125-1.2028,2.1186,2.1186,0,0,1,1.1717-.67,2.8645,2.8645,0,0,1,2.3439.4207,3.0893,3.0893,0,0,1,.7985.8252,3.7608,3.7608,0,0,1,.6069,2.36,2.5177,2.5177,0,0,1-.3586,1.0855,2.6666,2.6666,0,0,1-.8214.8281,3.7314,3.7314,0,0,1-1.281.5082l-.4146-1.5467a2.6747,2.6747,0,0,0,.6338-.2558,1.6391,1.6391,0,0,0,.4731-.3891,1.25,1.25,0,0,0,.2493-.513,1.322,1.322,0,0,0-.0285-.6446,1.3681,1.3681,0,0,0-1.71-.992,1.3323,1.3323,0,0,0-.7063.3506,1.0123,1.0123,0,0,0-.2555.54,1.8078,1.8078,0,0,0,.0248.6321q.0692.3314.1492.63l-1.236.2844A3.3075,3.3075,0,0,0,24.7209,107.5123Z"/>
            <path class="cls-2" d="M22.3724,103.7273a4.1573,4.1573,0,0,1-1.5071-.4582,2.436,2.436,0,0,1-.9064-.8492,3.0324,3.0324,0,0,1-.4089-1.1192,2.997,2.997,0,0,1,.043-1.1931,2.3466,2.3466,0,0,1,.605-1.0605A3.8841,3.8841,0,0,1,21.5,98.2026a8.301,8.301,0,0,1,2.1226-.5332,8.8161,8.8161,0,0,1,2.25-.06,4.0923,4.0923,0,0,1,1.521.4623,2.4938,2.4938,0,0,1,.9069.8549,3.11,3.11,0,0,1,.3653,2.3133,2.2939,2.2939,0,0,1-.6058,1.0538,3.9358,3.9358,0,0,1-1.3153.8406,8.65,8.65,0,0,1-2.1734.54A8.4238,8.4238,0,0,1,22.3724,103.7273Zm2.8471-1.86a5.2731,5.2731,0,0,0,1.01-.2863,2.2631,2.2631,0,0,0,.7893-.5062.9033.9033,0,0,0,.2312-.8194.9727.9727,0,0,0-.4776-.74,2.2927,2.2927,0,0,0-.9127-.2824,5.3814,5.3814,0,0,0-1.0561-.0058q-.5395.0492-.9177.1008-.2262.03-.5472.08a6.6333,6.6333,0,0,0-1.31.3449,2.136,2.136,0,0,0-.5625.3094,1.2727,1.2727,0,0,0-.3674.4438,1.0869,1.0869,0,0,0,.18,1.1383,1.3371,1.3371,0,0,0,.4871.3161,2.5083,2.5083,0,0,0,.6348.146,5.22,5.22,0,0,0,.6923.026q.3459-.0115.668-.0492t.5493-.0689Q24.6868,101.964,25.22,101.8675Z"/>
            <path class="cls-2" d="M26.0419,93.7346l.0145-.7083A5.2142,5.2142,0,0,0,24.91,92.41a7.6176,7.6176,0,0,0-1.3552-.3785,13.6055,13.6055,0,0,0-1.6013-.1931q-.8644-.0562-1.8708-.074l-1.4138-.0246.1254-6.1135,7.4111.1306.0187-.9212,3.7571.0663-.0347,1.6762-2.0759-.0365-.1136,5.5468,2.0755.0365-.0342,1.6763Zm.1259-6.1249-5.7687-.102-.0509,2.49.1659.0029q.93.0158,1.718.072.7382.049,1.4681.1672a8.5437,8.5437,0,0,1,1.2675.3054,6.9876,6.9876,0,0,1,1.13.4861Z"/>
            <path class="cls-2" d="M19.0382,82.9244l.3016-1.832,3.4493.487.5545-3.3728-3.4493-.487.3011-1.832,8.9894,1.27-.3011,1.832-3.8778-.5475-.5545,3.3718,3.8778.5485-.3016,1.832Z"/>
            <path class="cls-2" d="M20.7887,73.5053l1.8428-6.0685,1.6179.423-1.3008,4.2832,1.8755.489,1.194-3.931,1.4956.39-1.194,3.932,2.1455.5589,1.3288-4.3748,1.6184.423-1.8708,6.1587Z"/>
            <path class="cls-2" d="M24.2048,61.72q-.953,2.1-2.7606,1.3958l.5722-1.2623a1.0952,1.0952,0,0,0,.6876.0375.901.901,0,0,0,.526-.5509.75.75,0,0,0-.4534-1.1628l.5722-1.2623Q25.1568,59.6194,24.2048,61.72Zm-.8287,3.6851.7748-1.7085L29.9628,65.96l.0151-.0327-4.47-5.2235.8681-1.9156,8.3832,3.2659-.7748,1.7085-5.8233-2.2688-.0151.0327,4.4816,5.2288L31.7594,68.67Z"/>
            <path class="cls-2" d="M41.4145,52.3657a4.5248,4.5248,0,0,1-1.4039,1.2133,4.2627,4.2627,0,0,1-1.6335.5029,4.7573,4.7573,0,0,1-1.7268-.1595,5.6758,5.6758,0,0,1-1.6775-.7829,5.5138,5.5138,0,0,1-1.3426-1.258,4.0565,4.0565,0,0,1-.7167-1.4929,3.4735,3.4735,0,0,1,.0021-1.6057,4.6562,4.6562,0,0,1,2.2182-2.818,4.2387,4.2387,0,0,1,1.652-.4972,4.8669,4.8669,0,0,1,1.7527.1763,5.9,5.9,0,0,1,1.7034.8007,5.3,5.3,0,0,1,1.3168,1.2411,3.9494,3.9494,0,0,1,.6913,1.4756,3.4617,3.4617,0,0,1-.0218,1.6A4.183,4.183,0,0,1,41.4145,52.3657Zm-1.3479-.9112a2.0807,2.0807,0,0,0,.4643-1.001,1.8878,1.8878,0,0,0-.11-.9515,2.7522,2.7522,0,0,0-.5359-.8516,4.5182,4.5182,0,0,0-.8214-.709,5.1124,5.1124,0,0,0-1.0152-.5327,3.2759,3.2759,0,0,0-1.0592-.2263,2.3218,2.3218,0,0,0-1.0162.19,2.477,2.477,0,0,0-1.351,1.7167,1.8719,1.8719,0,0,0,.1161.9549,2.8022,2.8022,0,0,0,.556.8657,4.86,4.86,0,0,0,.8577.7335,4.7593,4.7593,0,0,0,.979.5082,3.2142,3.2142,0,0,0,1.039.2128,2.3328,2.3328,0,0,0,1.011-.1931,2.2964,2.2964,0,0,0,.8859-.7162Z"/>
            <path class="cls-2" d="M40.6236,42.1074l-1.8614,1.8454L37.534,42.8885l5.0891-5.0444,1.2276,1.0639-1.8614,1.8454,5.4144,4.6923-1.366,1.3536Z"/>
            <path class="cls-2" d="M51.242,35.5981a1.841,1.841,0,0,0,.3939-.4611,1.0389,1.0389,0,0,0,.1528-.5255.8456.8456,0,0,0-.2335-.5509,1.0841,1.0841,0,0,0-.8447-.42,1.436,1.436,0,0,0-.8789.2824,1.1224,1.1224,0,0,0-.5348.9247,1.5608,1.5608,0,0,0,.4415,1.0231l-1.3495.9875a3.4342,3.4342,0,0,1-.5825-1.0553,2.4717,2.4717,0,0,1-.114-1.0673,2.4465,2.4465,0,0,1,.3644-1.0111,3.201,3.201,0,0,1,.8416-.879,3.8268,3.8268,0,0,1,.938-.4985,3.2664,3.2664,0,0,1,1.0507-.2046,2.7726,2.7726,0,0,1,1.0261.1661,2.0486,2.0486,0,0,1,.8649.6158,1.8831,1.8831,0,0,1,.4654,1.0132,1.3747,1.3747,0,0,1-.3166,1.0284l.016.0187a2.0842,2.0842,0,0,1,1.3515-.147,2.1065,2.1065,0,0,1,1.1427.7128,2.48,2.48,0,0,1,.5587,1.0654,2.3446,2.3446,0,0,1-.0067,1.088,2.8893,2.8893,0,0,1-.4825,1.0145,4.2787,4.2787,0,0,1-2.07,1.4847,3.08,3.08,0,0,1-1.2152.1451,2.949,2.949,0,0,1-1.1525-.3526,3.479,3.479,0,0,1-1.0276-.8728l1.3495-.9875a2.4823,2.4823,0,0,0,.512.43,1.744,1.744,0,0,0,.5773.24,1.4975,1.4975,0,0,0,.6079-.001,1.5851,1.5851,0,0,0,.6213-.29,1.3709,1.3709,0,0,0,.5768-.8657,1.4051,1.4051,0,0,0-.9416-1.4391,1.2179,1.2179,0,0,0-.6353.0062,2.1743,2.1743,0,0,0-.6121.2819q-.2962.1946-.5566.3847l-.7893-.9266A3.7162,3.7162,0,0,0,51.242,35.5981Z"/>
            <path class="cls-2" d="M54.0057,32.0456a3.3971,3.3971,0,0,1-.172-1.4616,2.25,2.25,0,0,1,.4612-1.1153,3.3525,3.3525,0,0,1,.9317-.8066,3.6354,3.6354,0,0,1,1.19-.4554,2.7794,2.7794,0,0,1,1.2919.0735,3.9487,3.9487,0,0,1,1.3671.7508,7.4,7.4,0,0,1,1.3991,1.573,7.3263,7.3263,0,0,1,.987,1.8743,3.34,3.34,0,0,1,.1736,1.4746,2.2936,2.2936,0,0,1-.4664,1.1192,3.62,3.62,0,0,1-2.1226,1.2623,2.724,2.724,0,0,1-1.2862-.0768,3.9894,3.9894,0,0,1-1.3691-.7637A7.6834,7.6834,0,0,1,54.9642,33.88,7.0658,7.0658,0,0,1,54.0057,32.0456Zm3.002,1.6374a4.7134,4.7134,0,0,0,.698.7349,2.2756,2.2756,0,0,0,.8235.4572,1.0911,1.0911,0,0,0,.9-.1426.9861.9861,0,0,0,.5307-.7083,1.8985,1.8985,0,0,0-.0994-.8872,4.4581,4.4581,0,0,0-.43-.8944q-.2713-.4352-.4776-.733c-.0824-.12-.1839-.2623-.3047-.4294a5.6971,5.6971,0,0,0-.4033-.4957,6,6,0,0,0-.4753-.4679,2.0985,2.0985,0,0,0-.5359-.3477,1.4572,1.4572,0,0,0-.5877-.1273,1.1861,1.1861,0,0,0-.6146.183,1.0425,1.0425,0,0,0-.43.4385,1.1494,1.1494,0,0,0-.1093.5418,2.0256,2.0256,0,0,0,.1176.5961,4.17,4.17,0,0,0,.2607.5951q.1539.2874.3239.5442t.2939.4352Q56.694,33.2733,57.0077,33.683Z"/>
            <path class="cls-2" d="M65.3273,31.027l.7027-.2786a4.4416,4.4416,0,0,0,.1352-1.222,6.1172,6.1172,0,0,0-.185-1.3008,11.053,11.053,0,0,0-.467-1.4324q-.2993-.7543-.6955-1.6115l-.5564-1.2047,6.0652-2.4059,2.9157,6.3163.9127-.3622,1.4785,3.2014-1.663.6591-.8172-1.769L67.6515,31.8l.8172,1.7686-1.6624.6591Zm6.0772-2.41L69.1349,23.7l-2.4709.98.0653.1413q.3662.7926.6353,1.4814a12.9336,12.9336,0,0,1,.4384,1.3089,6.9485,6.9485,0,0,1,.22,1.197,5.6967,5.6967,0,0,1-.0145,1.1547Z"/>
            <path class="cls-2" d="M73.11,20.6643l1.9267-.4947.9312,3.1173,3.5472-.9107-.9312-3.1169,1.9272-.4947,2.4263,8.1227-1.9267.4947-1.0468-3.504-3.5472.91,1.0468,3.504-1.9272.4942Z"/>
            <path class="cls-2" d="M83.0758,18.2958l6.7271-.9247.2472,1.5414-4.75.6528.2866,1.7868,4.3587-.5995.228,1.4246-4.3587.5995.327,2.0433,4.85-.6671.2466,1.5414-6.8281.939Z"/>
            <path class="cls-2" d="M92.109,17.1695l1.9987-.0466.1592,5.8412.0383-.001,3.3031-5.9224,2.2411-.0528.2306,8.4258-1.9993.0466-.1592-5.853h-.0383L94.58,25.5422l-2.2408.0523Zm3.9654-.8132q-2.4579.0576-2.5071-1.7595l1.4769-.035a.9059.9059,0,0,0,.2456.5965.9934.9934,0,0,0,.7577.2186,1.0515,1.0515,0,0,0,.7577-.2483.78.78,0,0,0,.2-.6125l1.477-.035q.0489,1.8178-2.4077,1.8752Z"/>
            <path class="cls-2" d="M112.3388,27.0315a4.8575,4.8575,0,0,1-1.7718-.685,3.8009,3.8009,0,0,1-1.7236-2.6955,4.7257,4.7257,0,0,1,.0777-1.7393,5.0519,5.0519,0,0,1,.6831-1.6526,4.32,4.32,0,0,1,1.1712-1.221,4.1976,4.1976,0,0,1,1.579-.66,5.3015,5.3015,0,0,1,3.6846.71,3.85,3.85,0,0,1,1.1706,1.19,3.99,3.99,0,0,1,.5493,1.5529,5.1169,5.1169,0,0,1-.7612,3.3921,4.129,4.129,0,0,1-2.7463,1.8335A5.0258,5.0258,0,0,1,112.3388,27.0315Zm.34-1.514a2.52,2.52,0,0,0,1.1753-.0207,2.2349,2.2349,0,0,0,.89-.486,2.7983,2.7983,0,0,0,.6156-.8036,4.075,4.075,0,0,0,.3581-.9861,4.2928,4.2928,0,0,0,.1051-1.077,2.6676,2.6676,0,0,0-.2141-.9875,2.0244,2.0244,0,0,0-.6058-.78,2.8133,2.8133,0,0,0-2.2444-.4323,2.2053,2.2053,0,0,0-.8909.4919,2.8521,2.8521,0,0,0-.6209.8271,4.3451,4.3451,0,0,0-.3669,1.0265,3.9774,3.9774,0,0,0-.0955,1.036,2.6043,2.6043,0,0,0,.2192.965,2.0434,2.0434,0,0,0,.6069.7738,2.42,2.42,0,0,0,1.0683.453Z"/>
            <path class="cls-2" d="M122.1062,22.1408l-2.58-.8146.542-1.4746,7.0525,2.2258-.542,1.4756-2.58-.8147-2.39,6.5031-1.8925-.5975Z"/>
            <path class="cls-2" d="M132.8989,28.46a2.0921,2.0921,0,0,0,.6156.1446,1.2683,1.2683,0,0,0,.5794-.086,1.0478,1.0478,0,0,0,.5152-1.3083,1.4546,1.4546,0,0,0-1.7672-.7018,1.6819,1.6819,0,0,0-.8271.7921l-1.5246-.7378a3.5827,3.5827,0,0,1,.8012-.9242,2.9119,2.9119,0,0,1,1.0043-.5332,2.9607,2.9607,0,0,1,1.1431-.1056,3.53,3.53,0,0,1,1.21.3521,3.7217,3.7217,0,0,1,.8758.5893,2.8688,2.8688,0,0,1,.6312.8046,2.2677,2.2677,0,0,1,.256.9362,1.7977,1.7977,0,0,1-.2518.9837,2.0262,2.0262,0,0,1-.8073.8084,1.6753,1.6753,0,0,1-1.1422.1533l-.0114.0207a1.7834,1.7834,0,0,1,.6975,1.0832,1.8167,1.8167,0,0,1-.2342,1.258,2.6793,2.6793,0,0,1-1.8936,1.3477,3.4683,3.4683,0,0,1-1.1961.0072A4.4216,4.4216,0,0,1,129.2632,32.2a2.62,2.62,0,0,1-.6394-.9684,2.4053,2.4053,0,0,1-.1244-1.1187,3.1409,3.1409,0,0,1,.4384-1.2258l1.5246.7378a2.2321,2.2321,0,0,0-.2135.609,1.43,1.43,0,0,0,0,.586,1.2473,1.2473,0,0,0,.25.5135,1.5239,1.5239,0,0,0,.5389.4074,1.597,1.597,0,0,0,1.0883.1335,1.4221,1.4221,0,0,0,1.0313-1.3853,1.0116,1.0116,0,0,0-.2664-.535,2.0787,2.0787,0,0,0-.5276-.4015q-.3125-.1715-.6063-.3136l.5887-1.0462A4.0181,4.0181,0,0,0,132.8989,28.46Z"/>
            <path class="cls-2" d="M137.5027,29.3323a4.0022,4.0022,0,0,1,1.3691-.7436,2.7256,2.7256,0,0,1,1.2862-.0668,3.61,3.61,0,0,1,2.1113,1.2788,2.2893,2.2893,0,0,1,.4564,1.1225,3.3412,3.3412,0,0,1-.1793,1.4631,7.0554,7.0554,0,0,1-.9764,1.8271,7.6893,7.6893,0,0,1-1.4406,1.6019,3.9472,3.9472,0,0,1-1.3816.75,2.772,2.772,0,0,1-1.2914.0634,3.6268,3.6268,0,0,1-1.1868-.4645,3.343,3.343,0,0,1-.9245-.8136,2.2441,2.2441,0,0,1-.4508-1.1192,3.3972,3.3972,0,0,1,.1918-1.47,7.3058,7.3058,0,0,1,1.0043-1.8666A7.4225,7.4225,0,0,1,137.5027,29.3323Zm-.3821,3.2085a4.4328,4.4328,0,0,0-.4384.891,1.9389,1.9389,0,0,0-.1129.8833.9523.9523,0,0,0,.5089.7032,1.127,1.127,0,0,0,.9141.159,2.2323,2.2323,0,0,0,.8333-.4477,4.7109,4.7109,0,0,0,.7038-.73q.3184-.4071.5265-.7032.126-.178.2986-.4328a5.7852,5.7852,0,0,0,.3223-.5447,5.4933,5.4933,0,0,0,.2664-.5932,1.8152,1.8152,0,0,0,.1233-.5956,1.1854,1.1854,0,0,0-.115-.549,1.0736,1.0736,0,0,0-.4322-.4447,1.1451,1.1451,0,0,0-.6074-.1844,1.4124,1.4124,0,0,0-.5783.1292,2.3611,2.3611,0,0,0-.5389.3434,4.4642,4.4642,0,0,0-.4789.464c-.1472.1653-.2808.33-.4033.4962s-.2249.3084-.3088.427q-.2088.2957-.4834.7287Z"/>
            <path class="cls-2" d="M143.1523,38.5012l.5618.48a5.406,5.406,0,0,0,1.2582-.3867,7.1666,7.1666,0,0,0,1.2044-.6893,12.3706,12.3706,0,0,0,1.2179-.9822q.6187-.5627,1.3008-1.2493l.9576-.964,4.8536,4.1414-5.02,5.0545.7318.624-2.5458,2.5625-1.33-1.1355,1.4054-1.4156-4.4038-3.7578-1.4054,1.4156-1.3308-1.1355Zm4.863,4.15,3.9074-3.9348-1.9776-1.6869-.112.1128q-.63.634-1.1971,1.1446-.5294.4793-1.109.9074a8.0135,8.0135,0,0,1-1.0872.6763,6.902,6.902,0,0,1-1.1422.4616Z"/>
            <path class="cls-2" d="M156.5245,40.812l1.28,1.4242-2.6816,2.07,2.3548,2.6212,2.6823-2.07,1.279,1.4242-6.9877,5.3936-1.279-1.4242,3.0141-2.3267L153.83,45.3035,150.8162,47.63l-1.2784-1.4246Z"/>
            <path class="cls-2" d="M162.9681,48.2666l3.6835,5.2989-1.4137.8439-2.6-3.7412L161,51.6466l2.3858,3.4331-1.3054.78-2.3869-3.4331-1.8728,1.1187,2.6554,3.8205-1.4137.8439-3.7385-5.3787Z"/>
            <path class="cls-2" d="M167.7916,55.413l.8686,1.6692-5.6766,2.54.0166.0317,7.1836.3511.9743,1.8709-8.1889,3.6644-.87-1.6687,5.6887-2.5457-.0166-.0322-7.195-.3459-.9743-1.8709Zm2.4326,3.0146q-1.07-2.0519.6975-2.8421l.6426,1.233a.9843.9843,0,0,0-.4861.4525.822.822,0,0,0,.0974.73.9651.9651,0,0,0,.5566.5375.943.943,0,0,0,.684-.0836l.6426,1.2335q-1.7661.7907-2.8347-1.261Z"/>
            <path class="cls-2" d="M166.3936,76.5716a4,4,0,0,1-.05-1.7791,3.5965,3.5965,0,0,1,.6757-1.4669,4.3173,4.3173,0,0,1,1.2727-1.0932,5.7665,5.7665,0,0,1,1.7444-.6455,6.1518,6.1518,0,0,1,1.906-.0984,4.789,4.789,0,0,1,1.6822.4919,3.9546,3.9546,0,0,1,1.2956,1.0654,4.3507,4.3507,0,0,1,.8073,3.4065,3.5987,3.5987,0,0,1-.6934,1.4775,4.4164,4.4164,0,0,1-1.3038,1.099,5.9829,5.9829,0,0,1-1.7755.6523,5.8976,5.8976,0,0,1-1.8749.0913,4.6619,4.6619,0,0,1-1.65-.4977,3.9222,3.9222,0,0,1-1.279-1.075A4.1666,4.1666,0,0,1,166.3936,76.5716Zm1.6293-.3324a2.0889,2.0889,0,0,0,.5017.9857,2.1884,2.1884,0,0,0,.8416.5543,3.2158,3.2158,0,0,0,1.0426.1921,5.0034,5.0034,0,0,0,1.1173-.1008,5.191,5.191,0,0,0,1.1038-.3516,3.0589,3.0589,0,0,0,.8841-.585,1.9761,1.9761,0,0,0,.52-.8309,2.3155,2.3155,0,0,0-.4913-2.075,2.173,2.173,0,0,0-.8491-.5524,3.2488,3.2488,0,0,0-1.0676-.1869,5.31,5.31,0,0,0-1.1608.1095,4.9223,4.9223,0,0,0-1.06.342,3.0106,3.0106,0,0,0-.86.58,1.9125,1.9125,0,0,0-.5226,1.9187Z"/>
            <path class="cls-2" d="M175.2023,82.83l-.2547-2.5149,1.6738-.146.6975,6.8754-1.6738.146-.2547-2.5149-7.3794.6427-.1876-1.8454Z"/>
            <path class="cls-2" d="M173.4216,94.5127a1.7228,1.7228,0,0,0,.112.5793,1.1114,1.1114,0,0,0,.3234.4544.9947.9947,0,0,0,.6.2027,1.11,1.11,0,0,0,.8986-.3084,1.2223,1.2223,0,0,0,.3545-.7973,1.098,1.098,0,0,0-.3938-.9847,1.8313,1.8313,0,0,0-1.1194-.3709l.0964-1.5908a4.0409,4.0409,0,0,1,1.2386.2939,2.8769,2.8769,0,0,1,.938.6283,2.5259,2.5259,0,0,1,.5763.9222,2.89,2.89,0,0,1,.1524,1.1672,3.2238,3.2238,0,0,1-.2187.9817,2.7919,2.7919,0,0,1-.53.8646,2.5558,2.5558,0,0,1-.8147.6023,2.395,2.395,0,0,1-2.1972-.1546,1.4455,1.4455,0,0,1-.6218-.9011l-.0259-.002a1.8022,1.8022,0,0,1-.7762,1.0355,2.2177,2.2177,0,0,1-1.3329.3218,2.9421,2.9421,0,0,1-1.2311-.3179,2.6727,2.6727,0,0,1-.8747-.7253,2.8919,2.8919,0,0,1-.5006-1.0077,3.7167,3.7167,0,0,1,.171-2.42,2.6649,2.6649,0,0,1,.6882-.9405,2.8372,2.8372,0,0,1,1.0478-.5658,3.84,3.84,0,0,1,1.3858-.1355l-.0955,1.5908a2.7445,2.7445,0,0,0-.6872.0711,1.7473,1.7473,0,0,0-.5752.2421,1.326,1.326,0,0,0-.4021.423,1.3439,1.3439,0,0,0-.1772.6235,1.3163,1.3163,0,0,0,.3171.9739,1.351,1.351,0,0,0,1,.4419,1.3779,1.3779,0,0,0,.7866-.1431,1.0679,1.0679,0,0,0,.4156-.4447,1.8311,1.8311,0,0,0,.1772-.612c.027-.2229.0456-.4371.0581-.6417l1.2717.0663A3.3175,3.3175,0,0,0,173.4216,94.5127Z"/>
            <path class="cls-2" d="M174.4612,98.7876a3.9448,3.9448,0,0,1,1.2956.8482,2.2944,2.2944,0,0,1,.5959,1.06,2.9563,2.9563,0,0,1,.0352,1.1816,3.0816,3.0816,0,0,1-.4207,1.1276,2.4982,2.4982,0,0,1-.9141.8482,4.0912,4.0912,0,0,1-1.5132.4525,8.4675,8.4675,0,0,1-2.1983-.0711,8.6,8.6,0,0,1-2.1692-.5562,3.8672,3.8672,0,0,1-1.3054-.8558,2.34,2.34,0,0,1-.5959-1.0654,2.9909,2.9909,0,0,1-.0318-1.1931,3.0359,3.0359,0,0,1,.4177-1.1163,2.4536,2.4536,0,0,1,.9141-.8424,4.14,4.14,0,0,1,1.5235-.4438,8.7709,8.7709,0,0,1,2.249.0768A8.3142,8.3142,0,0,1,174.4612,98.7876Zm-3.3113,1a5.3166,5.3166,0,0,0-1.0561-.002,2.3651,2.3651,0,0,0-.9152.2681.9484.9484,0,0,0-.4809.7195.9324.9324,0,0,0,.2207.8386,2.1888,2.1888,0,0,0,.7836.5178,5.2027,5.2027,0,0,0,1.0074.2939c.3545.0673.6571.118.9089.1546.1513.0211.3338.0461.5483.072q.3326.0412.6686.0492.347.0072.6934-.02a2.2371,2.2371,0,0,0,.6353-.1421,1.3668,1.3668,0,0,0,.4923-.3237,1.0021,1.0021,0,0,0,.2591-.5475.9446.9446,0,0,0-.0694-.59,1.2489,1.2489,0,0,0-.3648-.4342,2.3936,2.3936,0,0,0-.5607-.3132,4.9037,4.9037,0,0,0-.6529-.2133c-.2229-.0557-.4415-.1008-.654-.1355s-.3959-.0634-.5472-.0845c-.2522-.0362-.5567-.0717-.9166-.107Z"/>
            <path class="cls-2" d="M167.78,107.3365l-.24.6725a4.9455,4.9455,0,0,0,.8976.9039,7.1087,7.1087,0,0,0,1.1733.7339,12.8445,12.8445,0,0,0,1.4665.6253q.8066.2926,1.763.586l1.3412.4132-2.0781,5.8033-7.0354-2.1641-.313.8742-3.5654-1.097.57-1.5908,1.97.6062,1.8853-5.2663-1.97-.6065.57-1.5908Zm-2.0822,5.8148,5.4755,1.685.8468-2.3641-.1575-.048q-.8815-.2724-1.6168-.5418-.6893-.25-1.3484-.5639a8.0155,8.0155,0,0,1-1.1122-.6408,6.4531,6.4531,0,0,1-.9233-.7753Z"/>
            <path class="cls-2" d="M170.9995,119.5886l-.8769,1.6658-3.1363-1.42L165.3715,122.9l3.1352,1.42-.8778,1.6648-8.17-3.6987.8778-1.6658,3.5236,1.5957,1.6159-3.0654-3.525-1.5957.8778-1.6648Z"/>
            <path class="cls-2" d="M166.3023,128.0836l-3.7094,5.2836-1.4085-.85,2.6191-3.73-1.6335-.9847-2.4035,3.4228-1.3028-.7849,2.4035-3.4233-1.8679-1.1268-2.6745,3.81-1.41-.85,3.7654-5.3624Z"/>
            <path class="cls-2" d="M161.2393,135.09l-1.2862,1.4189-4.8268-3.76-.0239.0278,2.5974,6.217-1.4428,1.59-6.9608-5.4229,1.2862-1.4179,4.836,3.7667.0239-.0269-2.6067-6.225,1.4417-1.5908Zm-1.97,3.2922q1.5826-1.745,3.0835-.5745l-.95,1.048a1.0723,1.0723,0,0,0-.6447-.2248.9529.9529,0,0,0-.6792.3814.8969.8969,0,0,0-.3016.69.8114.8114,0,0,0,.3628.5447l-.95,1.049Q157.6874,140.1254,159.269,138.3817Z"/>
          </g>
          <polygon class="cls-3" points="131.943 143.201 132.479 149.349 135.513 143.859 133.47 149.73 138.539 145.734 134.228 150.432 140.562 148.538 134.638 151.351 141.272 151.848 134.638 152.344 140.562 155.156 134.228 153.263 138.539 157.961 133.47 153.965 135.513 159.835 132.479 154.346 131.943 160.493 131.407 154.346 128.373 159.835 130.416 153.965 125.347 157.961 129.658 153.263 123.325 155.156 129.248 152.344 122.615 151.848 129.248 151.351 123.325 148.538 129.658 150.432 125.347 145.734 130.416 149.73 128.373 143.859 131.407 149.349 131.943 143.201"/>
        </g>
      </g>
      <text class="cls-4" transform="translate(79.592 65.7364) rotate(-12.3269)">С</text>
      <text class="cls-4" transform="matrix(0.9244, 0.3814, -0.3814, 0.9244, 100.3166, 60.5177)">Р</text>
      <text class="cls-4" transform="translate(118.7776 65.9874) rotate(61.706)">О</text>
      <text class="cls-4" transform="matrix(-0.2941, 0.9558, -0.9558, -0.2941, 130.3684, 85.088)">К</text>
      <text class="cls-4" transform="translate(123.3054 104.4015) rotate(135.5638)"> </text>
      <text class="cls-4" transform="translate(120.0832 110.7779) rotate(161.9071)">С</text>
      <text class="cls-4" transform="translate(99.9519 118.0108) rotate(-163.4301)">Р</text>
      <text class="cls-4" transform="matrix(-0.574, -0.8189, 0.8189, -0.574, 81.0417, 114.3766)">О</text>
      <text class="cls-4" transform="matrix(0.1743, -0.9847, 0.9847, 0.1743, 67.2658, 96.7574)">К</text>
      <text class="cls-4" transform="matrix(0.6312, -0.7757, 0.7757, 0.6312, 71.8723, 76.7975)"> </text>
    </g>
  </g>
</svg>
