<svg xmlns="http://www.w3.org/2000/svg" viewBox="0 0 279.6814 226.9132">
  <defs>
    <style>
      .cls-1 {
        fill: #ca6d2d;
      }

      .cls-2 {
        font-size: 33.2486px;
        stroke: #e23800;
        stroke-width: 1.9698px;
        font-family: HelveticaNeue-BoldItalic, Helvetica Neue;
        font-weight: 700;
        font-style: italic;
      }

      .cls-2, .cls-7 {
        fill: #dbd5c9;
      }

      .cls-2, .cls-6, .cls-7, .cls-8 {
        stroke-miterlimit: 10;
      }

      .cls-3 {
        letter-spacing: -0.03em;
      }

      .cls-4 {
        letter-spacing: 0.02em;
      }

      .cls-5 {
        letter-spacing: 0em;
      }

      .cls-6 {
        fill: #b88903;
      }

      .cls-6, .cls-7, .cls-8 {
        stroke: #ca6d2d;
      }

      .cls-6, .cls-7 {
        stroke-width: 1.7051px;
      }

      .cls-8 {
        fill: none;
        stroke-linecap: round;
        stroke-width: 1.2788px;
      }
    </style>
  </defs>
  <title>Ресурс 17</title>
  <g id="Слой_2" data-name="Слой 2">
    <g id="Слой_2-2" data-name="Слой 2">
      <path class="cls-1" d="M45.6785,85.535l1.5428.8115c11.0227,5.7966,27.7617-1.4341,21.3726-9.2323L67.7,76.0225l1.2407.97c8.8637,6.9345,27.71,1.7388,24.0633-6.6333l-.51-1.1719.8907,1.0924c6.3639,7.805,26.5935,4.8443,25.8292-3.78l-.1067-1.2069.5066,1.1724c3.62,8.376,24.455,7.7648,26.6028-.7805l.3006-1.1961.1031,1.2073c.7363,8.6253,21.3762,10.3863,26.3536,2.2484l.6965-1.139-.3044,1.1957c-2.1752,8.5431,17.4768,12.6088,25.092,5.1912l1.0658-1.0382-.7,1.1383c-5.0032,8.1325,12.9053,14.3465,22.8652,7.9343l1.3941-.8976-1.0692,1.037c-7.6391,7.4093,7.8379,15.533,19.7613,10.3725l1.6687-.7223-1.3973.896c-9.9813,6.4014,2.4694,16.1225,15.8972,12.4121l1.8794-.5194-1.6711.7205c-11.9407,5.1475-2.9941,16.0925,11.422,13.9747l2.0178-.2964-1.8811.5173c-13.44,3.6958-8.3416,15.4441,6.5081,15l2.0786-.0621-2.0187.2942c-14.4231,2.1025-13.37,14.2021,1.344,15.4494l2.06.1746-2.0788.06c-14.852.4276-17.8844,12.4144-3.8718,15.3048l1.9613.4045-2.0589-.1768c-14.71-1.2632-21.7111,10.15-8.9388,14.5721l1.7877.6189-1.96-.4067c-14.0035-2.9056-24.7035,7.4947-13.6622,13.2789l1.5455.81-1.7856-.6209c-12.7582-4.4364-26.7466,4.5518-17.8607,11.4763l1.2438.9691-1.5428-.8115c-11.0227-5.7966-27.7618,1.4341-21.3726,9.2323l.8943,1.0915-1.2406-.97c-8.8637-6.9345-27.71-1.7388-24.0633,6.6333l.51,1.1719-.8907-1.0924c-6.3639-7.805-26.5935-4.8443-25.8292,3.78l.1069,1.2071-.5066-1.1724c-3.62-8.3762-24.455-7.7648-26.6026.78l-.3006,1.1961-.1031-1.2073c-.7363-8.6253-21.3766-10.3863-26.3536-2.2486l-.6965,1.139.3044-1.1957c2.1752-8.543-17.4769-12.6087-25.092-5.1912l-1.0658,1.0382.7-1.1383c5.0032-8.1325-12.9053-14.3465-22.8652-7.9343l-1.3941.8976,1.0692-1.037c7.6391-7.4093-7.8379-15.533-19.7613-10.3725l-1.6687.7223,1.3973-.896c9.9813-6.4014-2.4694-16.1225-15.8972-12.4121l-1.8794.5194,1.6711-.7205c11.9407-5.1475,2.9941-16.0925-11.422-13.9747l-2.0179.2964,1.8809-.5164c13.44-3.6958,8.3416-15.4441-6.5081-15l-2.0786.0621,2.0187-.2942C17.8264,155.3471,16.774,143.2472,2.06,142L0,141.8254l2.0788-.06c14.852-.4276,17.8844-12.4144,3.8718-15.3048l-1.9613-.4045,2.0589.1768c14.71,1.2632,21.7111-10.15,8.9388-14.5721l-1.7877-.6189,1.96.4067c14.0035,2.9056,24.7035-7.4947,13.6622-13.2789l-1.5455-.81,1.7856.6209C41.82,102.4172,55.8083,93.429,46.9224,86.5046Z"/>
      <g>
        <text class="cls-2" transform="translate(57.5529 185.8508) rotate(-11.1654)"><tspan class="cls-3">О</tspan><tspan x="24.8701" y="0">Т 15 ДНЕЙ</tspan></text>
        <text class="cls-2" transform="translate(37.9245 159.7624) rotate(-11.1654)">С<tspan class="cls-4" x="24.6372" y="0">Р</tspan><tspan class="cls-5" x="47.4785" y="0">ОК</tspan></text>
      </g>
      <circle class="cls-6" cx="183.6291" cy="75.0552" r="41.9413"/>
      <g>
        <g>
          <ellipse class="cls-7" cx="184.0308" cy="78.3889" rx="22.4528" ry="22.407" transform="translate(-15.3985 93.8837) rotate(-27.5145)"/>
          <path class="cls-8" d="M181.916,84.9081a4.8906,4.8906,0,1,1-9.2765-3.1012"/>
          <path class="cls-8" d="M181.916,84.9081a4.83,4.83,0,1,0,9.1605,3.0625"/>
        </g>
        <ellipse class="cls-1" cx="182.1546" cy="84.0018" rx="0.9354" ry="1.9907" transform="translate(44.7323 230.124) rotate(-71.5145)"/>
        <ellipse class="cls-1" cx="194.6761" cy="82.1275" rx="1.6089" ry="1.6046" transform="matrix(0.9914, -0.1308, 0.1308, 0.9914, -9.0685, 26.1647)"/>
        <path class="cls-7" d="M176.9547,53.6879a.6132.6132,0,1,0,1.1582.387q12.65-32.4985,14.7935-38.91c2.5-7.4767,5.0961-13.6591,2.3376-14.2692s-4.2145,5.3295-6.7141,12.8061Q186.3864,20.1133,176.9547,53.6879Zm26.4337,8.8371a.6132.6132,0,1,0,1.1582.387q12.65-32.4985,14.7935-38.91c2.5-7.4767,5.0961-13.6591,2.3376-14.2692s-4.2145,5.3295-6.7141,12.8061Q212.82,28.95,203.3884,62.525Z"/>
      </g>
      <ellipse class="cls-1" cx="173.4603" cy="75.0348" rx="1.6089" ry="1.6046" transform="translate(-8.3232 23.3292) rotate(-7.5145)"/>
    </g>
  </g>
</svg>
