<svg xmlns="http://www.w3.org/2000/svg" xmlns:xlink="http://www.w3.org/1999/xlink" width="160" height="162" viewBox="0 0 160 162">
    <defs>
        <path id="st41ojm5ea" d="M0 0H162V162H0z"/>
    </defs>
    <g fill="none" fill-rule="evenodd">
        <g>
            <g transform="translate(-262 -824) translate(262 824)">
                <mask id="bzig0ti0wb" fill="#fff">
                    <use xlink:href="#st41ojm5ea"/>
                </mask>
                <g mask="url(#bzig0ti0wb)">
                    <g>
                        <text font-family="Inter-Black, Inter" font-size="24" font-weight="700" letter-spacing=".2" transform="translate(-3 -2)">
                            <tspan x="40" y="92" fill="#263EBF">ЗВОНИ</tspan>
                        </text>
                        <g>
                            <text fill="#263EBF" font-family="Inter-Black, Inter" font-size="14" font-weight="700" transform="translate(-3 -2) rotate(176.463 77.726 8.99)">
                                <tspan x="69.726" y="14.49">W</tspan>
                            </text>
                            <text fill="#263EBF" font-family="Inter-Black, Inter" font-size="14" font-weight="700" transform="translate(-3 -2) rotate(166.761 65.808 10.833)">
                                <tspan x="60.308" y="16.333">H</tspan>
                            </text>
                            <text fill="#263EBF" font-family="Inter-Black, Inter" font-size="14" font-weight="700" transform="translate(-3 -2) rotate(158.561 55.299 14.192)">
                                <tspan x="49.299" y="19.692">A</tspan>
                            </text>
                            <text fill="#263EBF" font-family="Inter-Black, Inter" font-size="14" font-weight="700" transform="translate(-3 -2) rotate(151.81 47.813 17.724)">
                                <tspan x="42.813" y="23.224">T</tspan>
                            </text>
                            <text fill="#263EBF" font-family="Inter-Black, Inter" font-size="14" font-weight="700" transform="translate(-3 -2) rotate(144.622 39.82 22.733)">
                                <tspan x="34.82" y="28.233">S</tspan>
                            </text>
                            <text fill="#263EBF" font-family="Inter-Black, Inter" font-size="14" font-weight="700" transform="translate(-3 -2) rotate(137.225 32.111 29.09)">
                                <tspan x="26.111" y="34.591">A</tspan>
                            </text>
                            <text fill="#263EBF" font-family="Inter-Black, Inter" font-size="14" font-weight="700" transform="translate(-3 -2) rotate(129.683 25.608 36.073)">
                                <tspan x="20.608" y="41.573">P</tspan>
                            </text>
                            <text fill="#263EBF" font-family="Inter-Black, Inter" font-size="14" font-weight="700" transform="translate(-3 -2) rotate(122.648 20.26 43.486)">
                                <tspan x="15.26" y="48.986">P</tspan>
                            </text>
                            <text fill="#263EBF" font-family="Inter-Black, Inter" font-size="14" font-weight="700" transform="translate(-3 -2) rotate(105.818 11.426 63.532)">
                                <tspan x="3.426" y="69.032">W</tspan>
                            </text>
                            <text fill="#263EBF" font-family="Inter-Black, Inter" font-size="14" font-weight="700" transform="translate(-3 -2) rotate(96.119 9.216 75.409)">
                                <tspan x="3.716" y="80.909">H</tspan>
                            </text>
                            <text fill="#263EBF" font-family="Inter-Black, Inter" font-size="14" font-weight="700" transform="translate(-3 -2) rotate(88.115 9.381 86.909)">
                                <tspan x="3.381" y="92.409">A</tspan>
                            </text>
                            <text fill="#263EBF" font-family="Inter-Black, Inter" font-size="14" font-weight="700" transform="translate(-3 -2) rotate(81.393 9.701 94.672)">
                                <tspan x="4.701" y="100.172">T</tspan>
                            </text>
                            <text fill="#263EBF" font-family="Inter-Black, Inter" font-size="14" font-weight="700" transform="translate(-3 -2) rotate(74.16 11.737 103.852)">
                                <tspan x="6.737" y="109.352">S</tspan>
                            </text>
                            <text fill="#263EBF" font-family="Inter-Black, Inter" font-size="14" font-weight="700" transform="translate(-3 -2) rotate(66.66 15.624 113.556)">
                                <tspan x="9.624" y="119.056">A</tspan>
                            </text>
                            <text fill="#263EBF" font-family="Inter-Black, Inter" font-size="14" font-weight="700" transform="translate(-3 -2) rotate(59.048 19.597 121.713)">
                                <tspan x="14.597" y="127.213">P</tspan>
                            </text>
                            <text fill="#263EBF" font-family="Inter-Black, Inter" font-size="14" font-weight="700" transform="translate(-3 -2) rotate(52.035 24.81 129.208)">
                                <tspan x="19.81" y="134.708">P</tspan>
                            </text>
                            <text fill="#263EBF" font-family="Inter-Black, Inter" font-size="14" font-weight="700" transform="translate(-3 -2) rotate(37.925 38.104 142.283)">
                                <tspan x="30.104" y="147.783">W</tspan>
                            </text>
                            <text fill="#263EBF" font-family="Inter-Black, Inter" font-size="14" font-weight="700" transform="translate(-3 -2) rotate(28.221 48.292 148.815)">
                                <tspan x="42.792" y="154.315">H</tspan>
                            </text>
                            <text fill="#263EBF" font-family="Inter-Black, Inter" font-size="14" font-weight="700" transform="translate(-3 -2) rotate(20.046 58.37 153.25)">
                                <tspan x="52.37" y="158.75">A</tspan>
                            </text>
                            <text fill="#263EBF" font-family="Inter-Black, Inter" font-size="14" font-weight="700" transform="translate(-3 -2) rotate(13.265 66.322 155.562)">
                                <tspan x="61.322" y="161.062">T</tspan>
                            </text>
                            <text fill="#263EBF" font-family="Inter-Black, Inter" font-size="14" font-weight="700" transform="translate(-3 -2) rotate(6.072 75.623 157.097)">
                                <tspan x="70.623" y="162.597">S</tspan>
                            </text>
                            <text fill="#263EBF" font-family="Inter-Black, Inter" font-size="14" font-weight="700" transform="translate(-3 -2) rotate(-1.249 85.61 157.442)">
                                <tspan x="79.611" y="162.942">A</tspan>
                            </text>
                            <text fill="#263EBF" font-family="Inter-Black, Inter" font-size="14" font-weight="700" transform="translate(-3 -2) rotate(-8.832 95.117 156.524)">
                                <tspan x="90.117" y="162.024">P</tspan>
                            </text>
                            <text fill="#263EBF" font-family="Inter-Black, Inter" font-size="14" font-weight="700" transform="translate(-3 -2) rotate(-15.929 104.026 154.51)">
                                <tspan x="99.026" y="160.01">P</tspan>
                            </text>
                            <text fill="#263EBF" font-family="Inter-Black, Inter" font-size="14" font-weight="700" transform="translate(-3 -2) rotate(-30.198 121.133 147.059)">
                                <tspan x="113.133" y="152.559">W</tspan>
                            </text>
                            <text fill="#263EBF" font-family="Inter-Black, Inter" font-size="14" font-weight="700" transform="translate(-3 -2) rotate(-39.849 130.98 140.05)">
                                <tspan x="125.479" y="145.55">H</tspan>
                            </text>
                            <text fill="#263EBF" font-family="Inter-Black, Inter" font-size="14" font-weight="700" transform="translate(-3 -2) rotate(-47.92 138.87 132.36)">
                                <tspan x="132.869" y="137.86">A</tspan>
                            </text>
                            <text fill="#263EBF" font-family="Inter-Black, Inter" font-size="14" font-weight="700" transform="translate(-3 -2) rotate(-54.611 143.994 125.872)">
                                <tspan x="138.994" y="131.372">T</tspan>
                            </text>
                            <text fill="#263EBF" font-family="Inter-Black, Inter" font-size="14" font-weight="700" transform="translate(-3 -2) rotate(-61.823 148.923 117.829)">
                                <tspan x="143.923" y="123.329">S</tspan>
                            </text>
                            <text fill="#263EBF" font-family="Inter-Black, Inter" font-size="14" font-weight="700" transform="translate(-3 -2) rotate(-69.311 152.986 108.7)">
                                <tspan x="146.986" y="114.2">A</tspan>
                            </text>
                            <text fill="#263EBF" font-family="Inter-Black, Inter" font-size="14" font-weight="700" transform="translate(-3 -2) rotate(-76.959 155.673 99.548)">
                                <tspan x="150.673" y="105.048">P</tspan>
                            </text>
                            <text fill="#263EBF" font-family="Inter-Black, Inter" font-size="14" font-weight="700" transform="translate(-3 -2) rotate(-83.996 157.127 90.533)">
                                <tspan x="152.127" y="96.033">P</tspan>
                            </text>
                            <text fill="#263EBF" font-family="Inter-Black, Inter" font-size="14" font-weight="700" transform="translate(-3 -2) rotate(-98.071 156.65 71.87)">
                                <tspan x="148.65" y="77.37">W</tspan>
                            </text>
                            <text fill="#263EBF" font-family="Inter-Black, Inter" font-size="14" font-weight="700" transform="translate(-3 -2) rotate(-107.832 153.858 60.109)">
                                <tspan x="148.358" y="65.609">H</tspan>
                            </text>
                            <text fill="#263EBF" font-family="Inter-Black, Inter" font-size="14" font-weight="700" transform="translate(-3 -2) rotate(-116 149.678 49.92)">
                                <tspan x="143.678" y="55.419">A</tspan>
                            </text>
                            <text fill="#263EBF" font-family="Inter-Black, Inter" font-size="14" font-weight="700" transform="translate(-3 -2) rotate(-122.739 145.552 42.72)">
                                <tspan x="140.552" y="48.22">T</tspan>
                            </text>
                            <text fill="#263EBF" font-family="Inter-Black, Inter" font-size="14" font-weight="700" transform="translate(-3 -2) rotate(-129.888 139.94 35.163)">
                                <tspan x="134.94" y="40.663">S</tspan>
                            </text>
                            <text fill="#263EBF" font-family="Inter-Black, Inter" font-size="14" font-weight="700" transform="translate(-3 -2) rotate(-137.28 132.999 27.981)">
                                <tspan x="126.999" y="33.481">A</tspan>
                            </text>
                            <text fill="#263EBF" font-family="Inter-Black, Inter" font-size="14" font-weight="700" transform="translate(-3 -2) rotate(-144.849 125.517 22.04)">
                                <tspan x="120.517" y="27.54">P</tspan>
                            </text>
                            <text fill="#263EBF" font-family="Inter-Black, Inter" font-size="14" font-weight="700" transform="translate(-3 -2) rotate(-151.91 117.7 17.294)">
                                <tspan x="112.701" y="22.794">P</tspan>
                            </text>
                            <path fill="#A690B2" fill-rule="nonzero" d="M103.081 2.537L102.779 8.451 107.757 5.243 104.305 10.055 110.227 10.047 104.722 12.229 109.708 15.425 103.897 14.284 106.364 19.668 102.092 15.566 101.257 21.429 99.881 15.669 96.008 20.15 97.964 14.56 92.284 16.236 96.952 12.591 91.267 10.93 97.165 10.388 93.281 5.917 98.535 8.649 97.685 2.788 100.628 7.927z" transform="translate(-3 -2)"/>
                        </g>
                    </g>
                </g>
            </g>
        </g>
    </g>
</svg>
