<svg xmlns="http://www.w3.org/2000/svg" xmlns:xlink="http://www.w3.org/1999/xlink" width="123" height="123" viewBox="0 0 123 123">
    <defs>
        <path id="pcbqw0nm1a" d="M0 0H123V128H0z"/>
    </defs>
    <g fill="none" fill-rule="evenodd">
        <g>
            <g transform="translate(-421 -861) translate(421 857)">
                <mask id="qg0hn0hrsb" fill="#fff">
                    <use xlink:href="#pcbqw0nm1a"/>
                </mask>
                <path fill="#7B9EB0" d="M103.807 104.474l-3.596-1.752c-3.408-1.66-7.107 1.665-5.819 5.23l1.359 3.762c2.234 6.187-5.718 10.908-10.08 5.983l-2.651-2.994c-2.514-2.837-7.203-1.182-7.377 2.604l-.185 3.997c-.302 6.57-9.456 7.889-11.601 1.67l-1.304-3.782c-1.237-3.582-6.202-3.847-7.812-.416l-1.7 3.622c-2.794 5.954-11.756 3.669-11.358-2.896l.241-3.994c.23-3.783-4.256-5.928-7.057-3.374l-2.956 2.695c-4.86 4.432-12.265-1.108-9.385-7.022l1.751-3.596c1.66-3.408-1.664-7.107-5.228-5.819l-3.764 1.359c-6.186 2.234-10.907-5.718-5.982-10.08l2.993-2.651c2.838-2.514 1.183-7.203-2.603-7.377l-3.997-.185c-6.57-.302-7.889-9.456-1.67-11.601l3.782-1.304c3.582-1.237 3.847-6.202.416-7.812l-3.622-1.7C-1.352 54.247.933 45.285 7.498 45.683l3.994.241c3.782.23 5.928-4.256 3.374-7.057L12.17 35.91c-4.431-4.86 1.11-12.266 7.023-9.385l3.596 1.751c3.407 1.66 7.107-1.664 5.819-5.23l-1.359-3.762c-2.234-6.186 5.718-10.907 10.078-5.982l2.653 2.993c2.514 2.838 7.203 1.183 7.377-2.603l.184-3.997c.303-6.57 9.457-7.889 11.602-1.67l1.304 3.78c1.236 3.584 6.202 3.849 7.812.418l1.7-3.622c2.794-5.954 11.756-3.669 11.358 2.896l-.242 3.994c-.23 3.782 4.257 5.928 7.058 3.374l2.956-2.696c4.86-4.431 12.265 1.11 9.385 7.023l-1.751 3.596c-1.66 3.407 1.664 7.107 5.228 5.819l3.763-1.359c6.187-2.234 10.908 5.718 5.983 10.078l-2.994 2.653c-2.837 2.514-1.182 7.203 2.604 7.377l3.997.184c6.57.303 7.889 9.457 1.67 11.602l-3.782 1.304c-3.582 1.236-3.847 6.202-.416 7.812l3.622 1.7c5.954 2.794 3.669 11.756-2.896 11.358l-3.994-.242c-3.783-.23-5.928 4.257-3.374 7.058l2.696 2.956c4.431 4.86-1.11 12.265-7.023 9.385" mask="url(#qg0hn0hrsb)"/>
            </g>
        </g>
    </g>
</svg>
