<svg xmlns="http://www.w3.org/2000/svg" width="272" height="383" viewBox="0 0 272 383">
    <g fill="none" fill-rule="evenodd">
        <g>
            <g>
                <g transform="translate(-192 -411) rotate(-26 1143.281 5.515) translate(.997 .998)">
                    <g stroke="#F3EAD5" stroke-linecap="round" stroke-width="6">
                        <path d="M36.84 18.52C36.84 8.29 28.594 0 18.42 0 8.247 0 0 8.291 0 18.52" transform="translate(109.39 323.648) matrix(1 0 0 -1 0 18.52)"/>
                        <path d="M73.22 18.52C73.22 8.29 65.078 0 55.03 0 44.985 0 36.84 8.291 36.84 18.52" transform="translate(109.39 323.648) rotate(180 55.03 9.26)"/>
                    </g>
                    <g transform="rotate(-26 535.787 122.128)">
                        <ellipse cx="108.437" cy="109.154" stroke="#F3EAD5" stroke-width="6" rx="84.58" ry="84.481" transform="rotate(-20 108.437 109.154)"/>
                        <ellipse cx="62.818" cy="87.538" fill="#F3EAD5" rx="5.273" ry="5.265"/>
                        <ellipse cx="153.724" cy="131.981" fill="#F3EAD5" rx="5.273" ry="5.265"/>
                    </g>
                    <ellipse cx="146" cy="320.12" fill="#F3EAD5" rx="7.498" ry="3.527"/>
                    <path stroke="#F3EAD5" stroke-width="5" d="M93.528 221.35c5.782-99.62 8.673-157.957 8.673-175.008 0-25.577 1.892-47.271-8.69-46.311-10.583.96-8.69 20.734-8.69 46.31 0 17.052 2.902 75.388 8.707 175.01zM198.507 221.35c5.782-99.62 8.673-157.957 8.673-175.008 0-25.577 1.892-47.271-8.69-46.311-10.583.96-8.691 20.734-8.691 46.31 0 17.052 2.903 75.388 8.708 175.01h0z"/>
                </g>
            </g>
        </g>
    </g>
</svg>
