<?xml version="1.0" standalone="no"?>
<!DOCTYPE svg PUBLIC "-//W3C//DTD SVG 1.1//EN" "http://www.w3.org/Graphics/SVG/1.1/DTD/svg11.dtd" >
<svg xmlns="http://www.w3.org/2000/svg" xmlns:xlink="http://www.w3.org/1999/xlink" version="1.1">
<metadata>
Created by FontForge 20190801 at Tue Apr 28 14:52:37 2020
 By Jimmy Wärting
Copyright (c) 2019 by Francesco Canovaro &#38; Cosimo Lorenzo Pancini. All rights reserved.
</metadata>
<defs>
<font id="BlackerSansText-Heavy" horiz-adv-x="1229" >
  <font-face 
    font-family="Blacker Sans Text Heavy"
    font-weight="800"
    font-stretch="normal"
    units-per-em="2048"
    panose-1="0 0 9 0 0 0 0 0 0 0"
    ascent="1638"
    descent="-410"
    x-height="1026"
    cap-height="1439"
    bbox="-1453 -493 2796 2081"
    underline-thickness="50"
    underline-position="-100"
    unicode-range="U+000D-FB02"
  />
<missing-glyph horiz-adv-x="1395" 
 />
    <glyph glyph-name="f_f" unicode="ff" horiz-adv-x="1440" 
d="M1141 1368q-33 -35 -33 -91q0 -106 101 -251h228v-105h-224v-921h-387v921h-298v-921h-387v921h-122v105h121q-30 56 -46.5 105.5t-16.5 97.5q0 92 51 158t149.5 101t237.5 35q90 0 177.5 -24.5t150.5 -74.5l-2 -6q54 51 145 78t213 27q89 0 173 -24.5t147 -74.5l-50 -91
q-53 36 -116 53t-121 17t-91 -35zM762 1229q0 59 21 107q-55 40 -116 56t-119 16t-91 -35t-33 -91q0 -107 101 -256h300q-63 114 -63 203z" />
    <glyph glyph-name="f_f_i" unicode="ffi" horiz-adv-x="1830" 
d="M1750 0h-388v921h-215v-921h-387v921h-232v-921h-387v921h-122v105h121q-30 56 -46.5 105.5t-16.5 97.5q0 92 51 158t149.5 101t237.5 35q78 0 156.5 -19t139.5 -58q116 77 323 77q90 0 177.5 -24.5t150.5 -74.5l-40 -104q-59 48 -125.5 68t-130.5 20q-57 0 -90 -35
t-33 -91q0 -107 101 -256h606v-1026zM696 1229q0 79 36 137q-84 42 -184 42q-58 0 -91 -35t-33 -91q0 -107 101 -256h234q-63 114 -63 203z" />
    <glyph glyph-name="f_f_l" unicode="ffl" horiz-adv-x="2006" 
d="M1895 1503v-1503h-386v1224q-47 86 -122 136t-178 50q-107 0 -107 -114q0 -64 23.5 -128.5t77.5 -141.5h228v-105h-225v-921h-387v921h-291v-921h-387v921h-122v105h121q-30 56 -46.5 105.5t-16.5 97.5q0 92 51 158t149.5 101t237.5 35q89 0 176.5 -24.5t150.5 -73.5
q54 48 138 73t190 25q121 0 224.5 -49t167.5 -148l218 177h115zM771.5 1131.5q-16.5 49.5 -16.5 97.5q0 59 23 110q-55 38 -114.5 53.5t-115.5 15.5q-58 0 -91 -35t-33 -91q0 -107 101 -256h293q-30 56 -46.5 105.5z" />
    <glyph glyph-name="f_i" unicode="fi" horiz-adv-x="1211" 
d="M1132 0h-388v921h-216v-921h-387v921h-122v105h121q-30 56 -46.5 105.5t-16.5 97.5q0 92 51 158t149.5 101t237.5 35q90 0 177.5 -24.5t150.5 -74.5l-40 -104q-59 48 -125.5 68t-129.5 20q-58 0 -91 -35t-33 -91q0 -107 101 -256h607v-1026z" />
    <glyph glyph-name="f_l" unicode="fl" horiz-adv-x="1328" 
d="M1217 1503v-1503h-386v1224q-47 86 -122 136t-178 50q-107 0 -107 -114q0 -64 23.5 -128.5t77.5 -141.5h228v-105h-225v-921h-387v921h-122v105h121q-30 56 -46.5 105.5t-16.5 97.5q0 91 51 157.5t144.5 101.5t219.5 35q121 0 224.5 -49t167.5 -148l218 177h115z" />
    <glyph glyph-name=".notdef" horiz-adv-x="1395" 
 />
    <glyph glyph-name="nonmarkingreturn" unicode="&#xd;" horiz-adv-x="366" 
 />
    <glyph glyph-name="space" unicode=" " horiz-adv-x="510" 
 />
    <glyph glyph-name="uniF8FF" unicode="&#xf8ff;" horiz-adv-x="814" 
 />
    <glyph glyph-name="A" unicode="A" horiz-adv-x="1418" 
d="M976 0l-134 376h-526l-137 -376h-170l547 1439h297l556 -1439h-433zM362 503h435l-215 603z" />
    <glyph glyph-name="B" unicode="B" horiz-adv-x="1405" 
d="M1166 685.5q99 -50.5 149.5 -127t50.5 -167.5q0 -206 -168 -298.5t-501 -92.5h-562v1439h623q175 0 296.5 -43t184 -124t62.5 -193q0 -84 -49 -153t-134.5 -114.5t-191.5 -61.5q141 -14 240 -64.5zM540 810h124q69 0 119.5 31t77 83.5t26.5 116.5q0 70 -28.5 126.5
t-86.5 89.5t-141 33h-91v-480zM826.5 184q54.5 35 81.5 95t27 136q0 250 -263 250h-132v-516h153q79 0 133.5 35z" />
    <glyph glyph-name="C" unicode="C" horiz-adv-x="1418" 
d="M418 66.5q-167 90.5 -259.5 255t-92.5 378.5q0 226 97 398.5t277.5 268t422.5 95.5q268 0 462 -138l-68 -127q-148 116 -366 116q-122 0 -210.5 -75.5t-134 -207t-45.5 -295.5q0 -168 49.5 -300.5t147 -209t237.5 -76.5q114 0 213 50.5t168 124.5l71 -98
q-194 -250 -585 -250q-217 0 -384 90.5z" />
    <glyph glyph-name="D" unicode="D" horiz-adv-x="1569" 
d="M640 1439q271 0 464 -79t296 -239.5t103 -400.5q0 -239 -102 -399.5t-295.5 -240.5t-467.5 -80h-503v1439h505zM975.5 286q93.5 139 93.5 428q0 297 -95.5 437.5t-296.5 140.5h-133v-1145h134q204 0 297.5 139z" />
    <glyph glyph-name="E" unicode="E" horiz-adv-x="1228" 
d="M135 1439h1043v-147h-634v-483h423v-145h-423v-517h655v-147h-1064v1439z" />
    <glyph glyph-name="F" unicode="F" horiz-adv-x="1197" 
d="M135 1439h1050v-147h-641v-499h420v-156h-420v-637h-409v1439z" />
    <glyph glyph-name="G" unicode="G" horiz-adv-x="1498" 
d="M439 68q-175 92 -274 258t-99 381q0 219 101.5 390.5t288 268t430.5 96.5q126 0 242.5 -37.5t211.5 -113.5l-68 -125q-63 58 -155.5 93t-210.5 35q-130 0 -222 -77.5t-139 -214.5t-47 -313q0 -182 45 -313.5t127 -201t190 -69.5q98 0 174 34v460h-247v140h632v-633
q-89 -46 -165 -77t-181 -52t-237 -21q-222 0 -397 92z" />
    <glyph glyph-name="H" unicode="H" horiz-adv-x="1574" 
d="M1031 1439h408v-1439h-408v654h-487v-654h-409v1439h409v-638h487v638z" />
    <glyph glyph-name="I" unicode="I" horiz-adv-x="679" 
d="M135 1439h409v-1439h-409v1439z" />
    <glyph glyph-name="J" unicode="J" horiz-adv-x="1082" 
d="M3 85l63 123q57 -42 124.5 -65t156.5 -23q97 0 141.5 74t44.5 236v1009h407v-994q0 -153 -75.5 -258.5t-204 -158t-286.5 -52.5q-215 0 -371 109z" />
    <glyph glyph-name="K" unicode="K" horiz-adv-x="1495" 
d="M135 1439h409v-1439h-409v1439zM602 673l530 766h168l-382 -546l573 -893h-483z" />
    <glyph glyph-name="L" unicode="L" horiz-adv-x="1116" 
d="M135 1439h409v-1292h561v-147h-970v1439z" />
    <glyph glyph-name="M" unicode="M" horiz-adv-x="1849" 
d="M542 1439l338 -758l55 -124l41 106l346 776h391v-1439h-407v797l6 260l-426 -954h-150l-458 953l7 -255v-801h-150v1439h407z" />
    <glyph glyph-name="N" unicode="N" horiz-adv-x="1465" 
d="M275 1061l10 -232v-829h-150v1439h342l712 -949l-9 213v736h150v-1439l-261 -1z" />
    <glyph glyph-name="O" unicode="O" horiz-adv-x="1628" 
d="M421 70.5q-169 94.5 -262 262.5t-93 383t93 384.5t262 265t390 95.5t391.5 -95t265 -263.5t94.5 -382.5q0 -217 -93.5 -386t-264 -263.5t-393.5 -94.5q-221 0 -390 94.5zM1052.5 260q78.5 135 78.5 377q0 143 -30 297.5t-105 266t-200 111.5q-147 0 -223 -135.5
t-76 -376.5q0 -141 29.5 -295.5t102.5 -267t195 -112.5q150 0 228.5 135z" />
    <glyph glyph-name="P" unicode="P" horiz-adv-x="1338" 
d="M1036 1381q140 -58 211 -161t71 -236q0 -136 -75.5 -242t-214.5 -165t-322 -59h-151l-11 34v-552h-409v1439h562q199 0 339 -58zM821 740.5q66 74.5 66 241.5q0 143 -68 227t-205 84h-70v-627h91q120 0 186 74.5z" />
    <glyph glyph-name="Q" unicode="Q" horiz-adv-x="1628" 
d="M1502 404q-60 -144 -171.5 -244.5t-263.5 -146.5l386 -216l-133 -122l-514 301q-220 1 -388 95.5t-260 262.5t-92 382q0 215 93 384.5t262 265t390 95.5t391.5 -95t265 -263.5t94.5 -382.5q0 -172 -60 -316zM526.5 504.5q29.5 -154.5 102.5 -267t195 -112.5
q150 0 228.5 135t78.5 377q0 143 -30 297.5t-105 266t-200 111.5q-147 0 -223 -135.5t-76 -376.5q0 -141 29.5 -295.5z" />
    <glyph glyph-name="R" unicode="R" horiz-adv-x="1434" 
d="M944 0l-286 605h-65l-10 115h64q124 0 188 78t64 205q0 134 -67.5 212t-211.5 78h-76v-1293h-409v1439h571q199 0 339 -55t211.5 -152.5t71.5 -222.5q0 -89 -41 -166.5t-120.5 -134.5t-192.5 -83l61 -15l390 -610h-481z" />
    <glyph glyph-name="S" unicode="S" horiz-adv-x="1215" 
d="M317.5 21q-132.5 45 -265.5 127l72 128q107 -69 223 -110t251 -41q103 0 162.5 44t59.5 129q0 54 -38.5 99.5t-103 85t-173.5 94.5q-132 67 -219 125t-145 144.5t-58 203.5q0 125 72 218t198 143t286 50q129 0 252.5 -39t217.5 -109l-74 -129q-168 128 -405 128
q-87 0 -138.5 -40t-51.5 -110q0 -51 43.5 -96.5t105.5 -81.5t164 -85q135 -65 225.5 -129t145 -154.5t54.5 -213.5q0 -135 -76 -231t-208.5 -145.5t-300.5 -49.5q-143 0 -275.5 45z" />
    <glyph glyph-name="T" unicode="T" horiz-adv-x="1332" 
d="M463 1290h-450v149h1307v-149h-449v-1290h-408v1290z" />
    <glyph glyph-name="U" unicode="U" horiz-adv-x="1461" 
d="M411 39q-140 63 -214 184t-74 294v922h408v-944q0 -172 79 -259.5t233 -87.5q108 0 187 45t122 132.5t43 211.5v902h150v-882q0 -282 -142.5 -431.5t-454.5 -149.5q-197 0 -337 63z" />
    <glyph glyph-name="V" unicode="V" horiz-adv-x="1380" 
d="M9 1439h441l332 -921l38 -128l42 119l350 930h159l-544 -1439h-259z" />
    <glyph glyph-name="W" unicode="W" horiz-adv-x="2014" 
d="M1846 1439h159l-496 -1439h-250l-246 762l-262 -762h-246l-496 1439l451 2l310 -991l173 490l-170 499h447l296 -989l43 130z" />
    <glyph glyph-name="X" unicode="X" horiz-adv-x="1446" 
d="M1439 0h-480l-347 557l-72 -128l-292 -429h-180l462 662l-502 777l477 2l310 -497l32 51l289 444h179l-413 -607z" />
    <glyph glyph-name="Y" unicode="Y" horiz-adv-x="1385" 
d="M482 607l-473 832h461l305 -575l32 -77l56 95l338 557h175l-485 -787v-652h-409v607z" />
    <glyph glyph-name="Z" unicode="Z" horiz-adv-x="1290" 
d="M45 37q-2 50 -2 75l712 1184h-645l-6 143h1138q0 -29 1 -44l1 -46l-729 -1206h725v-143h-1194z" />
    <glyph glyph-name="AE" unicode="&#xc6;" horiz-adv-x="2071" 
d="M2042 147v-147h-1064v373h-553l-234 -373h-182l896 1439h1116v-147h-634v-483h423v-145h-423v-517h655zM506 502h472v753z" />
    <glyph glyph-name="OE" unicode="&#x152;" horiz-adv-x="2148" 
d="M2118 0h-1097q-99 -24 -210 -24q-221 0 -390 94.5t-262 262.5t-93 383t93 384.5t262 265t390 95.5q102 0 199 -22h1058v-149h-754q104 -88 166.5 -211.5t77.5 -272.5h313v-140h-311q-9 -160 -71.5 -293t-171.5 -225h801v-148zM526.5 504.5q29.5 -154.5 102.5 -267
t195 -112.5q150 0 228.5 135t78.5 377q0 143 -30 297.5t-105 266t-200 111.5q-147 0 -223 -135.5t-76 -376.5q0 -141 29.5 -295.5z" />
    <glyph glyph-name="Eth" unicode="&#xd0;" horiz-adv-x="1569" 
d="M1104 1360q193 -79 296 -239.5t103 -400.5q0 -239 -102 -399.5t-295.5 -240.5t-467.5 -80h-503v662h-120v117h120v660h505q271 0 464 -79zM975.5 286q93.5 139 93.5 428q0 297 -95.5 437.5t-296.5 140.5h-133v-513h218v-117h-218v-515h134q204 0 297.5 139z" />
    <glyph glyph-name="Thorn" unicode="&#xde;" horiz-adv-x="1352" 
d="M544 1439v-215h72q357 -2 536.5 -131.5t179.5 -372.5q0 -247 -176 -378.5t-521 -131.5h-91v-210h-409v1439h409zM897 711q0 363 -287 366h-66v-721h87q266 0 266 355z" />
    <glyph glyph-name="uni1E9E" unicode="&#x1e9e;" horiz-adv-x="1526" 
d="M753 53l46 127q45 -35 95 -53.5t99 -18.5q71 0 102 51.5t31 124.5q0 90 -40 166t-122 149.5t-221 167.5l270 508q-86 42 -186 42q-53 0 -94.5 -31t-65 -91t-23.5 -143l1 -1052h-392v932h-130v106h136l-1 19q13 221 174.5 311.5t399.5 90.5q293 0 523 -202l-251 -381
q201 -77 292 -195t91 -280q0 -115 -49 -211.5t-151 -155t-252 -58.5t-282 77z" />
    <glyph glyph-name="Eng" unicode="&#x14a;" horiz-adv-x="1465" 
d="M1330 1439v-1439q-1 -82 -52 -160t-170 -135t-312 -72l-26 114q148 22 209.5 91t61.5 189v9l-766 1025l10 -232v-829h-150v1439h342l712 -949l-9 213v736h150z" />
    <glyph glyph-name="uni019D" unicode="&#x19d;" horiz-adv-x="1460" 
d="M1325 1439v-1439l-261 -1l-794 1062l10 -232v-674q13 -43 13 -152q0 -167 -95 -262t-303 -120l-26 110q94 15 150 48.5t82.5 87t29.5 133.5h-1v1439h342l712 -949l-9 213v736h150z" />
    <glyph glyph-name="uni018F" unicode="&#x18f;" horiz-adv-x="1544" 
d="M1124.5 1369q164.5 -93 259 -259.5t94.5 -379.5q0 -217 -95 -389t-262.5 -268.5t-378.5 -96.5q-190 0 -340 84t-235.5 233.5t-87.5 341.5q0 35 3 57h966q-3 164 -55 297.5t-147 211t-221 77.5q-128 0 -235 -68t-189 -168l-75 110q106 146 265 228t366 82q203 0 367.5 -93
zM958.5 245q72.5 133 86.5 337h-552q1 -148 32.5 -253.5t89.5 -161t138 -55.5q133 0 205.5 133z" />
    <glyph glyph-name="a" unicode="a" horiz-adv-x="1117" 
d="M1015 319v-319h-115l-190 228q-162 -252 -391 -252q-78 0 -142 29t-102 86t-38 136q0 165 145 261.5t446 128.5v51q0 112 -35 182.5t-131 70.5q-81 0 -173 -31.5t-153 -71.5l-42 107q90 55 208 89.5t243 34.5q251 0 360 -108t109 -315zM568.5 187.5q30.5 17.5 59.5 48.5
v288q-76 -9 -131.5 -42t-84.5 -81t-29 -102q0 -57 31 -93t88 -36q36 0 66.5 17.5z" />
    <glyph glyph-name="b" unicode="b" horiz-adv-x="1263" 
d="M1013.5 990q91.5 -60 146.5 -174t55 -269q0 -169 -71.5 -298.5t-206 -201t-317.5 -71.5q-286 0 -509 165v1362h386v-592q62 58 145.5 98.5t171.5 40.5q108 0 199.5 -60zM772.5 203.5q49.5 97.5 49.5 274.5q0 179 -49 280.5t-144 101.5q-60 0 -132 -68v-635
q25 -24 59 -37.5t74 -13.5q93 0 142.5 97.5z" />
    <glyph glyph-name="c" unicode="c" horiz-adv-x="1061" 
d="M301.5 38.5q-118.5 62.5 -185.5 180.5t-67 277q0 162 75.5 288t211.5 196.5t310 70.5q191 0 337 -107l-55 -100q-56 41 -120 60t-127 19q-128 0 -183.5 -95.5t-55.5 -268.5q0 -193 59 -311.5t191 -118.5q79 0 146 43.5t126 113.5l74 -79q-69 -101 -187.5 -166t-280.5 -65
q-150 0 -268.5 62.5z" />
    <glyph glyph-name="d" unicode="d" horiz-adv-x="1260" 
d="M1149 1503v-1503h-115l-184 220q-157 -244 -384 -244q-124 0 -218.5 64t-146.5 181t-52 272q0 163 63.5 289.5t179.5 197t269 70.5q118 0 201 -45v498h387zM762 245v591q-30 40 -66.5 60.5t-77.5 20.5q-53 0 -92.5 -44t-61.5 -128t-22 -201q0 -178 47.5 -270t140.5 -92
q62 0 132 63z" />
    <glyph glyph-name="e" unicode="e" horiz-adv-x="1116" 
d="M416 553v-3q0 -186 59.5 -306t193.5 -120q164 0 309 171l67 -81q-74 -108 -193 -172.5t-289 -64.5q-156 0 -272 64.5t-179 183.5t-63 278t68.5 283.5t192 194.5t282.5 70q148 0 256.5 -63.5t165 -176.5t53.5 -258h-651zM418 624h292q-1 156 -34.5 234t-98.5 78
q-145 0 -159 -312z" />
    <glyph glyph-name="f" unicode="f" horiz-adv-x="756" 
d="M19 921v105h121q-30 56 -46.5 105.5t-16.5 97.5q0 92 51 158t149.5 101t237.5 35q89 0 173 -24.5t146 -74.5l-49 -91q-54 36 -116.5 53t-120.5 17t-91 -35t-33 -91q0 -106 101 -251h228v-105h-225v-921h-387v921h-122z" />
    <glyph glyph-name="g" unicode="g" horiz-adv-x="1195" 
d="M1073.5 164.5q117.5 -77.5 117.5 -231.5q0 -113 -74.5 -195.5t-213.5 -126.5t-330 -44q-240 0 -374.5 72.5t-173.5 198.5q54 80 204 130q-70 29 -110 81t-40 128q0 79 54 134t146 97q-92 45 -143 119.5t-51 174.5q0 109 63.5 188t173.5 120t245 41q85 0 162 -18t140 -52
l240 149l60 -93l-207 -125q89 -89 89 -213q0 -104 -59.5 -183.5t-169 -123.5t-254.5 -44q-118 0 -219 32q-22 -19 -33 -34.5t-11 -33.5q0 -41 43 -55.5t121 -14.5h264q223 0 340.5 -77.5zM473.5 884.5q-29.5 -61.5 -29.5 -186.5t29.5 -185.5t94.5 -60.5q64 0 94 61t30 185
q0 125 -30.5 186.5t-94.5 61.5t-93.5 -61.5zM831.5 -286.5q76.5 38.5 76.5 113.5q0 55 -53.5 77t-144.5 22l-262 1q-74 2 -136 16q-38 -20 -76 -41.5t-64 -40.5q77 -187 403 -187h36q144 1 220.5 39.5z" />
    <glyph glyph-name="h" unicode="h" horiz-adv-x="1274" 
d="M1020 1014q72 -37 112 -111t40 -181v-722h-386v701q0 68 -32 105.5t-91 37.5q-100 0 -165 -83v-761h-387v1503h387v-613q78 86 167 123.5t188 37.5q95 0 167 -37z" />
    <glyph glyph-name="i" unicode="i" horiz-adv-x="610" 
d="M191 1164q-51 26 -80.5 72t-29.5 103q0 56 30 101.5t81 72t112 26.5q62 0 114 -26.5t82.5 -72t30.5 -101.5q0 -57 -30 -103t-82 -72t-115 -26q-62 0 -113 26zM111 1026h388v-1026h-388v1026z" />
    <glyph glyph-name="dotlessi" unicode="&#x131;" horiz-adv-x="610" 
d="M111 1026h388v-1026h-388v1026z" />
    <glyph glyph-name="j" unicode="j" horiz-adv-x="618" 
d="M33 -257q65 46 88 107q0 140 -1 200v976h387v-877q0 -146 -79.5 -269t-217 -206t-307.5 -116l-26 115q91 24 156 70zM198 1165.5q-52 26.5 -82 73.5t-30 105q0 57 30 103.5t82 73t115 26.5t116 -27t83.5 -73.5t30.5 -102.5q0 -58 -30.5 -105t-83.5 -73.5t-116 -26.5
t-115 26.5z" />
    <glyph glyph-name="uni0237" unicode="&#x237;" horiz-adv-x="618" 
d="M33 -257q65 46 88 107q0 140 -1 200v976h387v-877q0 -146 -79.5 -269t-217 -206t-307.5 -116l-26 115q91 24 156 70z" />
    <glyph glyph-name="k" unicode="k" horiz-adv-x="1280" 
d="M843 715l424 -704v-11h-455l-227 443l-87 -91v-352h-387v1503h387v-981l451 504h188z" />
    <glyph glyph-name="l" unicode="l" horiz-adv-x="610" 
d="M111 1503h387v-1503h-387v1503z" />
    <glyph glyph-name="m" unicode="m" horiz-adv-x="1881" 
d="M1631.5 1010q71.5 -41 109.5 -115.5t38 -172.5v-722h-386v698q0 68 -27.5 106.5t-76.5 38.5q-91 0 -152 -85q1 -12 1 -36v-722h-386v700q0 68 -27 106t-76 38q-44 0 -82.5 -23.5t-68.5 -66.5v-754h-387v1026h115l201 -221q175 246 394 246q107 0 182.5 -49t109.5 -135
q80 100 164.5 142t184.5 42q98 0 169.5 -41z" />
    <glyph glyph-name="n" unicode="n" horiz-adv-x="1274" 
d="M1028.5 1008.5q71.5 -42.5 107.5 -115.5t36 -165v-728h-386v701q0 67 -32 105t-91 38q-51 0 -91.5 -20t-73.5 -62v-762h-387v1026h115l196 -216q185 241 433 241q102 0 173.5 -42.5z" />
    <glyph glyph-name="o" unicode="o" 
d="M325.5 45.5q-128.5 69.5 -202.5 191.5t-74 275q0 183 94.5 304.5t226 178t243.5 56.5q159 0 288.5 -70t204 -192.5t74.5 -274.5q0 -183 -94.5 -304.5t-227 -177.5t-245.5 -56q-159 0 -287.5 69.5zM746.5 187q43.5 81 43.5 238q0 96 -16.5 210t-59 200t-114.5 86
q-75 0 -117.5 -79t-42.5 -236q0 -96 16 -210.5t58 -202t113 -87.5q76 0 119.5 81z" />
    <glyph glyph-name="p" unicode="p" horiz-adv-x="1263" 
d="M1013 991q94 -60 147.5 -173t53.5 -266q0 -177 -67.5 -307t-191.5 -199.5t-290 -69.5q-94 0 -167 26v-421h-387v1445h115l186 -204q86 108 191.5 168.5t197.5 60.5q118 0 212 -60zM773 210q49 104 49 272q0 373 -184 373q-68 0 -140 -63v-631q58 -55 128 -55
q98 0 147 104z" />
    <glyph glyph-name="q" unicode="q" horiz-adv-x="1263" 
d="M1152 1026v-1445h-387v527q-135 -132 -300 -132q-126 0 -220 64.5t-145 180.5t-51 268q0 167 64 294t181 197t272 70q118 0 208.5 -41t145.5 -112l117 129h115zM765 237v606l4 -3v10q-31 35 -69 51.5t-77 16.5q-84 0 -133 -95.5t-49 -283.5q0 -173 49 -271t145 -98
q61 0 130 67z" />
    <glyph glyph-name="r" unicode="r" horiz-adv-x="933" 
d="M827 1036q39 -10 82 -27l-31 -131q-88 34 -167 34q-59 0 -111 -33t-102 -92v-787h-387v1026h115l197 -216q61 106 145.5 171t176.5 65q43 0 82 -10z" />
    <glyph glyph-name="s" unicode="s" horiz-adv-x="982" 
d="M242 5.5q-116 29.5 -191 76.5l43 112q82 -50 188.5 -76t178.5 -26q79 0 117.5 34.5t38.5 85.5q0 48 -42 83t-128 73l-64 22q-93 38 -161 82t-111 109.5t-43 155.5q0 155 122.5 234.5t328.5 79.5q100 0 194.5 -23.5t169.5 -65.5l-39 -112q-66 38 -156 61.5t-158 23.5
q-61 0 -97.5 -31.5t-36.5 -78.5q0 -52 48.5 -88t150.5 -79l44 -18q142 -55 223 -132t81 -206q0 -102 -63 -176t-170.5 -112t-239.5 -38q-112 0 -228 29.5z" />
    <glyph glyph-name="t" unicode="t" horiz-adv-x="867" 
d="M291.5 16q-74.5 40 -113 114.5t-38.5 176.5v614h-123v82l146 23l237 245l126 -7v-238h282v-105h-282v-602q0 -72 33 -109.5t86 -37.5q49 0 88 14t83 41l46 -84q-73 -72 -174 -119.5t-217 -47.5q-105 0 -179.5 40z" />
    <glyph glyph-name="u" unicode="u" horiz-adv-x="1275" 
d="M1164 1026v-1026h-115l-199 238q-69 -131 -180.5 -196.5t-252.5 -65.5q-99 0 -170 41t-108 114.5t-37 168.5v726h386v-701q0 -67 33 -105t97 -38q51 0 89 20.5t70 64.5v759h387z" />
    <glyph glyph-name="v" unicode="v" horiz-adv-x="1090" 
d="M653 0h-209l-430 1026h434l195 -522l31 -119l42 124l196 517h164z" />
    <glyph glyph-name="w" unicode="w" horiz-adv-x="1599" 
d="M14 1026l396 1l190 -555l20 -85l18 85l122 362l-53 192h329l159 -551l14 -87l24 91l192 547h161l-397 -1026h-189l-151 509l-28 131l-23 -94l-200 -546h-200z" />
    <glyph glyph-name="x" unicode="x" horiz-adv-x="1109" 
d="M372 463l-356 563h428l157 -264l30 -57l36 58l186 263h175l-306 -424l375 -602h-427l-175 289l-35 66l-70 -104l-164 -251h-175z" />
    <glyph glyph-name="y" unicode="y" horiz-adv-x="1081" 
d="M1067 1026l-414 -1017l-58 -127q-63 -148 -168 -236t-211 -126l-39 118q79 32 149.5 96.5t111.5 153.5l30 68l-22 53l-432 1017h434l187 -533l30 -120l104 274l134 379h164z" />
    <glyph glyph-name="z" unicode="z" horiz-adv-x="1042" 
d="M36 102l499 788h-442v135l905 1l3 -105l-510 -786h493v-135h-945z" />
    <glyph glyph-name="ae" unicode="&#xe6;" horiz-adv-x="1712" 
d="M1012 553v-3q0 -186 59.5 -306t193.5 -120q164 0 309 171l67 -81q-74 -108 -193 -172.5t-289 -64.5q-155 0 -271 64t-179 181q-77 -117 -177 -181.5t-214 -64.5q-78 0 -141.5 29t-101.5 86t-38 136q0 109 62.5 181.5t192 116.5t336.5 66v80q0 250 -166 250
q-82 0 -165 -28t-161 -75l-42 107q90 56 210 90t247 34q197 0 291 -110q69 54 157 83t189 29q148 0 256.5 -63.5t165 -176.5t53.5 -258h-651zM1014 624h292q-1 156 -34.5 234t-98.5 78q-145 0 -159 -312zM594.5 200.5q43.5 30.5 85.5 87.5q-35 97 -35 215v24
q-84 -9 -143.5 -42t-89 -81.5t-29.5 -103.5q0 -58 30.5 -94t87.5 -36q50 0 93.5 30.5z" />
    <glyph glyph-name="oe" unicode="&#x153;" horiz-adv-x="1884" 
d="M1184 553v-3q0 -186 59.5 -306t193.5 -120q164 0 309 171l67 -81q-74 -108 -193 -172.5t-289 -64.5q-109 0 -198.5 31.5t-156.5 92.5q-83 -62 -182 -93.5t-181 -31.5q-159 0 -287.5 69.5t-202.5 191.5t-74 275q0 183 94.5 304.5t226 178t243.5 56.5q110 0 207 -34
t172 -96q72 63 165.5 96.5t202.5 33.5q148 0 256.5 -63.5t165 -176.5t53.5 -258h-651zM1186 624h292q-1 156 -34.5 234t-98.5 78q-145 0 -159 -312zM746.5 187q43.5 81 43.5 238q0 96 -16.5 210t-59 200t-114.5 86q-75 0 -117.5 -79t-42.5 -236q0 -96 16 -210.5t58 -202
t113 -87.5q76 0 119.5 81z" />
    <glyph glyph-name="eth" unicode="&#xf0;" horiz-adv-x="1223" 
d="M1024.5 1111q149.5 -209 149.5 -520q0 -190 -68 -328.5t-195 -212.5t-300 -74q-162 0 -290 66t-200 185t-72 274q0 148 72 267t188.5 185.5t243.5 66.5q78 0 136.5 -26t96.5 -66q-22 111 -90 200.5t-168 153.5l-105 -173l-35 19l105 175q-126 71 -279 98l29 126
q183 -25 336 -83l96 160l35 -20l-94 -155q259 -109 408.5 -318zM735.5 212q41.5 107 41.5 294q0 188 -44.5 287.5t-124.5 99.5q-166 0 -166 -400q0 -189 42.5 -288.5t127.5 -99.5q82 0 123.5 107z" />
    <glyph glyph-name="thorn" unicode="&#xfe;" horiz-adv-x="1285" 
d="M1034 991q94 -60 148 -173t54 -266q0 -177 -68 -307t-192.5 -199.5t-288.5 -69.5q-111 0 -189 36v-431h-387v1922h387v-602q77 73 162.5 111.5t161.5 38.5q118 0 212 -60zM795 210.5q51 104.5 51 271.5q0 186 -48.5 281t-139.5 95q-76 0 -160 -87v-585q28 -36 67 -58
t82 -22q97 0 148 104.5z" />
    <glyph glyph-name="germandbls" unicode="&#xdf;" horiz-adv-x="1397" 
d="M1126 756q105 -64 167.5 -165t60.5 -224q-1 -118 -61 -207t-164 -136.5t-234 -47.5q-76 0 -140.5 20t-143.5 62l43 124q69 -40 112.5 -55t98.5 -15q39 0 72 20t52 59t18 94q-4 130 -99 235t-274 195v108q102 50 152 142t50 200q0 104 -35 169.5t-103 65.5
q-82 0 -122.5 -89t-40.5 -243v-1068l-387 3v859h-128v147h130v17q0 188 85 300.5t211.5 158t263.5 45.5q128 0 237 -42.5t174 -124.5t65 -194q0 -68 -39 -135t-105 -119t-145 -77q124 -18 229 -82z" />
    <glyph glyph-name="eng" unicode="&#x14b;" horiz-adv-x="1274" 
d="M1028.5 1008.5q71.5 -42.5 107.5 -115.5t36 -165v-728q-1 -136 -79.5 -227.5t-209 -147t-314.5 -94.5l-26 113q122 37 182.5 104t60.5 185v768q0 67 -32 105t-91 38q-51 0 -91.5 -20t-73.5 -62v-762h-387v1026h115l196 -216q185 241 433 241q102 0 173.5 -42.5z" />
    <glyph glyph-name="uni0272" unicode="&#x272;" horiz-adv-x="1288" 
d="M1028.5 1008.5q71.5 -42.5 107.5 -115.5t36 -165v-728h-386v701q0 67 -32 105t-91 38q-51 0 -91.5 -20t-73.5 -62v-762q-1 -136 -79.5 -227.5t-209 -147t-314.5 -94.5l-26 113q122 37 182.5 104t60.5 185v67h-1v1026h115l196 -216q185 241 433 241q102 0 173.5 -42.5z
" />
    <glyph glyph-name="uni0259" unicode="&#x259;" horiz-adv-x="1116" 
d="M825 984.5q116 -64.5 179 -183.5t63 -278t-68.5 -283.5t-192 -194.5t-282.5 -70q-148 0 -256.5 63.5t-165 176.5t-53.5 258h651v3q0 186 -59.5 306t-193.5 120q-164 0 -309 -171l-67 81q74 108 193 172.5t289 64.5q156 0 272 -64.5zM698 402h-292q1 -156 34.5 -234
t98.5 -78q145 0 159 312z" />
    <glyph glyph-name="zero" unicode="0" horiz-adv-x="1431" 
d="M376.5 69q-146.5 93 -228.5 262t-82 388t82 387.5t228 261t334 92.5q190 0 339 -92.5t233 -261t84 -387.5t-84 -388t-233 -262t-339 -93q-187 0 -333.5 93zM873.5 277q53.5 155 53.5 440t-54 439.5t-163 154.5q-207 0 -207 -594q0 -287 50.5 -441t156.5 -154
q110 0 163.5 155z" />
    <glyph glyph-name="one" unicode="1" horiz-adv-x="784" 
d="M244 1133l-177 -95l-53 112l543 303h92v-1453h-405v1133z" />
    <glyph glyph-name="two" unicode="2" horiz-adv-x="1208" 
d="M1139 306v-306h-1073l-13 175q326 301 491.5 520t165.5 382q0 117 -52.5 184t-149.5 67q-92 0 -193.5 -36t-186.5 -110l-33 129q96 72 210 111t228 39q183 0 315 -48.5t202.5 -139.5t70.5 -218q0 -109 -66.5 -204t-174 -180.5t-321.5 -233.5q-100 -68 -188 -131h768z" />
    <glyph glyph-name="three" unicode="3" horiz-adv-x="1219" 
d="M1039.5 651.5q103.5 -92.5 103.5 -247.5q0 -138 -82 -234t-228.5 -145t-338.5 -49q-118 0 -235.5 36.5t-187.5 95.5l50 122q68 -54 173.5 -87t199.5 -33q125 0 189.5 75t64.5 194q0 90 -45.5 160t-130.5 109t-200 39v125q164 1 240 74t76 204q0 102 -45.5 169t-127.5 67
q-92 0 -189.5 -31.5t-168.5 -87.5l-44 126q93 64 204.5 96t235.5 32q165 0 285.5 -42.5t185 -122t64.5 -189.5q0 -78 -40.5 -147t-116 -117t-174.5 -65q179 -34 282.5 -126.5z" />
    <glyph glyph-name="four" unicode="4" horiz-adv-x="1282" 
d="M614 344h-571l-6 125l742 971h232v-965h194v-131h-194v-344h-397v344zM617 475v567l-432 -567h432z" />
    <glyph glyph-name="five" unicode="5" horiz-adv-x="1199" 
d="M866 863.5q120 -58.5 189.5 -165t69.5 -245.5q0 -150 -81 -258t-220.5 -163.5t-313.5 -55.5q-123 0 -237.5 36.5t-177.5 96.5l49 115q59 -54 160.5 -85.5t192.5 -31.5q69 0 122 35t82 98t29 146q0 132 -74 208t-215 76q-92 0 -196 -28l-83 45l100 752h797v-307h-684
l-38 -260q50 23 118 36.5t144 13.5q147 0 267 -58.5z" />
    <glyph glyph-name="six" unicode="6" horiz-adv-x="1285" 
d="M1039 893.5q94 -55.5 148 -157t54 -232.5q0 -156 -76 -276t-211 -186t-306 -66q-179 0 -312 74.5t-205 207t-72 301.5q0 204 95 387.5t308.5 323.5t550.5 201l52 -116q-238 -53 -377.5 -195.5t-187.5 -372.5q54 71 143.5 116.5t184.5 45.5q117 0 211 -55.5zM782 198.5
q45 90.5 45 252.5q0 154 -44.5 232.5t-127.5 78.5q-92 0 -173 -92q-8 -82 -8 -160q0 -189 46.5 -295.5t135.5 -106.5q81 0 126 90.5z" />
    <glyph glyph-name="seven" unicode="7" horiz-adv-x="1150" 
d="M332 362q112 185 244 361t309 394l-810 -1v323h1052l17 -144q-194 -342 -339.5 -653t-243.5 -642h-393v18q52 159 164 344z" />
    <glyph glyph-name="eight" unicode="8" horiz-adv-x="1306" 
d="M1108.5 712.5q74.5 -61.5 109.5 -137.5t36 -176q0 -127 -75.5 -223t-211 -148t-311.5 -52q-172 0 -304.5 47.5t-205.5 134t-73 200.5q0 83 40.5 151.5t111 114.5t157.5 65q-132 72 -196 157.5t-64 211.5q0 120 68.5 211.5t192.5 142t285 50.5q156 0 278 -45.5t190 -127
t68 -185.5q0 -106 -84 -174.5t-209 -97.5q123 -58 197.5 -119.5zM595.5 1305.5q-38.5 -24.5 -59.5 -66.5t-21 -92q0 -52 24 -91.5t76.5 -75.5t146.5 -80q46 38 66.5 95t20.5 122q0 99 -42.5 156t-123.5 57q-49 0 -87.5 -24.5zM806.5 166q55.5 59 55.5 155q0 68 -37.5 116.5
t-101.5 85t-188 92.5q-46 -54 -75 -122t-29 -133q0 -74 29.5 -131.5t81 -89.5t115.5 -32q94 0 149.5 59z" />
    <glyph glyph-name="nine" unicode="9" horiz-adv-x="1303" 
d="M989 1386.5q133 -74.5 205 -207t72 -301.5q0 -203 -95 -387t-308.5 -324t-550.5 -201l-52 116q238 53 377.5 196t187.5 373q-54 -71 -143.5 -117t-184.5 -46q-117 0 -211 55.5t-148 157t-54 233.5q0 155 76 275t210.5 186t306.5 66q179 0 312 -74.5zM843 767q8 82 8 161
q0 188 -46.5 294.5t-135.5 106.5q-81 0 -126 -90t-45 -252q0 -154 44.5 -233t127.5 -79q92 0 173 92z" />
    <glyph glyph-name="C.ss01" horiz-adv-x="1444" 
d="M427.5 61q-168.5 91 -262 256.5t-93.5 382.5q0 225 103.5 398t291.5 268.5t433 95.5q154 0 276.5 -59t191 -157t68.5 -212q0 -109 -54.5 -198.5t-170.5 -143.5t-292 -54q-28 0 -43 1v119q138 -4 231 30.5t137.5 94.5t44.5 133q0 76 -46.5 144.5t-132 110.5t-197.5 42
q-124 0 -216 -77t-141 -208.5t-49 -292.5q0 -171 50.5 -304.5t150 -210.5t241.5 -77q119 0 224.5 56t176.5 145l55 -124q-196 -250 -590 -250q-219 0 -387.5 91z" />
    <glyph glyph-name="G.ss01" horiz-adv-x="1453" 
d="M1422 759v-633q-91 -47 -166 -77t-180.5 -51.5t-237.5 -21.5q-223 0 -398.5 92t-274.5 258t-99 381q0 219 103.5 390.5t292 268t435.5 96.5q155 0 269 -56t173.5 -145.5t59.5 -187.5q0 -104 -67.5 -189t-196.5 -125h287zM1038 628h-252v131h141q116 0 196 36t119.5 95.5
t39.5 128.5q0 74 -43.5 141t-127 109t-196.5 42q-130 0 -224.5 -77t-143.5 -213.5t-49 -311.5q0 -182 45.5 -313.5t127.5 -201t191 -69.5q97 0 176 34v469z" />
    <glyph glyph-name="a.ss01" horiz-adv-x="1262" 
d="M1151 1026v-1026h-114l-183 218q-81 -120 -177.5 -181t-207.5 -61q-125 0 -220 65t-147.5 182.5t-52.5 270.5q0 165 65 291t183 195.5t273 69.5q112 0 202 -41t146 -112l116 129h117zM490.5 275.5q49.5 -94.5 141.5 -94.5q67 0 132 62v602l4 -3v7q-62 69 -146 69
q-87 0 -134 -96.5t-47 -279.5q0 -172 49.5 -266.5z" />
    <glyph glyph-name="c.ss01" horiz-adv-x="1084" 
d="M302 38.5q-118 62.5 -184.5 180.5t-66.5 277q0 162 75 288t210.5 196.5t308.5 70.5q131 0 220 -44.5t131.5 -113t42.5 -142.5q0 -89 -47 -155t-135.5 -103.5t-209.5 -40.5l-3 92q88 0 146.5 25t86 66.5t27.5 92.5q0 57 -31 102.5t-86 71.5t-124 26q-111 0 -165 -97.5
t-54 -268.5q0 -200 61 -319.5t191 -119.5q74 0 142.5 43t140.5 118l59 -70q-69 -106 -187.5 -172t-281.5 -66q-149 0 -267 62.5z" />
    <glyph glyph-name="e.ss01" horiz-adv-x="1120" 
d="M852 987.5q108 -63.5 164 -176.5t54 -258h-268q93 -34 143.5 -104.5t50.5 -155.5q0 -81 -48 -153.5t-145.5 -117.5t-237.5 -45q-156 0 -272 64.5t-179 183.5t-63 278q0 158 69 283t193 195t283 70q148 0 256 -63.5zM420 624h292q-1 312 -131 312q-147 0 -161 -312z
M795.5 153.5q52.5 29.5 79.5 78t27 102.5t-26.5 102t-80.5 80t-132 37h-245v-3q0 -186 60 -306t194 -120q71 0 123.5 29.5z" />
    <glyph glyph-name="g.ss01" horiz-adv-x="1260" 
d="M1149 1026v-902q0 -198 -77 -329.5t-214.5 -195.5t-322.5 -64q-113 0 -214.5 30t-204.5 95l54 115q85 -55 167 -80.5t188 -25.5q118 0 177.5 104t59.5 296v46q-129 -131 -295 -131q-124 0 -219 64.5t-147 180.5t-52 264q0 166 63.5 292t180.5 195.5t272 69.5
q111 0 202 -42.5t148 -112.5l118 131h116zM762 254v587q-49 77 -137 77q-90 0 -137 -97t-47 -282q0 -167 47 -258t142 -91q65 0 132 64z" />
    <glyph glyph-name="y.ss01" horiz-adv-x="1324" 
d="M1191 1026v-871q0 -196 -83.5 -336t-228.5 -212t-328 -72q-160 0 -248.5 63t-88.5 180q0 79 40 129.5t110 83.5q-112 22 -173.5 104t-61.5 205v726h387v-701q0 -67 32.5 -105t96.5 -38q51 0 89 20.5t70 64.5v759h387zM680.5 -274q59.5 57 91.5 160.5t32 240.5v5
q-135 -149 -359 -149h-14q-53 -25 -84.5 -62t-31.5 -95q0 -77 57 -117t170 -40q79 0 138.5 57z" />
    <glyph glyph-name="a.ss02" horiz-adv-x="1150" 
d="M912 941.5q109 -107.5 109 -314.5v-627h-115l-190 228q-79 -125 -177 -188.5t-213 -63.5q-78 0 -142.5 29t-102.5 86t-38 136q0 124 81.5 201.5t252.5 120.5q-112 18 -181.5 78.5t-69.5 149.5q0 74 47 136t143 99t237 37q250 0 359 -107.5zM256.5 649.5
q34.5 -36.5 92.5 -57t127 -22.5q70 12 157 21v77q0 114 -31.5 183.5t-126.5 69.5q-77 0 -134.5 -27t-88 -70t-30.5 -90q0 -48 34.5 -84.5zM633 234v290q-76 -9 -131.5 -42t-84.5 -81t-29 -102q0 -57 32 -93t89 -36q64 0 124 64z" />
    <glyph glyph-name="g.ss02" horiz-adv-x="1222" 
d="M1100 163q116 -78 116 -233q0 -113 -74 -195t-213 -125t-330 -43l-43 107h80q145 1 221 39t76 112q0 101 -193 101l-263 1q-160 5 -264 64.5t-104 185.5q0 79 53.5 134t145.5 97q-92 45 -143.5 119.5t-51.5 174.5q0 109 64 188t174 120t245 41q86 0 164.5 -18.5
t141.5 -53.5q136 40 230 157l61 -93q-80 -102 -192 -142q79 -87 79 -202q0 -104 -60 -183.5t-169.5 -123.5t-253.5 -44q-118 0 -219 32q-22 -19 -33 -34.5t-11 -33.5q0 -41 43 -56t121 -15h264q222 0 338 -78zM502.5 884.5q-29.5 -61.5 -29.5 -186.5t29.5 -185.5t93.5 -60.5
t94.5 61t30.5 185q0 125 -30.5 186.5t-95.5 61.5q-63 0 -92.5 -61.5z" />
    <glyph glyph-name="k.ss02" horiz-adv-x="1342" 
d="M1310 0h-458l-240 500q232 24 340.5 91.5t108.5 175.5q0 41 -20.5 79t-65.5 62.5t-115 24.5q-79 0 -155.5 -44.5t-127 -113t-57.5 -136.5v-639h-388v1503h388v-687q41 72 107 125t142 80.5t146 27.5q78 0 142.5 -29t103 -85.5t38.5 -136.5q0 -112 -67.5 -187t-213.5 -119
l91 -2l298 -479z" />
    <glyph glyph-name="g.ss03" horiz-adv-x="1293" 
d="M1160 1026v-869q0 -197 -85 -337.5t-234 -212.5t-339 -72q-152 0 -240.5 65t-88.5 187q0 96 57 152t155 92q-101 19 -176.5 82t-116.5 160t-41 215q0 165 64.5 292.5t182.5 198.5t274 71q109 0 198.5 -40.5t146.5 -110.5l127 127h116zM493 824.5q-49 -98.5 -49 -285.5
q0 -147 49 -237t147 -90q33 0 67 20.5t66 53.5l-1 564q-30 41 -65.5 57t-76.5 16q-88 0 -137 -98.5zM644.5 -281q61.5 59 95 165t33.5 243v29q-83 -83 -181 -114q-27 -10 -65 -21q-74 -22 -121.5 -43t-82.5 -60t-35 -100q0 -77 54.5 -117.5t158.5 -40.5q82 0 143.5 59z" />
    <glyph glyph-name="P.ss04" horiz-adv-x="1346" 
d="M1042 1382q141 -57 212.5 -159t71.5 -236q0 -138 -74.5 -243t-220 -163.5t-352.5 -58.5h-135v-522h-409v1439h565q201 0 342 -57zM827 739q69 78 69 249q0 140 -70 222.5t-209 82.5h-73v-632h94q120 0 189 78z" />
    <glyph glyph-name="R.ss04" horiz-adv-x="1442" 
d="M709 1439q201 0 342.5 -53.5t213.5 -148.5t72 -220q0 -130 -74.5 -227.5t-201.5 -149.5l372 -640h-498l-263 586q-28 -2 -54 -2h-74v-584h-409v1439h574zM844.5 797.5q62.5 78.5 62.5 214.5q0 129 -69.5 205t-213.5 76h-80v-576l113 1q125 1 187.5 79.5z" />
    <glyph glyph-name="e.ss04" horiz-adv-x="1088" 
d="M1039 219q-81 -105 -199.5 -174t-283.5 -69q-156 0 -270.5 67t-175.5 185.5t-61 270.5q0 161 70 286.5t196 195.5t287 70q131 0 229.5 -39t152 -108.5t53.5 -157.5q0 -104 -75 -173.5t-203.5 -103.5t-291.5 -35h-31q16 -141 72 -223t157 -82q93 0 171.5 50.5t140.5 123.5
zM503 889.5q-36 -43.5 -55 -126.5t-19 -199q0 -25 1 -38h46q108 4 162 60t54 155q0 37 -10.5 82t-34.5 77.5t-60 32.5q-48 0 -84 -43.5z" />
    <glyph glyph-name="Aacute" unicode="&#xc1;" horiz-adv-x="1418" 
d="M976 0l-134 376h-526l-137 -376h-170l547 1439h297l556 -1439h-433zM362 503h435l-215 603zM621 1538l154 267l281 -19l-348 -254z" />
    <glyph glyph-name="Abreve" unicode="&#x102;" horiz-adv-x="1418" 
d="M976 0l-134 376h-526l-137 -376h-170l547 1439h297l556 -1439h-433zM362 503h435l-215 603zM533.5 1558.5q-67.5 42.5 -102.5 118t-37 173.5l86 4q15 -65 62.5 -97t153.5 -32t153.5 32t62.5 97l86 -4q-3 -98 -37.5 -173.5t-101.5 -118t-163 -42.5q-95 0 -162.5 42.5z" />
    <glyph glyph-name="uni1EAE" unicode="&#x1eae;" horiz-adv-x="1418" 
d="M964 2010l-264 -188l-66 4l117 198zM512.5 1595.5q-68.5 79.5 -70.5 210.5l74 4q14 -56 55 -84t134 -28q92 0 133 28t55 84l74 -4q-3 -131 -70.5 -210.5t-191.5 -79.5t-192.5 79.5zM976 0l-134 376h-526l-137 -376h-170l547 1439h297l556 -1439h-433zM362 503h435
l-215 603z" />
    <glyph glyph-name="uni1EB6" unicode="&#x1eb6;" horiz-adv-x="1418" 
d="M976 0l-134 376h-526l-137 -376h-170l547 1439h297l556 -1439h-433zM362 503h435l-215 603zM575.5 -443.5q-38.5 19.5 -60.5 54t-22 77.5q0 41 22.5 75t60.5 53.5t84 19.5t85 -19.5t61.5 -53.5t22.5 -75q0 -43 -22.5 -77.5t-61 -54t-85.5 -19.5q-46 0 -84.5 19.5z
M533.5 1558.5q-67.5 42.5 -102.5 118t-37 173.5l86 4q15 -65 62.5 -97t153.5 -32t153.5 32t62.5 97l86 -4q-3 -98 -37.5 -173.5t-101.5 -118t-163 -42.5q-95 0 -162.5 42.5z" />
    <glyph glyph-name="uni1EB0" unicode="&#x1eb0;" horiz-adv-x="1418" 
d="M736 1830l-65 -4l-259 184l209 14zM553 1728.5q42 -28.5 136 -28.5q93 0 134.5 28.5t55.5 85.5l76 -4q-3 -132 -71.5 -213t-194.5 -81q-84 0 -143.5 37.5t-90.5 104t-33 152.5l76 4q13 -57 55 -85.5zM976 0l-134 376h-526l-137 -376h-170l547 1439h297l556 -1439h-433z
M362 503h435l-215 603z" />
    <glyph glyph-name="uni1EB2" unicode="&#x1eb2;" horiz-adv-x="1418" 
d="M585 1920l-8 40q50 25 107 25q62 0 94.5 -23.5t32.5 -69.5q0 -37 -34 -73t-106 -58l-42 16q30 31 45 54t15 52q0 30 -12 44.5t-31 14.5q-30 0 -61 -22zM518 1591.5q-64 74.5 -66 195.5l70 4q12 -53 50.5 -79t124.5 -26t124.5 26t50.5 79l70 -4q-3 -122 -66.5 -196
t-178.5 -74t-179 74.5zM976 0l-134 376h-526l-137 -376h-170l547 1439h297l556 -1439h-433zM362 503h435l-215 603z" />
    <glyph glyph-name="uni1EB4" unicode="&#x1eb4;" horiz-adv-x="1418" 
d="M583 1840q-18 -13 -28 -38l-52 3q27 159 145 159q16 0 33.5 -6.5t41.5 -19.5q25 -13 39.5 -18.5t27.5 -5.5q50 0 71 51l51 -2q-12 -77 -47 -118.5t-96 -41.5q-15 0 -30.5 5.5t-29.5 12t-18 8.5q-23 12 -38 18t-28 6q-24 0 -42 -13zM527.5 1588q-61.5 72 -63.5 189l67 3
q12 -51 49 -76t120 -25q82 0 119 25t50 76l67 -3q-3 -118 -64 -189.5t-172 -71.5t-172.5 72zM976 0l-134 376h-526l-137 -376h-170l547 1439h297l556 -1439h-433zM362 503h435l-215 603z" />
    <glyph glyph-name="uni01CD" unicode="&#x1cd;" horiz-adv-x="1418" 
d="M976 0l-134 376h-526l-137 -376h-170l547 1439h297l556 -1439h-433zM362 503h435l-215 603zM744 1535h-91l-292 293l86 25l250 -127l249 127l89 -25z" />
    <glyph glyph-name="Acircumflex" unicode="&#xc2;" horiz-adv-x="1418" 
d="M976 0l-134 376h-526l-137 -376h-170l547 1439h297l556 -1439h-433zM362 503h435l-215 603zM649 1853h91l293 -295l-87 -25l-250 128l-248 -128l-90 25z" />
    <glyph glyph-name="uni1EA4" unicode="&#x1ea4;" horiz-adv-x="1418" 
d="M1280 1873l-233 -214l-58 6l103 225zM696 1661l-248 -128l-90 25l291 295h91l293 -295l-87 -25zM976 0l-134 376h-526l-137 -376h-170l547 1439h297l556 -1439h-433zM362 503h435l-215 603z" />
    <glyph glyph-name="uni1EAC" unicode="&#x1eac;" horiz-adv-x="1418" 
d="M976 0l-134 376h-526l-137 -376h-170l547 1439h297l556 -1439h-433zM362 503h435l-215 603zM575.5 -443.5q-38.5 19.5 -60.5 54t-22 77.5q0 41 22.5 75t60.5 53.5t84 19.5t85 -19.5t61.5 -53.5t22.5 -75q0 -43 -22.5 -77.5t-61 -54t-85.5 -19.5q-46 0 -84.5 19.5z
M649 1853h91l293 -295l-87 -25l-250 128l-248 -128l-90 25z" />
    <glyph glyph-name="uni1EA6" unicode="&#x1ea6;" horiz-adv-x="1418" 
d="M441 1689l-65 -6l-257 227l207 17zM448 1533l-90 25l291 295h91l293 -295l-87 -25l-250 128zM976 0l-134 376h-526l-137 -376h-170l547 1439h297l556 -1439h-433zM362 503h435l-215 603z" />
    <glyph glyph-name="uni1EA8" unicode="&#x1ea8;" horiz-adv-x="1418" 
d="M976 0l-134 376h-526l-137 -376h-170l547 1439h297l556 -1439h-433zM362 503h435l-215 603zM649 1853h91l293 -295l-87 -25l-250 128l-248 -128l-90 25zM1022 1773q21 32 21 74q0 43 -17 64t-45 21q-22 0 -42.5 -6.5t-46.5 -25.5l-11 58q38 20 75 28t79 8q89 0 136.5 -34
t47.5 -100q0 -53 -49.5 -105t-153.5 -83l-59 23q44 46 65 78z" />
    <glyph glyph-name="uni1EAA" unicode="&#x1eaa;" horiz-adv-x="1418" 
d="M532 1831l-60 3q30 168 165 168q19 0 37 -6.5t48 -20.5t46 -20t32 -6q28 0 48.5 14t31.5 41l59 -3q-27 -169 -164 -169q-19 0 -39 7t-50 21q-24 12 -41.5 18.5t-32.5 6.5q-58 0 -80 -54zM697 1632l-216 -111l-77 22l252 256h79l253 -256l-75 -22zM976 0l-134 376h-526
l-137 -376h-170l547 1439h297l556 -1439h-433zM362 503h435l-215 603z" />
    <glyph glyph-name="uni0200" unicode="&#x200;" horiz-adv-x="1418" 
d="M976 0l-134 376h-526l-137 -376h-170l547 1439h297l556 -1439h-433zM362 503h435l-215 603zM948 1560l-93 -8l-303 258l128 -255l-92 -8l-373 317l298 24l8 -16l259 21z" />
    <glyph glyph-name="Adieresis" unicode="&#xc4;" horiz-adv-x="1418" 
d="M976 0l-134 376h-526l-137 -376h-170l547 1439h297l556 -1439h-433zM362 503h435l-215 603zM380.5 1544q-35.5 18 -56 50t-20.5 72q0 39 20.5 70.5t56 49.5t78.5 18t79 -18t57.5 -50t21.5 -70q0 -40 -21 -72t-57 -50t-80 -18q-43 0 -78.5 18zM812.5 1565.5
q-44.5 39.5 -44.5 100.5q0 39 20.5 70.5t56 49.5t78.5 18t79 -18t57 -50t21 -70q0 -61 -45 -100.5t-112 -39.5q-66 0 -110.5 39.5z" />
    <glyph glyph-name="uni01DE" unicode="&#x1de;" horiz-adv-x="1418" 
d="M976 0l-134 376h-526l-137 -376h-170l547 1439h297l556 -1439h-433zM362 503h435l-215 603zM380.5 1544q-35.5 18 -56 50t-20.5 72q0 39 20.5 70.5t56 49.5t78.5 18t79 -18t57.5 -50t21.5 -70q0 -40 -21 -72t-57 -50t-80 -18q-43 0 -78.5 18zM812.5 1565.5
q-44.5 39.5 -44.5 100.5q0 39 20.5 70.5t56 49.5t78.5 18t79 -18t57 -50t21 -70q0 -61 -45 -100.5t-112 -39.5q-66 0 -110.5 39.5zM298 1984h774v-127h-774v127z" />
    <glyph glyph-name="uni0226" unicode="&#x226;" horiz-adv-x="1418" 
d="M976 0l-134 376h-526l-137 -376h-170l547 1439h297l556 -1439h-433zM362 503h435l-215 603zM611.5 1552q-37.5 19 -59.5 53.5t-22 77.5q0 41 22 75t60 53.5t83 19.5q46 0 85 -19.5t61.5 -53.5t22.5 -75q0 -43 -22.5 -77.5t-61 -53.5t-85.5 -19q-46 0 -83.5 19z" />
    <glyph glyph-name="uni1EA0" unicode="&#x1ea0;" horiz-adv-x="1418" 
d="M976 0l-134 376h-526l-137 -376h-170l547 1439h297l556 -1439h-433zM362 503h435l-215 603zM575.5 -443.5q-38.5 19.5 -60.5 54t-22 77.5q0 41 22.5 75t60.5 53.5t84 19.5t85 -19.5t61.5 -53.5t22.5 -75q0 -43 -22.5 -77.5t-61 -54t-85.5 -19.5q-46 0 -84.5 19.5z" />
    <glyph glyph-name="uni01E0" unicode="&#x1e0;" horiz-adv-x="1418" 
d="M1081 1978v-106h-774v106h774zM549 1748q21 32 57 50.5t80 18.5t81.5 -18.5t59 -51t21.5 -71.5q0 -41 -21.5 -73.5t-58.5 -51t-82 -18.5q-44 0 -80 18.5t-57 51t-21 73.5q0 40 21 72zM976 0l-134 376h-526l-137 -376h-170l547 1439h297l556 -1439h-433zM362 503h435
l-215 603z" />
    <glyph glyph-name="Agrave" unicode="&#xc0;" horiz-adv-x="1418" 
d="M976 0l-134 376h-526l-137 -376h-170l547 1439h297l556 -1439h-433zM362 503h435l-215 603zM337 1785l280 19l155 -267l-87 -6z" />
    <glyph glyph-name="uni1EA2" unicode="&#x1ea2;" horiz-adv-x="1418" 
d="M976 0l-134 376h-526l-137 -376h-170l547 1439h297l556 -1439h-433zM362 503h435l-215 603zM664 1633q21 32 21 74q0 43 -17 64t-45 21q-22 0 -42.5 -6.5t-46.5 -25.5l-11 58q38 20 75 28t79 8q89 0 136.5 -34t47.5 -100q0 -53 -49.5 -105t-153.5 -83l-59 23q44 46 65 78
z" />
    <glyph glyph-name="uni0202" unicode="&#x202;" horiz-adv-x="1418" 
d="M976 0l-134 376h-526l-137 -376h-170l547 1439h297l556 -1439h-433zM362 503h435l-215 603zM855 1842q66 -43 100 -120t37 -177l-84 -4q-16 66 -62.5 98.5t-150.5 32.5t-150.5 -32.5t-61.5 -98.5l-85 4q2 100 36.5 176.5t100.5 120t160 43.5t160 -43z" />
    <glyph glyph-name="Amacron" unicode="&#x100;" horiz-adv-x="1418" 
d="M976 0l-134 376h-526l-137 -376h-170l547 1439h297l556 -1439h-433zM362 503h435l-215 603zM303 1707h774v-127h-774v127z" />
    <glyph glyph-name="Aogonek" unicode="&#x104;" horiz-adv-x="1418" 
d="M1509 -311q-53 -63 -124 -102t-150 -39q-56 0 -104.5 21.5t-78 62.5t-29.5 95q0 145 244 273h-291l-134 376h-526l-137 -376h-170l547 1439h297l556 -1438l1 -1q-92 -58 -128.5 -110.5t-36.5 -111.5q0 -45 27 -73.5t74 -28.5q54 0 118 60zM362 503h435l-215 603z" />
    <glyph glyph-name="Aring" unicode="&#xc5;" horiz-adv-x="1418" 
d="M976 0l-134 376h-526l-137 -376h-170l547 1439h297l556 -1439h-433zM362 503h435l-215 603zM569.5 1528q-52.5 23 -82 64t-29.5 93q0 53 29.5 94t82 64t119.5 23q69 0 122.5 -22.5t82.5 -63.5t29 -95q0 -52 -30 -93t-83 -64t-121 -23q-67 0 -119.5 23zM750.5 1600.5
q23.5 33.5 23.5 84.5q0 50 -23.5 85t-61.5 35q-34 0 -57.5 -35.5t-23.5 -84.5q0 -51 23 -84.5t58 -33.5q38 0 61.5 33.5z" />
    <glyph glyph-name="Aringacute" unicode="&#x1fa;" horiz-adv-x="1418" 
d="M940 2052l-254 -181l-64 4l113 191zM569.5 1528q-52.5 23 -82 64t-29.5 93q0 53 29.5 94t82 64t119.5 23q69 0 122.5 -22.5t82.5 -63.5t29 -95q0 -52 -30 -93t-83 -64t-121 -23q-67 0 -119.5 23zM631.5 1769.5q-23.5 -35.5 -23.5 -84.5q0 -51 23 -84.5t58 -33.5
q38 0 61.5 33.5t23.5 84.5q0 50 -23.5 85t-61.5 35q-34 0 -57.5 -35.5zM976 0l-134 376h-526l-137 -376h-170l547 1439h297l556 -1439h-433zM362 503h435l-215 603z" />
    <glyph glyph-name="uni1E00" unicode="&#x1e00;" horiz-adv-x="1418" 
d="M976 0l-134 376h-526l-137 -376h-170l547 1439h297l556 -1439h-433zM362 503h435l-215 603zM538.5 -444q-52.5 23 -81.5 64t-29 94t29 95t81 65t119 23q69 0 121.5 -23t81.5 -64.5t29 -95.5q0 -53 -30 -94t-82.5 -64t-119.5 -23q-66 0 -118.5 23zM714.5 -368.5
q21.5 32.5 21.5 82.5t-22 84t-57 34q-32 0 -54 -34.5t-22 -83.5q0 -50 21.5 -82.5t54.5 -32.5q36 0 57.5 32.5z" />
    <glyph glyph-name="Atilde" unicode="&#xc3;" horiz-adv-x="1418" 
d="M976 0l-134 376h-526l-137 -376h-170l547 1439h297l556 -1439h-433zM362 503h435l-215 603zM616 1789q25 0 50.5 -10t62.5 -29q35 -18 58.5 -27.5t44.5 -9.5q37 0 64.5 19.5t42.5 58.5l79 -4q-19 -116 -73 -179t-146 -63q-25 0 -49.5 9.5t-67.5 30.5q-34 18 -57 27t-43 9
q-37 0 -64.5 -20t-41.5 -58l-80 4q42 242 220 242z" />
    <glyph glyph-name="AEacute" unicode="&#x1fc;" horiz-adv-x="2071" 
d="M2042 147v-147h-1064v373h-553l-234 -373h-182l896 1439h1116v-147h-634v-483h423v-145h-423v-517h655zM506 502h472v753zM1382 1538l154 267l281 -19l-348 -254z" />
    <glyph glyph-name="uni01E2" unicode="&#x1e2;" horiz-adv-x="2071" 
d="M2042 147v-147h-1064v373h-553l-234 -373h-182l896 1439h1116v-147h-634v-483h423v-145h-423v-517h655zM506 502h472v753zM1064 1707h774v-127h-774v127z" />
    <glyph glyph-name="uni1E02" unicode="&#x1e02;" horiz-adv-x="1405" 
d="M1166 685.5q99 -50.5 149.5 -127t50.5 -167.5q0 -206 -168 -298.5t-501 -92.5h-562v1439h623q175 0 296.5 -43t184 -124t62.5 -193q0 -84 -49 -153t-134.5 -114.5t-191.5 -61.5q141 -14 240 -64.5zM540 810h124q69 0 119.5 31t77 83.5t26.5 116.5q0 70 -28.5 126.5
t-86.5 89.5t-141 33h-91v-480zM826.5 184q54.5 35 81.5 95t27 136q0 250 -263 250h-132v-516h153q79 0 133.5 35zM609.5 1552q-37.5 19 -59.5 53.5t-22 77.5q0 41 22 75t60 53.5t83 19.5q46 0 85 -19.5t61.5 -53.5t22.5 -75q0 -43 -22.5 -77.5t-61 -53.5t-85.5 -19
q-46 0 -83.5 19z" />
    <glyph glyph-name="uni1E04" unicode="&#x1e04;" horiz-adv-x="1405" 
d="M1166 685.5q99 -50.5 149.5 -127t50.5 -167.5q0 -206 -168 -298.5t-501 -92.5h-562v1439h623q175 0 296.5 -43t184 -124t62.5 -193q0 -84 -49 -153t-134.5 -114.5t-191.5 -61.5q141 -14 240 -64.5zM540 810h124q69 0 119.5 31t77 83.5t26.5 116.5q0 70 -28.5 126.5
t-86.5 89.5t-141 33h-91v-480zM826.5 184q54.5 35 81.5 95t27 136q0 250 -263 250h-132v-516h153q79 0 133.5 35zM608.5 -443.5q-38.5 19.5 -60.5 54t-22 77.5q0 41 22.5 75t60.5 53.5t84 19.5t85 -19.5t61.5 -53.5t22.5 -75q0 -43 -22.5 -77.5t-61 -54t-85.5 -19.5
q-46 0 -84.5 19.5z" />
    <glyph glyph-name="uni1E06" unicode="&#x1e06;" horiz-adv-x="1405" 
d="M1166 685.5q99 -50.5 149.5 -127t50.5 -167.5q0 -206 -168 -298.5t-501 -92.5h-562v1439h623q175 0 296.5 -43t184 -124t62.5 -193q0 -84 -49 -153t-134.5 -114.5t-191.5 -61.5q141 -14 240 -64.5zM540 810h124q69 0 119.5 31t77 83.5t26.5 116.5q0 70 -28.5 126.5
t-86.5 89.5t-141 33h-91v-480zM826.5 184q54.5 35 81.5 95t27 136q0 250 -263 250h-132v-516h153q79 0 133.5 35zM297 -198h774v-127h-774v127z" />
    <glyph glyph-name="Cacute" unicode="&#x106;" horiz-adv-x="1418" 
d="M418 66.5q-167 90.5 -259.5 255t-92.5 378.5q0 226 97 398.5t277.5 268t422.5 95.5q268 0 462 -138l-68 -127q-148 116 -366 116q-122 0 -210.5 -75.5t-134 -207t-45.5 -295.5q0 -168 49.5 -300.5t147 -209t237.5 -76.5q114 0 213 50.5t168 124.5l71 -98
q-194 -250 -585 -250q-217 0 -384 90.5zM726 1538l154 267l281 -19l-348 -254z" />
    <glyph glyph-name="Ccaron" unicode="&#x10c;" horiz-adv-x="1418" 
d="M418 66.5q-167 90.5 -259.5 255t-92.5 378.5q0 226 97 398.5t277.5 268t422.5 95.5q268 0 462 -138l-68 -127q-148 116 -366 116q-122 0 -210.5 -75.5t-134 -207t-45.5 -295.5q0 -168 49.5 -300.5t147 -209t237.5 -76.5q114 0 213 50.5t168 124.5l71 -98
q-194 -250 -585 -250q-217 0 -384 90.5zM848 1535h-91l-292 293l86 25l250 -127l249 127l89 -25z" />
    <glyph glyph-name="Ccedilla" unicode="&#xc7;" horiz-adv-x="1418" 
d="M832 -24l-52 -72q87 -7 144 -47t57 -114q0 -57 -46.5 -106t-134 -77.5t-206.5 -28.5l-9 64q73 5 112.5 39t39.5 79q0 33 -27.5 58t-67.5 33l-10 24l114 150q-202 11 -356.5 104.5t-239 253t-84.5 364.5q0 226 97 398.5t277.5 268t422.5 95.5q268 0 462 -138l-68 -127
q-148 116 -366 116q-122 0 -210.5 -75.5t-134 -207t-45.5 -295.5q0 -168 49.5 -300.5t147 -209t237.5 -76.5q114 0 213 50.5t168 124.5l71 -98q-188 -241 -555 -250z" />
    <glyph glyph-name="uni1E08" unicode="&#x1e08;" horiz-adv-x="1418" 
d="M1161 1786l-348 -254l-87 6l154 267zM832 -24l-52 -72q87 -7 144 -47t57 -114q0 -57 -46.5 -106t-134 -77.5t-206.5 -28.5l-9 64q73 5 112.5 39t39.5 79q0 33 -27.5 58t-67.5 33l-10 24l114 150q-202 11 -356.5 104.5t-239 253t-84.5 364.5q0 226 97 398.5t277.5 268
t422.5 95.5q268 0 462 -138l-68 -127q-148 116 -366 116q-122 0 -210.5 -75.5t-134 -207t-45.5 -295.5q0 -168 49.5 -300.5t147 -209t237.5 -76.5q114 0 213 50.5t168 124.5l71 -98q-188 -241 -555 -250z" />
    <glyph glyph-name="Ccircumflex" unicode="&#x108;" horiz-adv-x="1418" 
d="M418 66.5q-167 90.5 -259.5 255t-92.5 378.5q0 226 97 398.5t277.5 268t422.5 95.5q268 0 462 -138l-68 -127q-148 116 -366 116q-122 0 -210.5 -75.5t-134 -207t-45.5 -295.5q0 -168 49.5 -300.5t147 -209t237.5 -76.5q114 0 213 50.5t168 124.5l71 -98
q-194 -250 -585 -250q-217 0 -384 90.5zM753 1853h91l293 -295l-87 -25l-250 128l-248 -128l-90 25z" />
    <glyph glyph-name="Cdotaccent" unicode="&#x10a;" horiz-adv-x="1418" 
d="M418 66.5q-167 90.5 -259.5 255t-92.5 378.5q0 226 97 398.5t277.5 268t422.5 95.5q268 0 462 -138l-68 -127q-148 116 -366 116q-122 0 -210.5 -75.5t-134 -207t-45.5 -295.5q0 -168 49.5 -300.5t147 -209t237.5 -76.5q114 0 213 50.5t168 124.5l71 -98
q-194 -250 -585 -250q-217 0 -384 90.5zM715.5 1552q-37.5 19 -59.5 53.5t-22 77.5q0 41 22 75t60 53.5t83 19.5q46 0 85 -19.5t61.5 -53.5t22.5 -75q0 -43 -22.5 -77.5t-61 -53.5t-85.5 -19q-46 0 -83.5 19z" />
    <glyph glyph-name="uni01F1" unicode="&#x1f1;" horiz-adv-x="2838" 
d="M640 1439q271 0 464 -79t296 -239.5t103 -400.5q0 -239 -102 -399.5t-295.5 -240.5t-467.5 -80h-503v1439h505zM975.5 286q93.5 139 93.5 428q0 297 -95.5 437.5t-296.5 140.5h-133v-1145h134q204 0 297.5 139zM1593 37q-2 50 -2 75l712 1184h-645l-6 143h1138
q0 -29 1 -44l1 -46l-729 -1206h725v-143h-1194z" />
    <glyph glyph-name="uni01C4" unicode="&#x1c4;" horiz-adv-x="2838" 
d="M640 1439q271 0 464 -79t296 -239.5t103 -400.5q0 -239 -102 -399.5t-295.5 -240.5t-467.5 -80h-503v1439h505zM975.5 286q93.5 139 93.5 428q0 297 -95.5 437.5t-296.5 140.5h-133v-1145h134q204 0 297.5 139zM1593 37q-2 50 -2 75l712 1184h-645l-6 143h1138
q0 -29 1 -44l1 -46l-729 -1206h725v-143h-1194zM2276 1535h-91l-292 293l86 25l250 -127l249 127l89 -25z" />
    <glyph glyph-name="uni0189" unicode="&#x189;" horiz-adv-x="1569" 
d="M1104 1360q193 -79 296 -239.5t103 -400.5q0 -239 -102 -399.5t-295.5 -240.5t-467.5 -80h-503v662h-120v117h120v660h505q271 0 464 -79zM975.5 286q93.5 139 93.5 428q0 297 -95.5 437.5t-296.5 140.5h-133v-513h218v-117h-218v-515h134q204 0 297.5 139z" />
    <glyph glyph-name="Dcaron" unicode="&#x10e;" horiz-adv-x="1569" 
d="M640 1439q271 0 464 -79t296 -239.5t103 -400.5q0 -239 -102 -399.5t-295.5 -240.5t-467.5 -80h-503v1439h505zM975.5 286q93.5 139 93.5 428q0 297 -95.5 437.5t-296.5 140.5h-133v-1145h134q204 0 297.5 139zM782 1535h-91l-292 293l86 25l250 -127l249 127l89 -25z
" />
    <glyph glyph-name="uni1E10" unicode="&#x1e10;" horiz-adv-x="1569" 
d="M640 1439q271 0 464 -79t296 -239.5t103 -400.5q0 -239 -102 -399.5t-295.5 -240.5t-467.5 -80h-503v1439h505zM975.5 286q93.5 139 93.5 428q0 297 -95.5 437.5t-296.5 140.5h-133v-1145h134q204 0 297.5 139zM849.5 -155q22.5 -39 22.5 -88q0 -91 -70 -156.5
t-192 -92.5l-17 61q80 35 80 93q0 25 -18 50t-61 61l195 137q38 -26 60.5 -65z" />
    <glyph glyph-name="uni1E12" unicode="&#x1e12;" horiz-adv-x="1569" 
d="M640 1439q271 0 464 -79t296 -239.5t103 -400.5q0 -239 -102 -399.5t-295.5 -240.5t-467.5 -80h-503v1439h505zM975.5 286q93.5 139 93.5 428q0 297 -95.5 437.5t-296.5 140.5h-133v-1145h134q204 0 297.5 139zM401 -449l278 342h87l279 -342l-83 -28l-238 148l-238 -148
z" />
    <glyph glyph-name="Dcroat" unicode="&#x110;" horiz-adv-x="1569" 
d="M1104 1360q193 -79 296 -239.5t103 -400.5q0 -239 -102 -399.5t-295.5 -240.5t-467.5 -80h-503v662h-120v117h120v660h505q271 0 464 -79zM975.5 286q93.5 139 93.5 428q0 297 -95.5 437.5t-296.5 140.5h-133v-513h218v-117h-218v-515h134q204 0 297.5 139z" />
    <glyph glyph-name="uni1E0A" unicode="&#x1e0a;" horiz-adv-x="1569" 
d="M640 1439q271 0 464 -79t296 -239.5t103 -400.5q0 -239 -102 -399.5t-295.5 -240.5t-467.5 -80h-503v1439h505zM975.5 286q93.5 139 93.5 428q0 297 -95.5 437.5t-296.5 140.5h-133v-1145h134q204 0 297.5 139zM649.5 1552q-37.5 19 -59.5 53.5t-22 77.5q0 41 22 75
t60 53.5t83 19.5q46 0 85 -19.5t61.5 -53.5t22.5 -75q0 -43 -22.5 -77.5t-61 -53.5t-85.5 -19q-46 0 -83.5 19z" />
    <glyph glyph-name="uni1E0C" unicode="&#x1e0c;" horiz-adv-x="1569" 
d="M640 1439q271 0 464 -79t296 -239.5t103 -400.5q0 -239 -102 -399.5t-295.5 -240.5t-467.5 -80h-503v1439h505zM975.5 286q93.5 139 93.5 428q0 297 -95.5 437.5t-296.5 140.5h-133v-1145h134q204 0 297.5 139zM639.5 -443.5q-38.5 19.5 -60.5 54t-22 77.5q0 41 22.5 75
t60.5 53.5t84 19.5t85 -19.5t61.5 -53.5t22.5 -75q0 -43 -22.5 -77.5t-61 -54t-85.5 -19.5q-46 0 -84.5 19.5z" />
    <glyph glyph-name="uni1E0E" unicode="&#x1e0e;" horiz-adv-x="1569" 
d="M640 1439q271 0 464 -79t296 -239.5t103 -400.5q0 -239 -102 -399.5t-295.5 -240.5t-467.5 -80h-503v1439h505zM975.5 286q93.5 139 93.5 428q0 297 -95.5 437.5t-296.5 140.5h-133v-1145h134q204 0 297.5 139zM329 -198h774v-127h-774v127z" />
    <glyph glyph-name="uni01F2" unicode="&#x1f2;" horiz-adv-x="2611" 
d="M640 1439q271 0 464 -79t296 -239.5t103 -400.5q0 -239 -102 -399.5t-295.5 -240.5t-467.5 -80h-503v1439h505zM975.5 286q93.5 139 93.5 428q0 297 -95.5 437.5t-296.5 140.5h-133v-1145h134q204 0 297.5 139zM1605 102l499 788h-442v135l905 1l3 -105l-510 -786h493
v-135h-945z" />
    <glyph glyph-name="uni01C5" unicode="&#x1c5;" horiz-adv-x="2611" 
d="M640 1439q271 0 464 -79t296 -239.5t103 -400.5q0 -239 -102 -399.5t-295.5 -240.5t-467.5 -80h-503v1439h505zM975.5 286q93.5 139 93.5 428q0 297 -95.5 437.5t-296.5 140.5h-133v-1145h134q204 0 297.5 139zM1605 102l499 788h-442v135l905 1l3 -105l-510 -786h493
v-135h-945zM2449 1490l-278 -342h-87l-279 342l83 28l238 -148l238 148z" />
    <glyph glyph-name="uni0045_uni030A" horiz-adv-x="1228" 
d="M135 1439h1043v-147h-634v-483h423v-145h-423v-517h655v-147h-1064v1439zM532.5 1528q-52.5 23 -82 64t-29.5 93q0 53 29.5 94t82 64t119.5 23q69 0 122.5 -22.5t82.5 -63.5t29 -95q0 -52 -30 -93t-83 -64t-121 -23q-67 0 -119.5 23zM713.5 1600.5q23.5 33.5 23.5 84.5
q0 50 -23.5 85t-61.5 35q-34 0 -57.5 -35.5t-23.5 -84.5q0 -51 23 -84.5t58 -33.5q38 0 61.5 33.5z" />
    <glyph glyph-name="Eacute" unicode="&#xc9;" horiz-adv-x="1228" 
d="M135 1439h1043v-147h-634v-483h423v-145h-423v-517h655v-147h-1064v1439zM584 1538l154 267l281 -19l-348 -254z" />
    <glyph glyph-name="Ebreve" unicode="&#x114;" horiz-adv-x="1228" 
d="M135 1439h1043v-147h-634v-483h423v-145h-423v-517h655v-147h-1064v1439zM496.5 1558.5q-67.5 42.5 -102.5 118t-37 173.5l86 4q15 -65 62.5 -97t153.5 -32t153.5 32t62.5 97l86 -4q-3 -98 -37.5 -173.5t-101.5 -118t-163 -42.5q-95 0 -162.5 42.5z" />
    <glyph glyph-name="Ecaron" unicode="&#x11a;" horiz-adv-x="1228" 
d="M135 1439h1043v-147h-634v-483h423v-145h-423v-517h655v-147h-1064v1439zM707 1535h-91l-292 293l86 25l250 -127l249 127l89 -25z" />
    <glyph glyph-name="uni0228" unicode="&#x228;" horiz-adv-x="1228" 
d="M695 0l-64 -89q87 -7 144 -47t57 -114q0 -57 -46.5 -106t-134 -77.5t-206.5 -28.5l-9 64q73 5 112.5 39t39.5 79q0 33 -27.5 58t-67.5 33l-10 24l126 165h-474v1439h1043v-147h-634v-483h423v-145h-423v-517h655v-147h-504z" />
    <glyph glyph-name="uni1E1C" unicode="&#x1e1c;" horiz-adv-x="1228" 
d="M496.5 1558.5q-67.5 42.5 -102.5 118t-37 173.5l86 4q15 -65 62.5 -97t153.5 -32t153.5 32t62.5 97l86 -4q-3 -98 -37.5 -173.5t-101.5 -118t-163 -42.5q-95 0 -162.5 42.5zM695 0l-64 -89q87 -7 144 -47t57 -114q0 -57 -46.5 -106t-134 -77.5t-206.5 -28.5l-9 64
q73 5 112.5 39t39.5 79q0 33 -27.5 58t-67.5 33l-10 24l126 165h-474v1439h1043v-147h-634v-483h423v-145h-423v-517h655v-147h-504z" />
    <glyph glyph-name="Ecircumflex" unicode="&#xca;" horiz-adv-x="1228" 
d="M135 1439h1043v-147h-634v-483h423v-145h-423v-517h655v-147h-1064v1439zM612 1853h91l293 -295l-87 -25l-250 128l-248 -128l-90 25z" />
    <glyph glyph-name="uni1EBE" unicode="&#x1ebe;" horiz-adv-x="1228" 
d="M980 1660l101 234l183 -17l-227 -222zM321 1558l291 295h91l293 -295l-87 -25l-250 128l-248 -128zM1178 1439v-147h-634v-483h423v-145h-423v-517h655v-147h-1064v1439h1043z" />
    <glyph glyph-name="uni1E18" unicode="&#x1e18;" horiz-adv-x="1228" 
d="M135 1439h1043v-147h-634v-483h423v-145h-423v-517h655v-147h-1064v1439zM334 -449l278 342h87l279 -342l-83 -28l-238 148l-238 -148z" />
    <glyph glyph-name="uni1EC6" unicode="&#x1ec6;" horiz-adv-x="1228" 
d="M135 1439h1043v-147h-634v-483h423v-145h-423v-517h655v-147h-1064v1439zM572.5 -443.5q-38.5 19.5 -60.5 54t-22 77.5q0 41 22.5 75t60.5 53.5t84 19.5t85 -19.5t61.5 -53.5t22.5 -75q0 -43 -22.5 -77.5t-61 -54t-85.5 -19.5q-46 0 -84.5 19.5zM612 1853h91l293 -295
l-87 -25l-250 128l-248 -128l-90 25z" />
    <glyph glyph-name="uni1EC0" unicode="&#x1ec0;" horiz-adv-x="1228" 
d="M102 1933l204 17l112 -244l-63 -6zM321 1558l291 295h91l293 -295l-87 -25l-250 128l-248 -128zM1178 1439v-147h-634v-483h423v-145h-423v-517h655v-147h-1064v1439h1043z" />
    <glyph glyph-name="uni1EC2" unicode="&#x1ec2;" horiz-adv-x="1228" 
d="M989.5 1760.5q19.5 29.5 19.5 68.5t-15.5 58t-40.5 19q-19 0 -38 -6t-42 -23l-11 53q65 33 141 33q81 0 124 -31t43 -91q0 -49 -45 -96t-140 -75l-54 21q39 40 58.5 69.5zM321 1558l291 295h91l293 -295l-87 -25l-250 128l-248 -128zM1178 1439v-147h-634v-483h423v-145
h-423v-517h655v-147h-1064v1439h1043z" />
    <glyph glyph-name="uni1EC4" unicode="&#x1ec4;" horiz-adv-x="1228" 
d="M602 2031q18 0 36.5 -7t47.5 -22q26 -13 43.5 -20t32.5 -7q57 0 79 58l59 -3q-29 -180 -162 -180q-19 0 -39 7.5t-48 22.5q-24 13 -41.5 20t-32.5 7q-28 0 -48.5 -14.5t-30.5 -43.5l-59 3q30 179 163 179zM364 1556l256 259h79l257 -259l-76 -22l-219 113l-218 -113z
M1178 1439v-147h-634v-483h423v-145h-423v-517h655v-147h-1064v1439h1043z" />
    <glyph glyph-name="uni0204" unicode="&#x204;" horiz-adv-x="1228" 
d="M135 1439h1043v-147h-634v-483h423v-145h-423v-517h655v-147h-1064v1439zM911 1560l-93 -8l-303 258l128 -255l-92 -8l-373 317l298 24l8 -16l259 21z" />
    <glyph glyph-name="Edieresis" unicode="&#xcb;" horiz-adv-x="1228" 
d="M135 1439h1043v-147h-634v-483h423v-145h-423v-517h655v-147h-1064v1439zM343.5 1544q-35.5 18 -56 50t-20.5 72q0 39 20.5 70.5t56 49.5t78.5 18t79 -18t57.5 -50t21.5 -70q0 -40 -21 -72t-57 -50t-80 -18q-43 0 -78.5 18zM775.5 1565.5q-44.5 39.5 -44.5 100.5
q0 39 20.5 70.5t56 49.5t78.5 18t79 -18t57 -50t21 -70q0 -61 -45 -100.5t-112 -39.5q-66 0 -110.5 39.5z" />
    <glyph glyph-name="Edotaccent" unicode="&#x116;" horiz-adv-x="1228" 
d="M135 1439h1043v-147h-634v-483h423v-145h-423v-517h655v-147h-1064v1439zM574.5 1552q-37.5 19 -59.5 53.5t-22 77.5q0 41 22 75t60 53.5t83 19.5q46 0 85 -19.5t61.5 -53.5t22.5 -75q0 -43 -22.5 -77.5t-61 -53.5t-85.5 -19q-46 0 -83.5 19z" />
    <glyph glyph-name="uni1EB8" unicode="&#x1eb8;" horiz-adv-x="1228" 
d="M135 1439h1043v-147h-634v-483h423v-145h-423v-517h655v-147h-1064v1439zM572.5 -443.5q-38.5 19.5 -60.5 54t-22 77.5q0 41 22.5 75t60.5 53.5t84 19.5t85 -19.5t61.5 -53.5t22.5 -75q0 -43 -22.5 -77.5t-61 -54t-85.5 -19.5q-46 0 -84.5 19.5z" />
    <glyph glyph-name="Egrave" unicode="&#xc8;" horiz-adv-x="1228" 
d="M135 1439h1043v-147h-634v-483h423v-145h-423v-517h655v-147h-1064v1439zM300 1785l280 19l155 -267l-87 -6z" />
    <glyph glyph-name="uni1EBA" unicode="&#x1eba;" horiz-adv-x="1228" 
d="M135 1439h1043v-147h-634v-483h423v-145h-423v-517h655v-147h-1064v1439zM627 1633q21 32 21 74q0 43 -17 64t-45 21q-22 0 -42.5 -6.5t-46.5 -25.5l-11 58q38 20 75 28t79 8q89 0 136.5 -34t47.5 -100q0 -53 -49.5 -105t-153.5 -83l-59 23q44 46 65 78z" />
    <glyph glyph-name="uni0206" unicode="&#x206;" horiz-adv-x="1228" 
d="M135 1439h1043v-147h-634v-483h423v-145h-423v-517h655v-147h-1064v1439zM818 1842q66 -43 100 -120t37 -177l-84 -4q-16 66 -62.5 98.5t-150.5 32.5t-150.5 -32.5t-61.5 -98.5l-85 4q2 100 36.5 176.5t100.5 120t160 43.5t160 -43z" />
    <glyph glyph-name="Emacron" unicode="&#x112;" horiz-adv-x="1228" 
d="M135 1439h1043v-147h-634v-483h423v-145h-423v-517h655v-147h-1064v1439zM266 1707h774v-127h-774v127z" />
    <glyph glyph-name="uni1E16" unicode="&#x1e16;" horiz-adv-x="1228" 
d="M135 1439h1043v-147h-634v-483h423v-145h-423v-517h655v-147h-1064v1439zM267 1707h774v-127h-774v127zM587 1808l154 267l281 -19l-348 -254z" />
    <glyph glyph-name="uni1E14" unicode="&#x1e14;" horiz-adv-x="1228" 
d="M135 1439h1043v-147h-634v-483h423v-145h-423v-517h655v-147h-1064v1439zM267 1707h774v-127h-774v127zM303 2055l280 19l155 -267l-87 -6z" />
    <glyph glyph-name="Eogonek" unicode="&#x118;" horiz-adv-x="1228" 
d="M1298 -311q-53 -63 -124 -102t-150 -39q-56 0 -104.5 21.5t-78 62.5t-29.5 95q0 145 244 273h-921v1439h1043v-147h-634v-483h423v-145h-423v-517h655v-147q-92 -58 -128.5 -110.5t-36.5 -111.5q0 -45 27 -73.5t74 -28.5q54 0 118 60z" />
    <glyph glyph-name="uni1EBC" unicode="&#x1ebc;" horiz-adv-x="1228" 
d="M135 1439h1043v-147h-634v-483h423v-145h-423v-517h655v-147h-1064v1439zM579 1789q25 0 50.5 -10t62.5 -29q35 -18 58.5 -27.5t44.5 -9.5q37 0 64.5 19.5t42.5 58.5l79 -4q-19 -116 -73 -179t-146 -63q-25 0 -49.5 9.5t-67.5 30.5q-34 18 -57 27t-43 9q-37 0 -64.5 -20
t-41.5 -58l-80 4q42 242 220 242z" />
    <glyph glyph-name="uni1E1A" unicode="&#x1e1a;" horiz-adv-x="1228" 
d="M135 1439h1043v-147h-634v-483h423v-145h-423v-517h655v-147h-1064v1439zM397.5 -230.5q59.5 69.5 158.5 69.5q27 0 54.5 -11t69.5 -33q40 -20 64 -30t47 -10q84 0 117 86l86 -5q-20 -129 -78.5 -198t-159.5 -69q-28 0 -57 11.5t-71 33.5q-39 20 -63 29.5t-46 9.5
q-40 0 -70 -21.5t-46 -64.5l-87 5q22 128 81.5 197.5z" />
    <glyph glyph-name="uni01B7" unicode="&#x1b7;" horiz-adv-x="1140" 
d="M849.5 780.5q122.5 -71.5 187 -187.5t64.5 -260q0 -142 -78 -261.5t-225.5 -190t-345.5 -70.5q-117 0 -228 36.5t-182 97.5l49 122q69 -56 164 -88.5t189 -33.5q91 0 150 51t86 132.5t27 175.5q0 102 -50.5 193t-142 146t-207.5 53v96l318 336h-540v311l932 1l3 -106
l-461 -469q168 -13 290.5 -84.5z" />
    <glyph glyph-name="uni01EE" unicode="&#x1ee;" horiz-adv-x="1140" 
d="M849.5 780.5q122.5 -71.5 187 -187.5t64.5 -260q0 -142 -78 -261.5t-225.5 -190t-345.5 -70.5q-117 0 -228 36.5t-182 97.5l49 122q69 -56 164 -88.5t189 -33.5q91 0 150 51t86 132.5t27 175.5q0 102 -50.5 193t-142 146t-207.5 53v96l318 336h-540v311l932 1l3 -106
l-461 -469q168 -13 290.5 -84.5zM588 1535h-91l-292 293l86 25l250 -127l249 127l89 -25z" />
    <glyph glyph-name="uni0046_uni0304" horiz-adv-x="1197" 
d="M135 1439h1050v-147h-641v-499h420v-156h-420v-637h-409v1439zM263 1707h774v-127h-774v127z" />
    <glyph glyph-name="uni1E1E" unicode="&#x1e1e;" horiz-adv-x="1197" 
d="M135 1439h1050v-147h-641v-499h420v-156h-420v-637h-409v1439zM570.5 1552q-37.5 19 -59.5 53.5t-22 77.5q0 41 22 75t60 53.5t83 19.5q46 0 85 -19.5t61.5 -53.5t22.5 -75q0 -43 -22.5 -77.5t-61 -53.5t-85.5 -19q-46 0 -83.5 19z" />
    <glyph glyph-name="uni01F4" unicode="&#x1f4;" horiz-adv-x="1498" 
d="M439 68q-175 92 -274 258t-99 381q0 219 101.5 390.5t288 268t430.5 96.5q126 0 242.5 -37.5t211.5 -113.5l-68 -125q-63 58 -155.5 93t-210.5 35q-130 0 -222 -77.5t-139 -214.5t-47 -313q0 -182 45 -313.5t127 -201t190 -69.5q98 0 174 34v460h-247v140h632v-633
q-89 -46 -165 -77t-181 -52t-237 -21q-222 0 -397 92zM771 1540l154 267l281 -19l-348 -254z" />
    <glyph glyph-name="Gbreve" unicode="&#x11e;" horiz-adv-x="1498" 
d="M439 68q-175 92 -274 258t-99 381q0 219 101.5 390.5t288 268t430.5 96.5q126 0 242.5 -37.5t211.5 -113.5l-68 -125q-63 58 -155.5 93t-210.5 35q-130 0 -222 -77.5t-139 -214.5t-47 -313q0 -182 45 -313.5t127 -201t190 -69.5q98 0 174 34v460h-247v140h632v-633
q-89 -46 -165 -77t-181 -52t-237 -21q-222 0 -397 92zM683.5 1560.5q-67.5 42.5 -102.5 118t-37 173.5l86 4q15 -65 62.5 -97t153.5 -32t153.5 32t62.5 97l86 -4q-3 -98 -37.5 -173.5t-101.5 -118t-163 -42.5q-95 0 -162.5 42.5z" />
    <glyph glyph-name="Gcaron" unicode="&#x1e6;" horiz-adv-x="1498" 
d="M439 68q-175 92 -274 258t-99 381q0 219 101.5 390.5t288 268t430.5 96.5q126 0 242.5 -37.5t211.5 -113.5l-68 -125q-63 58 -155.5 93t-210.5 35q-130 0 -222 -77.5t-139 -214.5t-47 -313q0 -182 45 -313.5t127 -201t190 -69.5q98 0 174 34v460h-247v140h632v-633
q-89 -46 -165 -77t-181 -52t-237 -21q-222 0 -397 92zM894 1537h-91l-292 293l86 25l250 -127l249 127l89 -25z" />
    <glyph glyph-name="Gcircumflex" unicode="&#x11c;" horiz-adv-x="1498" 
d="M439 68q-175 92 -274 258t-99 381q0 219 101.5 390.5t288 268t430.5 96.5q126 0 242.5 -37.5t211.5 -113.5l-68 -125q-63 58 -155.5 93t-210.5 35q-130 0 -222 -77.5t-139 -214.5t-47 -313q0 -182 45 -313.5t127 -201t190 -69.5q98 0 174 34v460h-247v140h632v-633
q-89 -46 -165 -77t-181 -52t-237 -21q-222 0 -397 92zM799 1855h91l293 -295l-87 -25l-250 128l-248 -128l-90 25z" />
    <glyph glyph-name="uni0122" unicode="&#x122;" horiz-adv-x="1498" 
d="M439 68q-175 92 -274 258t-99 381q0 219 101.5 390.5t288 268t430.5 96.5q126 0 242.5 -37.5t211.5 -113.5l-68 -125q-63 58 -155.5 93t-210.5 35q-130 0 -222 -77.5t-139 -214.5t-47 -313q0 -182 45 -313.5t127 -201t190 -69.5q98 0 174 34v460h-247v140h632v-633
q-89 -46 -165 -77t-181 -52t-237 -21q-222 0 -397 92zM928.5 -155q22.5 -39 22.5 -88q0 -91 -70 -156.5t-192 -92.5l-17 61q80 35 80 93q0 25 -18 50t-61 61l195 137q38 -26 60.5 -65z" />
    <glyph glyph-name="Gdotaccent" unicode="&#x120;" horiz-adv-x="1498" 
d="M439 68q-175 92 -274 258t-99 381q0 219 101.5 390.5t288 268t430.5 96.5q126 0 242.5 -37.5t211.5 -113.5l-68 -125q-63 58 -155.5 93t-210.5 35q-130 0 -222 -77.5t-139 -214.5t-47 -313q0 -182 45 -313.5t127 -201t190 -69.5q98 0 174 34v460h-247v140h632v-633
q-89 -46 -165 -77t-181 -52t-237 -21q-222 0 -397 92zM761.5 1554q-37.5 19 -59.5 53.5t-22 77.5q0 41 22 75t60 53.5t83 19.5q46 0 85 -19.5t61.5 -53.5t22.5 -75q0 -43 -22.5 -77.5t-61 -53.5t-85.5 -19q-46 0 -83.5 19z" />
    <glyph glyph-name="uni1E20" unicode="&#x1e20;" horiz-adv-x="1498" 
d="M439 68q-175 92 -274 258t-99 381q0 219 101.5 390.5t288 268t430.5 96.5q126 0 242.5 -37.5t211.5 -113.5l-68 -125q-63 58 -155.5 93t-210.5 35q-130 0 -222 -77.5t-139 -214.5t-47 -313q0 -182 45 -313.5t127 -201t190 -69.5q98 0 174 34v460h-247v140h632v-633
q-89 -46 -165 -77t-181 -52t-237 -21q-222 0 -397 92zM453 1709h774v-127h-774v127z" />
    <glyph glyph-name="uni021C" unicode="&#x21c;" horiz-adv-x="1140" 
d="M849.5 780.5q122.5 -71.5 187 -187.5t64.5 -260q0 -142 -78 -261.5t-225.5 -190t-345.5 -70.5q-117 0 -228 36.5t-182 97.5l49 122q69 -56 164 -88.5t189 -33.5q91 0 150 51t86 132.5t27 175.5q0 102 -50.5 193t-142 146t-207.5 53v96l318 336h-540v311l932 1l3 -106
l-461 -469q168 -13 290.5 -84.5z" />
    <glyph glyph-name="uni0048_uni0331" horiz-adv-x="1574" 
d="M1031 1439h408v-1439h-408v654h-487v-654h-409v1439h409v-638h487v638zM395 -198h774v-127h-774v127z" />
    <glyph glyph-name="Hbar" unicode="&#x126;" horiz-adv-x="1574" 
d="M1031 1439h408v-1439h-408v654h-487v-654h-409v1439h409v-304h487v304zM544 801h487v285h-487v-285z" />
    <glyph glyph-name="uni1E2A" unicode="&#x1e2a;" horiz-adv-x="1574" 
d="M1031 1439h408v-1439h-408v654h-487v-654h-409v1439h409v-638h487v638zM629 -401.5q-66 43.5 -100.5 120t-36.5 176.5l85 4q15 -66 61.5 -98.5t150.5 -32.5t150.5 32.5t62.5 98.5l84 -4q-3 -100 -37 -177t-100 -120t-160 -43t-160 43.5z" />
    <glyph glyph-name="uni021E" unicode="&#x21e;" horiz-adv-x="1574" 
d="M1031 1439h408v-1439h-408v654h-487v-654h-409v1439h409v-638h487v638zM837 1535h-91l-292 293l86 25l250 -127l249 127l89 -25z" />
    <glyph glyph-name="uni1E28" unicode="&#x1e28;" horiz-adv-x="1574" 
d="M1439 1439v-1439h-408v654h-487v-654h-121l-64 -89q87 -7 144 -47t57 -114q0 -57 -46.5 -106t-134 -77.5t-206.5 -28.5l-9 64q73 5 112.5 39t39.5 79q0 33 -27.5 58t-67.5 33l-10 24l126 165h-202v1439h409v-638h487v638h408z" />
    <glyph glyph-name="Hcircumflex" unicode="&#x124;" horiz-adv-x="1574" 
d="M1031 1439h408v-1439h-408v654h-487v-654h-409v1439h409v-638h487v638zM741 1853h91l293 -295l-87 -25l-250 128l-248 -128l-90 25z" />
    <glyph glyph-name="uni1E26" unicode="&#x1e26;" horiz-adv-x="1574" 
d="M1031 1439h408v-1439h-408v654h-487v-654h-409v1439h409v-638h487v638zM473.5 1544q-35.5 18 -56 50t-20.5 72q0 39 20.5 70.5t56 49.5t78.5 18t79 -18t57.5 -50t21.5 -70q0 -40 -21 -72t-57 -50t-80 -18q-43 0 -78.5 18zM905.5 1565.5q-44.5 39.5 -44.5 100.5
q0 39 20.5 70.5t56 49.5t78.5 18t79 -18t57 -50t21 -70q0 -61 -45 -100.5t-112 -39.5q-66 0 -110.5 39.5z" />
    <glyph glyph-name="uni1E22" unicode="&#x1e22;" horiz-adv-x="1574" 
d="M1031 1439h408v-1439h-408v654h-487v-654h-409v1439h409v-638h487v638zM704.5 1552q-37.5 19 -59.5 53.5t-22 77.5q0 41 22 75t60 53.5t83 19.5q46 0 85 -19.5t61.5 -53.5t22.5 -75q0 -43 -22.5 -77.5t-61 -53.5t-85.5 -19q-46 0 -83.5 19z" />
    <glyph glyph-name="uni1E24" unicode="&#x1e24;" horiz-adv-x="1574" 
d="M1031 1439h408v-1439h-408v654h-487v-654h-409v1439h409v-638h487v638zM705.5 -443.5q-38.5 19.5 -60.5 54t-22 77.5q0 41 22.5 75t60.5 53.5t84 19.5t85 -19.5t61.5 -53.5t22.5 -75q0 -43 -22.5 -77.5t-61 -54t-85.5 -19.5q-46 0 -84.5 19.5z" />
    <glyph glyph-name="IJ" unicode="&#x132;" horiz-adv-x="1428" 
d="M123 1439h408v-1032h-408v1032zM322 55q-134 80 -180 226l159 11q38 -77 131 -121.5t212 -45.5q140 0 200 86.5t60 239.5v988h408v-962q0 -163 -79 -275t-227.5 -168.5t-357.5 -57.5q-192 -1 -326 79z" />
    <glyph glyph-name="Iacute" unicode="&#xcd;" horiz-adv-x="679" 
d="M135 1439h409v-1439h-409v1439zM266 1538l154 267l281 -19l-348 -254z" />
    <glyph glyph-name="Ibreve" unicode="&#x12c;" horiz-adv-x="679" 
d="M135 1439h409v-1439h-409v1439zM178.5 1558.5q-67.5 42.5 -102.5 118t-37 173.5l86 4q15 -65 62.5 -97t153.5 -32t153.5 32t62.5 97l86 -4q-3 -98 -37.5 -173.5t-101.5 -118t-163 -42.5q-95 0 -162.5 42.5z" />
    <glyph glyph-name="uni01CF" unicode="&#x1cf;" horiz-adv-x="679" 
d="M135 1439h409v-1439h-409v1439zM388 1535h-91l-292 293l86 25l250 -127l249 127l89 -25z" />
    <glyph glyph-name="Icircumflex" unicode="&#xce;" horiz-adv-x="679" 
d="M135 1439h409v-1439h-409v1439zM293 1853h91l293 -295l-87 -25l-250 128l-248 -128l-90 25z" />
    <glyph glyph-name="uni0208" unicode="&#x208;" horiz-adv-x="679" 
d="M135 1439h409v-1439h-409v1439zM592 1560l-93 -8l-303 258l128 -255l-92 -8l-373 317l298 24l8 -16l259 21z" />
    <glyph glyph-name="Idieresis" unicode="&#xcf;" horiz-adv-x="679" 
d="M135 1439h409v-1439h-409v1439zM24.5 1544q-35.5 18 -56 50t-20.5 72q0 39 20.5 70.5t56 49.5t78.5 18t79 -18t57.5 -50t21.5 -70q0 -40 -21 -72t-57 -50t-80 -18q-43 0 -78.5 18zM456.5 1565.5q-44.5 39.5 -44.5 100.5q0 39 20.5 70.5t56 49.5t78.5 18t79 -18t57 -50
t21 -70q0 -61 -45 -100.5t-112 -39.5q-66 0 -110.5 39.5z" />
    <glyph glyph-name="uni1E2E" unicode="&#x1e2e;" horiz-adv-x="679" 
d="M273 1794l134 226l243 -16l-302 -216zM28.5 1563q-40.5 36 -40.5 91q0 54 40.5 90t99.5 36q39 0 72.5 -16.5t52.5 -45.5t19 -64q0 -55 -41.5 -91t-102.5 -36q-59 0 -99.5 36zM450 1563q-41 36 -41 91q0 54 41 90t100 36q39 0 72 -16.5t52.5 -45.5t19.5 -64
q0 -55 -41.5 -91t-102.5 -36q-59 0 -100 36zM544 1439v-1439h-409v1439h409z" />
    <glyph glyph-name="Idotaccent" unicode="&#x130;" horiz-adv-x="679" 
d="M135 1439h409v-1439h-409v1439zM255.5 1552q-37.5 19 -59.5 53.5t-22 77.5q0 41 22 75t60 53.5t83 19.5q46 0 85 -19.5t61.5 -53.5t22.5 -75q0 -43 -22.5 -77.5t-61 -53.5t-85.5 -19q-46 0 -83.5 19z" />
    <glyph glyph-name="uni1ECA" unicode="&#x1eca;" horiz-adv-x="679" 
d="M135 1439h409v-1439h-409v1439zM257.5 -443.5q-38.5 19.5 -60.5 54t-22 77.5q0 41 22.5 75t60.5 53.5t84 19.5t85 -19.5t61.5 -53.5t22.5 -75q0 -43 -22.5 -77.5t-61 -54t-85.5 -19.5q-46 0 -84.5 19.5z" />
    <glyph glyph-name="Igrave" unicode="&#xcc;" horiz-adv-x="679" 
d="M135 1439h409v-1439h-409v1439zM-19 1785l280 19l155 -267l-87 -6z" />
    <glyph glyph-name="uni1EC8" unicode="&#x1ec8;" horiz-adv-x="679" 
d="M135 1439h409v-1439h-409v1439zM308 1633q21 32 21 74q0 43 -17 64t-45 21q-22 0 -42.5 -6.5t-46.5 -25.5l-11 58q38 20 75 28t79 8q89 0 136.5 -34t47.5 -100q0 -53 -49.5 -105t-153.5 -83l-59 23q44 46 65 78z" />
    <glyph glyph-name="uni020A" unicode="&#x20a;" horiz-adv-x="679" 
d="M135 1439h409v-1439h-409v1439zM499 1842q66 -43 100 -120t37 -177l-84 -4q-16 66 -62.5 98.5t-150.5 32.5t-150.5 -32.5t-61.5 -98.5l-85 4q2 100 36.5 176.5t100.5 120t160 43.5t160 -43z" />
    <glyph glyph-name="Imacron" unicode="&#x12a;" horiz-adv-x="679" 
d="M135 1439h409v-1439h-409v1439zM-52 1707h774v-127h-774v127z" />
    <glyph glyph-name="Iogonek" unicode="&#x12e;" horiz-adv-x="679" 
d="M642 -311q-53 -63 -124 -102t-150 -39q-56 0 -104.5 21.5t-78 62.5t-29.5 95q0 145 244 273h-265v1439h409v-1439h-1q-92 -58 -128.5 -110.5t-36.5 -111.5q0 -45 27 -73.5t74 -28.5q54 0 118 60z" />
    <glyph glyph-name="Itilde" unicode="&#x128;" horiz-adv-x="679" 
d="M135 1439h409v-1439h-409v1439zM260 1789q25 0 50.5 -10t62.5 -29q35 -18 58.5 -27.5t44.5 -9.5q37 0 64.5 19.5t42.5 58.5l79 -4q-19 -116 -73 -179t-146 -63q-25 0 -49.5 9.5t-67.5 30.5q-34 18 -57 27t-43 9q-37 0 -64.5 -20t-41.5 -58l-80 4q42 242 220 242z" />
    <glyph glyph-name="uni1E2C" unicode="&#x1e2c;" horiz-adv-x="679" 
d="M135 1439h409v-1439h-409v1439zM82.5 -230.5q59.5 69.5 158.5 69.5q27 0 54.5 -11t69.5 -33q40 -20 64 -30t47 -10q84 0 117 86l86 -5q-20 -129 -78.5 -198t-159.5 -69q-28 0 -57 11.5t-71 33.5q-39 20 -63 29.5t-46 9.5q-40 0 -70 -21.5t-46 -64.5l-87 5
q22 128 81.5 197.5z" />
    <glyph glyph-name="J_acutecomb" horiz-adv-x="1082" 
d="M3 85l63 123q57 -42 124.5 -65t156.5 -23q97 0 141.5 74t44.5 236v1009h407v-994q0 -153 -75.5 -258.5t-204 -158t-286.5 -52.5q-215 0 -371 109zM662 1538l154 267l281 -19l-348 -254z" />
    <glyph glyph-name="Jcircumflex" unicode="&#x134;" horiz-adv-x="1082" 
d="M3 85l63 123q57 -42 124.5 -65t156.5 -23q97 0 141.5 74t44.5 236v1009h407v-994q0 -153 -75.5 -258.5t-204 -158t-286.5 -52.5q-215 0 -371 109zM689 1853h91l293 -295l-87 -25l-250 128l-248 -128l-90 25z" />
    <glyph glyph-name="uni1E30" unicode="&#x1e30;" horiz-adv-x="1495" 
d="M135 1439h409v-1439h-409v1439zM602 673l530 766h168l-382 -546l573 -893h-483zM679 1538l154 267l281 -19l-348 -254z" />
    <glyph glyph-name="uni01E8" unicode="&#x1e8;" horiz-adv-x="1495" 
d="M135 1439h409v-1439h-409v1439zM602 673l530 766h168l-382 -546l573 -893h-483zM801 1535h-91l-292 293l86 25l250 -127l249 127l89 -25z" />
    <glyph glyph-name="uni0136" unicode="&#x136;" horiz-adv-x="1495" 
d="M135 1439h409v-1439h-409v1439zM602 673l530 766h168l-382 -546l573 -893h-483zM886.5 -155q22.5 -39 22.5 -88q0 -91 -70 -156.5t-192 -92.5l-17 61q80 35 80 93q0 25 -18 50t-61 61l195 137q38 -26 60.5 -65z" />
    <glyph glyph-name="uni1E32" unicode="&#x1e32;" horiz-adv-x="1495" 
d="M135 1439h409v-1439h-409v1439zM602 673l530 766h168l-382 -546l573 -893h-483zM676.5 -443.5q-38.5 19.5 -60.5 54t-22 77.5q0 41 22.5 75t60.5 53.5t84 19.5t85 -19.5t61.5 -53.5t22.5 -75q0 -43 -22.5 -77.5t-61 -54t-85.5 -19.5q-46 0 -84.5 19.5z" />
    <glyph glyph-name="uni1E34" unicode="&#x1e34;" horiz-adv-x="1495" 
d="M135 1439h409v-1439h-409v1439zM602 673l530 766h168l-382 -546l573 -893h-483zM366 -198h774v-127h-774v127z" />
    <glyph glyph-name="uni01C7" unicode="&#x1c7;" horiz-adv-x="2199" 
d="M135 1439h409v-1292h561v-147h-970v1439zM1119 85l63 123q57 -42 124.5 -65t156.5 -23q97 0 141.5 74t44.5 236v1009h407v-994q0 -153 -75.5 -258.5t-204 -158t-286.5 -52.5q-215 0 -371 109z" />
    <glyph glyph-name="Lacute" unicode="&#x139;" horiz-adv-x="1116" 
d="M135 1439h409v-1292h561v-147h-970v1439zM264 1538l154 267l281 -19l-348 -254z" />
    <glyph glyph-name="Lcaron" unicode="&#x13d;" horiz-adv-x="1116" 
d="M544 1439v-1292h561v-147h-970v1439h409zM817 1438h268l-85 -420h-89z" />
    <glyph glyph-name="uni1E3C" unicode="&#x1e3c;" horiz-adv-x="1116" 
d="M135 1439h409v-1292h561v-147h-970v1439zM278 -449l278 342h87l279 -342l-83 -28l-238 148l-238 -148z" />
    <glyph glyph-name="uni013B" unicode="&#x13b;" horiz-adv-x="1116" 
d="M135 1439h409v-1292h561v-147h-970v1439zM727.5 -155q22.5 -39 22.5 -88q0 -91 -70 -156.5t-192 -92.5l-17 61q80 35 80 93q0 25 -18 50t-61 61l195 137q38 -26 60.5 -65z" />
    <glyph glyph-name="Ldot" unicode="&#x13f;" horiz-adv-x="1148" 
d="M135 1439h409v-1292h561v-147h-970v1439zM823 591.5q-41 22.5 -64 62.5t-23 91q0 50 22.5 89.5t63.5 62t94 22.5q51 0 92 -23t64 -62.5t23 -88.5q0 -51 -23 -91t-64 -62.5t-92 -22.5q-52 0 -93 22.5z" />
    <glyph glyph-name="uni1E36" unicode="&#x1e36;" horiz-adv-x="1116" 
d="M135 1439h409v-1292h561v-147h-970v1439zM517.5 -443.5q-38.5 19.5 -60.5 54t-22 77.5q0 41 22.5 75t60.5 53.5t84 19.5t85 -19.5t61.5 -53.5t22.5 -75q0 -43 -22.5 -77.5t-61 -54t-85.5 -19.5q-46 0 -84.5 19.5z" />
    <glyph glyph-name="uni1E38" unicode="&#x1e38;" horiz-adv-x="1116" 
d="M135 1439h409v-1292h561v-147h-970v1439zM517.5 -443.5q-38.5 19.5 -60.5 54t-22 77.5q0 41 22.5 75t60.5 53.5t84 19.5t85 -19.5t61.5 -53.5t22.5 -75q0 -43 -22.5 -77.5t-61 -54t-85.5 -19.5q-46 0 -84.5 19.5zM-54 1707h774v-127h-774v127z" />
    <glyph glyph-name="uni01C8" unicode="&#x1c8;" horiz-adv-x="1735" 
d="M135 1439h409v-1292h561v-147h-970v1439zM1149 -257q65 46 88 107q0 140 -1 200v976h387v-877q0 -146 -79.5 -269t-217 -206t-307.5 -116l-26 115q91 24 156 70zM1314 1165.5q-52 26.5 -82 73.5t-30 105q0 57 30 103.5t82 73t115 26.5t116 -27t83.5 -73.5t30.5 -102.5
q0 -58 -30.5 -105t-83.5 -73.5t-116 -26.5t-115 26.5z" />
    <glyph glyph-name="uni1E3A" unicode="&#x1e3a;" horiz-adv-x="1116" 
d="M135 1439h409v-1292h561v-147h-970v1439zM206 -198h774v-127h-774v127z" />
    <glyph glyph-name="Lslash" unicode="&#x141;" horiz-adv-x="1116" 
d="M1105 147v-147h-970v448l-151 -97v117l151 97v874h409v-612l205 132v-116l-205 -132v-564h561z" />
    <glyph glyph-name="uni004D_uni0310" horiz-adv-x="1849" 
d="M810 1797.5q-36 31.5 -36 80.5q0 47 36 78.5t88 31.5q53 0 90 -32t37 -78q0 -49 -36.5 -80.5t-90.5 -31.5q-52 0 -88 31.5zM726 1579q-65 76 -67 200l71 4q13 -54 52 -80.5t127 -26.5t127 26.5t52 80.5l71 -4q-3 -124 -67.5 -200t-182.5 -76t-183 76zM880 681l55 -124
l41 106l346 776h391v-1439h-407v797l6 260l-426 -954h-150l-458 953l7 -255v-801h-150v1439h407z" />
    <glyph glyph-name="uni1E3E" unicode="&#x1e3e;" horiz-adv-x="1849" 
d="M542 1439l338 -758l55 -124l41 106l346 776h391v-1439h-407v797l6 260l-426 -954h-150l-458 953l7 -255v-801h-150v1439h407zM834 1538l154 267l281 -19l-348 -254z" />
    <glyph glyph-name="uni1E40" unicode="&#x1e40;" horiz-adv-x="1849" 
d="M542 1439l338 -758l55 -124l41 106l346 776h391v-1439h-407v797l6 260l-426 -954h-150l-458 953l7 -255v-801h-150v1439h407zM823.5 1552q-37.5 19 -59.5 53.5t-22 77.5q0 41 22 75t60 53.5t83 19.5q46 0 85 -19.5t61.5 -53.5t22.5 -75q0 -43 -22.5 -77.5t-61 -53.5
t-85.5 -19q-46 0 -83.5 19z" />
    <glyph glyph-name="uni1E42" unicode="&#x1e42;" horiz-adv-x="1849" 
d="M542 1439l338 -758l55 -124l41 106l346 776h391v-1439h-407v797l6 260l-426 -954h-150l-458 953l7 -255v-801h-150v1439h407zM798.5 -443.5q-38.5 19.5 -60.5 54t-22 77.5q0 41 22.5 75t60.5 53.5t84 19.5t85 -19.5t61.5 -53.5t22.5 -75q0 -43 -22.5 -77.5t-61 -54
t-85.5 -19.5q-46 0 -84.5 19.5z" />
    <glyph glyph-name="uni01CA" unicode="&#x1ca;" horiz-adv-x="2547" 
d="M275 1061l10 -232v-829h-150v1439h342l712 -949l-9 213v736h150v-1439l-261 -1zM1468 85l63 123q57 -42 124.5 -65t156.5 -23q97 0 141.5 74t44.5 236v1009h407v-994q0 -153 -75.5 -258.5t-204 -158t-286.5 -52.5q-215 0 -371 109z" />
    <glyph glyph-name="uni004E_uni0304" horiz-adv-x="1465" 
d="M275 1061l10 -232v-829h-150v1439h342l712 -949l-9 213v736h150v-1439l-261 -1zM357 1707h774v-127h-774v127z" />
    <glyph glyph-name="Nacute" unicode="&#x143;" horiz-adv-x="1465" 
d="M275 1061l10 -232v-829h-150v1439h342l712 -949l-9 213v736h150v-1439l-261 -1zM675 1538l154 267l281 -19l-348 -254z" />
    <glyph glyph-name="Ncaron" unicode="&#x147;" horiz-adv-x="1465" 
d="M275 1061l10 -232v-829h-150v1439h342l712 -949l-9 213v736h150v-1439l-261 -1zM798 1535h-91l-292 293l86 25l250 -127l249 127l89 -25z" />
    <glyph glyph-name="uni1E4A" unicode="&#x1e4a;" horiz-adv-x="1465" 
d="M275 1061l10 -232v-829h-150v1439h342l712 -949l-9 213v736h150v-1439l-261 -1zM384 -449l278 342h87l279 -342l-83 -28l-238 148l-238 -148z" />
    <glyph glyph-name="uni0145" unicode="&#x145;" horiz-adv-x="1465" 
d="M275 1061l10 -232v-829h-150v1439h342l712 -949l-9 213v736h150v-1439l-261 -1zM833.5 -155q22.5 -39 22.5 -88q0 -91 -70 -156.5t-192 -92.5l-17 61q80 35 80 93q0 25 -18 50t-61 61l195 137q38 -26 60.5 -65z" />
    <glyph glyph-name="uni1E44" unicode="&#x1e44;" horiz-adv-x="1465" 
d="M275 1061l10 -232v-829h-150v1439h342l712 -949l-9 213v736h150v-1439l-261 -1zM664.5 1552q-37.5 19 -59.5 53.5t-22 77.5q0 41 22 75t60 53.5t83 19.5q46 0 85 -19.5t61.5 -53.5t22.5 -75q0 -43 -22.5 -77.5t-61 -53.5t-85.5 -19q-46 0 -83.5 19z" />
    <glyph glyph-name="uni1E46" unicode="&#x1e46;" horiz-adv-x="1465" 
d="M275 1061l10 -232v-829h-150v1439h342l712 -949l-9 213v736h150v-1439l-261 -1zM623.5 -443.5q-38.5 19.5 -60.5 54t-22 77.5q0 41 22.5 75t60.5 53.5t84 19.5t85 -19.5t61.5 -53.5t22.5 -75q0 -43 -22.5 -77.5t-61 -54t-85.5 -19.5q-46 0 -84.5 19.5z" />
    <glyph glyph-name="uni01F8" unicode="&#x1f8;" horiz-adv-x="1465" 
d="M275 1061l10 -232v-829h-150v1439h342l712 -949l-9 213v736h150v-1439l-261 -1zM390 1785l280 19l155 -267l-87 -6z" />
    <glyph glyph-name="uni01CB" unicode="&#x1cb;" horiz-adv-x="2074" 
d="M275 1061l10 -232v-829h-150v1439h342l712 -949l-9 213v736h150v-1439l-261 -1zM1489 -257q65 46 88 107q0 140 -1 200v976h387v-877q0 -146 -79.5 -269t-217 -206t-307.5 -116l-26 115q91 24 156 70zM1654 1165.5q-52 26.5 -82 73.5t-30 105q0 57 30 103.5t82 73
t115 26.5t116 -27t83.5 -73.5t30.5 -102.5q0 -58 -30.5 -105t-83.5 -73.5t-116 -26.5t-115 26.5z" />
    <glyph glyph-name="uni1E48" unicode="&#x1e48;" horiz-adv-x="1465" 
d="M275 1061l10 -232v-829h-150v1439h342l712 -949l-9 213v736h150v-1439l-261 -1zM313 -198h774v-127h-774v127z" />
    <glyph glyph-name="Ntilde" unicode="&#xd1;" horiz-adv-x="1465" 
d="M275 1061l10 -232v-829h-150v1439h342l712 -949l-9 213v736h150v-1439l-261 -1zM669 1789q25 0 50.5 -10t62.5 -29q35 -18 58.5 -27.5t44.5 -9.5q37 0 64.5 19.5t42.5 58.5l79 -4q-19 -116 -73 -179t-146 -63q-25 0 -49.5 9.5t-67.5 30.5q-34 18 -57 27t-43 9
q-37 0 -64.5 -20t-41.5 -58l-80 4q42 242 220 242z" />
    <glyph glyph-name="Oacute" unicode="&#xd3;" horiz-adv-x="1628" 
d="M421 70.5q-169 94.5 -262 262.5t-93 383t93 384.5t262 265t390 95.5t391.5 -95t265 -263.5t94.5 -382.5q0 -217 -93.5 -386t-264 -263.5t-393.5 -94.5q-221 0 -390 94.5zM1052.5 260q78.5 135 78.5 377q0 143 -30 297.5t-105 266t-200 111.5q-147 0 -223 -135.5
t-76 -376.5q0 -141 29.5 -295.5t102.5 -267t195 -112.5q150 0 228.5 135zM736 1538l154 267l281 -19l-348 -254z" />
    <glyph glyph-name="Obreve" unicode="&#x14e;" horiz-adv-x="1628" 
d="M421 70.5q-169 94.5 -262 262.5t-93 383t93 384.5t262 265t390 95.5t391.5 -95t265 -263.5t94.5 -382.5q0 -217 -93.5 -386t-264 -263.5t-393.5 -94.5q-221 0 -390 94.5zM1052.5 260q78.5 135 78.5 377q0 143 -30 297.5t-105 266t-200 111.5q-147 0 -223 -135.5
t-76 -376.5q0 -141 29.5 -295.5t102.5 -267t195 -112.5q150 0 228.5 135zM648.5 1558.5q-67.5 42.5 -102.5 118t-37 173.5l86 4q15 -65 62.5 -97t153.5 -32t153.5 32t62.5 97l86 -4q-3 -98 -37.5 -173.5t-101.5 -118t-163 -42.5q-95 0 -162.5 42.5z" />
    <glyph glyph-name="uni01D1" unicode="&#x1d1;" horiz-adv-x="1628" 
d="M421 70.5q-169 94.5 -262 262.5t-93 383t93 384.5t262 265t390 95.5t391.5 -95t265 -263.5t94.5 -382.5q0 -217 -93.5 -386t-264 -263.5t-393.5 -94.5q-221 0 -390 94.5zM1052.5 260q78.5 135 78.5 377q0 143 -30 297.5t-105 266t-200 111.5q-147 0 -223 -135.5
t-76 -376.5q0 -141 29.5 -295.5t102.5 -267t195 -112.5q150 0 228.5 135zM858 1535h-91l-292 293l86 25l250 -127l249 127l89 -25z" />
    <glyph glyph-name="Ocircumflex" unicode="&#xd4;" horiz-adv-x="1628" 
d="M421 70.5q-169 94.5 -262 262.5t-93 383t93 384.5t262 265t390 95.5t391.5 -95t265 -263.5t94.5 -382.5q0 -217 -93.5 -386t-264 -263.5t-393.5 -94.5q-221 0 -390 94.5zM1052.5 260q78.5 135 78.5 377q0 143 -30 297.5t-105 266t-200 111.5q-147 0 -223 -135.5
t-76 -376.5q0 -141 29.5 -295.5t102.5 -267t195 -112.5q150 0 228.5 135zM763 1853h91l293 -295l-87 -25l-250 128l-248 -128l-90 25z" />
    <glyph glyph-name="uni1ED0" unicode="&#x1ed0;" horiz-adv-x="1628" 
d="M1110 1651l108 242l195 -18l-242 -229zM472 1558l291 295h91l293 -295l-87 -25l-250 128l-248 -128zM421 70.5q-169 94.5 -262 262.5t-93 383t93 384.5t262 265t390 95.5t391.5 -95t265 -263.5t94.5 -382.5q0 -217 -93.5 -386t-264 -263.5t-393.5 -94.5q-221 0 -390 94.5
zM1052.5 260q78.5 135 78.5 377q0 143 -30 297.5t-105 266t-200 111.5q-147 0 -223 -135.5t-76 -376.5q0 -141 29.5 -295.5t102.5 -267t195 -112.5q150 0 228.5 135z" />
    <glyph glyph-name="uni1ED8" unicode="&#x1ed8;" horiz-adv-x="1628" 
d="M421 70.5q-169 94.5 -262 262.5t-93 383t93 384.5t262 265t390 95.5t391.5 -95t265 -263.5t94.5 -382.5q0 -217 -93.5 -386t-264 -263.5t-393.5 -94.5q-221 0 -390 94.5zM1052.5 260q78.5 135 78.5 377q0 143 -30 297.5t-105 266t-200 111.5q-147 0 -223 -135.5
t-76 -376.5q0 -141 29.5 -295.5t102.5 -267t195 -112.5q150 0 228.5 135zM726.5 -443.5q-38.5 19.5 -60.5 54t-22 77.5q0 41 22.5 75t60.5 53.5t84 19.5t85 -19.5t61.5 -53.5t22.5 -75q0 -43 -22.5 -77.5t-61 -54t-85.5 -19.5q-46 0 -84.5 19.5zM763 1853h91l293 -295
l-87 -25l-250 128l-248 -128l-90 25z" />
    <glyph glyph-name="uni1ED2" unicode="&#x1ed2;" horiz-adv-x="1628" 
d="M243 1927l200 18l109 -245l-61 -6zM472 1558l291 295h91l293 -295l-87 -25l-250 128l-248 -128zM421 70.5q-169 94.5 -262 262.5t-93 383t93 384.5t262 265t390 95.5t391.5 -95t265 -263.5t94.5 -382.5q0 -217 -93.5 -386t-264 -263.5t-393.5 -94.5q-221 0 -390 94.5z
M1052.5 260q78.5 135 78.5 377q0 143 -30 297.5t-105 266t-200 111.5q-147 0 -223 -135.5t-76 -376.5q0 -141 29.5 -295.5t102.5 -267t195 -112.5q150 0 228.5 135z" />
    <glyph glyph-name="uni1ED4" unicode="&#x1ed4;" horiz-adv-x="1628" 
d="M421 70.5q-169 94.5 -262 262.5t-93 383t93 384.5t262 265t390 95.5t391.5 -95t265 -263.5t94.5 -382.5q0 -217 -93.5 -386t-264 -263.5t-393.5 -94.5q-221 0 -390 94.5zM1052.5 260q78.5 135 78.5 377q0 143 -30 297.5t-105 266t-200 111.5q-147 0 -223 -135.5
t-76 -376.5q0 -141 29.5 -295.5t102.5 -267t195 -112.5q150 0 228.5 135zM763 1853h91l293 -295l-87 -25l-250 128l-248 -128l-90 25zM1175 1739q21 32 21 74q0 43 -17 64t-45 21q-22 0 -42.5 -6.5t-46.5 -25.5l-11 58q38 20 75 28t79 8q89 0 136.5 -34t47.5 -100
q0 -53 -49.5 -105t-153.5 -83l-59 23q44 46 65 78z" />
    <glyph glyph-name="uni1ED6" unicode="&#x1ed6;" horiz-adv-x="1628" 
d="M764 1999q16 0 33.5 -7t40.5 -19q4 -2 19 -9t27 -10.5t21 -3.5q50 0 69 50l51 -2q-24 -158 -141 -158q-17 0 -34.5 7t-42.5 20q-24 12 -38 17.5t-27 5.5q-24 0 -41.5 -13t-27.5 -38l-52 3q27 157 143 157zM517 1556l253 257h79l255 -257l-76 -22l-217 112l-217 -112z
M421 70.5q-169 94.5 -262 262.5t-93 383t93 384.5t262 265t390 95.5t391.5 -95t265 -263.5t94.5 -382.5q0 -217 -93.5 -386t-264 -263.5t-393.5 -94.5q-221 0 -390 94.5zM1052.5 260q78.5 135 78.5 377q0 143 -30 297.5t-105 266t-200 111.5q-147 0 -223 -135.5t-76 -376.5
q0 -141 29.5 -295.5t102.5 -267t195 -112.5q150 0 228.5 135z" />
    <glyph glyph-name="uni020C" unicode="&#x20c;" horiz-adv-x="1628" 
d="M421 70.5q-169 94.5 -262 262.5t-93 383t93 384.5t262 265t390 95.5t391.5 -95t265 -263.5t94.5 -382.5q0 -217 -93.5 -386t-264 -263.5t-393.5 -94.5q-221 0 -390 94.5zM1052.5 260q78.5 135 78.5 377q0 143 -30 297.5t-105 266t-200 111.5q-147 0 -223 -135.5
t-76 -376.5q0 -141 29.5 -295.5t102.5 -267t195 -112.5q150 0 228.5 135zM1062 1560l-93 -8l-303 258l128 -255l-92 -8l-373 317l298 24l8 -16l259 21z" />
    <glyph glyph-name="Odieresis" unicode="&#xd6;" horiz-adv-x="1628" 
d="M421 70.5q-169 94.5 -262 262.5t-93 383t93 384.5t262 265t390 95.5t391.5 -95t265 -263.5t94.5 -382.5q0 -217 -93.5 -386t-264 -263.5t-393.5 -94.5q-221 0 -390 94.5zM1052.5 260q78.5 135 78.5 377q0 143 -30 297.5t-105 266t-200 111.5q-147 0 -223 -135.5
t-76 -376.5q0 -141 29.5 -295.5t102.5 -267t195 -112.5q150 0 228.5 135zM494.5 1544q-35.5 18 -56 50t-20.5 72q0 39 20.5 70.5t56 49.5t78.5 18t79 -18t57.5 -50t21.5 -70q0 -40 -21 -72t-57 -50t-80 -18q-43 0 -78.5 18zM926.5 1565.5q-44.5 39.5 -44.5 100.5
q0 39 20.5 70.5t56 49.5t78.5 18t79 -18t57 -50t21 -70q0 -61 -45 -100.5t-112 -39.5q-66 0 -110.5 39.5z" />
    <glyph glyph-name="uni022A" unicode="&#x22a;" horiz-adv-x="1628" 
d="M421 70.5q-169 94.5 -262 262.5t-93 383t93 384.5t262 265t390 95.5t391.5 -95t265 -263.5t94.5 -382.5q0 -217 -93.5 -386t-264 -263.5t-393.5 -94.5q-221 0 -390 94.5zM1052.5 260q78.5 135 78.5 377q0 143 -30 297.5t-105 266t-200 111.5q-147 0 -223 -135.5
t-76 -376.5q0 -141 29.5 -295.5t102.5 -267t195 -112.5q150 0 228.5 135zM494.5 1544q-35.5 18 -56 50t-20.5 72q0 39 20.5 70.5t56 49.5t78.5 18t79 -18t57.5 -50t21.5 -70q0 -40 -21 -72t-57 -50t-80 -18q-43 0 -78.5 18zM926.5 1565.5q-44.5 39.5 -44.5 100.5
q0 39 20.5 70.5t56 49.5t78.5 18t79 -18t57 -50t21 -70q0 -61 -45 -100.5t-112 -39.5q-66 0 -110.5 39.5zM412 1984h774v-127h-774v127z" />
    <glyph glyph-name="uni022E" unicode="&#x22e;" horiz-adv-x="1628" 
d="M421 70.5q-169 94.5 -262 262.5t-93 383t93 384.5t262 265t390 95.5t391.5 -95t265 -263.5t94.5 -382.5q0 -217 -93.5 -386t-264 -263.5t-393.5 -94.5q-221 0 -390 94.5zM1052.5 260q78.5 135 78.5 377q0 143 -30 297.5t-105 266t-200 111.5q-147 0 -223 -135.5
t-76 -376.5q0 -141 29.5 -295.5t102.5 -267t195 -112.5q150 0 228.5 135zM725.5 1552q-37.5 19 -59.5 53.5t-22 77.5q0 41 22 75t60 53.5t83 19.5q46 0 85 -19.5t61.5 -53.5t22.5 -75q0 -43 -22.5 -77.5t-61 -53.5t-85.5 -19q-46 0 -83.5 19z" />
    <glyph glyph-name="uni0230" unicode="&#x230;" horiz-adv-x="1628" 
d="M420 1975h774v-104h-774v104zM719.5 1550.5q-35.5 18.5 -56.5 51t-21 73.5q0 39 21 71t57 50.5t79 18.5q44 0 81 -18.5t58.5 -50.5t21.5 -71q0 -41 -21.5 -73.5t-58 -51t-81.5 -18.5q-44 0 -79.5 18.5zM421 70.5q-169 94.5 -262 262.5t-93 383t93 384.5t262 265t390 95.5
t391.5 -95t265 -263.5t94.5 -382.5q0 -217 -93.5 -386t-264 -263.5t-393.5 -94.5q-221 0 -390 94.5zM1052.5 260q78.5 135 78.5 377q0 143 -30 297.5t-105 266t-200 111.5q-147 0 -223 -135.5t-76 -376.5q0 -141 29.5 -295.5t102.5 -267t195 -112.5q150 0 228.5 135z" />
    <glyph glyph-name="uni1ECC" unicode="&#x1ecc;" horiz-adv-x="1628" 
d="M421 70.5q-169 94.5 -262 262.5t-93 383t93 384.5t262 265t390 95.5t391.5 -95t265 -263.5t94.5 -382.5q0 -217 -93.5 -386t-264 -263.5t-393.5 -94.5q-221 0 -390 94.5zM1052.5 260q78.5 135 78.5 377q0 143 -30 297.5t-105 266t-200 111.5q-147 0 -223 -135.5
t-76 -376.5q0 -141 29.5 -295.5t102.5 -267t195 -112.5q150 0 228.5 135zM726.5 -443.5q-38.5 19.5 -60.5 54t-22 77.5q0 41 22.5 75t60.5 53.5t84 19.5t85 -19.5t61.5 -53.5t22.5 -75q0 -43 -22.5 -77.5t-61 -54t-85.5 -19.5q-46 0 -84.5 19.5z" />
    <glyph glyph-name="Ograve" unicode="&#xd2;" horiz-adv-x="1628" 
d="M421 70.5q-169 94.5 -262 262.5t-93 383t93 384.5t262 265t390 95.5t391.5 -95t265 -263.5t94.5 -382.5q0 -217 -93.5 -386t-264 -263.5t-393.5 -94.5q-221 0 -390 94.5zM1052.5 260q78.5 135 78.5 377q0 143 -30 297.5t-105 266t-200 111.5q-147 0 -223 -135.5
t-76 -376.5q0 -141 29.5 -295.5t102.5 -267t195 -112.5q150 0 228.5 135zM451 1785l280 19l155 -267l-87 -6z" />
    <glyph glyph-name="uni1ECE" unicode="&#x1ece;" horiz-adv-x="1628" 
d="M421 70.5q-169 94.5 -262 262.5t-93 383t93 384.5t262 265t390 95.5t391.5 -95t265 -263.5t94.5 -382.5q0 -217 -93.5 -386t-264 -263.5t-393.5 -94.5q-221 0 -390 94.5zM1052.5 260q78.5 135 78.5 377q0 143 -30 297.5t-105 266t-200 111.5q-147 0 -223 -135.5
t-76 -376.5q0 -141 29.5 -295.5t102.5 -267t195 -112.5q150 0 228.5 135zM778 1633q21 32 21 74q0 43 -17 64t-45 21q-22 0 -42.5 -6.5t-46.5 -25.5l-11 58q38 20 75 28t79 8q89 0 136.5 -34t47.5 -100q0 -53 -49.5 -105t-153.5 -83l-59 23q44 46 65 78z" />
    <glyph glyph-name="Ohorn" unicode="&#x1a0;" horiz-adv-x="1628" 
d="M1531 1306.5q-55 -51.5 -162 -69.5q93 -99 143 -231t50 -286q0 -217 -93.5 -386t-264 -263.5t-393.5 -94.5q-221 0 -390 94.5t-262 262.5t-93 383t93 384.5t262 265t390 95.5q146 0 272 -42.5t223 -122.5q64 25 64 86q0 35 -20 90l215 56q21 -50 21 -95q0 -75 -55 -126.5
zM1052.5 260q78.5 135 78.5 377q0 143 -30 297.5t-105 266t-200 111.5q-147 0 -223 -135.5t-76 -376.5q0 -141 29.5 -295.5t102.5 -267t195 -112.5q150 0 228.5 135z" />
    <glyph glyph-name="uni1EDA" unicode="&#x1eda;" horiz-adv-x="1628" 
d="M1531 1306.5q-55 -51.5 -162 -69.5q93 -99 143 -231t50 -286q0 -217 -93.5 -386t-264 -263.5t-393.5 -94.5q-221 0 -390 94.5t-262 262.5t-93 383t93 384.5t262 265t390 95.5q146 0 272 -42.5t223 -122.5q64 25 64 86q0 35 -20 90l215 56q21 -50 21 -95q0 -75 -55 -126.5
zM1052.5 260q78.5 135 78.5 377q0 143 -30 297.5t-105 266t-200 111.5q-147 0 -223 -135.5t-76 -376.5q0 -141 29.5 -295.5t102.5 -267t195 -112.5q150 0 228.5 135zM736 1538l154 267l281 -19l-348 -254z" />
    <glyph glyph-name="uni1EE2" unicode="&#x1ee2;" horiz-adv-x="1628" 
d="M1531 1306.5q-55 -51.5 -162 -69.5q93 -99 143 -231t50 -286q0 -217 -93.5 -386t-264 -263.5t-393.5 -94.5q-221 0 -390 94.5t-262 262.5t-93 383t93 384.5t262 265t390 95.5q146 0 272 -42.5t223 -122.5q64 25 64 86q0 35 -20 90l215 56q21 -50 21 -95q0 -75 -55 -126.5
zM1052.5 260q78.5 135 78.5 377q0 143 -30 297.5t-105 266t-200 111.5q-147 0 -223 -135.5t-76 -376.5q0 -141 29.5 -295.5t102.5 -267t195 -112.5q150 0 228.5 135zM726.5 -431.5q-38.5 19.5 -60.5 54t-22 77.5q0 41 22.5 75t60.5 53.5t84 19.5t85 -19.5t61.5 -53.5
t22.5 -75q0 -43 -22.5 -77.5t-61 -54t-85.5 -19.5q-46 0 -84.5 19.5z" />
    <glyph glyph-name="uni1EDC" unicode="&#x1edc;" horiz-adv-x="1628" 
d="M1531 1306.5q-55 -51.5 -162 -69.5q93 -99 143 -231t50 -286q0 -217 -93.5 -386t-264 -263.5t-393.5 -94.5q-221 0 -390 94.5t-262 262.5t-93 383t93 384.5t262 265t390 95.5q146 0 272 -42.5t223 -122.5q64 25 64 86q0 35 -20 90l215 56q21 -50 21 -95q0 -75 -55 -126.5
zM1052.5 260q78.5 135 78.5 377q0 143 -30 297.5t-105 266t-200 111.5q-147 0 -223 -135.5t-76 -376.5q0 -141 29.5 -295.5t102.5 -267t195 -112.5q150 0 228.5 135zM451 1785l280 19l155 -267l-87 -6z" />
    <glyph glyph-name="uni1EDE" unicode="&#x1ede;" horiz-adv-x="1628" 
d="M1531 1306.5q-55 -51.5 -162 -69.5q93 -99 143 -231t50 -286q0 -217 -93.5 -386t-264 -263.5t-393.5 -94.5q-221 0 -390 94.5t-262 262.5t-93 383t93 384.5t262 265t390 95.5q146 0 272 -42.5t223 -122.5q64 25 64 86q0 35 -20 90l215 56q21 -50 21 -95q0 -75 -55 -126.5
zM1052.5 260q78.5 135 78.5 377q0 143 -30 297.5t-105 266t-200 111.5q-147 0 -223 -135.5t-76 -376.5q0 -141 29.5 -295.5t102.5 -267t195 -112.5q150 0 228.5 135zM778 1633q21 32 21 74q0 43 -17 64t-45 21q-22 0 -42.5 -6.5t-46.5 -25.5l-11 58q38 20 75 28t79 8
q89 0 136.5 -34t47.5 -100q0 -53 -49.5 -105t-153.5 -83l-59 23q44 46 65 78z" />
    <glyph glyph-name="uni1EE0" unicode="&#x1ee0;" horiz-adv-x="1628" 
d="M1531 1306.5q-55 -51.5 -162 -69.5q93 -99 143 -231t50 -286q0 -217 -93.5 -386t-264 -263.5t-393.5 -94.5q-221 0 -390 94.5t-262 262.5t-93 383t93 384.5t262 265t390 95.5q146 0 272 -42.5t223 -122.5q64 25 64 86q0 35 -20 90l215 56q21 -50 21 -95q0 -75 -55 -126.5
zM1052.5 260q78.5 135 78.5 377q0 143 -30 297.5t-105 266t-200 111.5q-147 0 -223 -135.5t-76 -376.5q0 -141 29.5 -295.5t102.5 -267t195 -112.5q150 0 228.5 135zM730 1789q25 0 50.5 -10t62.5 -29q35 -18 58.5 -27.5t44.5 -9.5q37 0 64.5 19.5t42.5 58.5l79 -4
q-19 -116 -73 -179t-146 -63q-25 0 -49.5 9.5t-67.5 30.5q-34 18 -57 27t-43 9q-37 0 -64.5 -20t-41.5 -58l-80 4q42 242 220 242z" />
    <glyph glyph-name="Ohungarumlaut" unicode="&#x150;" horiz-adv-x="1628" 
d="M421 70.5q-169 94.5 -262 262.5t-93 383t93 384.5t262 265t390 95.5t391.5 -95t265 -263.5t94.5 -382.5q0 -217 -93.5 -386t-264 -263.5t-393.5 -94.5q-221 0 -390 94.5zM1052.5 260q78.5 135 78.5 377q0 143 -30 297.5t-105 266t-200 111.5q-147 0 -223 -135.5
t-76 -376.5q0 -141 29.5 -295.5t102.5 -267t195 -112.5q150 0 228.5 135zM1038 1847l333 -11l-405 -292l-103 4l162 276l-389 -280l-103 4l175 300l324 -12z" />
    <glyph glyph-name="uni020E" unicode="&#x20e;" horiz-adv-x="1628" 
d="M421 70.5q-169 94.5 -262 262.5t-93 383t93 384.5t262 265t390 95.5t391.5 -95t265 -263.5t94.5 -382.5q0 -217 -93.5 -386t-264 -263.5t-393.5 -94.5q-221 0 -390 94.5zM1052.5 260q78.5 135 78.5 377q0 143 -30 297.5t-105 266t-200 111.5q-147 0 -223 -135.5
t-76 -376.5q0 -141 29.5 -295.5t102.5 -267t195 -112.5q150 0 228.5 135zM969 1842q66 -43 100 -120t37 -177l-84 -4q-16 66 -62.5 98.5t-150.5 32.5t-150.5 -32.5t-61.5 -98.5l-85 4q2 100 36.5 176.5t100.5 120t160 43.5t160 -43z" />
    <glyph glyph-name="Omacron" unicode="&#x14c;" horiz-adv-x="1628" 
d="M421 70.5q-169 94.5 -262 262.5t-93 383t93 384.5t262 265t390 95.5t391.5 -95t265 -263.5t94.5 -382.5q0 -217 -93.5 -386t-264 -263.5t-393.5 -94.5q-221 0 -390 94.5zM1052.5 260q78.5 135 78.5 377q0 143 -30 297.5t-105 266t-200 111.5q-147 0 -223 -135.5
t-76 -376.5q0 -141 29.5 -295.5t102.5 -267t195 -112.5q150 0 228.5 135zM418 1707h774v-127h-774v127z" />
    <glyph glyph-name="uni1E52" unicode="&#x1e52;" horiz-adv-x="1628" 
d="M421 70.5q-169 94.5 -262 262.5t-93 383t93 384.5t262 265t390 95.5t391.5 -95t265 -263.5t94.5 -382.5q0 -217 -93.5 -386t-264 -263.5t-393.5 -94.5q-221 0 -390 94.5zM1052.5 260q78.5 135 78.5 377q0 143 -30 297.5t-105 266t-200 111.5q-147 0 -223 -135.5
t-76 -376.5q0 -141 29.5 -295.5t102.5 -267t195 -112.5q150 0 228.5 135zM418 1707h774v-127h-774v127zM738 1808l154 267l281 -19l-348 -254z" />
    <glyph glyph-name="uni1E50" unicode="&#x1e50;" horiz-adv-x="1628" 
d="M421 70.5q-169 94.5 -262 262.5t-93 383t93 384.5t262 265t390 95.5t391.5 -95t265 -263.5t94.5 -382.5q0 -217 -93.5 -386t-264 -263.5t-393.5 -94.5q-221 0 -390 94.5zM1052.5 260q78.5 135 78.5 377q0 143 -30 297.5t-105 266t-200 111.5q-147 0 -223 -135.5
t-76 -376.5q0 -141 29.5 -295.5t102.5 -267t195 -112.5q150 0 228.5 135zM418 1707h774v-127h-774v127zM454 2055l280 19l155 -267l-87 -6z" />
    <glyph glyph-name="uni01EA" unicode="&#x1ea;" horiz-adv-x="1628" 
d="M981 -73q-19 -39 -19 -82q0 -45 27 -73.5t74 -28.5q54 0 118 60l45 -47q-53 -63 -124 -102t-150 -39q-56 0 -104.5 21.5t-78 62.5t-29.5 95q0 95 104 183q-11 -1 -33 -1q-221 0 -390 94.5t-262 262.5t-93 383t93 384.5t262 265t390 95.5t391.5 -95t265 -263.5
t94.5 -382.5q0 -176 -62.5 -322.5t-179 -247t-275.5 -144.5q-45 -40 -64 -79zM526.5 504.5q29.5 -154.5 102.5 -267t195 -112.5q150 0 228.5 135t78.5 377q0 143 -30 297.5t-105 266t-200 111.5q-147 0 -223 -135.5t-76 -376.5q0 -141 29.5 -295.5z" />
    <glyph glyph-name="uni01EC" unicode="&#x1ec;" horiz-adv-x="1628" 
d="M1192 1707v-128h-774v128h774zM981 -73q-19 -39 -19 -82q0 -45 27 -73.5t74 -28.5q54 0 118 60l45 -47q-53 -63 -124 -102t-150 -39q-56 0 -104.5 21.5t-78 62.5t-29.5 95q0 95 104 183q-11 -1 -33 -1q-221 0 -390 94.5t-262 262.5t-93 383t93 384.5t262 265t390 95.5
t391.5 -95t265 -263.5t94.5 -382.5q0 -176 -62.5 -322.5t-179 -247t-275.5 -144.5q-45 -40 -64 -79zM526.5 504.5q29.5 -154.5 102.5 -267t195 -112.5q150 0 228.5 135t78.5 377q0 143 -30 297.5t-105 266t-200 111.5q-147 0 -223 -135.5t-76 -376.5q0 -141 29.5 -295.5z
" />
    <glyph glyph-name="Oslash" unicode="&#xd8;" horiz-adv-x="1628" 
d="M1357 1250q99 -100 152 -235.5t53 -294.5q0 -217 -93.5 -386t-264 -263.5t-393.5 -94.5q-95 0 -188 19l-78 -218h-127l90 253q-137 53 -236.5 152.5t-152.5 236t-53 297.5q0 215 93 384.5t262 265t390 95.5q107 0 198 -22l73 206h127l-86 -241q135 -54 234 -154zM521 531
q24 -142 78 -244l345 970q-66 55 -148 55q-147 0 -223 -135.5t-76 -376.5q0 -127 24 -269zM1052.5 260q78.5 135 78.5 377q0 126 -23.5 265t-76.5 241l-345 -968q61 -50 138 -50q150 0 228.5 135z" />
    <glyph glyph-name="Oslashacute" unicode="&#x1fe;" horiz-adv-x="1628" 
d="M1357 1250q99 -100 152 -235.5t53 -294.5q0 -217 -93.5 -386t-264 -263.5t-393.5 -94.5q-95 0 -188 19l-78 -218h-127l90 253q-137 53 -236.5 152.5t-152.5 236t-53 297.5q0 215 93 384.5t262 265t390 95.5q107 0 198 -22l73 206h127l-86 -241q135 -54 234 -154zM521 531
q24 -142 78 -244l345 970q-66 55 -148 55q-147 0 -223 -135.5t-76 -376.5q0 -127 24 -269zM1052.5 260q78.5 135 78.5 377q0 126 -23.5 265t-76.5 241l-345 -968q61 -50 138 -50q150 0 228.5 135zM736 1538l154 267l281 -19l-348 -254z" />
    <glyph glyph-name="Otilde" unicode="&#xd5;" horiz-adv-x="1628" 
d="M421 70.5q-169 94.5 -262 262.5t-93 383t93 384.5t262 265t390 95.5t391.5 -95t265 -263.5t94.5 -382.5q0 -217 -93.5 -386t-264 -263.5t-393.5 -94.5q-221 0 -390 94.5zM1052.5 260q78.5 135 78.5 377q0 143 -30 297.5t-105 266t-200 111.5q-147 0 -223 -135.5
t-76 -376.5q0 -141 29.5 -295.5t102.5 -267t195 -112.5q150 0 228.5 135zM730 1789q25 0 50.5 -10t62.5 -29q35 -18 58.5 -27.5t44.5 -9.5q37 0 64.5 19.5t42.5 58.5l79 -4q-19 -116 -73 -179t-146 -63q-25 0 -49.5 9.5t-67.5 30.5q-34 18 -57 27t-43 9q-37 0 -64.5 -20
t-41.5 -58l-80 4q42 242 220 242z" />
    <glyph glyph-name="uni1E4C" unicode="&#x1e4c;" horiz-adv-x="1628" 
d="M776 1789l115 194l208 -14l-258 -185zM629.5 1685q48.5 51 129.5 51q22 0 44.5 -8t56.5 -24q32 -15 52.5 -22.5t39.5 -7.5q33 0 57.5 16t37.5 48l70 -4q-34 -197 -194 -197q-23 0 -45.5 8t-59.5 25q-31 14 -51.5 21.5t-37.5 7.5q-32 0 -57 -16t-38 -48l-71 4
q18 95 66.5 146zM421 70.5q-169 94.5 -262 262.5t-93 383t93 384.5t262 265t390 95.5t391.5 -95t265 -263.5t94.5 -382.5q0 -217 -93.5 -386t-264 -263.5t-393.5 -94.5q-221 0 -390 94.5zM1052.5 260q78.5 135 78.5 377q0 143 -30 297.5t-105 266t-200 111.5
q-147 0 -223 -135.5t-76 -376.5q0 -141 29.5 -295.5t102.5 -267t195 -112.5q150 0 228.5 135z" />
    <glyph glyph-name="uni1E4E" unicode="&#x1e4e;" horiz-adv-x="1628" 
d="M570.5 1824q-31.5 28 -31.5 71q0 41 31.5 69t77.5 28q47 0 79 -28t32 -69q0 -43 -32 -71t-79 -28q-46 0 -77.5 28zM897.5 1824q-31.5 28 -31.5 71q0 41 31.5 69t77.5 28q47 0 79 -28t32 -69q0 -43 -32 -71t-79 -28q-46 0 -77.5 28zM580 1697.5q54 53.5 145 53.5
q24 0 50 -9t62 -25q40 -17 61 -24t42 -7q37 0 64 17t42 50l78 -4q-18 -99 -71.5 -152.5t-145.5 -53.5q-25 0 -51.5 8.5t-64.5 25.5q-35 16 -57.5 23.5t-42.5 7.5q-36 0 -63.5 -17t-42.5 -50l-79 3q20 100 74 153.5zM421 70.5q-169 94.5 -262 262.5t-93 383t93 384.5t262 265
t390 95.5t391.5 -95t265 -263.5t94.5 -382.5q0 -217 -93.5 -386t-264 -263.5t-393.5 -94.5q-221 0 -390 94.5zM1052.5 260q78.5 135 78.5 377q0 143 -30 297.5t-105 266t-200 111.5q-147 0 -223 -135.5t-76 -376.5q0 -141 29.5 -295.5t102.5 -267t195 -112.5
q150 0 228.5 135z" />
    <glyph glyph-name="uni022C" unicode="&#x22c;" horiz-adv-x="1628" 
d="M431 1988h742v-106h-742v106zM592.5 1718q52.5 60 139.5 60q23 0 48.5 -10t60.5 -28q32 -17 55 -26t43 -9q36 0 62.5 18.5t40.5 55.5l75 -3q-35 -232 -209 -232q-24 0 -50 10t-62 28q-37 18 -57.5 26t-39.5 8q-35 0 -61.5 -18.5t-40.5 -55.5l-76 4q19 112 71.5 172z
M421 70.5q-169 94.5 -262 262.5t-93 383t93 384.5t262 265t390 95.5t391.5 -95t265 -263.5t94.5 -382.5q0 -217 -93.5 -386t-264 -263.5t-393.5 -94.5q-221 0 -390 94.5zM1052.5 260q78.5 135 78.5 377q0 143 -30 297.5t-105 266t-200 111.5q-147 0 -223 -135.5t-76 -376.5
q0 -141 29.5 -295.5t102.5 -267t195 -112.5q150 0 228.5 135z" />
    <glyph glyph-name="uni0050_uni0304" horiz-adv-x="1338" 
d="M1036 1381q140 -58 211 -161t71 -236q0 -136 -75.5 -242t-214.5 -165t-322 -59h-151l-11 34v-552h-409v1439h562q199 0 339 -58zM821 740.5q66 74.5 66 241.5q0 143 -68 227t-205 84h-70v-627h91q120 0 186 74.5zM231 1707h774v-127h-774v127z" />
    <glyph glyph-name="uni1E54" unicode="&#x1e54;" horiz-adv-x="1338" 
d="M1036 1381q140 -58 211 -161t71 -236q0 -136 -75.5 -242t-214.5 -165t-322 -59h-151l-11 34v-552h-409v1439h562q199 0 339 -58zM821 740.5q66 74.5 66 241.5q0 143 -68 227t-205 84h-70v-627h91q120 0 186 74.5zM549 1538l154 267l281 -19l-348 -254z" />
    <glyph glyph-name="uni1E56" unicode="&#x1e56;" horiz-adv-x="1338" 
d="M1036 1381q140 -58 211 -161t71 -236q0 -136 -75.5 -242t-214.5 -165t-322 -59h-151l-11 34v-552h-409v1439h562q199 0 339 -58zM821 740.5q66 74.5 66 241.5q0 143 -68 227t-205 84h-70v-627h91q120 0 186 74.5zM539.5 1552q-37.5 19 -59.5 53.5t-22 77.5q0 41 22 75
t60 53.5t83 19.5q46 0 85 -19.5t61.5 -53.5t22.5 -75q0 -43 -22.5 -77.5t-61 -53.5t-85.5 -19q-46 0 -83.5 19z" />
    <glyph glyph-name="R_gravecomb" horiz-adv-x="1434" 
d="M944 0l-286 605h-65l-10 115h64q124 0 188 78t64 205q0 134 -67.5 212t-211.5 78h-76v-1293h-409v1439h571q199 0 339 -55t211.5 -152.5t71.5 -222.5q0 -89 -41 -166.5t-120.5 -134.5t-192.5 -83l61 -15l390 -610h-481zM290 1783l280 19l155 -267l-87 -6z" />
    <glyph glyph-name="uni0052_uni0325" horiz-adv-x="1434" 
d="M944 0l-286 605h-65l-10 115h64q124 0 188 78t64 205q0 134 -67.5 212t-211.5 78h-76v-1293h-409v1439h571q199 0 339 -55t211.5 -152.5t71.5 -222.5q0 -89 -41 -166.5t-120.5 -134.5t-192.5 -83l61 -15l390 -610h-481zM600.5 -443q-52.5 23 -81.5 64t-29 94t29 95t81 65
t119 23q69 0 121.5 -23t81.5 -64.5t29 -95.5q0 -53 -30 -94t-82.5 -64t-119.5 -23q-66 0 -118.5 23zM776.5 -367.5q21.5 32.5 21.5 82.5t-22 84t-57 34q-32 0 -54 -34.5t-22 -83.5q0 -50 21.5 -82.5t54.5 -32.5q36 0 57.5 32.5z" />
    <glyph glyph-name="uni0052_uni0325_uni0304" horiz-adv-x="1434" 
d="M944 0l-286 605h-65l-10 115h64q124 0 188 78t64 205q0 134 -67.5 212t-211.5 78h-76v-1293h-409v1439h571q199 0 339 -55t211.5 -152.5t71.5 -222.5q0 -89 -41 -166.5t-120.5 -134.5t-192.5 -83l61 -15l390 -610h-481zM600.5 -443q-52.5 23 -81.5 64t-29 94t29 95t81 65
t119 23q69 0 121.5 -23t81.5 -64.5t29 -95.5q0 -53 -30 -94t-82.5 -64t-119.5 -23q-66 0 -118.5 23zM776.5 -367.5q21.5 32.5 21.5 82.5t-22 84t-57 34q-32 0 -54 -34.5t-22 -83.5q0 -50 21.5 -82.5t54.5 -32.5q36 0 57.5 32.5zM257 1706h774v-127h-774v127z" />
    <glyph glyph-name="Racute" unicode="&#x154;" horiz-adv-x="1434" 
d="M944 0l-286 605h-65l-10 115h64q124 0 188 78t64 205q0 134 -67.5 212t-211.5 78h-76v-1293h-409v1439h571q199 0 339 -55t211.5 -152.5t71.5 -222.5q0 -89 -41 -166.5t-120.5 -134.5t-192.5 -83l61 -15l390 -610h-481zM575 1536l154 267l281 -19l-348 -254z" />
    <glyph glyph-name="Rcaron" unicode="&#x158;" horiz-adv-x="1434" 
d="M944 0l-286 605h-65l-10 115h64q124 0 188 78t64 205q0 134 -67.5 212t-211.5 78h-76v-1293h-409v1439h571q199 0 339 -55t211.5 -152.5t71.5 -222.5q0 -89 -41 -166.5t-120.5 -134.5t-192.5 -83l61 -15l390 -610h-481zM697 1534h-91l-292 293l86 25l250 -127l249 127
l89 -25z" />
    <glyph glyph-name="uni0156" unicode="&#x156;" horiz-adv-x="1434" 
d="M944 0l-286 605h-65l-10 115h64q124 0 188 78t64 205q0 134 -67.5 212t-211.5 78h-76v-1293h-409v1439h571q199 0 339 -55t211.5 -152.5t71.5 -222.5q0 -89 -41 -166.5t-120.5 -134.5t-192.5 -83l61 -15l390 -610h-481zM846.5 -154q22.5 -39 22.5 -88q0 -91 -70 -156.5
t-192 -92.5l-17 61q80 35 80 93q0 25 -18 50t-61 61l195 137q38 -26 60.5 -65z" />
    <glyph glyph-name="uni0210" unicode="&#x210;" horiz-adv-x="1434" 
d="M944 0l-286 605h-65l-10 115h64q124 0 188 78t64 205q0 134 -67.5 212t-211.5 78h-76v-1293h-409v1439h571q199 0 339 -55t211.5 -152.5t71.5 -222.5q0 -89 -41 -166.5t-120.5 -134.5t-192.5 -83l61 -15l390 -610h-481zM902 1558l-93 -8l-303 258l128 -255l-92 -8
l-373 317l298 24l8 -16l259 21z" />
    <glyph glyph-name="uni1E58" unicode="&#x1e58;" horiz-adv-x="1434" 
d="M944 0l-286 605h-65l-10 115h64q124 0 188 78t64 205q0 134 -67.5 212t-211.5 78h-76v-1293h-409v1439h571q199 0 339 -55t211.5 -152.5t71.5 -222.5q0 -89 -41 -166.5t-120.5 -134.5t-192.5 -83l61 -15l390 -610h-481zM564.5 1551q-37.5 19 -59.5 53.5t-22 77.5
q0 41 22 75t60 53.5t83 19.5q46 0 85 -19.5t61.5 -53.5t22.5 -75q0 -43 -22.5 -77.5t-61 -53.5t-85.5 -19q-46 0 -83.5 19z" />
    <glyph glyph-name="uni1E5A" unicode="&#x1e5a;" horiz-adv-x="1434" 
d="M944 0l-286 605h-65l-10 115h64q124 0 188 78t64 205q0 134 -67.5 212t-211.5 78h-76v-1293h-409v1439h571q199 0 339 -55t211.5 -152.5t71.5 -222.5q0 -89 -41 -166.5t-120.5 -134.5t-192.5 -83l61 -15l390 -610h-481zM636.5 -442.5q-38.5 19.5 -60.5 54t-22 77.5
q0 41 22.5 75t60.5 53.5t84 19.5t85 -19.5t61.5 -53.5t22.5 -75q0 -43 -22.5 -77.5t-61 -54t-85.5 -19.5q-46 0 -84.5 19.5z" />
    <glyph glyph-name="uni1E5C" unicode="&#x1e5c;" horiz-adv-x="1434" 
d="M944 0l-286 605h-65l-10 115h64q124 0 188 78t64 205q0 134 -67.5 212t-211.5 78h-76v-1293h-409v1439h571q199 0 339 -55t211.5 -152.5t71.5 -222.5q0 -89 -41 -166.5t-120.5 -134.5t-192.5 -83l61 -15l390 -610h-481zM636.5 -442.5q-38.5 19.5 -60.5 54t-22 77.5
q0 41 22.5 75t60.5 53.5t84 19.5t85 -19.5t61.5 -53.5t22.5 -75q0 -43 -22.5 -77.5t-61 -54t-85.5 -19.5q-46 0 -84.5 19.5zM257 1706h774v-127h-774v127z" />
    <glyph glyph-name="uni0212" unicode="&#x212;" horiz-adv-x="1434" 
d="M944 0l-286 605h-65l-10 115h64q124 0 188 78t64 205q0 134 -67.5 212t-211.5 78h-76v-1293h-409v1439h571q199 0 339 -55t211.5 -152.5t71.5 -222.5q0 -89 -41 -166.5t-120.5 -134.5t-192.5 -83l61 -15l390 -610h-481zM809 1840q66 -43 100 -120t37 -177l-84 -4
q-16 66 -62.5 98.5t-150.5 32.5t-150.5 -32.5t-61.5 -98.5l-85 4q2 100 36.5 176.5t100.5 120t160 43.5t160 -43z" />
    <glyph glyph-name="uni1E5E" unicode="&#x1e5e;" horiz-adv-x="1434" 
d="M944 0l-286 605h-65l-10 115h64q124 0 188 78t64 205q0 134 -67.5 212t-211.5 78h-76v-1293h-409v1439h571q199 0 339 -55t211.5 -152.5t71.5 -222.5q0 -89 -41 -166.5t-120.5 -134.5t-192.5 -83l61 -15l390 -610h-481zM326 -197h774v-127h-774v127z" />
    <glyph glyph-name="S_gravecomb" horiz-adv-x="1215" 
d="M317.5 21q-132.5 45 -265.5 127l72 128q107 -69 223 -110t251 -41q103 0 162.5 44t59.5 129q0 54 -38.5 99.5t-103 85t-173.5 94.5q-132 67 -219 125t-145 144.5t-58 203.5q0 125 72 218t198 143t286 50q129 0 252.5 -39t217.5 -109l-74 -129q-168 128 -405 128
q-87 0 -138.5 -40t-51.5 -110q0 -51 43.5 -96.5t105.5 -81.5t164 -85q135 -65 225.5 -129t145 -154.5t54.5 -213.5q0 -135 -76 -231t-208.5 -145.5t-300.5 -49.5q-143 0 -275.5 45zM270 1785l280 19l155 -267l-87 -6z" />
    <glyph glyph-name="uni0053_uni0306" horiz-adv-x="1215" 
d="M317.5 21q-132.5 45 -265.5 127l72 128q107 -69 223 -110t251 -41q103 0 162.5 44t59.5 129q0 54 -38.5 99.5t-103 85t-173.5 94.5q-132 67 -219 125t-145 144.5t-58 203.5q0 125 72 218t198 143t286 50q129 0 252.5 -39t217.5 -109l-74 -129q-168 128 -405 128
q-87 0 -138.5 -40t-51.5 -110q0 -51 43.5 -96.5t105.5 -81.5t164 -85q135 -65 225.5 -129t145 -154.5t54.5 -213.5q0 -135 -76 -231t-208.5 -145.5t-300.5 -49.5q-143 0 -275.5 45zM466.5 1558.5q-67.5 42.5 -102.5 118t-37 173.5l86 4q15 -65 62.5 -97t153.5 -32t153.5 32
t62.5 97l86 -4q-3 -98 -37.5 -173.5t-101.5 -118t-163 -42.5q-95 0 -162.5 42.5z" />
    <glyph glyph-name="uni0053_uni0331" horiz-adv-x="1215" 
d="M317.5 21q-132.5 45 -265.5 127l72 128q107 -69 223 -110t251 -41q103 0 162.5 44t59.5 129q0 54 -38.5 99.5t-103 85t-173.5 94.5q-132 67 -219 125t-145 144.5t-58 203.5q0 125 72 218t198 143t286 50q129 0 252.5 -39t217.5 -109l-74 -129q-168 128 -405 128
q-87 0 -138.5 -40t-51.5 -110q0 -51 43.5 -96.5t105.5 -81.5t164 -85q135 -65 225.5 -129t145 -154.5t54.5 -213.5q0 -135 -76 -231t-208.5 -145.5t-300.5 -49.5q-143 0 -275.5 45zM225 -199h774v-127h-774v127z" />
    <glyph glyph-name="Sacute" unicode="&#x15a;" horiz-adv-x="1215" 
d="M317.5 21q-132.5 45 -265.5 127l72 128q107 -69 223 -110t251 -41q103 0 162.5 44t59.5 129q0 54 -38.5 99.5t-103 85t-173.5 94.5q-132 67 -219 125t-145 144.5t-58 203.5q0 125 72 218t198 143t286 50q129 0 252.5 -39t217.5 -109l-74 -129q-168 128 -405 128
q-87 0 -138.5 -40t-51.5 -110q0 -51 43.5 -96.5t105.5 -81.5t164 -85q135 -65 225.5 -129t145 -154.5t54.5 -213.5q0 -135 -76 -231t-208.5 -145.5t-300.5 -49.5q-143 0 -275.5 45zM554 1538l154 267l281 -19l-348 -254z" />
    <glyph glyph-name="uni1E64" unicode="&#x1e64;" horiz-adv-x="1215" 
d="M253 1588.5q-43 38.5 -43 97.5q0 38 20 68.5t54 48t76 17.5t77.5 -17.5t56 -48.5t20.5 -68q0 -59 -44.5 -97.5t-109.5 -38.5q-64 0 -107 38.5zM554 1538l154 267l281 -19l-348 -254zM317.5 21q-132.5 45 -265.5 127l72 128q107 -69 223 -110t251 -41q103 0 162.5 44
t59.5 129q0 54 -38.5 99.5t-103 85t-173.5 94.5q-132 67 -219 125t-145 144.5t-58 203.5q0 125 72 218t198 143t286 50q129 0 252.5 -39t217.5 -109l-74 -129q-168 128 -405 128q-87 0 -138.5 -40t-51.5 -110q0 -51 43.5 -96.5t105.5 -81.5t164 -85q135 -65 225.5 -129
t145 -154.5t54.5 -213.5q0 -135 -76 -231t-208.5 -145.5t-300.5 -49.5q-143 0 -275.5 45z" />
    <glyph glyph-name="Scaron" unicode="&#x160;" horiz-adv-x="1215" 
d="M317.5 21q-132.5 45 -265.5 127l72 128q107 -69 223 -110t251 -41q103 0 162.5 44t59.5 129q0 54 -38.5 99.5t-103 85t-173.5 94.5q-132 67 -219 125t-145 144.5t-58 203.5q0 125 72 218t198 143t286 50q129 0 252.5 -39t217.5 -109l-74 -129q-168 128 -405 128
q-87 0 -138.5 -40t-51.5 -110q0 -51 43.5 -96.5t105.5 -81.5t164 -85q135 -65 225.5 -129t145 -154.5t54.5 -213.5q0 -135 -76 -231t-208.5 -145.5t-300.5 -49.5q-143 0 -275.5 45zM677 1535h-91l-292 293l86 25l250 -127l249 127l89 -25z" />
    <glyph glyph-name="uni1E66" unicode="&#x1e66;" horiz-adv-x="1215" 
d="M550 1847.5q-31 27.5 -31 69.5q0 41 31.5 68.5t76.5 27.5q46 0 78 -27.5t32 -68.5q0 -42 -32 -69.5t-78 -27.5t-77 27.5zM928 1805l-256 -258h-80l-257 258l76 22l220 -113l218 113zM317.5 21q-132.5 45 -265.5 127l72 128q107 -69 223 -110t251 -41q103 0 162.5 44
t59.5 129q0 54 -38.5 99.5t-103 85t-173.5 94.5q-132 67 -219 125t-145 144.5t-58 203.5q0 125 72 218t198 143t286 50q129 0 252.5 -39t217.5 -109l-74 -129q-168 128 -405 128q-87 0 -138.5 -40t-51.5 -110q0 -51 43.5 -96.5t105.5 -81.5t164 -85q135 -65 225.5 -129
t145 -154.5t54.5 -213.5q0 -135 -76 -231t-208.5 -145.5t-300.5 -49.5q-143 0 -275.5 45z" />
    <glyph glyph-name="Scedilla" unicode="&#x15e;" horiz-adv-x="1215" 
d="M1109.5 181q-68.5 -93 -189.5 -144.5t-277 -59.5l-48 -67q87 -7 144 -47t57 -114q0 -57 -46.5 -106t-134 -77.5t-206.5 -28.5l-9 64q73 5 112.5 39t39.5 79q0 33 -27.5 58t-67.5 33l-10 24l109 143q-133 6 -256.5 50t-247.5 121l72 128q107 -69 223 -110t251 -41
q103 0 162.5 44t59.5 129q0 54 -38.5 99.5t-103 85t-173.5 94.5q-132 67 -219 125t-145 144.5t-58 203.5q0 125 72 218t198 143t286 50q129 0 252.5 -39t217.5 -109l-74 -129q-168 128 -405 128q-87 0 -138.5 -40t-51.5 -110q0 -51 43.5 -96.5t105.5 -81.5t164 -85
q135 -65 225.5 -129t145 -154.5t54.5 -213.5q0 -128 -68.5 -221z" />
    <glyph glyph-name="Scircumflex" unicode="&#x15c;" horiz-adv-x="1215" 
d="M317.5 21q-132.5 45 -265.5 127l72 128q107 -69 223 -110t251 -41q103 0 162.5 44t59.5 129q0 54 -38.5 99.5t-103 85t-173.5 94.5q-132 67 -219 125t-145 144.5t-58 203.5q0 125 72 218t198 143t286 50q129 0 252.5 -39t217.5 -109l-74 -129q-168 128 -405 128
q-87 0 -138.5 -40t-51.5 -110q0 -51 43.5 -96.5t105.5 -81.5t164 -85q135 -65 225.5 -129t145 -154.5t54.5 -213.5q0 -135 -76 -231t-208.5 -145.5t-300.5 -49.5q-143 0 -275.5 45zM581 1853h91l293 -295l-87 -25l-250 128l-248 -128l-90 25z" />
    <glyph glyph-name="uni0218" unicode="&#x218;" horiz-adv-x="1215" 
d="M317.5 21q-132.5 45 -265.5 127l72 128q107 -69 223 -110t251 -41q103 0 162.5 44t59.5 129q0 54 -38.5 99.5t-103 85t-173.5 94.5q-132 67 -219 125t-145 144.5t-58 203.5q0 125 72 218t198 143t286 50q129 0 252.5 -39t217.5 -109l-74 -129q-168 128 -405 128
q-87 0 -138.5 -40t-51.5 -110q0 -51 43.5 -96.5t105.5 -81.5t164 -85q135 -65 225.5 -129t145 -154.5t54.5 -213.5q0 -135 -76 -231t-208.5 -145.5t-300.5 -49.5q-143 0 -275.5 45zM746.5 -156q22.5 -39 22.5 -88q0 -91 -70 -156.5t-192 -92.5l-17 61q80 35 80 93
q0 25 -18 50t-61 61l195 137q38 -26 60.5 -65z" />
    <glyph glyph-name="uni1E60" unicode="&#x1e60;" horiz-adv-x="1215" 
d="M317.5 21q-132.5 45 -265.5 127l72 128q107 -69 223 -110t251 -41q103 0 162.5 44t59.5 129q0 54 -38.5 99.5t-103 85t-173.5 94.5q-132 67 -219 125t-145 144.5t-58 203.5q0 125 72 218t198 143t286 50q129 0 252.5 -39t217.5 -109l-74 -129q-168 128 -405 128
q-87 0 -138.5 -40t-51.5 -110q0 -51 43.5 -96.5t105.5 -81.5t164 -85q135 -65 225.5 -129t145 -154.5t54.5 -213.5q0 -135 -76 -231t-208.5 -145.5t-300.5 -49.5q-143 0 -275.5 45zM544.5 1552q-37.5 19 -59.5 53.5t-22 77.5q0 41 22 75t60 53.5t83 19.5q46 0 85 -19.5
t61.5 -53.5t22.5 -75q0 -43 -22.5 -77.5t-61 -53.5t-85.5 -19q-46 0 -83.5 19z" />
    <glyph glyph-name="uni1E62" unicode="&#x1e62;" horiz-adv-x="1215" 
d="M317.5 21q-132.5 45 -265.5 127l72 128q107 -69 223 -110t251 -41q103 0 162.5 44t59.5 129q0 54 -38.5 99.5t-103 85t-173.5 94.5q-132 67 -219 125t-145 144.5t-58 203.5q0 125 72 218t198 143t286 50q129 0 252.5 -39t217.5 -109l-74 -129q-168 128 -405 128
q-87 0 -138.5 -40t-51.5 -110q0 -51 43.5 -96.5t105.5 -81.5t164 -85q135 -65 225.5 -129t145 -154.5t54.5 -213.5q0 -135 -76 -231t-208.5 -145.5t-300.5 -49.5q-143 0 -275.5 45zM536.5 -444.5q-38.5 19.5 -60.5 54t-22 77.5q0 41 22.5 75t60.5 53.5t84 19.5t85 -19.5
t61.5 -53.5t22.5 -75q0 -43 -22.5 -77.5t-61 -54t-85.5 -19.5q-46 0 -84.5 19.5z" />
    <glyph glyph-name="uni1E68" unicode="&#x1e68;" horiz-adv-x="1215" 
d="M317.5 21q-132.5 45 -265.5 127l72 128q107 -69 223 -110t251 -41q103 0 162.5 44t59.5 129q0 54 -38.5 99.5t-103 85t-173.5 94.5q-132 67 -219 125t-145 144.5t-58 203.5q0 125 72 218t198 143t286 50q129 0 252.5 -39t217.5 -109l-74 -129q-168 128 -405 128
q-87 0 -138.5 -40t-51.5 -110q0 -51 43.5 -96.5t105.5 -81.5t164 -85q135 -65 225.5 -129t145 -154.5t54.5 -213.5q0 -135 -76 -231t-208.5 -145.5t-300.5 -49.5q-143 0 -275.5 45zM536.5 -444.5q-38.5 19.5 -60.5 54t-22 77.5q0 41 22.5 75t60.5 53.5t84 19.5t85 -19.5
t61.5 -53.5t22.5 -75q0 -43 -22.5 -77.5t-61 -54t-85.5 -19.5q-46 0 -84.5 19.5zM544.5 1552q-37.5 19 -59.5 53.5t-22 77.5q0 41 22 75t60 53.5t83 19.5q46 0 85 -19.5t61.5 -53.5t22.5 -75q0 -43 -22.5 -77.5t-61 -53.5t-85.5 -19q-46 0 -83.5 19z" />
    <glyph glyph-name="uni0054_uni0308" horiz-adv-x="1332" 
d="M463 1290h-450v149h1307v-149h-449v-1290h-408v1290zM352.5 1544q-35.5 18 -56 50t-20.5 72q0 39 20.5 70.5t56 49.5t78.5 18t79 -18t57.5 -50t21.5 -70q0 -40 -21 -72t-57 -50t-80 -18q-43 0 -78.5 18zM784.5 1565.5q-44.5 39.5 -44.5 100.5q0 39 20.5 70.5t56 49.5
t78.5 18t79 -18t57 -50t21 -70q0 -61 -45 -100.5t-112 -39.5q-66 0 -110.5 39.5z" />
    <glyph glyph-name="Tbar" unicode="&#x166;" horiz-adv-x="1332" 
d="M871 1290v-533h167v-134h-167v-623h-408v623h-166v134h166v533h-450v149h1307v-149h-449z" />
    <glyph glyph-name="Tcaron" unicode="&#x164;" horiz-adv-x="1332" 
d="M463 1290h-450v149h1307v-149h-449v-1290h-408v1290zM716 1535h-91l-292 293l86 25l250 -127l249 127l89 -25z" />
    <glyph glyph-name="uni0162" unicode="&#x162;" horiz-adv-x="1332" 
d="M1320 1439v-149h-449v-1290h-164l-64 -89q87 -7 144 -47t57 -114q0 -57 -46.5 -106t-134 -77.5t-206.5 -28.5l-9 64q73 5 112.5 39t39.5 79q0 33 -27.5 58t-67.5 33l-10 24l126 165h-158v1290h-450v149h1307z" />
    <glyph glyph-name="uni1E70" unicode="&#x1e70;" horiz-adv-x="1332" 
d="M463 1290h-450v149h1307v-149h-449v-1290h-408v1290zM345 -449l278 342h87l279 -342l-83 -28l-238 148l-238 -148z" />
    <glyph glyph-name="uni021A" unicode="&#x21a;" horiz-adv-x="1332" 
d="M463 1290h-450v149h1307v-149h-449v-1290h-408v1290zM793.5 -155q22.5 -39 22.5 -88q0 -91 -70 -156.5t-192 -92.5l-17 61q80 35 80 93q0 25 -18 50t-61 61l195 137q38 -26 60.5 -65z" />
    <glyph glyph-name="uni1E6A" unicode="&#x1e6a;" horiz-adv-x="1332" 
d="M463 1290h-450v149h1307v-149h-449v-1290h-408v1290zM582.5 1552q-37.5 19 -59.5 53.5t-22 77.5q0 41 22 75t60 53.5t83 19.5q46 0 85 -19.5t61.5 -53.5t22.5 -75q0 -43 -22.5 -77.5t-61 -53.5t-85.5 -19q-46 0 -83.5 19z" />
    <glyph glyph-name="uni1E6C" unicode="&#x1e6c;" horiz-adv-x="1332" 
d="M463 1290h-450v149h1307v-149h-449v-1290h-408v1290zM583.5 -443.5q-38.5 19.5 -60.5 54t-22 77.5q0 41 22.5 75t60.5 53.5t84 19.5t85 -19.5t61.5 -53.5t22.5 -75q0 -43 -22.5 -77.5t-61 -54t-85.5 -19.5q-46 0 -84.5 19.5z" />
    <glyph glyph-name="uni1E6E" unicode="&#x1e6e;" horiz-adv-x="1332" 
d="M463 1290h-450v149h1307v-149h-449v-1290h-408v1290zM273 -198h774v-127h-774v127z" />
    <glyph glyph-name="Uacute" unicode="&#xda;" horiz-adv-x="1461" 
d="M411 39q-140 63 -214 184t-74 294v922h408v-944q0 -172 79 -259.5t233 -87.5q108 0 187 45t122 132.5t43 211.5v902h150v-882q0 -282 -142.5 -431.5t-454.5 -149.5q-197 0 -337 63zM692 1538l154 267l281 -19l-348 -254z" />
    <glyph glyph-name="Ubreve" unicode="&#x16c;" horiz-adv-x="1461" 
d="M411 39q-140 63 -214 184t-74 294v922h408v-944q0 -172 79 -259.5t233 -87.5q108 0 187 45t122 132.5t43 211.5v902h150v-882q0 -282 -142.5 -431.5t-454.5 -149.5q-197 0 -337 63zM604.5 1558.5q-67.5 42.5 -102.5 118t-37 173.5l86 4q15 -65 62.5 -97t153.5 -32
t153.5 32t62.5 97l86 -4q-3 -98 -37.5 -173.5t-101.5 -118t-163 -42.5q-95 0 -162.5 42.5z" />
    <glyph glyph-name="uni01D3" unicode="&#x1d3;" horiz-adv-x="1461" 
d="M411 39q-140 63 -214 184t-74 294v922h408v-944q0 -172 79 -259.5t233 -87.5q108 0 187 45t122 132.5t43 211.5v902h150v-882q0 -282 -142.5 -431.5t-454.5 -149.5q-197 0 -337 63zM815 1535h-91l-292 293l86 25l250 -127l249 127l89 -25z" />
    <glyph glyph-name="Ucircumflex" unicode="&#xdb;" horiz-adv-x="1461" 
d="M411 39q-140 63 -214 184t-74 294v922h408v-944q0 -172 79 -259.5t233 -87.5q108 0 187 45t122 132.5t43 211.5v902h150v-882q0 -282 -142.5 -431.5t-454.5 -149.5q-197 0 -337 63zM719 1853h91l293 -295l-87 -25l-250 128l-248 -128l-90 25z" />
    <glyph glyph-name="uni1E76" unicode="&#x1e76;" horiz-adv-x="1461" 
d="M411 39q-140 63 -214 184t-74 294v922h408v-944q0 -172 79 -259.5t233 -87.5q108 0 187 45t122 132.5t43 211.5v902h150v-882q0 -282 -142.5 -431.5t-454.5 -149.5q-197 0 -337 63zM446 -449l278 342h87l279 -342l-83 -28l-238 148l-238 -148z" />
    <glyph glyph-name="uni0214" unicode="&#x214;" horiz-adv-x="1461" 
d="M411 39q-140 63 -214 184t-74 294v922h408v-944q0 -172 79 -259.5t233 -87.5q108 0 187 45t122 132.5t43 211.5v902h150v-882q0 -282 -142.5 -431.5t-454.5 -149.5q-197 0 -337 63zM1019 1560l-93 -8l-303 258l128 -255l-92 -8l-373 317l298 24l8 -16l259 21z" />
    <glyph glyph-name="Udieresis" unicode="&#xdc;" horiz-adv-x="1461" 
d="M411 39q-140 63 -214 184t-74 294v922h408v-944q0 -172 79 -259.5t233 -87.5q108 0 187 45t122 132.5t43 211.5v902h150v-882q0 -282 -142.5 -431.5t-454.5 -149.5q-197 0 -337 63zM451.5 1544q-35.5 18 -56 50t-20.5 72q0 39 20.5 70.5t56 49.5t78.5 18t79 -18t57.5 -50
t21.5 -70q0 -40 -21 -72t-57 -50t-80 -18q-43 0 -78.5 18zM883.5 1565.5q-44.5 39.5 -44.5 100.5q0 39 20.5 70.5t56 49.5t78.5 18t79 -18t57 -50t21 -70q0 -61 -45 -100.5t-112 -39.5q-66 0 -110.5 39.5z" />
    <glyph glyph-name="uni01D7" unicode="&#x1d7;" horiz-adv-x="1461" 
d="M411 39q-140 63 -214 184t-74 294v922h408v-944q0 -172 79 -259.5t233 -87.5q108 0 187 45t122 132.5t43 211.5v902h150v-882q0 -282 -142.5 -431.5t-454.5 -149.5q-197 0 -337 63zM451.5 1544q-35.5 18 -56 50t-20.5 72q0 39 20.5 70.5t56 49.5t78.5 18t79 -18t57.5 -50
t21.5 -70q0 -40 -21 -72t-57 -50t-80 -18q-43 0 -78.5 18zM883.5 1565.5q-44.5 39.5 -44.5 100.5q0 39 20.5 70.5t56 49.5t78.5 18t79 -18t57 -50t21 -70q0 -61 -45 -100.5t-112 -39.5q-66 0 -110.5 39.5zM686 1814l154 267l281 -19l-348 -254z" />
    <glyph glyph-name="uni1E72" unicode="&#x1e72;" horiz-adv-x="1461" 
d="M411 39q-140 63 -214 184t-74 294v922h408v-944q0 -172 79 -259.5t233 -87.5q108 0 187 45t122 132.5t43 211.5v902h150v-882q0 -282 -142.5 -431.5t-454.5 -149.5q-197 0 -337 63zM457.5 -424q-35.5 18 -56 50t-20.5 72q0 39 20.5 70.5t56 49.5t78.5 18t79 -18t57.5 -50
t21.5 -70q0 -40 -21 -72t-57 -50t-80 -18q-43 0 -78.5 18zM889.5 -402.5q-44.5 39.5 -44.5 100.5q0 39 20.5 70.5t56 49.5t78.5 18t79 -18t57 -50t21 -70q0 -61 -45 -100.5t-112 -39.5q-66 0 -110.5 39.5z" />
    <glyph glyph-name="uni01D9" unicode="&#x1d9;" horiz-adv-x="1461" 
d="M1009 1963l-218 -219h-68l-218 219l65 19l186 -96l186 96zM479.5 1558.5q-36.5 32.5 -36.5 82.5q0 49 37 81.5t90 32.5q54 0 92 -33t38 -81q0 -50 -37.5 -82.5t-92.5 -32.5q-54 0 -90.5 32.5zM861 1558.5q-37 32.5 -37 82.5q0 48 37 81t91 33q53 0 91 -33t38 -81
q0 -50 -37 -82.5t-92 -32.5q-54 0 -91 32.5zM411 39q-140 63 -214 184t-74 294v922h408v-944q0 -172 79 -259.5t233 -87.5q108 0 187 45t122 132.5t43 211.5v902h150v-882q0 -282 -142.5 -431.5t-454.5 -149.5q-197 0 -337 63z" />
    <glyph glyph-name="uni01DB" unicode="&#x1db;" horiz-adv-x="1461" 
d="M453 2008l242 17l134 -226l-75 -5zM419.5 1565.5q-44.5 39.5 -44.5 100.5q0 39 20.5 70.5t56 49.5t78.5 18t79 -18t57 -50t21 -70q0 -61 -45 -100.5t-112 -39.5q-66 0 -110.5 39.5zM883.5 1565.5q-44.5 39.5 -44.5 100.5q0 39 20.5 70.5t55.5 49.5t78 18t79.5 -18
t57.5 -50t21 -70q0 -40 -21 -72t-57 -50t-80 -18q-65 0 -109.5 39.5zM411 39q-140 63 -214 184t-74 294v922h408v-944q0 -172 79 -259.5t233 -87.5q108 0 187 45t122 132.5t43 211.5v902h150v-882q0 -282 -142.5 -431.5t-454.5 -149.5q-197 0 -337 63z" />
    <glyph glyph-name="uni01D5" unicode="&#x1d5;" horiz-adv-x="1461" 
d="M364 1951h774v-103h-774v103zM451.5 1544q-35.5 18 -56 50t-20.5 72q0 39 20.5 70.5t56 49.5t78.5 18t79 -18t57.5 -50t21.5 -70q0 -40 -21 -72t-57 -50t-80 -18q-43 0 -78.5 18zM883.5 1565.5q-44.5 39.5 -44.5 100.5q0 39 20.5 70.5t56 49.5t78.5 18t79 -18t57 -50
t21 -70q0 -40 -21 -72t-57 -50t-79 -18q-66 0 -110.5 39.5zM411 39q-140 63 -214 184t-74 294v922h408v-944q0 -172 79 -259.5t233 -87.5q108 0 187 45t122 132.5t43 211.5v902h150v-882q0 -282 -142.5 -431.5t-454.5 -149.5q-197 0 -337 63z" />
    <glyph glyph-name="uni1EE4" unicode="&#x1ee4;" horiz-adv-x="1461" 
d="M411 39q-140 63 -214 184t-74 294v922h408v-944q0 -172 79 -259.5t233 -87.5q108 0 187 45t122 132.5t43 211.5v902h150v-882q0 -282 -142.5 -431.5t-454.5 -149.5q-197 0 -337 63zM684.5 -443.5q-38.5 19.5 -60.5 54t-22 77.5q0 41 22.5 75t60.5 53.5t84 19.5t85 -19.5
t61.5 -53.5t22.5 -75q0 -43 -22.5 -77.5t-61 -54t-85.5 -19.5q-46 0 -84.5 19.5z" />
    <glyph glyph-name="Ugrave" unicode="&#xd9;" horiz-adv-x="1461" 
d="M411 39q-140 63 -214 184t-74 294v922h408v-944q0 -172 79 -259.5t233 -87.5q108 0 187 45t122 132.5t43 211.5v902h150v-882q0 -282 -142.5 -431.5t-454.5 -149.5q-197 0 -337 63zM407 1785l280 19l155 -267l-87 -6z" />
    <glyph glyph-name="uni1EE6" unicode="&#x1ee6;" horiz-adv-x="1461" 
d="M411 39q-140 63 -214 184t-74 294v922h408v-944q0 -172 79 -259.5t233 -87.5q108 0 187 45t122 132.5t43 211.5v902h150v-882q0 -282 -142.5 -431.5t-454.5 -149.5q-197 0 -337 63zM734 1633q21 32 21 74q0 43 -17 64t-45 21q-22 0 -42.5 -6.5t-46.5 -25.5l-11 58
q38 20 75 28t79 8q89 0 136.5 -34t47.5 -100q0 -53 -49.5 -105t-153.5 -83l-59 23q44 46 65 78z" />
    <glyph glyph-name="Uhorn" unicode="&#x1af;" horiz-adv-x="1461" 
d="M1578.5 1256.5q-79.5 -55.5 -233.5 -56.5v-643q0 -282 -142.5 -431.5t-454.5 -149.5q-197 0 -337 63t-214 184t-74 294v922h408v-944q0 -172 79 -259.5t233 -87.5q108 0 187 45t122 132.5t43 211.5v902h150v-182q97 18 97 95q0 35 -20 90l215 56q21 -50 21 -95
q0 -91 -79.5 -146.5z" />
    <glyph glyph-name="uni1EE8" unicode="&#x1ee8;" horiz-adv-x="1461" 
d="M1578.5 1256.5q-79.5 -55.5 -233.5 -56.5v-643q0 -282 -142.5 -431.5t-454.5 -149.5q-197 0 -337 63t-214 184t-74 294v922h408v-944q0 -172 79 -259.5t233 -87.5q108 0 187 45t122 132.5t43 211.5v902h150v-182q97 18 97 95q0 35 -20 90l215 56q21 -50 21 -95
q0 -91 -79.5 -146.5zM692 1538l154 267l281 -19l-348 -254z" />
    <glyph glyph-name="uni1EF0" unicode="&#x1ef0;" horiz-adv-x="1461" 
d="M1578.5 1256.5q-79.5 -55.5 -233.5 -56.5v-643q0 -282 -142.5 -431.5t-454.5 -149.5q-197 0 -337 63t-214 184t-74 294v922h408v-944q0 -172 79 -259.5t233 -87.5q108 0 187 45t122 132.5t43 211.5v902h150v-182q97 18 97 95q0 35 -20 90l215 56q21 -50 21 -95
q0 -91 -79.5 -146.5zM684.5 -431.5q-38.5 19.5 -60.5 54t-22 77.5q0 41 22.5 75t60.5 53.5t84 19.5t85 -19.5t61.5 -53.5t22.5 -75q0 -43 -22.5 -77.5t-61 -54t-85.5 -19.5q-46 0 -84.5 19.5z" />
    <glyph glyph-name="uni1EEA" unicode="&#x1eea;" horiz-adv-x="1461" 
d="M1578.5 1256.5q-79.5 -55.5 -233.5 -56.5v-643q0 -282 -142.5 -431.5t-454.5 -149.5q-197 0 -337 63t-214 184t-74 294v922h408v-944q0 -172 79 -259.5t233 -87.5q108 0 187 45t122 132.5t43 211.5v902h150v-182q97 18 97 95q0 35 -20 90l215 56q21 -50 21 -95
q0 -91 -79.5 -146.5zM407 1785l280 19l155 -267l-87 -6z" />
    <glyph glyph-name="uni1EEC" unicode="&#x1eec;" horiz-adv-x="1461" 
d="M1578.5 1256.5q-79.5 -55.5 -233.5 -56.5v-643q0 -282 -142.5 -431.5t-454.5 -149.5q-197 0 -337 63t-214 184t-74 294v922h408v-944q0 -172 79 -259.5t233 -87.5q108 0 187 45t122 132.5t43 211.5v902h150v-182q97 18 97 95q0 35 -20 90l215 56q21 -50 21 -95
q0 -91 -79.5 -146.5zM734 1633q21 32 21 74q0 43 -17 64t-45 21q-22 0 -42.5 -6.5t-46.5 -25.5l-11 58q38 20 75 28t79 8q89 0 136.5 -34t47.5 -100q0 -53 -49.5 -105t-153.5 -83l-59 23q44 46 65 78z" />
    <glyph glyph-name="uni1EEE" unicode="&#x1eee;" horiz-adv-x="1461" 
d="M1578.5 1256.5q-79.5 -55.5 -233.5 -56.5v-643q0 -282 -142.5 -431.5t-454.5 -149.5q-197 0 -337 63t-214 184t-74 294v922h408v-944q0 -172 79 -259.5t233 -87.5q108 0 187 45t122 132.5t43 211.5v902h150v-182q97 18 97 95q0 35 -20 90l215 56q21 -50 21 -95
q0 -91 -79.5 -146.5zM686 1789q25 0 50.5 -10t62.5 -29q35 -18 58.5 -27.5t44.5 -9.5q37 0 64.5 19.5t42.5 58.5l79 -4q-19 -116 -73 -179t-146 -63q-25 0 -49.5 9.5t-67.5 30.5q-34 18 -57 27t-43 9q-37 0 -64.5 -20t-41.5 -58l-80 4q42 242 220 242z" />
    <glyph glyph-name="Uhungarumlaut" unicode="&#x170;" horiz-adv-x="1461" 
d="M411 39q-140 63 -214 184t-74 294v922h408v-944q0 -172 79 -259.5t233 -87.5q108 0 187 45t122 132.5t43 211.5v902h150v-882q0 -282 -142.5 -431.5t-454.5 -149.5q-197 0 -337 63zM995 1847l333 -11l-405 -292l-103 4l162 276l-389 -280l-103 4l175 300l324 -12z" />
    <glyph glyph-name="uni0216" unicode="&#x216;" horiz-adv-x="1461" 
d="M411 39q-140 63 -214 184t-74 294v922h408v-944q0 -172 79 -259.5t233 -87.5q108 0 187 45t122 132.5t43 211.5v902h150v-882q0 -282 -142.5 -431.5t-454.5 -149.5q-197 0 -337 63zM926 1842q66 -43 100 -120t37 -177l-84 -4q-16 66 -62.5 98.5t-150.5 32.5t-150.5 -32.5
t-61.5 -98.5l-85 4q2 100 36.5 176.5t100.5 120t160 43.5t160 -43z" />
    <glyph glyph-name="Umacron" unicode="&#x16a;" horiz-adv-x="1461" 
d="M411 39q-140 63 -214 184t-74 294v922h408v-944q0 -172 79 -259.5t233 -87.5q108 0 187 45t122 132.5t43 211.5v902h150v-882q0 -282 -142.5 -431.5t-454.5 -149.5q-197 0 -337 63zM374 1707h774v-127h-774v127z" />
    <glyph glyph-name="uni1E7A" unicode="&#x1e7a;" horiz-adv-x="1461" 
d="M411 39q-140 63 -214 184t-74 294v922h408v-944q0 -172 79 -259.5t233 -87.5q108 0 187 45t122 132.5t43 211.5v902h150v-882q0 -282 -142.5 -431.5t-454.5 -149.5q-197 0 -337 63zM374 1707h774v-127h-774v127zM453.5 1813q-35.5 18 -56 50t-20.5 72q0 39 20.5 70.5
t56 49.5t78.5 18t79 -18t57.5 -50t21.5 -70q0 -40 -21 -72t-57 -50t-80 -18q-43 0 -78.5 18zM885.5 1834.5q-44.5 39.5 -44.5 100.5q0 39 20.5 70.5t56 49.5t78.5 18t79 -18t57 -50t21 -70q0 -61 -45 -100.5t-112 -39.5q-66 0 -110.5 39.5z" />
    <glyph glyph-name="Uogonek" unicode="&#x172;" horiz-adv-x="1461" 
d="M979.5 -58q-24.5 -44 -24.5 -93q0 -45 27 -73.5t74 -28.5q54 0 118 60l45 -47q-53 -63 -124 -102t-150 -39q-56 0 -104.5 21.5t-78 62.5t-29.5 95q0 94 103 181q-42 -3 -88 -3q-197 0 -337 63t-214 184t-74 294v922h408v-944q0 -172 79 -259.5t233 -87.5q108 0 187 45
t122 132.5t43 211.5v902h150v-882q0 -196 -67.5 -328.5t-212.5 -196.5q-61 -46 -85.5 -90z" />
    <glyph glyph-name="Uring" unicode="&#x16e;" horiz-adv-x="1461" 
d="M411 39q-140 63 -214 184t-74 294v922h408v-944q0 -172 79 -259.5t233 -87.5q108 0 187 45t122 132.5t43 211.5v902h150v-882q0 -282 -142.5 -431.5t-454.5 -149.5q-197 0 -337 63zM640.5 1528q-52.5 23 -82 64t-29.5 93q0 53 29.5 94t82 64t119.5 23q69 0 122.5 -22.5
t82.5 -63.5t29 -95q0 -52 -30 -93t-83 -64t-121 -23q-67 0 -119.5 23zM821.5 1600.5q23.5 33.5 23.5 84.5q0 50 -23.5 85t-61.5 35q-34 0 -57.5 -35.5t-23.5 -84.5q0 -51 23 -84.5t58 -33.5q38 0 61.5 33.5z" />
    <glyph glyph-name="Utilde" unicode="&#x168;" horiz-adv-x="1461" 
d="M411 39q-140 63 -214 184t-74 294v922h408v-944q0 -172 79 -259.5t233 -87.5q108 0 187 45t122 132.5t43 211.5v902h150v-882q0 -282 -142.5 -431.5t-454.5 -149.5q-197 0 -337 63zM686 1789q25 0 50.5 -10t62.5 -29q35 -18 58.5 -27.5t44.5 -9.5q37 0 64.5 19.5
t42.5 58.5l79 -4q-19 -116 -73 -179t-146 -63q-25 0 -49.5 9.5t-67.5 30.5q-34 18 -57 27t-43 9q-37 0 -64.5 -20t-41.5 -58l-80 4q42 242 220 242z" />
    <glyph glyph-name="uni1E78" unicode="&#x1e78;" horiz-adv-x="1461" 
d="M725 1792l101 177l185 -13l-229 -168zM556 1694.5q51 55.5 136 55.5q23 0 46.5 -9t59.5 -26q33 -16 55 -24.5t41 -8.5q35 0 61 17.5t39 51.5l74 -4q-17 -103 -67.5 -158.5t-136.5 -55.5q-24 0 -49.5 9t-61.5 27q-32 15 -53 23t-40 8q-35 0 -60.5 -17t-39.5 -52l-74 4
q19 104 70 159.5zM411 39q-140 63 -214 184t-74 294v922h408v-944q0 -172 79 -259.5t233 -87.5q108 0 187 45t122 132.5t43 211.5v902h150v-882q0 -282 -142.5 -431.5t-454.5 -149.5q-197 0 -337 63z" />
    <glyph glyph-name="uni1E74" unicode="&#x1e74;" horiz-adv-x="1461" 
d="M411 39q-140 63 -214 184t-74 294v922h408v-944q0 -172 79 -259.5t233 -87.5q108 0 187 45t122 132.5t43 211.5v902h150v-882q0 -282 -142.5 -431.5t-454.5 -149.5q-197 0 -337 63zM510.5 -230.5q59.5 69.5 158.5 69.5q27 0 54.5 -11t69.5 -33q40 -20 64 -30t47 -10
q84 0 117 86l86 -5q-20 -129 -78.5 -198t-159.5 -69q-28 0 -57 11.5t-71 33.5q-39 20 -63 29.5t-46 9.5q-40 0 -70 -21.5t-46 -64.5l-87 5q22 128 81.5 197.5z" />
    <glyph glyph-name="uni0056_uni0304" horiz-adv-x="1380" 
d="M9 1439h441l332 -921l38 -128l42 119l350 930h159l-544 -1439h-259zM330 1707h774v-127h-774v127z" />
    <glyph glyph-name="uni1E7E" unicode="&#x1e7e;" horiz-adv-x="1380" 
d="M9 1439h441l332 -921l38 -128l42 119l350 930h159l-544 -1439h-259zM612.5 -443.5q-38.5 19.5 -60.5 54t-22 77.5q0 41 22.5 75t60.5 53.5t84 19.5t85 -19.5t61.5 -53.5t22.5 -75q0 -43 -22.5 -77.5t-61 -54t-85.5 -19.5q-46 0 -84.5 19.5z" />
    <glyph glyph-name="uni1E7C" unicode="&#x1e7c;" horiz-adv-x="1380" 
d="M9 1439h441l332 -921l38 -128l42 119l350 930h159l-544 -1439h-259zM642 1789q25 0 50.5 -10t62.5 -29q35 -18 58.5 -27.5t44.5 -9.5q37 0 64.5 19.5t42.5 58.5l79 -4q-19 -116 -73 -179t-146 -63q-25 0 -49.5 9.5t-67.5 30.5q-34 18 -57 27t-43 9q-37 0 -64.5 -20
t-41.5 -58l-80 4q42 242 220 242z" />
    <glyph glyph-name="Wacute" unicode="&#x1e82;" horiz-adv-x="2014" 
d="M1846 1439h159l-496 -1439h-250l-246 762l-262 -762h-246l-496 1439l451 2l310 -991l173 490l-170 499h447l296 -989l43 130zM926 1538l154 267l281 -19l-348 -254z" />
    <glyph glyph-name="Wcircumflex" unicode="&#x174;" horiz-adv-x="2014" 
d="M1846 1439h159l-496 -1439h-250l-246 762l-262 -762h-246l-496 1439l451 2l310 -991l173 490l-170 499h447l296 -989l43 130zM954 1853h91l293 -295l-87 -25l-250 128l-248 -128l-90 25z" />
    <glyph glyph-name="Wdieresis" unicode="&#x1e84;" horiz-adv-x="2014" 
d="M1846 1439h159l-496 -1439h-250l-246 762l-262 -762h-246l-496 1439l451 2l310 -991l173 490l-170 499h447l296 -989l43 130zM685.5 1544q-35.5 18 -56 50t-20.5 72q0 39 20.5 70.5t56 49.5t78.5 18t79 -18t57.5 -50t21.5 -70q0 -40 -21 -72t-57 -50t-80 -18
q-43 0 -78.5 18zM1117.5 1565.5q-44.5 39.5 -44.5 100.5q0 39 20.5 70.5t56 49.5t78.5 18t79 -18t57 -50t21 -70q0 -61 -45 -100.5t-112 -39.5q-66 0 -110.5 39.5z" />
    <glyph glyph-name="uni1E86" unicode="&#x1e86;" horiz-adv-x="2014" 
d="M1846 1439h159l-496 -1439h-250l-246 762l-262 -762h-246l-496 1439l451 2l310 -991l173 490l-170 499h447l296 -989l43 130zM916.5 1552q-37.5 19 -59.5 53.5t-22 77.5q0 41 22 75t60 53.5t83 19.5q46 0 85 -19.5t61.5 -53.5t22.5 -75q0 -43 -22.5 -77.5t-61 -53.5
t-85.5 -19q-46 0 -83.5 19z" />
    <glyph glyph-name="uni1E88" unicode="&#x1e88;" horiz-adv-x="2014" 
d="M1846 1439h159l-496 -1439h-250l-246 762l-262 -762h-246l-496 1439l451 2l310 -991l173 490l-170 499h447l296 -989l43 130zM921.5 -443.5q-38.5 19.5 -60.5 54t-22 77.5q0 41 22.5 75t60.5 53.5t84 19.5t85 -19.5t61.5 -53.5t22.5 -75q0 -43 -22.5 -77.5t-61 -54
t-85.5 -19.5q-46 0 -84.5 19.5z" />
    <glyph glyph-name="Wgrave" unicode="&#x1e80;" horiz-adv-x="2014" 
d="M1846 1439h159l-496 -1439h-250l-246 762l-262 -762h-246l-496 1439l451 2l310 -991l173 490l-170 499h447l296 -989l43 130zM642 1785l280 19l155 -267l-87 -6z" />
    <glyph glyph-name="uni0058_uni0304" horiz-adv-x="1446" 
d="M1439 0h-480l-347 557l-72 -128l-292 -429h-180l462 662l-502 777l477 2l310 -497l32 51l289 444h179l-413 -607zM331 1707h774v-127h-774v127z" />
    <glyph glyph-name="uni1E8C" unicode="&#x1e8c;" horiz-adv-x="1446" 
d="M1439 0h-480l-347 557l-72 -128l-292 -429h-180l462 662l-502 777l477 2l310 -497l32 51l289 444h179l-413 -607zM407.5 1544q-35.5 18 -56 50t-20.5 72q0 39 20.5 70.5t56 49.5t78.5 18t79 -18t57.5 -50t21.5 -70q0 -40 -21 -72t-57 -50t-80 -18q-43 0 -78.5 18z
M839.5 1565.5q-44.5 39.5 -44.5 100.5q0 39 20.5 70.5t56 49.5t78.5 18t79 -18t57 -50t21 -70q0 -61 -45 -100.5t-112 -39.5q-66 0 -110.5 39.5z" />
    <glyph glyph-name="uni1E8A" unicode="&#x1e8a;" horiz-adv-x="1446" 
d="M1439 0h-480l-347 557l-72 -128l-292 -429h-180l462 662l-502 777l477 2l310 -497l32 51l289 444h179l-413 -607zM638.5 1552q-37.5 19 -59.5 53.5t-22 77.5q0 41 22 75t60 53.5t83 19.5q46 0 85 -19.5t61.5 -53.5t22.5 -75q0 -43 -22.5 -77.5t-61 -53.5t-85.5 -19
q-46 0 -83.5 19z" />
    <glyph glyph-name="Yacute" unicode="&#xdd;" horiz-adv-x="1385" 
d="M482 607l-473 832h461l305 -575l32 -77l56 95l338 557h175l-485 -787v-652h-409v607zM640 1538l154 267l281 -19l-348 -254z" />
    <glyph glyph-name="Ycircumflex" unicode="&#x176;" horiz-adv-x="1385" 
d="M482 607l-473 832h461l305 -575l32 -77l56 95l338 557h175l-485 -787v-652h-409v607zM667 1853h91l293 -295l-87 -25l-250 128l-248 -128l-90 25z" />
    <glyph glyph-name="Ydieresis" unicode="&#x178;" horiz-adv-x="1385" 
d="M482 607l-473 832h461l305 -575l32 -77l56 95l338 557h175l-485 -787v-652h-409v607zM399.5 1544q-35.5 18 -56 50t-20.5 72q0 39 20.5 70.5t56 49.5t78.5 18t79 -18t57.5 -50t21.5 -70q0 -40 -21 -72t-57 -50t-80 -18q-43 0 -78.5 18zM831.5 1565.5
q-44.5 39.5 -44.5 100.5q0 39 20.5 70.5t56 49.5t78.5 18t79 -18t57 -50t21 -70q0 -61 -45 -100.5t-112 -39.5q-66 0 -110.5 39.5z" />
    <glyph glyph-name="uni1E8E" unicode="&#x1e8e;" horiz-adv-x="1385" 
d="M482 607l-473 832h461l305 -575l32 -77l56 95l338 557h175l-485 -787v-652h-409v607zM629.5 1552q-37.5 19 -59.5 53.5t-22 77.5q0 41 22 75t60 53.5t83 19.5q46 0 85 -19.5t61.5 -53.5t22.5 -75q0 -43 -22.5 -77.5t-61 -53.5t-85.5 -19q-46 0 -83.5 19z" />
    <glyph glyph-name="uni1EF4" unicode="&#x1ef4;" horiz-adv-x="1385" 
d="M482 607l-473 832h461l305 -575l32 -77l56 95l338 557h175l-485 -787v-652h-409v607zM600.5 -443.5q-38.5 19.5 -60.5 54t-22 77.5q0 41 22.5 75t60.5 53.5t84 19.5t85 -19.5t61.5 -53.5t22.5 -75q0 -43 -22.5 -77.5t-61 -54t-85.5 -19.5q-46 0 -84.5 19.5z" />
    <glyph glyph-name="Ygrave" unicode="&#x1ef2;" horiz-adv-x="1385" 
d="M482 607l-473 832h461l305 -575l32 -77l56 95l338 557h175l-485 -787v-652h-409v607zM355 1785l280 19l155 -267l-87 -6z" />
    <glyph glyph-name="uni1EF6" unicode="&#x1ef6;" horiz-adv-x="1385" 
d="M482 607l-473 832h461l305 -575l32 -77l56 95l338 557h175l-485 -787v-652h-409v607zM682 1633q21 32 21 74q0 43 -17 64t-45 21q-22 0 -42.5 -6.5t-46.5 -25.5l-11 58q38 20 75 28t79 8q89 0 136.5 -34t47.5 -100q0 -53 -49.5 -105t-153.5 -83l-59 23q44 46 65 78z" />
    <glyph glyph-name="uni0232" unicode="&#x232;" horiz-adv-x="1385" 
d="M482 607l-473 832h461l305 -575l32 -77l56 95l338 557h175l-485 -787v-652h-409v607zM322 1707h774v-127h-774v127z" />
    <glyph glyph-name="uni1EF8" unicode="&#x1ef8;" horiz-adv-x="1385" 
d="M482 607l-473 832h461l305 -575l32 -77l56 95l338 557h175l-485 -787v-652h-409v607zM634 1789q25 0 50.5 -10t62.5 -29q35 -18 58.5 -27.5t44.5 -9.5q37 0 64.5 19.5t42.5 58.5l79 -4q-19 -116 -73 -179t-146 -63q-25 0 -49.5 9.5t-67.5 30.5q-34 18 -57 27t-43 9
q-37 0 -64.5 -20t-41.5 -58l-80 4q42 242 220 242z" />
    <glyph glyph-name="uni005A_uni0324" horiz-adv-x="1290" 
d="M45 37q-2 50 -2 75l712 1184h-645l-6 143h1138q0 -29 1 -44l1 -46l-729 -1206h725v-143h-1194zM334.5 -424q-35.5 18 -56 50t-20.5 72q0 39 20.5 70.5t56 49.5t78.5 18t79 -18t57.5 -50t21.5 -70q0 -40 -21 -72t-57 -50t-80 -18q-43 0 -78.5 18zM766.5 -402.5
q-44.5 39.5 -44.5 100.5q0 39 20.5 70.5t56 49.5t78.5 18t79 -18t57 -50t21 -70q0 -61 -45 -100.5t-112 -39.5q-66 0 -110.5 39.5z" />
    <glyph glyph-name="Zacute" unicode="&#x179;" horiz-adv-x="1290" 
d="M45 37q-2 50 -2 75l712 1184h-645l-6 143h1138q0 -29 1 -44l1 -46l-729 -1206h725v-143h-1194zM606 1538l154 267l281 -19l-348 -254z" />
    <glyph glyph-name="Zcaron" unicode="&#x17d;" horiz-adv-x="1290" 
d="M45 37q-2 50 -2 75l712 1184h-645l-6 143h1138q0 -29 1 -44l1 -46l-729 -1206h725v-143h-1194zM728 1535h-91l-292 293l86 25l250 -127l249 127l89 -25z" />
    <glyph glyph-name="uni1E90" unicode="&#x1e90;" horiz-adv-x="1290" 
d="M45 37q-2 50 -2 75l712 1184h-645l-6 143h1138q0 -29 1 -44l1 -46l-729 -1206h725v-143h-1194zM633 1853h91l293 -295l-87 -25l-250 128l-248 -128l-90 25z" />
    <glyph glyph-name="Zdotaccent" unicode="&#x17b;" horiz-adv-x="1290" 
d="M45 37q-2 50 -2 75l712 1184h-645l-6 143h1138q0 -29 1 -44l1 -46l-729 -1206h725v-143h-1194zM595.5 1552q-37.5 19 -59.5 53.5t-22 77.5q0 41 22 75t60 53.5t83 19.5q46 0 85 -19.5t61.5 -53.5t22.5 -75q0 -43 -22.5 -77.5t-61 -53.5t-85.5 -19q-46 0 -83.5 19z" />
    <glyph glyph-name="uni1E92" unicode="&#x1e92;" horiz-adv-x="1290" 
d="M45 37q-2 50 -2 75l712 1184h-645l-6 143h1138q0 -29 1 -44l1 -46l-729 -1206h725v-143h-1194zM561.5 -443.5q-38.5 19.5 -60.5 54t-22 77.5q0 41 22.5 75t60.5 53.5t84 19.5t85 -19.5t61.5 -53.5t22.5 -75q0 -43 -22.5 -77.5t-61 -54t-85.5 -19.5q-46 0 -84.5 19.5z" />
    <glyph glyph-name="uni1E94" unicode="&#x1e94;" horiz-adv-x="1290" 
d="M45 37q-2 50 -2 75l712 1184h-645l-6 143h1138q0 -29 1 -44l1 -46l-729 -1206h725v-143h-1194zM251 -198h774v-127h-774v127z" />
    <glyph glyph-name="uni01B5" unicode="&#x1b5;" horiz-adv-x="1290" 
d="M1240 143v-143h-1194l-1 37q-2 50 -2 75l330 548h-130v134h210l302 502h-645l-6 143h1138q0 -29 1 -44l1 -46l-335 -555h176v-134h-257l-313 -517h725z" />
    <glyph glyph-name="Adieresis.titl" horiz-adv-x="1418" 
d="M976 0l-134 376h-526l-137 -376h-170l547 1439h297l556 -1439h-433zM152.5 1122q-37.5 19 -59 53t-21.5 76q0 41 21.5 74t59 52t82.5 19t83.5 -19t60.5 -52.5t22 -73.5q0 -42 -22 -76t-60 -53t-84 -19q-45 0 -82.5 19zM1093.5 1121q-37.5 19 -59 52.5t-21.5 76.5
q0 40 22 73.5t59.5 52.5t82.5 19t83.5 -19t60.5 -52.5t22 -73.5q0 -43 -22 -76.5t-60 -52.5t-84 -19t-83.5 19zM362 503h435l-215 603z" />
    <glyph glyph-name="Udieresis.titl" horiz-adv-x="1461" 
d="M773.5 1281q-34.5 31 -34.5 78q0 46 35 76.5t85 30.5t86 -31t36 -76q0 -47 -35 -78t-87 -31q-51 0 -85.5 31zM411 39q-140 63 -214 184t-74 294v922h408v-944q0 -172 79 -259.5t233 -87.5q108 0 187 45t122 132.5t43 211.5v902h150v-882q0 -282 -142.5 -431.5
t-454.5 -149.5q-197 0 -337 63zM773.5 913q-34.5 31 -34.5 78q0 46 35 76.5t85 30.5t86 -31t36 -76q0 -47 -35.5 -78t-86.5 -31t-85.5 31z" />
    <glyph glyph-name="aacute" unicode="&#xe1;" horiz-adv-x="1116" 
d="M1015 319v-319h-115l-190 228q-162 -252 -391 -252q-78 0 -142 29t-102 86t-38 136q0 165 145 261.5t446 128.5v51q0 112 -35 182.5t-131 70.5q-81 0 -173 -31.5t-153 -71.5l-42 107q90 55 208 89.5t243 34.5q251 0 360 -108t109 -315zM568.5 187.5q30.5 17.5 59.5 48.5
v288q-76 -9 -131.5 -42t-84.5 -81t-29 -102q0 -57 31 -93t88 -36q36 0 66.5 17.5zM498 1159l-98 8l178 354l317 -26z" />
    <glyph glyph-name="abreve" unicode="&#x103;" horiz-adv-x="1117" 
d="M1015 319v-319h-115l-190 228q-162 -252 -391 -252q-78 0 -142 29t-102 86t-38 136q0 165 145 261.5t446 128.5v51q0 112 -35 182.5t-131 70.5q-81 0 -173 -31.5t-153 -71.5l-42 107q90 55 208 89.5t243 34.5q251 0 360 -108t109 -315zM568.5 187.5q30.5 17.5 59.5 48.5
v288q-76 -9 -131.5 -42t-84.5 -81t-29 -102q0 -57 31 -93t88 -36q36 0 66.5 17.5zM398 1206.5q-66 43.5 -100.5 120t-36.5 176.5l85 4q15 -66 61.5 -98.5t150.5 -32.5t150.5 32.5t62.5 98.5l84 -4q-3 -100 -37 -177t-100 -120t-160 -43t-160 43.5z" />
    <glyph glyph-name="uni1EAF" unicode="&#x1eaf;" horiz-adv-x="1116" 
d="M1015 319v-319h-115l-190 228q-162 -252 -391 -252q-78 0 -142 29t-102 86t-38 136q0 165 145 261.5t446 128.5v51q0 112 -35 182.5t-131 70.5q-81 0 -173 -31.5t-153 -71.5l-42 107q90 55 208 89.5t243 34.5q251 0 360 -108t109 -315zM568.5 187.5q30.5 17.5 59.5 48.5
v288q-76 -9 -131.5 -42t-84.5 -81t-29 -102q0 -57 31 -93t88 -36q36 0 66.5 17.5zM399 1206.5q-66 43.5 -100.5 120t-36.5 176.5l85 4q15 -66 61.5 -98.5t150.5 -32.5t150.5 32.5t62.5 98.5l84 -4q-3 -100 -37 -177t-100 -120t-160 -43t-160 43.5zM498 1530l-98 8l178 354
l317 -26z" />
    <glyph glyph-name="uni1EB7" unicode="&#x1eb7;" horiz-adv-x="1117" 
d="M1015 319v-319h-115l-190 228q-162 -252 -391 -252q-78 0 -142 29t-102 86t-38 136q0 165 145 261.5t446 128.5v51q0 112 -35 182.5t-131 70.5q-81 0 -173 -31.5t-153 -71.5l-42 107q90 55 208 89.5t243 34.5q251 0 360 -108t109 -315zM568.5 187.5q30.5 17.5 59.5 48.5
v288q-76 -9 -131.5 -42t-84.5 -81t-29 -102q0 -57 31 -93t88 -36q36 0 66.5 17.5zM458.5 -443.5q-38.5 19.5 -60.5 54t-22 77.5q0 41 22.5 75t60.5 53.5t84 19.5t85 -19.5t61.5 -53.5t22.5 -75q0 -43 -22.5 -77.5t-61 -54t-85.5 -19.5q-46 0 -84.5 19.5zM398 1206.5
q-66 43.5 -100.5 120t-36.5 176.5l85 4q15 -66 61.5 -98.5t150.5 -32.5t150.5 32.5t62.5 98.5l84 -4q-3 -100 -37 -177t-100 -120t-160 -43t-160 43.5z" />
    <glyph glyph-name="uni1EB1" unicode="&#x1eb1;" horiz-adv-x="1117" 
d="M1015 319v-319h-115l-190 228q-162 -252 -391 -252q-78 0 -142 29t-102 86t-38 136q0 165 145 261.5t446 128.5v51q0 112 -35 182.5t-131 70.5q-81 0 -173 -31.5t-153 -71.5l-42 107q90 55 208 89.5t243 34.5q251 0 360 -108t109 -315zM568.5 187.5q30.5 17.5 59.5 48.5
v288q-76 -9 -131.5 -42t-84.5 -81t-29 -102q0 -57 31 -93t88 -36q36 0 66.5 17.5zM399 1206.5q-66 43.5 -100.5 120t-36.5 176.5l85 4q15 -66 61.5 -98.5t150.5 -32.5t150.5 32.5t62.5 98.5l84 -4q-3 -100 -37 -177t-100 -120t-160 -43t-160 43.5zM176 1870l317 26l177 -354
l-98 -8z" />
    <glyph glyph-name="uni1EB3" unicode="&#x1eb3;" horiz-adv-x="1117" 
d="M1015 319v-319h-115l-190 228q-162 -252 -391 -252q-78 0 -142 29t-102 86t-38 136q0 165 145 261.5t446 128.5v51q0 112 -35 182.5t-131 70.5q-81 0 -173 -31.5t-153 -71.5l-42 107q90 55 208 89.5t243 34.5q251 0 360 -108t109 -315zM568.5 187.5q30.5 17.5 59.5 48.5
v288q-76 -9 -131.5 -42t-84.5 -81t-29 -102q0 -57 31 -93t88 -36q36 0 66.5 17.5zM399 1206.5q-66 43.5 -100.5 120t-36.5 176.5l85 4q15 -66 61.5 -98.5t150.5 -32.5t150.5 32.5t62.5 98.5l84 -4q-3 -100 -37 -177t-100 -120t-160 -43t-160 43.5zM529 1658q21 32 21 74
q0 43 -17 64t-45 21q-22 0 -42.5 -6.5t-46.5 -25.5l-11 58q38 20 75 28t79 8q89 0 136.5 -34t47.5 -100q0 -53 -49.5 -105t-153.5 -83l-59 23q44 46 65 78z" />
    <glyph glyph-name="uni1EB5" unicode="&#x1eb5;" horiz-adv-x="1117" 
d="M1015 319v-319h-115l-190 228q-162 -252 -391 -252q-78 0 -142 29t-102 86t-38 136q0 165 145 261.5t446 128.5v51q0 112 -35 182.5t-131 70.5q-81 0 -173 -31.5t-153 -71.5l-42 107q90 55 208 89.5t243 34.5q251 0 360 -108t109 -315zM568.5 187.5q30.5 17.5 59.5 48.5
v288q-76 -9 -131.5 -42t-84.5 -81t-29 -102q0 -57 31 -93t88 -36q36 0 66.5 17.5zM399 1206.5q-66 43.5 -100.5 120t-36.5 176.5l85 4q15 -66 61.5 -98.5t150.5 -32.5t150.5 32.5t62.5 98.5l84 -4q-3 -100 -37 -177t-100 -120t-160 -43t-160 43.5zM300.5 1748.5
q59.5 69.5 158.5 69.5q27 0 54.5 -11t69.5 -33q40 -20 64 -30t47 -10q84 0 117 86l86 -5q-20 -129 -78.5 -198t-159.5 -69q-28 0 -57 11.5t-71 33.5q-39 20 -63 29.5t-46 9.5q-40 0 -70 -21.5t-46 -64.5l-87 5q22 128 81.5 197.5z" />
    <glyph glyph-name="uni01CE" unicode="&#x1ce;" horiz-adv-x="1117" 
d="M1015 319v-319h-115l-190 228q-162 -252 -391 -252q-78 0 -142 29t-102 86t-38 136q0 165 145 261.5t446 128.5v51q0 112 -35 182.5t-131 70.5q-81 0 -173 -31.5t-153 -71.5l-42 107q90 55 208 89.5t243 34.5q251 0 360 -108t109 -315zM568.5 187.5q30.5 17.5 59.5 48.5
v288q-76 -9 -131.5 -42t-84.5 -81t-29 -102q0 -57 31 -93t88 -36q36 0 66.5 17.5zM881 1490l-278 -342h-87l-279 342l83 28l238 -148l238 148z" />
    <glyph glyph-name="acircumflex" unicode="&#xe2;" horiz-adv-x="1117" 
d="M1015 319v-319h-115l-190 228q-162 -252 -391 -252q-78 0 -142 29t-102 86t-38 136q0 165 145 261.5t446 128.5v51q0 112 -35 182.5t-131 70.5q-81 0 -173 -31.5t-153 -71.5l-42 107q90 55 208 89.5t243 34.5q251 0 360 -108t109 -315zM568.5 187.5q30.5 17.5 59.5 48.5
v288q-76 -9 -131.5 -42t-84.5 -81t-29 -102q0 -57 31 -93t88 -36q36 0 66.5 17.5zM230 1177l278 342h87l279 -342l-83 -28l-238 148l-238 -148z" />
    <glyph glyph-name="uni1EA5" unicode="&#x1ea5;" horiz-adv-x="1117" 
d="M1174 1624l-280 -336l-69 8l125 354zM553 1297l-238 -148l-85 28l278 342h87l279 -342l-83 -28zM905 941q109 -108 109 -315l1 -307v-319h-115l-190 228q-162 -252 -391 -252q-78 0 -142 29t-102 86t-38 136q0 165 145 261.5t446 128.5v51q0 112 -35 182.5t-131 70.5
q-81 0 -173 -31.5t-153 -71.5l-42 107q90 55 208 89.5t243 34.5q251 0 360 -108zM568.5 187.5q30.5 17.5 59.5 48.5v288q-76 -9 -131.5 -42t-84.5 -81t-29 -102q0 -57 31 -93t88 -36q36 0 66.5 17.5z" />
    <glyph glyph-name="uni1EAD" unicode="&#x1ead;" horiz-adv-x="1117" 
d="M1015 319v-319h-115l-190 228q-162 -252 -391 -252q-78 0 -142 29t-102 86t-38 136q0 165 145 261.5t446 128.5v51q0 112 -35 182.5t-131 70.5q-81 0 -173 -31.5t-153 -71.5l-42 107q90 55 208 89.5t243 34.5q251 0 360 -108t109 -315zM568.5 187.5q30.5 17.5 59.5 48.5
v288q-76 -9 -131.5 -42t-84.5 -81t-29 -102q0 -57 31 -93t88 -36q36 0 66.5 17.5zM458.5 -443.5q-38.5 19.5 -60.5 54t-22 77.5q0 41 22.5 75t60.5 53.5t84 19.5t85 -19.5t61.5 -53.5t22.5 -75q0 -43 -22.5 -77.5t-61 -54t-85.5 -19.5q-46 0 -84.5 19.5zM230 1177l278 342
h87l279 -342l-83 -28l-238 148l-238 -148z" />
    <glyph glyph-name="uni1EA7" unicode="&#x1ea7;" horiz-adv-x="1117" 
d="M331 1321l-65 -7l-263 308l210 24zM315 1149l-85 28l278 342h87l279 -342l-83 -28l-238 148zM1015 319v-319h-115l-190 228q-162 -252 -391 -252q-78 0 -142 29t-102 86t-38 136q0 165 145 261.5t446 128.5v51q0 112 -35 182.5t-131 70.5q-81 0 -173 -31.5t-153 -71.5
l-42 107q90 55 208 89.5t243 34.5q251 0 360 -108t109 -315zM568.5 187.5q30.5 17.5 59.5 48.5v288q-76 -9 -131.5 -42t-84.5 -81t-29 -102q0 -57 31 -93t88 -36q36 0 66.5 17.5z" />
    <glyph glyph-name="uni1EA9" unicode="&#x1ea9;" horiz-adv-x="1117" 
d="M1015 319v-319h-115l-190 228q-162 -252 -391 -252q-78 0 -142 29t-102 86t-38 136q0 165 145 261.5t446 128.5v51q0 112 -35 182.5t-131 70.5q-81 0 -173 -31.5t-153 -71.5l-42 107q90 55 208 89.5t243 34.5q251 0 360 -108t109 -315zM568.5 187.5q30.5 17.5 59.5 48.5
v288q-76 -9 -131.5 -42t-84.5 -81t-29 -102q0 -57 31 -93t88 -36q36 0 66.5 17.5zM230 1177l278 342h87l279 -342l-83 -28l-238 148l-238 -148zM907 1412q21 32 21 74q0 43 -17 64t-45 21q-22 0 -42.5 -6.5t-46.5 -25.5l-11 58q38 20 75 28t79 8q89 0 136.5 -34t47.5 -100
q0 -53 -49.5 -105t-153.5 -83l-59 23q44 46 65 78z" />
    <glyph glyph-name="uni1EAB" unicode="&#x1eab;" horiz-adv-x="1116" 
d="M1015 319v-319h-115l-190 228q-162 -252 -391 -252q-78 0 -142 29t-102 86t-38 136q0 165 145 261.5t446 128.5v51q0 112 -35 182.5t-131 70.5q-81 0 -173 -31.5t-153 -71.5l-42 107q90 55 208 89.5t243 34.5q251 0 360 -108t109 -315zM568.5 187.5q30.5 17.5 59.5 48.5
v288q-76 -9 -131.5 -42t-84.5 -81t-29 -102q0 -57 31 -93t88 -36q36 0 66.5 17.5zM230 1177l278 342h87l279 -342l-83 -28l-238 148l-238 -148zM300.5 1786.5q59.5 69.5 158.5 69.5q27 0 54.5 -11t69.5 -33q40 -20 64 -30t47 -10q84 0 117 86l86 -5q-20 -129 -78.5 -198
t-159.5 -69q-28 0 -57 11.5t-71 33.5q-39 20 -63 29.5t-46 9.5q-40 0 -70 -21.5t-46 -64.5l-87 5q22 128 81.5 197.5z" />
    <glyph glyph-name="uni0201" unicode="&#x201;" horiz-adv-x="1117" 
d="M1015 319v-319h-115l-190 228q-162 -252 -391 -252q-78 0 -142 29t-102 86t-38 136q0 165 145 261.5t446 128.5v51q0 112 -35 182.5t-131 70.5q-81 0 -173 -31.5t-153 -71.5l-42 107q90 55 208 89.5t243 34.5q251 0 360 -108t109 -315zM568.5 187.5q30.5 17.5 59.5 48.5
v288q-76 -9 -131.5 -42t-84.5 -81t-29 -102q0 -57 31 -93t88 -36q36 0 66.5 17.5zM811 1147l-93 -8l-303 258l128 -255l-92 -8l-373 317l298 24l8 -16l259 21z" />
    <glyph glyph-name="adieresis" unicode="&#xe4;" horiz-adv-x="1117" 
d="M1015 319v-319h-115l-190 228q-162 -252 -391 -252q-78 0 -142 29t-102 86t-38 136q0 165 145 261.5t446 128.5v51q0 112 -35 182.5t-131 70.5q-81 0 -173 -31.5t-153 -71.5l-42 107q90 55 208 89.5t243 34.5q251 0 360 -108t109 -315zM568.5 187.5q30.5 17.5 59.5 48.5
v288q-76 -9 -131.5 -42t-84.5 -81t-29 -102q0 -57 31 -93t88 -36q36 0 66.5 17.5zM243.5 1177q-35.5 18 -56 50t-20.5 72q0 39 20.5 70.5t56 49.5t78.5 18t79 -18t57.5 -50t21.5 -70q0 -40 -21 -72t-57 -50t-80 -18q-43 0 -78.5 18zM675.5 1198.5q-44.5 39.5 -44.5 100.5
q0 39 20.5 70.5t56 49.5t78.5 18t79 -18t57 -50t21 -70q0 -61 -45 -100.5t-112 -39.5q-66 0 -110.5 39.5z" />
    <glyph glyph-name="uni01DF" unicode="&#x1df;" horiz-adv-x="1116" 
d="M1015 319v-319h-115l-190 228q-162 -252 -391 -252q-78 0 -142 29t-102 86t-38 136q0 165 145 261.5t446 128.5v51q0 112 -35 182.5t-131 70.5q-81 0 -173 -31.5t-153 -71.5l-42 107q90 55 208 89.5t243 34.5q251 0 360 -108t109 -315zM568.5 187.5q30.5 17.5 59.5 48.5
v288q-76 -9 -131.5 -42t-84.5 -81t-29 -102q0 -57 31 -93t88 -36q36 0 66.5 17.5zM243.5 1177q-35.5 18 -56 50t-20.5 72q0 39 20.5 70.5t56 49.5t78.5 18t79 -18t57.5 -50t21.5 -70q0 -40 -21 -72t-57 -50t-80 -18q-43 0 -78.5 18zM675.5 1198.5q-44.5 39.5 -44.5 100.5
q0 39 20.5 70.5t56 49.5t78.5 18t79 -18t57 -50t21 -70q0 -61 -45 -100.5t-112 -39.5q-66 0 -110.5 39.5zM171 1759h774v-127h-774v127z" />
    <glyph glyph-name="uni0227" unicode="&#x227;" horiz-adv-x="1117" 
d="M1015 319v-319h-115l-190 228q-162 -252 -391 -252q-78 0 -142 29t-102 86t-38 136q0 165 145 261.5t446 128.5v51q0 112 -35 182.5t-131 70.5q-81 0 -173 -31.5t-153 -71.5l-42 107q90 55 208 89.5t243 34.5q251 0 360 -108t109 -315zM568.5 187.5q30.5 17.5 59.5 48.5
v288q-76 -9 -131.5 -42t-84.5 -81t-29 -102q0 -57 31 -93t88 -36q36 0 66.5 17.5zM472.5 1177q-37.5 19 -59.5 53.5t-22 77.5q0 41 22 75t60 53.5t83 19.5q46 0 85 -19.5t61.5 -53.5t22.5 -75q0 -43 -22.5 -77.5t-61 -53.5t-85.5 -19q-46 0 -83.5 19z" />
    <glyph glyph-name="uni1EA1" unicode="&#x1ea1;" horiz-adv-x="1117" 
d="M1015 319v-319h-115l-190 228q-162 -252 -391 -252q-78 0 -142 29t-102 86t-38 136q0 165 145 261.5t446 128.5v51q0 112 -35 182.5t-131 70.5q-81 0 -173 -31.5t-153 -71.5l-42 107q90 55 208 89.5t243 34.5q251 0 360 -108t109 -315zM568.5 187.5q30.5 17.5 59.5 48.5
v288q-76 -9 -131.5 -42t-84.5 -81t-29 -102q0 -57 31 -93t88 -36q36 0 66.5 17.5zM458.5 -443.5q-38.5 19.5 -60.5 54t-22 77.5q0 41 22.5 75t60.5 53.5t84 19.5t85 -19.5t61.5 -53.5t22.5 -75q0 -43 -22.5 -77.5t-61 -54t-85.5 -19.5q-46 0 -84.5 19.5z" />
    <glyph glyph-name="uni01E1" unicode="&#x1e1;" horiz-adv-x="1117" 
d="M1015 319v-319h-115l-190 228q-162 -252 -391 -252q-78 0 -142 29t-102 86t-38 136q0 165 145 261.5t446 128.5v51q0 112 -35 182.5t-131 70.5q-81 0 -173 -31.5t-153 -71.5l-42 107q90 55 208 89.5t243 34.5q251 0 360 -108t109 -315zM568.5 187.5q30.5 17.5 59.5 48.5
v288q-76 -9 -131.5 -42t-84.5 -81t-29 -102q0 -57 31 -93t88 -36q36 0 66.5 17.5zM472.5 1177q-37.5 19 -59.5 53.5t-22 77.5q0 41 22 75t60 53.5t83 19.5q46 0 85 -19.5t61.5 -53.5t22.5 -75q0 -43 -22.5 -77.5t-61 -53.5t-85.5 -19q-46 0 -83.5 19zM172 1749h774v-127
h-774v127z" />
    <glyph glyph-name="agrave" unicode="&#xe0;" horiz-adv-x="1117" 
d="M1015 319v-319h-115l-190 228q-162 -252 -391 -252q-78 0 -142 29t-102 86t-38 136q0 165 145 261.5t446 128.5v51q0 112 -35 182.5t-131 70.5q-81 0 -173 -31.5t-153 -71.5l-42 107q90 55 208 89.5t243 34.5q251 0 360 -108t109 -315zM568.5 187.5q30.5 17.5 59.5 48.5
v288q-76 -9 -131.5 -42t-84.5 -81t-29 -102q0 -57 31 -93t88 -36q36 0 66.5 17.5zM176 1499l317 26l177 -354l-98 -8z" />
    <glyph glyph-name="uni1EA3" unicode="&#x1ea3;" horiz-adv-x="1117" 
d="M1015 319v-319h-115l-190 228q-162 -252 -391 -252q-78 0 -142 29t-102 86t-38 136q0 165 145 261.5t446 128.5v51q0 112 -35 182.5t-131 70.5q-81 0 -173 -31.5t-153 -71.5l-42 107q90 55 208 89.5t243 34.5q251 0 360 -108t109 -315zM568.5 187.5q30.5 17.5 59.5 48.5
v288q-76 -9 -131.5 -42t-84.5 -81t-29 -102q0 -57 31 -93t88 -36q36 0 66.5 17.5zM529 1287q21 32 21 74q0 43 -17 64t-45 21q-22 0 -42.5 -6.5t-46.5 -25.5l-11 58q38 20 75 28t79 8q89 0 136.5 -34t47.5 -100q0 -53 -49.5 -105t-153.5 -83l-59 23q44 46 65 78z" />
    <glyph glyph-name="uni0203" unicode="&#x203;" horiz-adv-x="1117" 
d="M1015 319v-319h-115l-190 228q-162 -252 -391 -252q-78 0 -142 29t-102 86t-38 136q0 165 145 261.5t446 128.5v51q0 112 -35 182.5t-131 70.5q-81 0 -173 -31.5t-153 -71.5l-42 107q90 55 208 89.5t243 34.5q251 0 360 -108t109 -315zM568.5 187.5q30.5 17.5 59.5 48.5
v288q-76 -9 -131.5 -42t-84.5 -81t-29 -102q0 -57 31 -93t88 -36q36 0 66.5 17.5zM717 1465q66 -43 100 -120t37 -177l-84 -4q-16 66 -62.5 98.5t-150.5 32.5t-150.5 -32.5t-61.5 -98.5l-85 4q2 100 36.5 176.5t100.5 120t160 43.5t160 -43z" />
    <glyph glyph-name="amacron" unicode="&#x101;" horiz-adv-x="1117" 
d="M1015 319v-319h-115l-190 228q-162 -252 -391 -252q-78 0 -142 29t-102 86t-38 136q0 165 145 261.5t446 128.5v51q0 112 -35 182.5t-131 70.5q-81 0 -173 -31.5t-153 -71.5l-42 107q90 55 208 89.5t243 34.5q251 0 360 -108t109 -315zM568.5 187.5q30.5 17.5 59.5 48.5
v288q-76 -9 -131.5 -42t-84.5 -81t-29 -102q0 -57 31 -93t88 -36q36 0 66.5 17.5zM172 1370h774v-127h-774v127z" />
    <glyph glyph-name="aogonek" unicode="&#x105;" horiz-adv-x="1117" 
d="M1113 -311q-53 -63 -124 -102t-150 -39q-56 0 -104.5 21.5t-78 62.5t-29.5 95q0 150 264 284l-181 217q-162 -252 -391 -252q-78 0 -142 29t-102 86t-38 136q0 165 145 261.5t446 128.5v51q0 112 -35 182.5t-131 70.5q-81 0 -173 -31.5t-153 -71.5l-42 107
q90 55 208 89.5t243 34.5q251 0 360 -108t109 -315l1 -307v-319h-1q-92 -58 -128.5 -110.5t-36.5 -111.5q0 -45 27 -73.5t74 -28.5q54 0 118 60zM568.5 187.5q30.5 17.5 59.5 48.5v288q-76 -9 -131.5 -42t-84.5 -81t-29 -102q0 -57 31 -93t88 -36q36 0 66.5 17.5z" />
    <glyph glyph-name="aring" unicode="&#xe5;" horiz-adv-x="1117" 
d="M1015 319v-319h-115l-190 228q-162 -252 -391 -252q-78 0 -142 29t-102 86t-38 136q0 165 145 261.5t446 128.5v51q0 112 -35 182.5t-131 70.5q-81 0 -173 -31.5t-153 -71.5l-42 107q90 55 208 89.5t243 34.5q251 0 360 -108t109 -315zM568.5 187.5q30.5 17.5 59.5 48.5
v288q-76 -9 -131.5 -42t-84.5 -81t-29 -102q0 -57 31 -93t88 -36q36 0 66.5 17.5zM445 1167.5q-49 21.5 -76.5 60.5t-27.5 89t27.5 89.5t76.5 61.5t111 22q65 0 114.5 -21.5t77 -61t27.5 -90.5q0 -50 -28 -89t-78 -60.5t-113 -21.5q-62 0 -111 21.5zM614 1236.5
q22 31.5 22 80.5t-22 82t-58 33q-32 0 -53.5 -33.5t-21.5 -81.5t21.5 -80t53.5 -32q36 0 58 31.5z" />
    <glyph glyph-name="aringacute" unicode="&#x1fb;" horiz-adv-x="1116" 
d="M1015 319v-319h-115l-190 228q-162 -252 -391 -252q-78 0 -142 29t-102 86t-38 136q0 165 145 261.5t446 128.5v51q0 112 -35 182.5t-131 70.5q-81 0 -173 -31.5t-153 -71.5l-42 107q90 55 208 89.5t243 34.5q251 0 360 -108t109 -315zM568.5 187.5q30.5 17.5 59.5 48.5
v288q-76 -9 -131.5 -42t-84.5 -81t-29 -102q0 -57 31 -93t88 -36q36 0 66.5 17.5zM445 1167.5q-49 21.5 -76.5 60.5t-27.5 89t27.5 89.5t76.5 61.5t111 22q65 0 114.5 -21.5t77 -61t27.5 -90.5q0 -50 -28 -89t-78 -60.5t-113 -21.5q-62 0 -111 21.5zM614 1236.5
q22 31.5 22 80.5t-22 82t-58 33q-32 0 -53.5 -33.5t-21.5 -81.5t21.5 -80t53.5 -32q36 0 58 31.5zM498 1579l-98 8l178 354l317 -26z" />
    <glyph glyph-name="uni1E01" unicode="&#x1e01;" horiz-adv-x="1117" 
d="M1015 319v-319h-115l-190 228q-162 -252 -391 -252q-78 0 -142 29t-102 86t-38 136q0 165 145 261.5t446 128.5v51q0 112 -35 182.5t-131 70.5q-81 0 -173 -31.5t-153 -71.5l-42 107q90 55 208 89.5t243 34.5q251 0 360 -108t109 -315zM568.5 187.5q30.5 17.5 59.5 48.5
v288q-76 -9 -131.5 -42t-84.5 -81t-29 -102q0 -57 31 -93t88 -36q36 0 66.5 17.5zM422.5 -444q-52.5 23 -81.5 64t-29 94t29 95t81 65t119 23q69 0 121.5 -23t81.5 -64.5t29 -95.5q0 -53 -30 -94t-82.5 -64t-119.5 -23q-66 0 -118.5 23zM598.5 -368.5q21.5 32.5 21.5 82.5
t-22 84t-57 34q-32 0 -54 -34.5t-22 -83.5q0 -50 21.5 -82.5t54.5 -32.5q36 0 57.5 32.5z" />
    <glyph glyph-name="atilde" unicode="&#xe3;" horiz-adv-x="1117" 
d="M1015 319v-319h-115l-190 228q-162 -252 -391 -252q-78 0 -142 29t-102 86t-38 136q0 165 145 261.5t446 128.5v51q0 112 -35 182.5t-131 70.5q-81 0 -173 -31.5t-153 -71.5l-42 107q90 55 208 89.5t243 34.5q251 0 360 -108t109 -315zM568.5 187.5q30.5 17.5 59.5 48.5
v288q-76 -9 -131.5 -42t-84.5 -81t-29 -102q0 -57 31 -93t88 -36q36 0 66.5 17.5zM300.5 1377.5q59.5 69.5 158.5 69.5q27 0 54.5 -11t69.5 -33q40 -20 64 -30t47 -10q84 0 117 86l86 -5q-20 -129 -78.5 -198t-159.5 -69q-28 0 -57 11.5t-71 33.5q-39 20 -63 29.5t-46 9.5
q-40 0 -70 -21.5t-46 -64.5l-87 5q22 128 81.5 197.5z" />
    <glyph glyph-name="aeacute" unicode="&#x1fd;" horiz-adv-x="1711" 
d="M1012 553v-3q0 -186 59.5 -306t193.5 -120q164 0 309 171l67 -81q-74 -108 -193 -172.5t-289 -64.5q-155 0 -271 64t-179 181q-77 -117 -177 -181.5t-214 -64.5q-78 0 -141.5 29t-101.5 86t-38 136q0 109 62.5 181.5t192 116.5t336.5 66v80q0 250 -166 250
q-82 0 -165 -28t-161 -75l-42 107q90 56 210 90t247 34q197 0 291 -110q69 54 157 83t189 29q148 0 256.5 -63.5t165 -176.5t53.5 -258h-651zM1014 624h292q-1 156 -34.5 234t-98.5 78q-145 0 -159 -312zM594.5 200.5q43.5 30.5 85.5 87.5q-35 97 -35 215v24
q-84 -9 -143.5 -42t-89 -81.5t-29.5 -103.5q0 -58 30.5 -94t87.5 -36q50 0 93.5 30.5zM812 1161l-98 8l178 354l317 -26z" />
    <glyph glyph-name="uni01E3" unicode="&#x1e3;" horiz-adv-x="1712" 
d="M1012 553v-3q0 -186 59.5 -306t193.5 -120q164 0 309 171l67 -81q-74 -108 -193 -172.5t-289 -64.5q-155 0 -271 64t-179 181q-77 -117 -177 -181.5t-214 -64.5q-78 0 -141.5 29t-101.5 86t-38 136q0 109 62.5 181.5t192 116.5t336.5 66v80q0 250 -166 250
q-82 0 -165 -28t-161 -75l-42 107q90 56 210 90t247 34q197 0 291 -110q69 54 157 83t189 29q148 0 256.5 -63.5t165 -176.5t53.5 -258h-651zM1014 624h292q-1 156 -34.5 234t-98.5 78q-145 0 -159 -312zM594.5 200.5q43.5 30.5 85.5 87.5q-35 97 -35 215v24
q-84 -9 -143.5 -42t-89 -81.5t-29.5 -103.5q0 -58 30.5 -94t87.5 -36q50 0 93.5 30.5zM485 1372h774v-127h-774v127z" />
    <glyph glyph-name="uni1E03" unicode="&#x1e03;" horiz-adv-x="1263" 
d="M1013.5 990q91.5 -60 146.5 -174t55 -269q0 -169 -71.5 -298.5t-206 -201t-317.5 -71.5q-286 0 -509 165v1362h386v-592q62 58 145.5 98.5t171.5 40.5q108 0 199.5 -60zM772.5 203.5q49.5 97.5 49.5 274.5q0 179 -49 280.5t-144 101.5q-60 0 -132 -68v-635
q25 -24 59 -37.5t74 -13.5q93 0 142.5 97.5zM742.5 1196q-37.5 19 -59.5 53.5t-22 77.5q0 41 22 75t60 53.5t83 19.5q46 0 85 -19.5t61.5 -53.5t22.5 -75q0 -43 -22.5 -77.5t-61 -53.5t-85.5 -19q-46 0 -83.5 19z" />
    <glyph glyph-name="uni1E05" unicode="&#x1e05;" horiz-adv-x="1263" 
d="M1013.5 990q91.5 -60 146.5 -174t55 -269q0 -169 -71.5 -298.5t-206 -201t-317.5 -71.5q-286 0 -509 165v1362h386v-592q62 58 145.5 98.5t171.5 40.5q108 0 199.5 -60zM772.5 203.5q49.5 97.5 49.5 274.5q0 179 -49 280.5t-144 101.5q-60 0 -132 -68v-635
q25 -24 59 -37.5t74 -13.5q93 0 142.5 97.5zM549.5 -443.5q-38.5 19.5 -60.5 54t-22 77.5q0 41 22.5 75t60.5 53.5t84 19.5t85 -19.5t61.5 -53.5t22.5 -75q0 -43 -22.5 -77.5t-61 -54t-85.5 -19.5q-46 0 -84.5 19.5z" />
    <glyph glyph-name="uni1E07" unicode="&#x1e07;" horiz-adv-x="1263" 
d="M1013.5 990q91.5 -60 146.5 -174t55 -269q0 -169 -71.5 -298.5t-206 -201t-317.5 -71.5q-286 0 -509 165v1362h386v-592q62 58 145.5 98.5t171.5 40.5q108 0 199.5 -60zM772.5 203.5q49.5 97.5 49.5 274.5q0 179 -49 280.5t-144 101.5q-60 0 -132 -68v-635
q25 -24 59 -37.5t74 -13.5q93 0 142.5 97.5zM239 -198h774v-127h-774v127z" />
    <glyph glyph-name="cacute" unicode="&#x107;" horiz-adv-x="1061" 
d="M301.5 38.5q-118.5 62.5 -185.5 180.5t-67 277q0 162 75.5 288t211.5 196.5t310 70.5q191 0 337 -107l-55 -100q-56 41 -120 60t-127 19q-128 0 -183.5 -95.5t-55.5 -268.5q0 -193 59 -311.5t191 -118.5q79 0 146 43.5t126 113.5l74 -79q-69 -101 -187.5 -166t-280.5 -65
q-150 0 -268.5 62.5zM555 1159l-98 8l178 354l317 -26z" />
    <glyph glyph-name="ccaron" unicode="&#x10d;" horiz-adv-x="1061" 
d="M301.5 38.5q-118.5 62.5 -185.5 180.5t-67 277q0 162 75.5 288t211.5 196.5t310 70.5q191 0 337 -107l-55 -100q-56 41 -120 60t-127 19q-128 0 -183.5 -95.5t-55.5 -268.5q0 -193 59 -311.5t191 -118.5q79 0 146 43.5t126 113.5l74 -79q-69 -101 -187.5 -166t-280.5 -65
q-150 0 -268.5 62.5zM937 1490l-278 -342h-87l-279 342l83 28l238 -148l238 148z" />
    <glyph glyph-name="ccedilla" unicode="&#xe7;" horiz-adv-x="1061" 
d="M869 51q-106 -63 -249 -73l-48 -67q87 -7 144 -47t57 -114q0 -57 -46.5 -106t-134 -77.5t-206.5 -28.5l-9 64q73 5 112.5 39t39.5 79q0 33 -27.5 58t-67.5 33l-10 24l108 142q-141 8 -250.5 73t-171 179.5t-61.5 266.5q0 162 75.5 288t211.5 196.5t310 70.5
q191 0 337 -107l-55 -100q-56 41 -120 60t-127 19q-128 0 -183.5 -95.5t-55.5 -268.5q0 -193 59 -311.5t191 -118.5q79 0 146 43.5t126 113.5l74 -79q-63 -93 -169 -156z" />
    <glyph glyph-name="uni1E09" unicode="&#x1e09;" horiz-adv-x="1061" 
d="M951 1495l-396 -336l-98 8l177 354zM869 51q-106 -63 -249 -73l-48 -67q87 -7 144 -47t57 -114q0 -57 -46.5 -106t-134 -77.5t-206.5 -28.5l-9 64q73 5 112 39t39 79q0 33 -27 58t-67 33l-11 24l109 142q-141 8 -250.5 73t-171 179.5t-61.5 266.5q0 162 75.5 288
t211.5 196.5t310 70.5q191 0 337 -107l-55 -100q-56 41 -120 60t-127 19q-128 0 -183.5 -95.5t-55.5 -268.5q0 -193 59 -311.5t191 -118.5q79 0 146 43.5t126 113.5l74 -79q-63 -93 -169 -156z" />
    <glyph glyph-name="ccircumflex" unicode="&#x109;" horiz-adv-x="1061" 
d="M301.5 38.5q-118.5 62.5 -185.5 180.5t-67 277q0 162 75.5 288t211.5 196.5t310 70.5q191 0 337 -107l-55 -100q-56 41 -120 60t-127 19q-128 0 -183.5 -95.5t-55.5 -268.5q0 -193 59 -311.5t191 -118.5q79 0 146 43.5t126 113.5l74 -79q-69 -101 -187.5 -166t-280.5 -65
q-150 0 -268.5 62.5zM287 1176l278 342h87l279 -342l-83 -28l-238 148l-238 -148z" />
    <glyph glyph-name="cdotaccent" unicode="&#x10b;" horiz-adv-x="1061" 
d="M301.5 38.5q-118.5 62.5 -185.5 180.5t-67 277q0 162 75.5 288t211.5 196.5t310 70.5q191 0 337 -107l-55 -100q-56 41 -120 60t-127 19q-128 0 -183.5 -95.5t-55.5 -268.5q0 -193 59 -311.5t191 -118.5q79 0 146 43.5t126 113.5l74 -79q-69 -101 -187.5 -166t-280.5 -65
q-150 0 -268.5 62.5zM528.5 1176q-37.5 19 -59.5 53.5t-22 77.5q0 41 22 75t60 53.5t83 19.5q46 0 85 -19.5t61.5 -53.5t22.5 -75q0 -43 -22.5 -77.5t-61 -53.5t-85.5 -19q-46 0 -83.5 19z" />
    <glyph glyph-name="dcaron" unicode="&#x10f;" horiz-adv-x="1572" 
d="M1275 1505h269l-85 -420h-90zM762 1503h387v-1503h-115l-184 220q-157 -244 -384 -244q-124 0 -218.5 64t-146.5 181t-52 272q0 163 63.5 289.5t179.5 197t269 70.5q118 0 201 -45v498zM762 245v591q-30 40 -66.5 60.5t-77.5 20.5q-53 0 -92.5 -44t-61.5 -128t-22 -201
q0 -178 47.5 -270t140.5 -92q62 0 132 63z" />
    <glyph glyph-name="uni1E11" unicode="&#x1e11;" horiz-adv-x="1260" 
d="M1149 1503v-1503h-115l-184 220q-157 -244 -384 -244q-124 0 -218.5 64t-146.5 181t-52 272q0 163 63.5 289.5t179.5 197t269 70.5q118 0 201 -45v498h387zM762 245v591q-30 40 -66.5 60.5t-77.5 20.5q-53 0 -92.5 -44t-61.5 -128t-22 -201q0 -178 47.5 -270t140.5 -92
q62 0 132 63zM777.5 -155q22.5 -39 22.5 -88q0 -91 -70 -156.5t-192 -92.5l-17 61q80 35 80 93q0 25 -18 50t-61 61l195 137q38 -26 60.5 -65z" />
    <glyph glyph-name="uni1E13" unicode="&#x1e13;" horiz-adv-x="1260" 
d="M1149 1503v-1503h-115l-184 220q-157 -244 -384 -244q-124 0 -218.5 64t-146.5 181t-52 272q0 163 63.5 289.5t179.5 197t269 70.5q118 0 201 -45v498h387zM762 245v591q-30 40 -66.5 60.5t-77.5 20.5q-53 0 -92.5 -44t-61.5 -128t-22 -201q0 -178 47.5 -270t140.5 -92
q62 0 132 63zM329 -449l278 342h87l279 -342l-83 -28l-238 148l-238 -148z" />
    <glyph glyph-name="dcroat" unicode="&#x111;" horiz-adv-x="1260" 
d="M1275 1177h-126v-1177h-115l-184 220q-157 -244 -384 -244q-124 0 -218.5 64t-146.5 181t-52 272q0 163 63.5 289.5t179.5 197t269 70.5q118 0 201 -45v172h-220v112h220v214h387v-214h126v-112zM762 245v591q-30 40 -66.5 60.5t-77.5 20.5q-53 0 -92.5 -44t-61.5 -128
t-22 -201q0 -178 47.5 -270t140.5 -92q62 0 132 63z" />
    <glyph glyph-name="uni1E0B" unicode="&#x1e0b;" horiz-adv-x="1260" 
d="M1149 1503v-1503h-115l-184 220q-157 -244 -384 -244q-124 0 -218.5 64t-146.5 181t-52 272q0 163 63.5 289.5t179.5 197t269 70.5q118 0 201 -45v498h387zM762 245v591q-30 40 -66.5 60.5t-77.5 20.5q-53 0 -92.5 -44t-61.5 -128t-22 -201q0 -178 47.5 -270t140.5 -92
q62 0 132 63zM391.5 1194q-37.5 19 -59.5 53.5t-22 77.5q0 41 22 75t60 53.5t83 19.5q46 0 85 -19.5t61.5 -53.5t22.5 -75q0 -43 -22.5 -77.5t-61 -53.5t-85.5 -19q-46 0 -83.5 19z" />
    <glyph glyph-name="uni1E0D" unicode="&#x1e0d;" horiz-adv-x="1260" 
d="M1149 1503v-1503h-115l-184 220q-157 -244 -384 -244q-124 0 -218.5 64t-146.5 181t-52 272q0 163 63.5 289.5t179.5 197t269 70.5q118 0 201 -45v498h387zM762 245v591q-30 40 -66.5 60.5t-77.5 20.5q-53 0 -92.5 -44t-61.5 -128t-22 -201q0 -178 47.5 -270t140.5 -92
q62 0 132 63zM567.5 -443.5q-38.5 19.5 -60.5 54t-22 77.5q0 41 22.5 75t60.5 53.5t84 19.5t85 -19.5t61.5 -53.5t22.5 -75q0 -43 -22.5 -77.5t-61 -54t-85.5 -19.5q-46 0 -84.5 19.5z" />
    <glyph glyph-name="uni02A4" unicode="&#x2a4;" horiz-adv-x="2277" 
d="M1996 387q119 -60 178 -160.5t59 -227.5q0 -132 -81.5 -232t-227.5 -154.5t-335 -54.5q-116 0 -226.5 36.5t-181.5 97.5l50 121q68 -55 166.5 -87.5t191.5 -33.5q128 0 188 75t60 198q0 90 -47.5 163t-135.5 114.5t-206 39.5v96l315 337h-614v-715h-115l-184 220
q-157 -244 -384 -244q-124 0 -218.5 64t-146.5 181t-52 272q0 163 63.5 289.5t179.5 197t269 70.5q118 0 201 -45v498h387v-478l1006 1l2 -105l-454 -468q174 -6 293 -66zM762 245v591q-30 40 -66.5 60.5t-77.5 20.5q-53 0 -92.5 -44t-61.5 -128t-22 -201q0 -178 47.5 -270
t140.5 -92q62 0 132 63z" />
    <glyph glyph-name="uni1E0F" unicode="&#x1e0f;" horiz-adv-x="1260" 
d="M1149 1503v-1503h-115l-184 220q-157 -244 -384 -244q-124 0 -218.5 64t-146.5 181t-52 272q0 163 63.5 289.5t179.5 197t269 70.5q118 0 201 -45v498h387zM762 245v591q-30 40 -66.5 60.5t-77.5 20.5q-53 0 -92.5 -44t-61.5 -128t-22 -201q0 -178 47.5 -270t140.5 -92
q62 0 132 63zM257 -198h774v-127h-774v127z" />
    <glyph glyph-name="uni01F3" unicode="&#x1f3;" horiz-adv-x="2303" 
d="M1149 1503v-1503h-115l-184 220q-157 -244 -384 -244q-124 0 -218.5 64t-146.5 181t-52 272q0 163 63.5 289.5t179.5 197t269 70.5q118 0 201 -45v498h387zM762 245v591q-30 40 -66.5 60.5t-77.5 20.5q-53 0 -92.5 -44t-61.5 -128t-22 -201q0 -178 47.5 -270t140.5 -92
q62 0 132 63zM1296 102l499 788h-442v135l905 1l3 -105l-510 -786h493v-135h-945z" />
    <glyph glyph-name="uni01C6" unicode="&#x1c6;" horiz-adv-x="2303" 
d="M1149 1503v-1503h-115l-184 220q-157 -244 -384 -244q-124 0 -218.5 64t-146.5 181t-52 272q0 163 63.5 289.5t179.5 197t269 70.5q118 0 201 -45v498h387zM762 245v591q-30 40 -66.5 60.5t-77.5 20.5q-53 0 -92.5 -44t-61.5 -128t-22 -201q0 -178 47.5 -270t140.5 -92
q62 0 132 63zM1296 102l499 788h-442v135l905 1l3 -105l-510 -786h493v-135h-945zM2140 1490l-278 -342h-87l-279 342l83 28l238 -148l238 148z" />
    <glyph glyph-name="uni0065_uni030A" horiz-adv-x="1116" 
d="M416 553v-3q0 -186 59.5 -306t193.5 -120q164 0 309 171l67 -81q-74 -108 -193 -172.5t-289 -64.5q-156 0 -272 64.5t-179 183.5t-63 278t68.5 283.5t192 194.5t282.5 70q148 0 256.5 -63.5t165 -176.5t53.5 -258h-651zM418 624h292q-1 156 -34.5 234t-98.5 78
q-145 0 -159 -312zM488 1161.5q-49 21.5 -76.5 60.5t-27.5 89t27.5 89.5t76.5 61.5t111 22q65 0 114.5 -21.5t77 -61t27.5 -90.5q0 -50 -28 -89t-78 -60.5t-113 -21.5q-62 0 -111 21.5zM657 1230.5q22 31.5 22 80.5t-22 82t-58 33q-32 0 -53.5 -33.5t-21.5 -81.5t21.5 -80
t53.5 -32q36 0 58 31.5z" />
    <glyph glyph-name="eacute" unicode="&#xe9;" horiz-adv-x="1116" 
d="M416 553v-3q0 -186 59.5 -306t193.5 -120q164 0 309 171l67 -81q-74 -108 -193 -172.5t-289 -64.5q-156 0 -272 64.5t-179 183.5t-63 278t68.5 283.5t192 194.5t282.5 70q148 0 256.5 -63.5t165 -176.5t53.5 -258h-651zM418 624h292q-1 156 -34.5 234t-98.5 78
q-145 0 -159 -312zM541 1153l-98 8l178 354l317 -26z" />
    <glyph glyph-name="ebreve" unicode="&#x115;" horiz-adv-x="1116" 
d="M416 553v-3q0 -186 59.5 -306t193.5 -120q164 0 309 171l67 -81q-74 -108 -193 -172.5t-289 -64.5q-156 0 -272 64.5t-179 183.5t-63 278t68.5 283.5t192 194.5t282.5 70q148 0 256.5 -63.5t165 -176.5t53.5 -258h-651zM418 624h292q-1 156 -34.5 234t-98.5 78
q-145 0 -159 -312zM441 1199.5q-66 43.5 -100.5 120t-36.5 176.5l85 4q15 -66 61.5 -98.5t150.5 -32.5t150.5 32.5t62.5 98.5l84 -4q-3 -100 -37 -177t-100 -120t-160 -43t-160 43.5z" />
    <glyph glyph-name="ecaron" unicode="&#x11b;" horiz-adv-x="1116" 
d="M416 553v-3q0 -186 59.5 -306t193.5 -120q164 0 309 171l67 -81q-74 -108 -193 -172.5t-289 -64.5q-156 0 -272 64.5t-179 183.5t-63 278t68.5 283.5t192 194.5t282.5 70q148 0 256.5 -63.5t165 -176.5t53.5 -258h-651zM418 624h292q-1 156 -34.5 234t-98.5 78
q-145 0 -159 -312zM923 1484l-278 -342h-87l-279 342l83 28l238 -148l238 148z" />
    <glyph glyph-name="uni0229" unicode="&#x229;" horiz-adv-x="1116" 
d="M416 553v-3q0 -186 59.5 -306t193.5 -120q164 0 309 171l67 -81q-74 -108 -193 -172.5t-289 -64.5h-7l-48 -66q87 -7 144 -47t57 -114q0 -57 -46.5 -106t-134 -77.5t-206.5 -28.5l-9 64q73 5 112.5 39t39.5 79q0 33 -27.5 58t-67.5 33l-10 24l113 148
q-130 18 -225.5 86.5t-147 179.5t-51.5 254q0 159 68.5 283.5t192 194.5t282.5 70q148 0 256.5 -63.5t165 -176.5t53.5 -258h-651zM418 624h292q-1 156 -34.5 234t-98.5 78q-145 0 -159 -312z" />
    <glyph glyph-name="uni1E1D" unicode="&#x1e1d;" horiz-adv-x="1116" 
d="M441 1199.5q-66 43.5 -100.5 120t-36.5 176.5l85 4q15 -66 61.5 -98.5t150.5 -32.5t150.5 32.5t62.5 98.5l84 -4q-3 -100 -37 -177t-100 -120t-160 -43t-160 43.5zM416 553v-3q0 -186 59.5 -306t193.5 -120q164 0 309 171l67 -81q-74 -108 -193 -172.5t-289 -64.5h-7
l-48 -66q87 -7 144 -47t57 -114q0 -57 -46.5 -106t-134 -77.5t-206.5 -28.5l-9 64q73 5 112.5 39t39.5 79q0 33 -27.5 58t-67.5 33l-10 24l113 148q-130 18 -225.5 86.5t-147 179.5t-51.5 254q0 159 68.5 283.5t192 194.5t282.5 70q148 0 256.5 -63.5t165 -176.5t53.5 -258
h-651zM418 624h292q-1 156 -34.5 234t-98.5 78q-145 0 -159 -312z" />
    <glyph glyph-name="ecircumflex" unicode="&#xea;" horiz-adv-x="1116" 
d="M416 553v-3q0 -186 59.5 -306t193.5 -120q164 0 309 171l67 -81q-74 -108 -193 -172.5t-289 -64.5q-156 0 -272 64.5t-179 183.5t-63 278t68.5 283.5t192 194.5t282.5 70q148 0 256.5 -63.5t165 -176.5t53.5 -258h-651zM418 624h292q-1 156 -34.5 234t-98.5 78
q-145 0 -159 -312zM273 1170l278 342h87l279 -342l-83 -28l-238 148l-238 -148z" />
    <glyph glyph-name="uni1EBF" unicode="&#x1ebf;" horiz-adv-x="1116" 
d="M1195 1627l-261 -319l-65 7l117 337zM596 1290l-238 -148l-85 28l278 342h87l279 -342l-83 -28zM848.5 987.5q108.5 -63.5 165 -176.5t53.5 -258h-651v-3q0 -186 59.5 -306t193.5 -120q164 0 309 171l67 -81q-74 -108 -193 -172.5t-289 -64.5q-156 0 -272 64.5
t-179 183.5t-63 278t68.5 283.5t192 194.5t282.5 70q148 0 256.5 -63.5zM710 624q-1 156 -34.5 234t-98.5 78q-145 0 -159 -312h292z" />
    <glyph glyph-name="uni1E19" unicode="&#x1e19;" horiz-adv-x="1116" 
d="M416 553v-3q0 -186 59.5 -306t193.5 -120q164 0 309 171l67 -81q-74 -108 -193 -172.5t-289 -64.5q-156 0 -272 64.5t-179 183.5t-63 278t68.5 283.5t192 194.5t282.5 70q148 0 256.5 -63.5t165 -176.5t53.5 -258h-651zM418 624h292q-1 156 -34.5 234t-98.5 78
q-145 0 -159 -312zM210 -449l278 342h87l279 -342l-83 -28l-238 148l-238 -148z" />
    <glyph glyph-name="uni1EC7" unicode="&#x1ec7;" horiz-adv-x="1116" 
d="M416 553v-3q0 -186 59.5 -306t193.5 -120q164 0 309 171l67 -81q-74 -108 -193 -172.5t-289 -64.5q-156 0 -272 64.5t-179 183.5t-63 278t68.5 283.5t192 194.5t282.5 70q148 0 256.5 -63.5t165 -176.5t53.5 -258h-651zM418 624h292q-1 156 -34.5 234t-98.5 78
q-145 0 -159 -312zM448.5 -443.5q-38.5 19.5 -60.5 54t-22 77.5q0 41 22.5 75t60.5 53.5t84 19.5t85 -19.5t61.5 -53.5t22.5 -75q0 -43 -22.5 -77.5t-61 -54t-85.5 -19.5q-46 0 -84.5 19.5zM273 1170l278 342h87l279 -342l-83 -28l-238 148l-238 -148z" />
    <glyph glyph-name="uni1EC1" unicode="&#x1ec1;" horiz-adv-x="1116" 
d="M367 1315l-64 -7l-261 313l208 24zM358 1142l-85 28l278 342h87l279 -342l-83 -28l-238 148zM416 553v-3q0 -186 59.5 -306t193.5 -120q164 0 309 171l67 -81q-74 -108 -193 -172.5t-289 -64.5q-156 0 -272 64.5t-179 183.5t-63 278t68.5 283.5t192 194.5t282.5 70
q148 0 256.5 -63.5t165 -176.5t53.5 -258h-651zM418 624h292q-1 156 -34.5 234t-98.5 78q-145 0 -159 -312z" />
    <glyph glyph-name="uni1EC3" unicode="&#x1ec3;" horiz-adv-x="1116" 
d="M416 553v-3q0 -186 59.5 -306t193.5 -120q164 0 309 171l67 -81q-74 -108 -193 -172.5t-289 -64.5q-156 0 -272 64.5t-179 183.5t-63 278t68.5 283.5t192 194.5t282.5 70q148 0 256.5 -63.5t165 -176.5t53.5 -258h-651zM418 624h292q-1 156 -34.5 234t-98.5 78
q-145 0 -159 -312zM273 1170l278 342h87l279 -342l-83 -28l-238 148l-238 -148zM950 1392q21 32 21 74q0 43 -17 64t-45 21q-22 0 -42.5 -6.5t-46.5 -25.5l-11 58q38 20 75 28t79 8q89 0 136.5 -34t47.5 -100q0 -53 -49.5 -105t-153.5 -83l-59 23q44 46 65 78z" />
    <glyph glyph-name="uni1EC5" unicode="&#x1ec5;" horiz-adv-x="1116" 
d="M416 553v-3q0 -186 59.5 -306t193.5 -120q164 0 309 171l67 -81q-74 -108 -193 -172.5t-289 -64.5q-156 0 -272 64.5t-179 183.5t-63 278t68.5 283.5t192 194.5t282.5 70q148 0 256.5 -63.5t165 -176.5t53.5 -258h-651zM418 624h292q-1 156 -34.5 234t-98.5 78
q-145 0 -159 -312zM273 1170l278 342h87l279 -342l-83 -28l-238 148l-238 -148zM342.5 1780.5q59.5 69.5 158.5 69.5q27 0 54.5 -11t69.5 -33q40 -20 64 -30t47 -10q84 0 117 86l86 -5q-20 -129 -78.5 -198t-159.5 -69q-28 0 -57 11.5t-71 33.5q-39 20 -63 29.5t-46 9.5
q-40 0 -70 -21.5t-46 -64.5l-87 5q22 128 81.5 197.5z" />
    <glyph glyph-name="uni0205" unicode="&#x205;" horiz-adv-x="1116" 
d="M416 553v-3q0 -186 59.5 -306t193.5 -120q164 0 309 171l67 -81q-74 -108 -193 -172.5t-289 -64.5q-156 0 -272 64.5t-179 183.5t-63 278t68.5 283.5t192 194.5t282.5 70q148 0 256.5 -63.5t165 -176.5t53.5 -258h-651zM418 624h292q-1 156 -34.5 234t-98.5 78
q-145 0 -159 -312zM854 1141l-93 -8l-303 258l128 -255l-92 -8l-373 317l298 24l8 -16l259 21z" />
    <glyph glyph-name="edieresis" unicode="&#xeb;" horiz-adv-x="1116" 
d="M416 553v-3q0 -186 59.5 -306t193.5 -120q164 0 309 171l67 -81q-74 -108 -193 -172.5t-289 -64.5q-156 0 -272 64.5t-179 183.5t-63 278t68.5 283.5t192 194.5t282.5 70q148 0 256.5 -63.5t165 -176.5t53.5 -258h-651zM418 624h292q-1 156 -34.5 234t-98.5 78
q-145 0 -159 -312zM286.5 1171q-35.5 18 -56 50t-20.5 72q0 39 20.5 70.5t56 49.5t78.5 18t79 -18t57.5 -50t21.5 -70q0 -40 -21 -72t-57 -50t-80 -18q-43 0 -78.5 18zM718.5 1192.5q-44.5 39.5 -44.5 100.5q0 39 20.5 70.5t56 49.5t78.5 18t79 -18t57 -50t21 -70
q0 -61 -45 -100.5t-112 -39.5q-66 0 -110.5 39.5z" />
    <glyph glyph-name="edotaccent" unicode="&#x117;" horiz-adv-x="1116" 
d="M416 553v-3q0 -186 59.5 -306t193.5 -120q164 0 309 171l67 -81q-74 -108 -193 -172.5t-289 -64.5q-156 0 -272 64.5t-179 183.5t-63 278t68.5 283.5t192 194.5t282.5 70q148 0 256.5 -63.5t165 -176.5t53.5 -258h-651zM418 624h292q-1 156 -34.5 234t-98.5 78
q-145 0 -159 -312zM514.5 1170q-37.5 19 -59.5 53.5t-22 77.5q0 41 22 75t60 53.5t83 19.5q46 0 85 -19.5t61.5 -53.5t22.5 -75q0 -43 -22.5 -77.5t-61 -53.5t-85.5 -19q-46 0 -83.5 19z" />
    <glyph glyph-name="uni1EB9" unicode="&#x1eb9;" horiz-adv-x="1116" 
d="M416 553v-3q0 -186 59.5 -306t193.5 -120q164 0 309 171l67 -81q-74 -108 -193 -172.5t-289 -64.5q-156 0 -272 64.5t-179 183.5t-63 278t68.5 283.5t192 194.5t282.5 70q148 0 256.5 -63.5t165 -176.5t53.5 -258h-651zM418 624h292q-1 156 -34.5 234t-98.5 78
q-145 0 -159 -312zM448.5 -443.5q-38.5 19.5 -60.5 54t-22 77.5q0 41 22.5 75t60.5 53.5t84 19.5t85 -19.5t61.5 -53.5t22.5 -75q0 -43 -22.5 -77.5t-61 -54t-85.5 -19.5q-46 0 -84.5 19.5z" />
    <glyph glyph-name="egrave" unicode="&#xe8;" horiz-adv-x="1116" 
d="M416 553v-3q0 -186 59.5 -306t193.5 -120q164 0 309 171l67 -81q-74 -108 -193 -172.5t-289 -64.5q-156 0 -272 64.5t-179 183.5t-63 278t68.5 283.5t192 194.5t282.5 70q148 0 256.5 -63.5t165 -176.5t53.5 -258h-651zM418 624h292q-1 156 -34.5 234t-98.5 78
q-145 0 -159 -312zM219 1492l317 26l177 -354l-98 -8z" />
    <glyph glyph-name="uni1EBB" unicode="&#x1ebb;" horiz-adv-x="1116" 
d="M416 553v-3q0 -186 59.5 -306t193.5 -120q164 0 309 171l67 -81q-74 -108 -193 -172.5t-289 -64.5q-156 0 -272 64.5t-179 183.5t-63 278t68.5 283.5t192 194.5t282.5 70q148 0 256.5 -63.5t165 -176.5t53.5 -258h-651zM418 624h292q-1 156 -34.5 234t-98.5 78
q-145 0 -159 -312zM572 1281q21 32 21 74q0 43 -17 64t-45 21q-22 0 -42.5 -6.5t-46.5 -25.5l-11 58q38 20 75 28t79 8q89 0 136.5 -34t47.5 -100q0 -53 -49.5 -105t-153.5 -83l-59 23q44 46 65 78z" />
    <glyph glyph-name="uni0207" unicode="&#x207;" horiz-adv-x="1116" 
d="M416 553v-3q0 -186 59.5 -306t193.5 -120q164 0 309 171l67 -81q-74 -108 -193 -172.5t-289 -64.5q-156 0 -272 64.5t-179 183.5t-63 278t68.5 283.5t192 194.5t282.5 70q148 0 256.5 -63.5t165 -176.5t53.5 -258h-651zM418 624h292q-1 156 -34.5 234t-98.5 78
q-145 0 -159 -312zM760 1459q66 -43 100 -120t37 -177l-84 -4q-16 66 -62.5 98.5t-150.5 32.5t-150.5 -32.5t-61.5 -98.5l-85 4q2 100 36.5 176.5t100.5 120t160 43.5t160 -43z" />
    <glyph glyph-name="emacron" unicode="&#x113;" horiz-adv-x="1116" 
d="M416 553v-3q0 -186 59.5 -306t193.5 -120q164 0 309 171l67 -81q-74 -108 -193 -172.5t-289 -64.5q-156 0 -272 64.5t-179 183.5t-63 278t68.5 283.5t192 194.5t282.5 70q148 0 256.5 -63.5t165 -176.5t53.5 -258h-651zM418 624h292q-1 156 -34.5 234t-98.5 78
q-145 0 -159 -312zM214 1364h774v-127h-774v127z" />
    <glyph glyph-name="uni1E17" unicode="&#x1e17;" horiz-adv-x="1116" 
d="M416 553v-3q0 -186 59.5 -306t193.5 -120q164 0 309 171l67 -81q-74 -108 -193 -172.5t-289 -64.5q-156 0 -272 64.5t-179 183.5t-63 278t68.5 283.5t192 194.5t282.5 70q148 0 256.5 -63.5t165 -176.5t53.5 -258h-651zM418 624h292q-1 156 -34.5 234t-98.5 78
q-145 0 -159 -312zM214 1364h774v-127h-774v127zM541 1461l-98 8l178 354l317 -26z" />
    <glyph glyph-name="uni1E15" unicode="&#x1e15;" horiz-adv-x="1116" 
d="M416 553v-3q0 -186 59.5 -306t193.5 -120q164 0 309 171l67 -81q-74 -108 -193 -172.5t-289 -64.5q-156 0 -272 64.5t-179 183.5t-63 278t68.5 283.5t192 194.5t282.5 70q148 0 256.5 -63.5t165 -176.5t53.5 -258h-651zM418 624h292q-1 156 -34.5 234t-98.5 78
q-145 0 -159 -312zM214 1364h774v-127h-774v127zM219 1800l317 26l177 -354l-98 -8z" />
    <glyph glyph-name="eogonek" unicode="&#x119;" horiz-adv-x="1116" 
d="M416 553v-3q0 -186 59.5 -306t193.5 -120q164 0 309 171l67 -81q-88 -128 -228 -189q-62 -47 -87 -91.5t-25 -93.5q0 -45 27 -73.5t74 -28.5q54 0 118 60l45 -47q-53 -63 -124 -102t-150 -39q-56 0 -104.5 21.5t-78 62.5t-29.5 95q0 98 112 189q-11 -1 -32 -1
q-156 0 -272 64.5t-179 183.5t-63 278t68.5 283.5t192 194.5t282.5 70q148 0 256.5 -63.5t165 -176.5t53.5 -258h-651zM418 624h292q-1 156 -34.5 234t-98.5 78q-145 0 -159 -312z" />
    <glyph glyph-name="uni1EBD" unicode="&#x1ebd;" horiz-adv-x="1116" 
d="M416 553v-3q0 -186 59.5 -306t193.5 -120q164 0 309 171l67 -81q-74 -108 -193 -172.5t-289 -64.5q-156 0 -272 64.5t-179 183.5t-63 278t68.5 283.5t192 194.5t282.5 70q148 0 256.5 -63.5t165 -176.5t53.5 -258h-651zM418 624h292q-1 156 -34.5 234t-98.5 78
q-145 0 -159 -312zM342.5 1370.5q59.5 69.5 158.5 69.5q27 0 54.5 -11t69.5 -33q40 -20 64 -30t47 -10q84 0 117 86l86 -5q-20 -129 -78.5 -198t-159.5 -69q-28 0 -57 11.5t-71 33.5q-39 20 -63 29.5t-46 9.5q-40 0 -70 -21.5t-46 -64.5l-87 5q22 128 81.5 197.5z" />
    <glyph glyph-name="uni1E1B" unicode="&#x1e1b;" horiz-adv-x="1116" 
d="M416 553v-3q0 -186 59.5 -306t193.5 -120q164 0 309 171l67 -81q-74 -108 -193 -172.5t-289 -64.5q-156 0 -272 64.5t-179 183.5t-63 278t68.5 283.5t192 194.5t282.5 70q148 0 256.5 -63.5t165 -176.5t53.5 -258h-651zM418 624h292q-1 156 -34.5 234t-98.5 78
q-145 0 -159 -312zM274.5 -230.5q59.5 69.5 158.5 69.5q27 0 54.5 -11t69.5 -33q40 -20 64 -30t47 -10q84 0 117 86l86 -5q-20 -129 -78.5 -198t-159.5 -69q-28 0 -57 11.5t-71 33.5q-39 20 -63 29.5t-46 9.5q-40 0 -70 -21.5t-46 -64.5l-87 5q22 128 81.5 197.5z" />
    <glyph glyph-name="uni0292" unicode="&#x292;" horiz-adv-x="1151" 
d="M870 387q119 -60 178 -160.5t59 -227.5q0 -132 -81.5 -232t-227.5 -154.5t-334 -54.5q-117 0 -227.5 36.5t-181.5 97.5l50 121q69 -55 167 -87.5t192 -33.5q128 0 188 75t60 198q0 90 -47.5 163t-136 114.5t-206.5 39.5v96l315 337h-531v310l923 1l3 -105l-455 -468
q174 -6 293 -66z" />
    <glyph glyph-name="uni01EF" unicode="&#x1ef;" horiz-adv-x="1151" 
d="M870 387q119 -60 178 -160.5t59 -227.5q0 -132 -81.5 -232t-227.5 -154.5t-334 -54.5q-117 0 -227.5 36.5t-181.5 97.5l50 121q69 -55 167 -87.5t192 -33.5q128 0 188 75t60 198q0 90 -47.5 163t-136 114.5t-206.5 39.5v96l315 337h-531v310l923 1l3 -105l-455 -468
q174 -6 293 -66zM872 1490l-278 -342h-87l-279 342l83 28l238 -148l238 148z" />
    <glyph glyph-name="uni0066_uni0304" horiz-adv-x="756" 
d="M19 921v105h121q-30 56 -46.5 105.5t-16.5 97.5q0 92 51 158t149.5 101t237.5 35q89 0 173 -24.5t146 -74.5l-49 -91q-54 36 -116.5 53t-120.5 17t-91 -35t-33 -91q0 -106 101 -251h228v-105h-225v-921h-387v921h-122zM80 1844h774v-127h-774v127z" />
    <glyph glyph-name="uni1E1F" unicode="&#x1e1f;" horiz-adv-x="756" 
d="M19 921v105h121q-30 56 -46.5 105.5t-16.5 97.5q0 92 51 158t149.5 101t237.5 35q89 0 173 -24.5t146 -74.5l-49 -91q-54 36 -116.5 53t-120.5 17t-91 -35t-33 -91q0 -106 101 -251h228v-105h-225v-921h-387v921h-122zM380.5 1651q-37.5 19 -59.5 53.5t-22 77.5
q0 41 22 75t60 53.5t83 19.5q46 0 85 -19.5t61.5 -53.5t22.5 -75q0 -43 -22.5 -77.5t-61 -53.5t-85.5 -19q-46 0 -83.5 19z" />
    <glyph glyph-name="uni01F5" unicode="&#x1f5;" horiz-adv-x="1195" 
d="M1073.5 164.5q117.5 -77.5 117.5 -231.5q0 -113 -74.5 -195.5t-213.5 -126.5t-330 -44q-240 0 -374.5 72.5t-173.5 198.5q54 80 204 130q-70 29 -110 81t-40 128q0 79 54 134t146 97q-92 45 -143 119.5t-51 174.5q0 109 63.5 188t173.5 120t245 41q85 0 162 -18t140 -52
l240 149l60 -93l-207 -125q89 -89 89 -213q0 -104 -59.5 -183.5t-169 -123.5t-254.5 -44q-118 0 -219 32q-22 -19 -33 -34.5t-11 -33.5q0 -41 43 -55.5t121 -14.5h264q223 0 340.5 -77.5zM473.5 884.5q-29.5 -61.5 -29.5 -186.5t29.5 -185.5t94.5 -60.5q64 0 94 61t30 185
q0 125 -30.5 186.5t-94.5 61.5t-93.5 -61.5zM831.5 -286.5q76.5 38.5 76.5 113.5q0 55 -53.5 77t-144.5 22l-262 1q-74 2 -136 16q-38 -20 -76 -41.5t-64 -40.5q77 -187 403 -187h36q144 1 220.5 39.5zM529 1160l-98 8l178 354l317 -26z" />
    <glyph glyph-name="gbreve" unicode="&#x11f;" horiz-adv-x="1195" 
d="M1073.5 164.5q117.5 -77.5 117.5 -231.5q0 -113 -74.5 -195.5t-213.5 -126.5t-330 -44q-240 0 -374.5 72.5t-173.5 198.5q54 80 204 130q-70 29 -110 81t-40 128q0 79 54 134t146 97q-92 45 -143 119.5t-51 174.5q0 109 63.5 188t173.5 120t245 41q85 0 162 -18t140 -52
l240 149l60 -93l-207 -125q89 -89 89 -213q0 -104 -59.5 -183.5t-169 -123.5t-254.5 -44q-118 0 -219 32q-22 -19 -33 -34.5t-11 -33.5q0 -41 43 -55.5t121 -14.5h264q223 0 340.5 -77.5zM473.5 884.5q-29.5 -61.5 -29.5 -186.5t29.5 -185.5t94.5 -60.5q64 0 94 61t30 185
q0 125 -30.5 186.5t-94.5 61.5t-93.5 -61.5zM831.5 -286.5q76.5 38.5 76.5 113.5q0 55 -53.5 77t-144.5 22l-262 1q-74 2 -136 16q-38 -20 -76 -41.5t-64 -40.5q77 -187 403 -187h36q144 1 220.5 39.5zM429 1206.5q-66 43.5 -100.5 120t-36.5 176.5l85 4q15 -66 61.5 -98.5
t150.5 -32.5t150.5 32.5t62.5 98.5l84 -4q-3 -100 -37 -177t-100 -120t-160 -43t-160 43.5z" />
    <glyph glyph-name="gcaron" unicode="&#x1e7;" horiz-adv-x="1195" 
d="M1073.5 164.5q117.5 -77.5 117.5 -231.5q0 -113 -74.5 -195.5t-213.5 -126.5t-330 -44q-240 0 -374.5 72.5t-173.5 198.5q54 80 204 130q-70 29 -110 81t-40 128q0 79 54 134t146 97q-92 45 -143 119.5t-51 174.5q0 109 63.5 188t173.5 120t245 41q85 0 162 -18t140 -52
l240 149l60 -93l-207 -125q89 -89 89 -213q0 -104 -59.5 -183.5t-169 -123.5t-254.5 -44q-118 0 -219 32q-22 -19 -33 -34.5t-11 -33.5q0 -41 43 -55.5t121 -14.5h264q223 0 340.5 -77.5zM473.5 884.5q-29.5 -61.5 -29.5 -186.5t29.5 -185.5t94.5 -60.5q64 0 94 61t30 185
q0 125 -30.5 186.5t-94.5 61.5t-93.5 -61.5zM831.5 -286.5q76.5 38.5 76.5 113.5q0 55 -53.5 77t-144.5 22l-262 1q-74 2 -136 16q-38 -20 -76 -41.5t-64 -40.5q77 -187 403 -187h36q144 1 220.5 39.5zM911 1491l-278 -342h-87l-279 342l83 28l238 -148l238 148z" />
    <glyph glyph-name="gcircumflex" unicode="&#x11d;" horiz-adv-x="1195" 
d="M1073.5 164.5q117.5 -77.5 117.5 -231.5q0 -113 -74.5 -195.5t-213.5 -126.5t-330 -44q-240 0 -374.5 72.5t-173.5 198.5q54 80 204 130q-70 29 -110 81t-40 128q0 79 54 134t146 97q-92 45 -143 119.5t-51 174.5q0 109 63.5 188t173.5 120t245 41q85 0 162 -18t140 -52
l240 149l60 -93l-207 -125q89 -89 89 -213q0 -104 -59.5 -183.5t-169 -123.5t-254.5 -44q-118 0 -219 32q-22 -19 -33 -34.5t-11 -33.5q0 -41 43 -55.5t121 -14.5h264q223 0 340.5 -77.5zM473.5 884.5q-29.5 -61.5 -29.5 -186.5t29.5 -185.5t94.5 -60.5q64 0 94 61t30 185
q0 125 -30.5 186.5t-94.5 61.5t-93.5 -61.5zM831.5 -286.5q76.5 38.5 76.5 113.5q0 55 -53.5 77t-144.5 22l-262 1q-74 2 -136 16q-38 -20 -76 -41.5t-64 -40.5q77 -187 403 -187h36q144 1 220.5 39.5zM261 1177l278 342h87l279 -342l-83 -28l-238 148l-238 -148z" />
    <glyph glyph-name="uni0123" unicode="&#x123;" horiz-adv-x="1195" 
d="M451.5 1200.5q-25.5 44.5 -25.5 99.5q0 104 79.5 178.5t218.5 105.5l20 -70q-92 -39 -92 -105q0 -29 20.5 -57.5t69.5 -69.5l-222 -156q-43 30 -68.5 74.5zM1073.5 164.5q117.5 -77.5 117.5 -231.5q0 -113 -74.5 -195.5t-213.5 -126.5t-330 -44q-240 0 -374.5 72.5
t-173.5 198.5q54 80 204 130q-70 29 -110 81t-40 128q0 79 54 134t146 97q-92 45 -143 119.5t-51 174.5q0 109 63.5 188t173.5 120t245 41q85 0 162 -18t140 -52l240 149l60 -93l-207 -125q89 -89 89 -213q0 -104 -59.5 -183.5t-169 -123.5t-254.5 -44q-118 0 -219 32
q-22 -19 -33 -34.5t-11 -33.5q0 -41 43 -55.5t121 -14.5h264q223 0 340.5 -77.5zM473.5 884.5q-29.5 -61.5 -29.5 -186.5t29.5 -185.5t94.5 -60.5q64 0 94 61t30 185q0 125 -30.5 186.5t-94.5 61.5t-93.5 -61.5zM831.5 -286.5q76.5 38.5 76.5 113.5q0 55 -53.5 77t-144.5 22
l-262 1q-74 2 -136 16q-38 -20 -76 -41.5t-64 -40.5q77 -187 403 -187h36q144 1 220.5 39.5z" />
    <glyph glyph-name="gdotaccent" unicode="&#x121;" horiz-adv-x="1195" 
d="M1073.5 164.5q117.5 -77.5 117.5 -231.5q0 -113 -74.5 -195.5t-213.5 -126.5t-330 -44q-240 0 -374.5 72.5t-173.5 198.5q54 80 204 130q-70 29 -110 81t-40 128q0 79 54 134t146 97q-92 45 -143 119.5t-51 174.5q0 109 63.5 188t173.5 120t245 41q85 0 162 -18t140 -52
l240 149l60 -93l-207 -125q89 -89 89 -213q0 -104 -59.5 -183.5t-169 -123.5t-254.5 -44q-118 0 -219 32q-22 -19 -33 -34.5t-11 -33.5q0 -41 43 -55.5t121 -14.5h264q223 0 340.5 -77.5zM473.5 884.5q-29.5 -61.5 -29.5 -186.5t29.5 -185.5t94.5 -60.5q64 0 94 61t30 185
q0 125 -30.5 186.5t-94.5 61.5t-93.5 -61.5zM831.5 -286.5q76.5 38.5 76.5 113.5q0 55 -53.5 77t-144.5 22l-262 1q-74 2 -136 16q-38 -20 -76 -41.5t-64 -40.5q77 -187 403 -187h36q144 1 220.5 39.5zM502.5 1177q-37.5 19 -59.5 53.5t-22 77.5q0 41 22 75t60 53.5t83 19.5
q46 0 85 -19.5t61.5 -53.5t22.5 -75q0 -43 -22.5 -77.5t-61 -53.5t-85.5 -19q-46 0 -83.5 19z" />
    <glyph glyph-name="uni1E21" unicode="&#x1e21;" horiz-adv-x="1195" 
d="M962 1371v-128h-745v128h745zM1073.5 164.5q117.5 -77.5 117.5 -231.5q0 -113 -74.5 -195.5t-213.5 -126.5t-330 -44q-240 0 -374.5 72.5t-173.5 198.5q54 80 204 130q-70 29 -110 81t-40 128q0 79 54 134t146 97q-92 45 -143 119.5t-51 174.5q0 109 63.5 188t173.5 120
t245 41q85 0 162 -18t140 -52l240 149l60 -93l-207 -125q89 -89 89 -213q0 -104 -59.5 -183.5t-169 -123.5t-254.5 -44q-118 0 -219 32q-22 -19 -33 -34.5t-11 -33.5q0 -41 43 -55.5t121 -14.5h264q223 0 340.5 -77.5zM473.5 884.5q-29.5 -61.5 -29.5 -186.5t29.5 -185.5
t94.5 -60.5q64 0 94 61t30 185q0 125 -30.5 186.5t-94.5 61.5t-93.5 -61.5zM831.5 -286.5q76.5 38.5 76.5 113.5q0 55 -53.5 77t-144.5 22l-262 1q-74 2 -136 16q-38 -20 -76 -41.5t-64 -40.5q77 -187 403 -187h36q144 1 220.5 39.5z" />
    <glyph glyph-name="uni021D" unicode="&#x21d;" horiz-adv-x="1151" 
d="M870 387q119 -60 178 -160.5t59 -227.5q0 -132 -81.5 -232t-227.5 -154.5t-334 -54.5q-117 0 -227.5 36.5t-181.5 97.5l50 121q69 -55 167 -87.5t192 -33.5q128 0 188 75t60 198q0 90 -47.5 163t-136 114.5t-206.5 39.5v96l315 337h-531v310l923 1l3 -105l-455 -468
q174 -6 293 -66z" />
    <glyph glyph-name="hbar" unicode="&#x127;" horiz-adv-x="1274" 
d="M1020 1014q72 -37 112 -111t40 -181v-722h-386v701q0 68 -32 105.5t-91 37.5q-100 0 -165 -83v-761h-387v1177h-170v112h170v214h387v-214h189v-112h-189v-287q78 86 167 123.5t188 37.5q95 0 167 -37z" />
    <glyph glyph-name="uni1E2B" unicode="&#x1e2b;" horiz-adv-x="1274" 
d="M1020 1014q72 -37 112 -111t40 -181v-722h-386v701q0 68 -32 105.5t-91 37.5q-100 0 -165 -83v-761h-387v1503h387v-613q78 86 167 123.5t188 37.5q95 0 167 -37zM479 -401.5q-66 43.5 -100.5 120t-36.5 176.5l85 4q15 -66 61.5 -98.5t150.5 -32.5t150.5 32.5t62.5 98.5
l84 -4q-3 -100 -37 -177t-100 -120t-160 -43t-160 43.5z" />
    <glyph glyph-name="uni021F" unicode="&#x21f;" horiz-adv-x="1274" 
d="M1020 1014q72 -37 112 -111t40 -181v-722h-386v701q0 68 -32 105.5t-91 37.5q-100 0 -165 -83v-761h-387v1503h387v-613q78 86 167 123.5t188 37.5q95 0 167 -37zM1220 1558l-278 -342h-87l-279 342l83 28l238 -148l238 148z" />
    <glyph glyph-name="uni1E29" unicode="&#x1e29;" horiz-adv-x="1274" 
d="M1020 1014q72 -37 112 -111t40 -181v-722h-386v701q0 68 -32 105.5t-91 37.5q-100 0 -165 -83v-761h-114l-64 -89q87 -7 144 -47t57 -114q0 -57 -46.5 -106t-134 -77.5t-206.5 -28.5l-9 64q73 5 112 39t39 79q0 33 -27 58t-67 33l-11 24l127 165h-187v1503h387v-613
q78 86 167 123.5t188 37.5q95 0 167 -37z" />
    <glyph glyph-name="hcircumflex" unicode="&#x125;" horiz-adv-x="1274" 
d="M1020 1014q72 -37 112 -111t40 -181v-722h-386v701q0 68 -32 105.5t-91 37.5q-100 0 -165 -83v-761h-387v1503h387v-613q78 86 167 123.5t188 37.5q95 0 167 -37zM258 1909h91l293 -295l-87 -25l-250 128l-248 -128l-90 25z" />
    <glyph glyph-name="uni1E27" unicode="&#x1e27;" horiz-adv-x="1274" 
d="M1020 1014q72 -37 112 -111t40 -181v-722h-386v701q0 68 -32 105.5t-91 37.5q-100 0 -165 -83v-761h-387v1503h387v-613q78 86 167 123.5t188 37.5q95 0 167 -37zM-10.5 1600q-35.5 18 -56 50t-20.5 72q0 39 20.5 70.5t56 49.5t78.5 18t79 -18t57.5 -50t21.5 -70
q0 -40 -21 -72t-57 -50t-80 -18q-43 0 -78.5 18zM421.5 1621.5q-44.5 39.5 -44.5 100.5q0 39 20.5 70.5t56 49.5t78.5 18t79 -18t57 -50t21 -70q0 -61 -45 -100.5t-112 -39.5q-66 0 -110.5 39.5z" />
    <glyph glyph-name="uni1E23" unicode="&#x1e23;" horiz-adv-x="1274" 
d="M1020 1014q72 -37 112 -111t40 -181v-722h-386v701q0 68 -32 105.5t-91 37.5q-100 0 -165 -83v-761h-387v1503h387v-613q78 86 167 123.5t188 37.5q95 0 167 -37zM834.5 1252q-37.5 19 -59.5 53.5t-22 77.5q0 41 22 75t60 53.5t83 19.5q46 0 85 -19.5t61.5 -53.5
t22.5 -75q0 -43 -22.5 -77.5t-61 -53.5t-85.5 -19q-46 0 -83.5 19z" />
    <glyph glyph-name="uni1E25" unicode="&#x1e25;" horiz-adv-x="1274" 
d="M1020 1014q72 -37 112 -111t40 -181v-722h-386v701q0 68 -32 105.5t-91 37.5q-100 0 -165 -83v-761h-387v1503h387v-613q78 86 167 123.5t188 37.5q95 0 167 -37zM555.5 -443.5q-38.5 19.5 -60.5 54t-22 77.5q0 41 22.5 75t60.5 53.5t84 19.5t85 -19.5t61.5 -53.5
t22.5 -75q0 -43 -22.5 -77.5t-61 -54t-85.5 -19.5q-46 0 -84.5 19.5z" />
    <glyph glyph-name="uni1E96" unicode="&#x1e96;" horiz-adv-x="1274" 
d="M1020 1014q72 -37 112 -111t40 -181v-722h-386v701q0 68 -32 105.5t-91 37.5q-100 0 -165 -83v-761h-387v1503h387v-613q78 86 167 123.5t188 37.5q95 0 167 -37zM245 -198h774v-127h-774v127z" />
    <glyph glyph-name="iacute" unicode="&#xed;" horiz-adv-x="610" 
d="M111 1026h388v-1026h-388v1026zM244 1159l-98 8l178 354l317 -26z" />
    <glyph glyph-name="ibreve" unicode="&#x12d;" horiz-adv-x="610" 
d="M111 1026h388v-1026h-388v1026zM146 1205.5q-66 43.5 -100.5 120t-36.5 176.5l85 4q15 -66 61.5 -98.5t150.5 -32.5t150.5 32.5t62.5 98.5l84 -4q-3 -100 -37 -177t-100 -120t-160 -43t-160 43.5z" />
    <glyph glyph-name="uni01D0" unicode="&#x1d0;" horiz-adv-x="610" 
d="M111 1026h388v-1026h-388v1026zM628 1490l-278 -342h-87l-279 342l83 28l238 -148l238 148z" />
    <glyph glyph-name="icircumflex" unicode="&#xee;" horiz-adv-x="610" 
d="M111 1026h388v-1026h-388v1026zM-23 1176l278 342h87l279 -342l-83 -28l-238 148l-238 -148z" />
    <glyph glyph-name="uni0209" unicode="&#x209;" horiz-adv-x="610" 
d="M111 1026h388v-1026h-388v1026zM558 1147l-93 -8l-303 258l128 -255l-92 -8l-373 317l298 24l8 -16l259 21z" />
    <glyph glyph-name="idieresis" unicode="&#xef;" horiz-adv-x="610" 
d="M111 1026h388v-1026h-388v1026zM-9.5 1176q-35.5 18 -56 50t-20.5 72q0 39 20.5 70.5t56 49.5t78.5 18t79 -18t57.5 -50t21.5 -70q0 -40 -21 -72t-57 -50t-80 -18q-43 0 -78.5 18zM422.5 1197.5q-44.5 39.5 -44.5 100.5q0 39 20.5 70.5t56 49.5t78.5 18t79 -18t57 -50
t21 -70q0 -61 -45 -100.5t-112 -39.5q-66 0 -110.5 39.5z" />
    <glyph glyph-name="uni1E2F" unicode="&#x1e2f;" horiz-adv-x="610" 
d="M111 1026h388v-1026h-388v1026zM-9.5 1176q-35.5 18 -56 50t-20.5 72q0 39 20.5 70.5t56 49.5t78.5 18t79 -18t57.5 -50t21.5 -70q0 -40 -21 -72t-57 -50t-80 -18q-43 0 -78.5 18zM422.5 1197.5q-44.5 39.5 -44.5 100.5q0 39 20.5 70.5t56 49.5t78.5 18t79 -18t57 -50
t21 -70q0 -61 -45 -100.5t-112 -39.5q-66 0 -110.5 39.5zM244 1547l-98 8l178 354l317 -26z" />
    <glyph glyph-name="i.loclTRK" horiz-adv-x="610" 
d="M111 1026h388v-1026h-388v1026zM219.5 1176q-37.5 19 -59.5 53.5t-22 77.5q0 41 22 75t60 53.5t83 19.5q46 0 85 -19.5t61.5 -53.5t22.5 -75q0 -43 -22.5 -77.5t-61 -53.5t-85.5 -19q-46 0 -83.5 19z" />
    <glyph glyph-name="uni1ECB" unicode="&#x1ecb;" horiz-adv-x="610" 
d="M191 1164q-51 26 -80.5 72t-29.5 103q0 56 30 101.5t81 72t112 26.5q62 0 114 -26.5t82.5 -72t30.5 -101.5q0 -57 -30 -103t-82 -72t-115 -26q-62 0 -113 26zM111 1026h388v-1026h-388v1026zM221.5 -443.5q-38.5 19.5 -60.5 54t-22 77.5q0 41 22.5 75t60.5 53.5t84 19.5
t85 -19.5t61.5 -53.5t22.5 -75q0 -43 -22.5 -77.5t-61 -54t-85.5 -19.5q-46 0 -84.5 19.5z" />
    <glyph glyph-name="igrave" unicode="&#xec;" horiz-adv-x="610" 
d="M111 1026h388v-1026h-388v1026zM-77 1498l317 26l177 -354l-98 -8z" />
    <glyph glyph-name="uni1EC9" unicode="&#x1ec9;" horiz-adv-x="610" 
d="M111 1026h388v-1026h-388v1026zM277 1287q21 32 21 74q0 43 -17 64t-45 21q-22 0 -42.5 -6.5t-46.5 -25.5l-11 58q38 20 75 28t79 8q89 0 136.5 -34t47.5 -100q0 -53 -49.5 -105t-153.5 -83l-59 23q44 46 65 78z" />
    <glyph glyph-name="uni020B" unicode="&#x20b;" horiz-adv-x="610" 
d="M111 1026h388v-1026h-388v1026zM464 1465q66 -43 100 -120t37 -177l-84 -4q-16 66 -62.5 98.5t-150.5 32.5t-150.5 -32.5t-61.5 -98.5l-85 4q2 100 36.5 176.5t100.5 120t160 43.5t160 -43z" />
    <glyph glyph-name="ij" unicode="&#x133;" horiz-adv-x="1228" 
d="M191 1164q-51 26 -80.5 72t-29.5 103q0 56 30 101.5t81 72t112 26.5q62 0 114 -26.5t82.5 -72t30.5 -101.5q0 -57 -30 -103t-82 -72t-115 -26q-62 0 -113 26zM111 1026h388v-1026h-388v1026zM643 -257q65 46 88 107q0 140 -1 200v976h387v-877q0 -146 -79.5 -269
t-217 -206t-307.5 -116l-26 115q91 24 156 70zM808 1165.5q-52 26.5 -82 73.5t-30 105q0 57 30 103.5t82 73t115 26.5t116 -27t83.5 -73.5t30.5 -102.5q0 -58 -30.5 -105t-83.5 -73.5t-116 -26.5t-115 26.5z" />
    <glyph glyph-name="imacron" unicode="&#x12b;" horiz-adv-x="610" 
d="M111 1026h388v-1026h-388v1026zM-81 1370h774v-127h-774v127z" />
    <glyph glyph-name="iogonek" unicode="&#x12f;" horiz-adv-x="610" 
d="M219.5 1176q-37.5 19 -59.5 53.5t-22 77.5q0 41 22 75t60 53.5t83 19.5q46 0 85 -19.5t61.5 -53.5t22.5 -75q0 -43 -22.5 -77.5t-61 -53.5t-85.5 -19q-46 0 -83.5 19zM598 -311q-53 -63 -124 -102t-150 -39q-56 0 -104.5 21.5t-78 62.5t-29.5 95q0 145 244 273h-245v1026
h388v-1026q-92 -58 -128.5 -110.5t-36.5 -111.5q0 -45 27 -73.5t74 -28.5q54 0 118 60z" />
    <glyph glyph-name="itilde" unicode="&#x129;" horiz-adv-x="610" 
d="M111 1026h388v-1026h-388v1026zM47.5 1376.5q59.5 69.5 158.5 69.5q27 0 54.5 -11t69.5 -33q40 -20 64 -30t47 -10q84 0 117 86l86 -5q-20 -129 -78.5 -198t-159.5 -69q-28 0 -57 11.5t-71 33.5q-39 20 -63 29.5t-46 9.5q-40 0 -70 -21.5t-46 -64.5l-87 5
q22 128 81.5 197.5z" />
    <glyph glyph-name="uni1E2D" unicode="&#x1e2d;" horiz-adv-x="610" 
d="M191 1164q-51 26 -80.5 72t-29.5 103q0 56 30 101.5t81 72t112 26.5q62 0 114 -26.5t82.5 -72t30.5 -101.5q0 -57 -30 -103t-82 -72t-115 -26q-62 0 -113 26zM111 1026h388v-1026h-388v1026zM46.5 -230.5q59.5 69.5 158.5 69.5q27 0 54.5 -11t69.5 -33q40 -20 64 -30
t47 -10q84 0 117 86l86 -5q-20 -129 -78.5 -198t-159.5 -69q-28 0 -57 11.5t-71 33.5q-39 20 -63 29.5t-46 9.5q-40 0 -70 -21.5t-46 -64.5l-87 5q22 128 81.5 197.5z" />
    <glyph glyph-name="j_acutecomb" horiz-adv-x="618" 
d="M33 -257q65 46 88 107q0 140 -1 200v976h387v-877q0 -146 -79.5 -269t-217 -206t-307.5 -116l-26 115q91 24 156 70zM198 1165.5q-52 26.5 -82 73.5t-30 105q0 57 30 103.5t82 73t115 26.5t116 -27t83.5 -73.5t30.5 -102.5q0 -58 -30.5 -105t-83.5 -73.5t-116 -26.5
t-115 26.5zM257 1625l-98 8l178 354l317 -26z" />
    <glyph glyph-name="uni01F0" unicode="&#x1f0;" horiz-adv-x="618" 
d="M33 -257q65 46 88 107q0 140 -1 200v976h387v-877q0 -146 -79.5 -269t-217 -206t-307.5 -116l-26 115q91 24 156 70zM636 1490l-278 -342h-87l-279 342l83 28l238 -148l238 148z" />
    <glyph glyph-name="jcircumflex" unicode="&#x135;" horiz-adv-x="618" 
d="M33 -257q65 46 88 107q0 140 -1 200v976h387v-877q0 -146 -79.5 -269t-217 -206t-307.5 -116l-26 115q91 24 156 70zM-14 1176l278 342h87l279 -342l-83 -28l-238 148l-238 -148z" />
    <glyph glyph-name="uni1E31" unicode="&#x1e31;" horiz-adv-x="1280" 
d="M843 715l424 -704v-11h-455l-227 443l-87 -91v-352h-387v1503h387v-981l451 504h188zM563 1602l154 267l281 -19l-348 -254z" />
    <glyph glyph-name="uni01E9" unicode="&#x1e9;" horiz-adv-x="1280" 
d="M843 715l424 -704v-11h-455l-227 443l-87 -91v-352h-387v1503h387v-981l451 504h188zM686 1599h-91l-292 293l86 25l250 -127l249 127l89 -25z" />
    <glyph glyph-name="uni0137" unicode="&#x137;" horiz-adv-x="1280" 
d="M843 715l424 -704v-11h-455l-227 443l-87 -91v-352h-387v1503h387v-981l451 504h188zM763.5 -155q22.5 -39 22.5 -88q0 -91 -70 -156.5t-192 -92.5l-17 61q80 35 80 93q0 25 -18 50t-61 61l195 137q38 -26 60.5 -65z" />
    <glyph glyph-name="uni1E33" unicode="&#x1e33;" horiz-adv-x="1280" 
d="M843 715l424 -704v-11h-455l-227 443l-87 -91v-352h-387v1503h387v-981l451 504h188zM553.5 -443.5q-38.5 19.5 -60.5 54t-22 77.5q0 41 22.5 75t60.5 53.5t84 19.5t85 -19.5t61.5 -53.5t22.5 -75q0 -43 -22.5 -77.5t-61 -54t-85.5 -19.5q-46 0 -84.5 19.5z" />
    <glyph glyph-name="kgreenlandic" unicode="&#x138;" horiz-adv-x="1296" 
d="M810 699l473 -688v-11h-454l-254 437l-77 -82v-355h-387v1026h387v-518l433 518h190z" />
    <glyph glyph-name="uni1E35" unicode="&#x1e35;" horiz-adv-x="1280" 
d="M843 715l424 -704v-11h-455l-227 443l-87 -91v-352h-387v1503h387v-981l451 504h188zM243 -198h774v-127h-774v127z" />
    <glyph glyph-name="lacute" unicode="&#x13a;" horiz-adv-x="610" 
d="M111 1503h387v-1503h-387v1503zM249 1583l154 267l281 -19l-348 -254z" />
    <glyph glyph-name="lcaron" unicode="&#x13e;" horiz-adv-x="886" 
d="M498 1503v-1503h-387v1503h387zM627 1502h269l-85 -420h-90z" />
    <glyph glyph-name="uni1E3D" unicode="&#x1e3d;" horiz-adv-x="610" 
d="M111 1503h387v-1503h-387v1503zM6 -449l278 342h87l279 -342l-83 -28l-238 148l-238 -148z" />
    <glyph glyph-name="uni013C" unicode="&#x13c;" horiz-adv-x="610" 
d="M111 1503h387v-1503h-387v1503zM455.5 -155q22.5 -39 22.5 -88q0 -91 -70 -156.5t-192 -92.5l-17 61q80 35 80 93q0 25 -18 50t-61 61l195 137q38 -26 60.5 -65z" />
    <glyph glyph-name="ldot" unicode="&#x140;" horiz-adv-x="943" 
d="M111 1503h387v-1503h-387v1503zM687 598.5q-41 22.5 -64 62.5t-23 91q0 50 22.5 89.5t63.5 62t94 22.5q51 0 92 -23t64 -62.5t23 -88.5q0 -51 -23 -91t-64 -62.5t-92 -22.5q-52 0 -93 22.5z" />
    <glyph glyph-name="uni1E37" unicode="&#x1e37;" horiz-adv-x="610" 
d="M111 1503h387v-1503h-387v1503zM245.5 -443.5q-38.5 19.5 -60.5 54t-22 77.5q0 41 22.5 75t60.5 53.5t84 19.5t85 -19.5t61.5 -53.5t22.5 -75q0 -43 -22.5 -77.5t-61 -54t-85.5 -19.5q-46 0 -84.5 19.5z" />
    <glyph glyph-name="uni1E39" unicode="&#x1e39;" horiz-adv-x="610" 
d="M111 1503h387v-1503h-387v1503zM245.5 -443.5q-38.5 19.5 -60.5 54t-22 77.5q0 41 22.5 75t60.5 53.5t84 19.5t85 -19.5t61.5 -53.5t22.5 -75q0 -43 -22.5 -77.5t-61 -54t-85.5 -19.5q-46 0 -84.5 19.5zM-69 1752h774v-127h-774v127z" />
    <glyph glyph-name="uni026E" unicode="&#x26e;" horiz-adv-x="1636" 
d="M1356 387q119 -60 178 -160.5t59 -227.5q0 -132 -81.5 -232t-228 -154.5t-334.5 -54.5q-117 0 -227.5 36.5t-181.5 97.5l51 121q68 -55 166.5 -87.5t191.5 -33.5q128 0 188 75t60 198q0 90 -47.5 163t-136 114.5t-205.5 39.5v96l315 337h-625v-715h-387v1503h387v-478
l1017 1l2 -105l-454 -468q174 -6 293 -66z" />
    <glyph glyph-name="uni01C9" unicode="&#x1c9;" horiz-adv-x="1228" 
d="M111 1503h387v-1503h-387v1503zM643 -257q65 46 88 107q0 140 -1 200v976h387v-877q0 -146 -79.5 -269t-217 -206t-307.5 -116l-26 115q91 24 156 70zM808 1165.5q-52 26.5 -82 73.5t-30 105q0 57 30 103.5t82 73t115 26.5t116 -27t83.5 -73.5t30.5 -102.5
q0 -58 -30.5 -105t-83.5 -73.5t-116 -26.5t-115 26.5z" />
    <glyph glyph-name="uni1E3B" unicode="&#x1e3b;" horiz-adv-x="610" 
d="M111 1503h387v-1503h-387v1503zM-66 -198h774v-127h-774v127z" />
    <glyph glyph-name="lslash" unicode="&#x142;" horiz-adv-x="610" 
d="M691 1048v-110l-193 -125v-813h-387v563l-140 -91v110l140 91v830h387v-580z" />
    <glyph glyph-name="uni006D_uni0310" horiz-adv-x="1881" 
d="M1631.5 1010q71.5 -41 109.5 -115.5t38 -172.5v-722h-386v698q0 68 -27.5 106.5t-76.5 38.5q-91 0 -152 -85q1 -12 1 -36v-722h-386v700q0 68 -27 106t-76 38q-44 0 -82.5 -23.5t-68.5 -66.5v-754h-387v1026h115l201 -221q175 246 394 246q107 0 182.5 -49t109.5 -135
q80 100 164.5 142t184.5 42q98 0 169.5 -41zM777 1205.5q-66 43.5 -100.5 120t-36.5 176.5l85 4q15 -66 61.5 -98.5t150.5 -32.5t150.5 32.5t62.5 98.5l84 -4q-3 -100 -37 -177t-100 -120t-160 -43t-160 43.5zM850.5 1548q-37.5 19 -59.5 53.5t-22 77.5q0 41 22 75t60 53.5
t83 19.5q46 0 85 -19.5t61.5 -53.5t22.5 -75q0 -43 -22.5 -77.5t-61 -53.5t-85.5 -19q-46 0 -83.5 19z" />
    <glyph glyph-name="uni1E3F" unicode="&#x1e3f;" horiz-adv-x="1880" 
d="M1631.5 1010q71.5 -41 109.5 -115.5t38 -172.5v-722h-386v698q0 68 -27.5 106.5t-76.5 38.5q-91 0 -152 -85q1 -12 1 -36v-722h-386v700q0 68 -27 106t-76 38q-44 0 -82.5 -23.5t-68.5 -66.5v-754h-387v1026h115l201 -221q175 246 394 246q107 0 182.5 -49t109.5 -135
q80 100 164.5 142t184.5 42q98 0 169.5 -41zM876 1159l-98 8l178 354l317 -26z" />
    <glyph glyph-name="uni1E41" unicode="&#x1e41;" horiz-adv-x="1881" 
d="M1631.5 1010q71.5 -41 109.5 -115.5t38 -172.5v-722h-386v698q0 68 -27.5 106.5t-76.5 38.5q-91 0 -152 -85q1 -12 1 -36v-722h-386v700q0 68 -27 106t-76 38q-44 0 -82.5 -23.5t-68.5 -66.5v-754h-387v1026h115l201 -221q175 246 394 246q107 0 182.5 -49t109.5 -135
q80 100 164.5 142t184.5 42q98 0 169.5 -41zM850.5 1176q-37.5 19 -59.5 53.5t-22 77.5q0 41 22 75t60 53.5t83 19.5q46 0 85 -19.5t61.5 -53.5t22.5 -75q0 -43 -22.5 -77.5t-61 -53.5t-85.5 -19q-46 0 -83.5 19z" />
    <glyph glyph-name="uni1E43" unicode="&#x1e43;" horiz-adv-x="1881" 
d="M1631.5 1010q71.5 -41 109.5 -115.5t38 -172.5v-722h-386v698q0 68 -27.5 106.5t-76.5 38.5q-91 0 -152 -85q1 -12 1 -36v-722h-386v700q0 68 -27 106t-76 38q-44 0 -82.5 -23.5t-68.5 -66.5v-754h-387v1026h115l201 -221q175 246 394 246q107 0 182.5 -49t109.5 -135
q80 100 164.5 142t184.5 42q98 0 169.5 -41zM858.5 -443.5q-38.5 19.5 -60.5 54t-22 77.5q0 41 22.5 75t60.5 53.5t84 19.5t85 -19.5t61.5 -53.5t22.5 -75q0 -43 -22.5 -77.5t-61 -54t-85.5 -19.5q-46 0 -84.5 19.5z" />
    <glyph glyph-name="uni006E_uni0304" horiz-adv-x="1274" 
d="M1028.5 1008.5q71.5 -42.5 107.5 -115.5t36 -165v-728h-386v701q0 67 -32 105t-91 38q-51 0 -91.5 -20t-73.5 -62v-762h-387v1026h115l196 -216q185 241 433 241q102 0 173.5 -42.5zM251 1370h774v-127h-774v127z" />
    <glyph glyph-name="nacute" unicode="&#x144;" horiz-adv-x="1274" 
d="M1028.5 1008.5q71.5 -42.5 107.5 -115.5t36 -165v-728h-386v701q0 67 -32 105t-91 38q-51 0 -91.5 -20t-73.5 -62v-762h-387v1026h115l196 -216q185 241 433 241q102 0 173.5 -42.5zM578 1159l-98 8l178 354l317 -26z" />
    <glyph glyph-name="napostrophe" unicode="&#x149;" horiz-adv-x="1274" 
d="M265 1213q-66 -66 -198 -111l-26 47q93 48 93 150q0 35 -17 71.5t-45 58.5l193 94q66 -55 66 -152q0 -92 -66 -158zM1028.5 1008.5q71.5 -42.5 107.5 -115.5t36 -165v-728h-386v701q0 67 -32 105t-91 38q-51 0 -91.5 -20t-73.5 -62v-762h-387v1026h115l196 -216
q185 241 433 241q102 0 173.5 -42.5z" />
    </font>
</defs>
</svg>
