<svg xmlns="http://www.w3.org/2000/svg" width="88" height="192" viewBox="0 0 88 192">
    <g fill="none" fill-rule="evenodd">
        <g>
            <g>
                <g transform="translate(-145 -561) translate(117 563)">
                    <g stroke="#000" stroke-linecap="round" stroke-width="3">
                        <path d="M18.168 9.117C18.168 4.082 14.1 0 9.084 0 4.067 0 0 4.082 0 9.117" transform="translate(53.946 159.33) matrix(1 0 0 -1 0 9.117)"/>
                        <path d="M36.109 9.117c0-5.035-4.016-9.117-8.97-9.117-4.955 0-8.971 4.082-8.971 9.117" transform="translate(53.946 159.33) rotate(180 27.138 4.559)"/>
                    </g>
                    <g transform="rotate(-26 263.875 60.054)">
                        <ellipse cx="53.476" cy="53.736" stroke="#000" stroke-width="3" rx="41.702" ry="41.598" transform="rotate(-20 53.476 53.736)"/>
                        <ellipse cx="30.979" cy="43.094" fill="#000" rx="2.6" ry="2.592"/>
                        <ellipse cx="75.809" cy="64.974" fill="#000" rx="2.6" ry="2.592"/>
                    </g>
                    <ellipse cx="72" cy="157.594" fill="#000" rx="3.698" ry="1.737"/>
                    <path stroke="#000" stroke-width="3" d="M46.124 108.97c2.85-49.043 4.277-77.762 4.277-86.156 0-12.592.933-23.272-4.286-22.799-5.219.473-4.286 10.207-4.286 22.799 0 8.394 1.432 37.113 4.295 86.156zM97.894 108.97c2.851-49.043 4.277-77.762 4.277-86.156 0-12.592.933-23.272-4.286-22.799C92.666.488 93.6 10.222 93.6 22.814c0 8.394 1.432 37.113 4.295 86.156h0z"/>
                </g>
            </g>
        </g>
    </g>
</svg>
